999
dxfrw 0.5.10
0
SECTION
  2
HEADER
9
$ACADVER
  1
AC1021
  9
$MEASUREMENT
  70
  1
  9
$INSUNITS
  70
  4
9
$HANDSEED
  5
20000
0
ENDSEC
 0
SECTION
2
CLASSES
0
ENDSEC
 0
SECTION
 2
TABLES
0
TABLE
2
VPORT
5
8
330
0
100
AcDbSymbolTable
70
1
0
VPORT
5
31
330
2
100
AcDbSymbolTableRecord
100
AcDbViewportTableRecord
2
*ACTIVE
70
0
10
0
20
0
11
1
21
1
12
209.475294253
22
86.0026335861
13
0
23
0
14
10
24
10
15
10
25
10
16
0
26
0
36
1
17
0
27
0
37
0
40
319.744231092
41
2.12946428571
42
50
43
0
44
0
50
0
51
0
71
0
72
100
73
1
74
3
75
0
76
0
77
0
78
0
281
0
65
1
110
0
120
0
130
0
111
1
121
0
131
0
112
0
122
1
132
0
79
0
146
0
348
10020
60
7
61
5
292
1
282
1
141
0
142
0
63
250
421
3358443
0
ENDTAB
0
TABLE
2
LTYPE
5
5
330
0
100
AcDbSymbolTable
70
4
0
LTYPE
5
14
330
5
100
AcDbSymbolTableRecord
100
AcDbLinetypeTableRecord
2
ByBlock
70
0
3

72
65
73
0
40
0
0
LTYPE
5
15
330
5
100
AcDbSymbolTableRecord
100
AcDbLinetypeTableRecord
2
ByLayer
70
0
3
 
72
65
73
0
40
0
0
LTYPE
5
16
330
5
100
AcDbSymbolTableRecord
100
AcDbLinetypeTableRecord
2
Continuous
70
0
3
Solid line
72
65
73
0
40
0.0
0
LTYPE
5
 0000009d
100
AcDbSymbolTableRecord
100
AcDbLinetypeTableRecord
2
DOT
70
0
3
Dot . . . . . . . . . . . . . . . . . . . . . .
72
65
73
2
40
 3.0
49
 1.0
74
 0
49
 0.0
74
 0
0
LTYPE
5
 0000009e
100
AcDbSymbolTableRecord
100
AcDbLinetypeTableRecord
2
DASHED
70
0
3
Dashed __ __ __ __ __ __ __ __ __ __ __ __ __ _
72
65
73
2
40
1.0
49
 0.55
74
0
49
-0.45
74
0
0
ENDTAB
0
TABLE
2
LAYER
5
10
330
0
100
AcDbSymbolTable
70
1
0
LAYER
5
 0000009f
330
 2
100
AcDbSymbolTableRecord
100
AcDbLayerTableRecord
2
0
70
0
62
7
6
CONTINUOUS
370
 -3,0
390
F
0
LAYER
5
 000000a0
330
 2
100
AcDbSymbolTableRecord
100
AcDbLayerTableRecord
2
contour007
70
0
62
7
6
CONTINUOUS
370
 0,1
390
F
0
LAYER
5
 000000a1
330
 2
100
AcDbSymbolTableRecord
100
AcDbLayerTableRecord
2
reference_cross001
70
0
62
1
6
CONTINUOUS
370
 0,1
390
F
0
ENDTAB
0
TABLE
2
STYLE
5
3
330
0
100
AcDbSymbolTable
70
3
0
STYLE
5
45
330
2
100
AcDbSymbolTableRecord
100
AcDbTextStyleTableRecord
2
Standard
70
0
40
0
41
1
50
0
71
0
42
1
3
txt
4
 
0
ENDTAB
0
TABLE
2
VIEW
5
6
330
0
100
AcDbSymbolTable
70
0
0
ENDTAB
0
TABLE
2
UCS
5
7
330
0
100
AcDbSymbolTable
70
0
0
ENDTAB
0
TABLE
2
APPID
5
9
330
0
100
AcDbSymbolTable
70
1
0
APPID
5
12
330
9
100
AcDbSymbolTableRecord
100
AcDbRegAppTableRecord
2
ACAD
70
0
0
ENDTAB
0
TABLE
2
DIMSTYLE
5
A
330
0
100
AcDbSymbolTable
70
1
100
AcDbDimStyleTable
71
1
0
DIMSTYLE
105
46
330
A
100
AcDbSymbolTableRecord
100
AcDbDimStyleTableRecord
2
Standard
70
0
40
1
41
0.18
42
0.0625
43
0.38
44
0.18
45
0
46
0
47
0
48
0
140
0.18
141
0.09
142
0
143
25.4
144
1
145
0
146
1
147
0.09
148
0
71
0
72
0
73
0
74
1
75
0
76
0
77
0
78
0
79
0
170
0
171
2
172
0
173
0
174
0
175
0
176
0
177
0
178
0
179
0
271
4
272
4
273
2
274
2
275
0
276
0
277
2
278
46
279
0
280
0
281
0
282
0
283
1
284
0
285
0
286
0
288
0
289
3
340
Standard
341
 
371
-2
372
-2
0
ENDTAB
0
TABLE
2
BLOCK_RECORD
5
1
330
0
100
AcDbSymbolTable
70
2
0
BLOCK_RECORD
5
1F
330
1
100
AcDbSymbolTableRecord
100
AcDbBlockTableRecord
2
*Model_Space
70
0
280
1
281
0
0
BLOCK_RECORD
5
1E
330
1
100
AcDbSymbolTableRecord
100
AcDbBlockTableRecord
2
*Paper_Space
70
0
280
1
281
0
0
ENDTAB
0
ENDSEC
0
SECTION
2
BLOCKS
0
BLOCK
5
20
330
1F
100
AcDbEntity
8
0
100
AcDbBlockBegin
2
*Model_Space
70
0
10
0
20
0
30
0
3
*Model_Space
1
 
0
ENDBLK
5
21
330
1F
100
AcDbEntity
8
0
100
AcDbBlockEnd
0
BLOCK
5
1C
330
1B
100
AcDbEntity
8
0
100
AcDbBlockBegin
2
*Paper_Space
70
0
10
0
20
0
30
0
3
*Paper_Space
1
 
0
ENDBLK
5
1D
330
1E
100
AcDbEntity
8
0
100
AcDbBlockEnd
0
ENDSEC
0
SECTION
  2
ENTITIES
0
ARC
  5
000000a2
 39
 0.100 
 100
AcDbEntity
8
contour007
 6
CONTINUOUS
100
AcDbCircle
 10
482.000000000000
 20
42.600000000000
 30
 0
 40
1.000000000000
100
AcDbArc
 50
360.000000000000
 51
90.000000000000
0
LINE
  5
000000a3
 39
 0.100 
 100
AcDbEntity
8
contour007
 6
CONTINUOUS
 100
AcDbLine
 10
483.000000000000
 20
1.000000000000
 30
 0.0
 11
483.000000000000
 21
42.600000000000
 31
0.0
0
ARC
  5
000000a4
 39
 0.100 
 100
AcDbEntity
8
contour007
 6
CONTINUOUS
100
AcDbCircle
 10
482.000000000000
 20
1.000000000000
 30
 0
 40
1.000000000000
100
AcDbArc
 50
270.000000000000
 51
0.000000000000
0
LINE
  5
000000a5
 39
 0.100 
 100
AcDbEntity
8
contour007
 6
CONTINUOUS
 100
AcDbLine
 10
1.000000000000
 20
0.000000000000
 30
 0.0
 11
482.000000000000
 21
0.000000000000
 31
0.0
0
ARC
  5
000000a6
 39
 0.100 
 100
AcDbEntity
8
contour007
 6
CONTINUOUS
100
AcDbCircle
 10
1.000000000000
 20
1.000000000000
 30
 0
 40
1.000000000000
100
AcDbArc
 50
540.000000000000
 51
270.000000000000
0
LINE
  5
000000a7
 39
 0.100 
 100
AcDbEntity
8
contour007
 6
CONTINUOUS
 100
AcDbLine
 10
0.000000000000
 20
42.600000000000
 30
 0.0
 11
0.000000000000
 21
1.000000000000
 31
0.0
0
ARC
  5
000000a8
 39
 0.100 
 100
AcDbEntity
8
contour007
 6
CONTINUOUS
100
AcDbCircle
 10
1.000000000000
 20
42.600000000000
 30
 0
 40
1.000000000000
100
AcDbArc
 50
450.000000000000
 51
180.000000000000
0
LINE
  5
000000a9
 39
 0.100 
 100
AcDbEntity
8
contour007
 6
CONTINUOUS
 100
AcDbLine
 10
482.000000000000
 20
43.600000000000
 30
 0.0
 11
1.000000000000
 21
43.600000000000
 31
0.0
0
ARC
  5
000000aa
 39
 0.100 
 100
AcDbEntity
8
contour007
 6
CONTINUOUS
100
AcDbCircle
 10
9.000000000000
 20
5.950000000000
 30
 0
 40
5.249526169094
100
AcDbArc
 50
140.061670631814
 51
219.938329368186
0
ARC
  5
000000ab
 39
 0.100 
 100
AcDbEntity
8
contour007
 6
CONTINUOUS
100
AcDbCircle
 10
5.895380406601
 20
3.349999939705
 30
 0
 40
1.200000000000
100
AcDbArc
 50
219.916207444700
 51
269.981836922415
0
LINE
  5
000000ac
 39
 0.100 
 100
AcDbEntity
8
contour007
 6
CONTINUOUS
 100
AcDbLine
 10
12.105000000000
 20
2.150000000000
 30
 0.0
 11
5.895000000000
 21
2.150000000000
 31
0.0
0
ARC
  5
000000ad
 39
 0.100 
 100
AcDbEntity
8
contour007
 6
CONTINUOUS
100
AcDbCircle
 10
12.104619593399
 20
3.349999939705
 30
 0
 40
1.200000000000
100
AcDbArc
 50
270.018163077585
 51
320.083792555300
0
ARC
  5
000000ae
 39
 0.100 
 100
AcDbEntity
8
contour007
 6
CONTINUOUS
100
AcDbCircle
 10
9.000000000000
 20
5.950000000000
 30
 0
 40
5.249526169094
100
AcDbArc
 50
320.061670631814
 51
399.938329368186
0
ARC
  5
000000af
 39
 0.100 
 100
AcDbEntity
8
contour007
 6
CONTINUOUS
100
AcDbCircle
 10
12.104619593399
 20
8.550000060295
 30
 0
 40
1.200000000000
100
AcDbArc
 50
39.916207444699
 51
89.981836922415
0
LINE
  5
000000b0
 39
 0.100 
 100
AcDbEntity
8
contour007
 6
CONTINUOUS
 100
AcDbLine
 10
5.895000000000
 20
9.750000000000
 30
 0.0
 11
12.105000000000
 21
9.750000000000
 31
0.0
0
ARC
  5
000000b1
 39
 0.100 
 100
AcDbEntity
8
contour007
 6
CONTINUOUS
100
AcDbCircle
 10
5.895380406601
 20
8.550000060295
 30
 0
 40
1.200000000000
100
AcDbArc
 50
90.018163077585
 51
140.083792555300
0
ARC
  5
000000b2
 39
 0.100 
 100
AcDbEntity
8
contour007
 6
CONTINUOUS
100
AcDbCircle
 10
9.000000000000
 20
37.650000000000
 30
 0
 40
5.249526169094
100
AcDbArc
 50
140.061670631814
 51
219.938329368186
0
ARC
  5
000000b3
 39
 0.100 
 100
AcDbEntity
8
contour007
 6
CONTINUOUS
100
AcDbCircle
 10
5.895380406601
 20
35.049999939705
 30
 0
 40
1.200000000000
100
AcDbArc
 50
219.916207444700
 51
269.981836922415
0
LINE
  5
000000b4
 39
 0.100 
 100
AcDbEntity
8
contour007
 6
CONTINUOUS
 100
AcDbLine
 10
12.105000000000
 20
33.850000000000
 30
 0.0
 11
5.895000000000
 21
33.850000000000
 31
0.0
0
ARC
  5
000000b5
 39
 0.100 
 100
AcDbEntity
8
contour007
 6
CONTINUOUS
100
AcDbCircle
 10
12.104619593399
 20
35.049999939705
 30
 0
 40
1.200000000000
100
AcDbArc
 50
270.018163077585
 51
320.083792555300
0
ARC
  5
000000b6
 39
 0.100 
 100
AcDbEntity
8
contour007
 6
CONTINUOUS
100
AcDbCircle
 10
9.000000000000
 20
37.650000000000
 30
 0
 40
5.249526169094
100
AcDbArc
 50
320.061670631814
 51
399.938329368186
0
ARC
  5
000000b7
 39
 0.100 
 100
AcDbEntity
8
contour007
 6
CONTINUOUS
100
AcDbCircle
 10
12.104619593399
 20
40.250000060295
 30
 0
 40
1.200000000000
100
AcDbArc
 50
39.916207444699
 51
89.981836922414
0
LINE
  5
000000b8
 39
 0.100 
 100
AcDbEntity
8
contour007
 6
CONTINUOUS
 100
AcDbLine
 10
5.895000000000
 20
41.450000000000
 30
 0.0
 11
12.105000000000
 21
41.450000000000
 31
0.0
0
ARC
  5
000000b9
 39
 0.100 
 100
AcDbEntity
8
contour007
 6
CONTINUOUS
100
AcDbCircle
 10
5.895380406601
 20
40.250000060295
 30
 0
 40
1.200000000000
100
AcDbArc
 50
90.018163077585
 51
140.083792555300
0
LWPOLYLINE
  5
000000ba
 39
 0.100 
 100
AcDbEntity
8
contour007
 6
CONTINUOUS
100
AcDbPolyline
 90
265
 70
8
 10
32.913000000000
 20
3.833000000000
 10
32.974000000000
 20
3.836000000000
 10
33.033000000000
 20
3.841000000000
 10
33.237000000000
 20
3.861000000000
 10
33.297000000000
 20
3.868000000000
 10
33.357000000000
 20
3.877000000000
 10
33.408000000000
 20
3.886000000000
 10
33.609000000000
 20
3.925000000000
 10
33.669000000000
 20
3.937000000000
 10
33.728000000000
 20
3.952000000000
 10
33.774000000000
 20
3.965000000000
 10
33.970000000000
 20
4.022000000000
 10
34.028000000000
 20
4.040000000000
 10
34.085000000000
 20
4.059000000000
 10
34.140000000000
 20
4.080000000000
 10
34.330000000000
 20
4.156000000000
 10
34.386000000000
 20
4.180000000000
 10
34.441000000000
 20
4.205000000000
 10
34.492000000000
 20
4.230000000000
 10
34.674000000000
 20
4.324000000000
 10
34.728000000000
 20
4.353000000000
 10
34.780000000000
 20
4.384000000000
 10
34.828000000000
 20
4.414000000000
 10
35.000000000000
 20
4.525000000000
 10
35.051000000000
 20
4.558000000000
 10
35.100000000000
 20
4.594000000000
 10
35.137000000000
 20
4.622000000000
 10
35.298000000000
 20
4.748000000000
 10
35.345000000000
 20
4.786000000000
 10
35.391000000000
 20
4.826000000000
 10
35.434000000000
 20
4.866000000000
 10
35.582000000000
 20
5.007000000000
 10
35.625000000000
 20
5.049000000000
 10
35.667000000000
 20
5.093000000000
 10
35.706000000000
 20
5.136000000000
 10
35.840000000000
 20
5.291000000000
 10
35.879000000000
 20
5.338000000000
 10
35.916000000000
 20
5.386000000000
 10
35.947000000000
 20
5.427000000000
 10
36.066000000000
 20
5.594000000000
 10
36.100000000000
 20
5.645000000000
 10
36.133000000000
 20
5.696000000000
 10
36.162000000000
 20
5.744000000000
 10
36.264000000000
 20
5.921000000000
 10
36.293000000000
 20
5.974000000000
 10
36.321000000000
 20
6.029000000000
 10
36.344000000000
 20
6.076000000000
 10
36.429000000000
 20
6.262000000000
 10
36.453000000000
 20
6.318000000000
 10
36.476000000000
 20
6.374000000000
 10
36.494000000000
 20
6.424000000000
 10
36.561000000000
 20
6.617000000000
 10
36.580000000000
 20
6.675000000000
 10
36.597000000000
 20
6.733000000000
 10
36.611000000000
 20
6.790000000000
 10
36.659000000000
 20
6.989000000000
 10
36.673000000000
 20
7.049000000000
 10
36.684000000000
 20
7.108000000000
 10
36.692000000000
 20
7.161000000000
 10
36.721000000000
 20
7.364000000000
 10
36.729000000000
 20
7.425000000000
 10
36.735000000000
 20
7.485000000000
 10
36.738000000000
 20
7.535000000000
 10
36.748000000000
 20
7.739000000000
 10
36.750000000000
 20
7.800000000000
 10
36.750000000000
 20
7.861000000000
 10
36.748000000000
 20
7.921000000000
 10
36.738000000000
 20
8.125000000000
 10
36.734000000000
 20
8.185000000000
 10
36.728000000000
 20
8.246000000000
 10
36.721000000000
 20
8.296000000000
 10
36.692000000000
 20
8.499000000000
 10
36.683000000000
 20
8.559000000000
 10
36.671000000000
 20
8.618000000000
 10
36.659000000000
 20
8.671000000000
 10
36.611000000000
 20
8.870000000000
 10
36.596000000000
 20
8.929000000000
 10
36.579000000000
 20
8.987000000000
 10
36.561000000000
 20
9.043000000000
 10
36.494000000000
 20
9.236000000000
 10
36.473000000000
 20
9.293000000000
 10
36.450000000000
 20
9.349000000000
 10
36.429000000000
 20
9.398000000000
 10
36.344000000000
 20
9.584000000000
 10
36.317000000000
 20
9.639000000000
 10
36.289000000000
 20
9.693000000000
 10
36.264000000000
 20
9.739000000000
 10
36.162000000000
 20
9.916000000000
 10
36.131000000000
 20
9.968000000000
 10
36.098000000000
 20
10.019000000000
 10
36.066000000000
 20
10.066000000000
 10
35.947000000000
 20
10.233000000000
 10
35.911000000000
 20
10.282000000000
 10
35.873000000000
 20
10.329000000000
 10
35.840000000000
 20
10.369000000000
 10
35.706000000000
 20
10.524000000000
 10
35.665000000000
 20
10.569000000000
 10
35.623000000000
 20
10.613000000000
 10
35.582000000000
 20
10.653000000000
 10
35.434000000000
 20
10.794000000000
 10
35.389000000000
 20
10.836000000000
 10
35.343000000000
 20
10.875000000000
 10
35.298000000000
 20
10.912000000000
 10
35.137000000000
 20
11.038000000000
 10
35.089000000000
 20
11.075000000000
 10
35.039000000000
 20
11.110000000000
 10
35.000000000000
 20
11.135000000000
 10
34.828000000000
 20
11.246000000000
 10
34.776000000000
 20
11.279000000000
 10
34.724000000000
 20
11.309000000000
 10
34.674000000000
 20
11.336000000000
 10
34.492000000000
 20
11.430000000000
 10
34.437000000000
 20
11.457000000000
 10
34.382000000000
 20
11.482000000000
 10
34.330000000000
 20
11.504000000000
 10
34.140000000000
 20
11.580000000000
 10
34.083000000000
 20
11.601000000000
 10
34.026000000000
 20
11.621000000000
 10
33.970000000000
 20
11.638000000000
 10
33.774000000000
 20
11.695000000000
 10
33.715000000000
 20
11.711000000000
 10
33.656000000000
 20
11.726000000000
 10
33.609000000000
 20
11.735000000000
 10
33.408000000000
 20
11.774000000000
 10
33.348000000000
 20
11.785000000000
 10
33.288000000000
 20
11.793000000000
 10
33.237000000000
 20
11.799000000000
 10
33.033000000000
 20
11.819000000000
 10
32.972000000000
 20
11.824000000000
 10
32.911000000000
 20
11.827000000000
 10
32.852000000000
 20
11.828000000000
 10
32.648000000000
 20
11.828000000000
 10
32.587000000000
 20
11.827000000000
 10
32.526000000000
 20
11.824000000000
 10
32.467000000000
 20
11.819000000000
 10
32.263000000000
 20
11.799000000000
 10
32.203000000000
 20
11.792000000000
 10
32.143000000000
 20
11.783000000000
 10
32.092000000000
 20
11.774000000000
 10
31.891000000000
 20
11.735000000000
 10
31.831000000000
 20
11.723000000000
 10
31.772000000000
 20
11.708000000000
 10
31.726000000000
 20
11.695000000000
 10
31.530000000000
 20
11.638000000000
 10
31.472000000000
 20
11.620000000000
 10
31.415000000000
 20
11.601000000000
 10
31.360000000000
 20
11.580000000000
 10
31.170000000000
 20
11.504000000000
 10
31.114000000000
 20
11.480000000000
 10
31.059000000000
 20
11.455000000000
 10
31.008000000000
 20
11.430000000000
 10
30.826000000000
 20
11.336000000000
 10
30.772000000000
 20
11.307000000000
 10
30.720000000000
 20
11.276000000000
 10
30.672000000000
 20
11.246000000000
 10
30.500000000000
 20
11.135000000000
 10
30.449000000000
 20
11.102000000000
 10
30.400000000000
 20
11.066000000000
 10
30.363000000000
 20
11.038000000000
 10
30.202000000000
 20
10.912000000000
 10
30.155000000000
 20
10.874000000000
 10
30.109000000000
 20
10.834000000000
 10
30.066000000000
 20
10.794000000000
 10
29.918000000000
 20
10.653000000000
 10
29.875000000000
 20
10.611000000000
 10
29.833000000000
 20
10.567000000000
 10
29.794000000000
 20
10.524000000000
 10
29.660000000000
 20
10.369000000000
 10
29.621000000000
 20
10.322000000000
 10
29.584000000000
 20
10.274000000000
 10
29.553000000000
 20
10.233000000000
 10
29.434000000000
 20
10.066000000000
 10
29.400000000000
 20
10.015000000000
 10
29.367000000000
 20
9.964000000000
 10
29.338000000000
 20
9.916000000000
 10
29.236000000000
 20
9.739000000000
 10
29.207000000000
 20
9.686000000000
 10
29.179000000000
 20
9.631000000000
 10
29.156000000000
 20
9.584000000000
 10
29.071000000000
 20
9.398000000000
 10
29.047000000000
 20
9.342000000000
 10
29.024000000000
 20
9.286000000000
 10
29.006000000000
 20
9.236000000000
 10
28.939000000000
 20
9.043000000000
 10
28.920000000000
 20
8.985000000000
 10
28.903000000000
 20
8.927000000000
 10
28.889000000000
 20
8.870000000000
 10
28.841000000000
 20
8.671000000000
 10
28.827000000000
 20
8.611000000000
 10
28.816000000000
 20
8.552000000000
 10
28.808000000000
 20
8.499000000000
 10
28.779000000000
 20
8.296000000000
 10
28.771000000000
 20
8.235000000000
 10
28.765000000000
 20
8.175000000000
 10
28.762000000000
 20
8.125000000000
 10
28.752000000000
 20
7.921000000000
 10
28.750000000000
 20
7.860000000000
 10
28.750000000000
 20
7.799000000000
 10
28.752000000000
 20
7.739000000000
 10
28.762000000000
 20
7.535000000000
 10
28.766000000000
 20
7.475000000000
 10
28.772000000000
 20
7.414000000000
 10
28.779000000000
 20
7.364000000000
 10
28.808000000000
 20
7.161000000000
 10
28.817000000000
 20
7.101000000000
 10
28.829000000000
 20
7.042000000000
 10
28.841000000000
 20
6.989000000000
 10
28.889000000000
 20
6.790000000000
 10
28.904000000000
 20
6.731000000000
 10
28.921000000000
 20
6.673000000000
 10
28.939000000000
 20
6.617000000000
 10
29.006000000000
 20
6.424000000000
 10
29.027000000000
 20
6.367000000000
 10
29.050000000000
 20
6.311000000000
 10
29.071000000000
 20
6.262000000000
 10
29.156000000000
 20
6.076000000000
 10
29.183000000000
 20
6.021000000000
 10
29.211000000000
 20
5.967000000000
 10
29.236000000000
 20
5.921000000000
 10
29.338000000000
 20
5.744000000000
 10
29.369000000000
 20
5.692000000000
 10
29.402000000000
 20
5.641000000000
 10
29.434000000000
 20
5.594000000000
 10
29.553000000000
 20
5.427000000000
 10
29.589000000000
 20
5.378000000000
 10
29.627000000000
 20
5.331000000000
 10
29.660000000000
 20
5.291000000000
 10
29.794000000000
 20
5.136000000000
 10
29.835000000000
 20
5.091000000000
 10
29.877000000000
 20
5.047000000000
 10
29.918000000000
 20
5.007000000000
 10
30.066000000000
 20
4.866000000000
 10
30.111000000000
 20
4.824000000000
 10
30.157000000000
 20
4.785000000000
 10
30.202000000000
 20
4.748000000000
 10
30.363000000000
 20
4.622000000000
 10
30.411000000000
 20
4.585000000000
 10
30.461000000000
 20
4.550000000000
 10
30.500000000000
 20
4.525000000000
 10
30.672000000000
 20
4.414000000000
 10
30.724000000000
 20
4.381000000000
 10
30.776000000000
 20
4.351000000000
 10
30.826000000000
 20
4.324000000000
 10
31.008000000000
 20
4.230000000000
 10
31.063000000000
 20
4.203000000000
 10
31.118000000000
 20
4.178000000000
 10
31.170000000000
 20
4.156000000000
 10
31.360000000000
 20
4.080000000000
 10
31.417000000000
 20
4.059000000000
 10
31.474000000000
 20
4.039000000000
 10
31.530000000000
 20
4.022000000000
 10
31.726000000000
 20
3.965000000000
 10
31.785000000000
 20
3.949000000000
 10
31.844000000000
 20
3.934000000000
 10
31.891000000000
 20
3.925000000000
 10
32.092000000000
 20
3.886000000000
 10
32.152000000000
 20
3.875000000000
 10
32.212000000000
 20
3.867000000000
 10
32.263000000000
 20
3.861000000000
 10
32.467000000000
 20
3.841000000000
 10
32.528000000000
 20
3.836000000000
 10
32.589000000000
 20
3.833000000000
 10
32.648000000000
 20
3.832000000000
 10
32.852000000000
 20
3.832000000000
 10
32.913000000000
 20
3.833000000000
0
CIRCLE
  5
000000bb
 39
 0.100 
 100
AcDbEntity
8
contour007
 6
CONTINUOUS
100
AcDbCircle
 10
32.750000000000
 20
7.830000000000
 30
 0
 40
2.150000000000
0
LWPOLYLINE
  5
000000bc
 39
 0.100 
 100
AcDbEntity
8
contour007
 6
CONTINUOUS
100
AcDbPolyline
 90
265
 70
8
 10
32.913000000000
 20
31.773000000000
 10
32.974000000000
 20
31.776000000000
 10
33.033000000000
 20
31.781000000000
 10
33.237000000000
 20
31.801000000000
 10
33.297000000000
 20
31.808000000000
 10
33.357000000000
 20
31.817000000000
 10
33.408000000000
 20
31.826000000000
 10
33.609000000000
 20
31.865000000000
 10
33.669000000000
 20
31.877000000000
 10
33.728000000000
 20
31.892000000000
 10
33.774000000000
 20
31.905000000000
 10
33.970000000000
 20
31.962000000000
 10
34.028000000000
 20
31.980000000000
 10
34.085000000000
 20
31.999000000000
 10
34.140000000000
 20
32.020000000000
 10
34.330000000000
 20
32.096000000000
 10
34.386000000000
 20
32.120000000000
 10
34.441000000000
 20
32.145000000000
 10
34.492000000000
 20
32.170000000000
 10
34.674000000000
 20
32.264000000000
 10
34.728000000000
 20
32.293000000000
 10
34.780000000000
 20
32.324000000000
 10
34.828000000000
 20
32.354000000000
 10
35.000000000000
 20
32.465000000000
 10
35.051000000000
 20
32.498000000000
 10
35.100000000000
 20
32.534000000000
 10
35.137000000000
 20
32.562000000000
 10
35.298000000000
 20
32.688000000000
 10
35.345000000000
 20
32.726000000000
 10
35.391000000000
 20
32.766000000000
 10
35.434000000000
 20
32.806000000000
 10
35.582000000000
 20
32.947000000000
 10
35.625000000000
 20
32.989000000000
 10
35.667000000000
 20
33.033000000000
 10
35.706000000000
 20
33.076000000000
 10
35.840000000000
 20
33.231000000000
 10
35.879000000000
 20
33.278000000000
 10
35.916000000000
 20
33.326000000000
 10
35.947000000000
 20
33.367000000000
 10
36.066000000000
 20
33.534000000000
 10
36.100000000000
 20
33.585000000000
 10
36.133000000000
 20
33.636000000000
 10
36.162000000000
 20
33.684000000000
 10
36.264000000000
 20
33.861000000000
 10
36.293000000000
 20
33.914000000000
 10
36.321000000000
 20
33.969000000000
 10
36.344000000000
 20
34.016000000000
 10
36.429000000000
 20
34.202000000000
 10
36.453000000000
 20
34.258000000000
 10
36.476000000000
 20
34.314000000000
 10
36.494000000000
 20
34.364000000000
 10
36.561000000000
 20
34.557000000000
 10
36.580000000000
 20
34.615000000000
 10
36.597000000000
 20
34.673000000000
 10
36.611000000000
 20
34.730000000000
 10
36.659000000000
 20
34.929000000000
 10
36.673000000000
 20
34.989000000000
 10
36.684000000000
 20
35.048000000000
 10
36.692000000000
 20
35.101000000000
 10
36.721000000000
 20
35.304000000000
 10
36.729000000000
 20
35.365000000000
 10
36.735000000000
 20
35.425000000000
 10
36.738000000000
 20
35.475000000000
 10
36.748000000000
 20
35.679000000000
 10
36.750000000000
 20
35.740000000000
 10
36.750000000000
 20
35.801000000000
 10
36.748000000000
 20
35.861000000000
 10
36.738000000000
 20
36.065000000000
 10
36.734000000000
 20
36.125000000000
 10
36.728000000000
 20
36.186000000000
 10
36.721000000000
 20
36.236000000000
 10
36.692000000000
 20
36.439000000000
 10
36.683000000000
 20
36.499000000000
 10
36.671000000000
 20
36.558000000000
 10
36.659000000000
 20
36.611000000000
 10
36.611000000000
 20
36.810000000000
 10
36.596000000000
 20
36.869000000000
 10
36.579000000000
 20
36.927000000000
 10
36.561000000000
 20
36.983000000000
 10
36.494000000000
 20
37.176000000000
 10
36.473000000000
 20
37.233000000000
 10
36.450000000000
 20
37.289000000000
 10
36.429000000000
 20
37.338000000000
 10
36.344000000000
 20
37.524000000000
 10
36.317000000000
 20
37.579000000000
 10
36.289000000000
 20
37.633000000000
 10
36.264000000000
 20
37.679000000000
 10
36.162000000000
 20
37.856000000000
 10
36.131000000000
 20
37.908000000000
 10
36.098000000000
 20
37.959000000000
 10
36.066000000000
 20
38.006000000000
 10
35.947000000000
 20
38.173000000000
 10
35.911000000000
 20
38.222000000000
 10
35.873000000000
 20
38.269000000000
 10
35.840000000000
 20
38.309000000000
 10
35.706000000000
 20
38.464000000000
 10
35.665000000000
 20
38.509000000000
 10
35.623000000000
 20
38.553000000000
 10
35.582000000000
 20
38.593000000000
 10
35.434000000000
 20
38.734000000000
 10
35.389000000000
 20
38.776000000000
 10
35.343000000000
 20
38.815000000000
 10
35.298000000000
 20
38.852000000000
 10
35.137000000000
 20
38.978000000000
 10
35.089000000000
 20
39.015000000000
 10
35.039000000000
 20
39.050000000000
 10
35.000000000000
 20
39.075000000000
 10
34.828000000000
 20
39.186000000000
 10
34.776000000000
 20
39.219000000000
 10
34.724000000000
 20
39.249000000000
 10
34.674000000000
 20
39.276000000000
 10
34.492000000000
 20
39.370000000000
 10
34.437000000000
 20
39.397000000000
 10
34.382000000000
 20
39.422000000000
 10
34.330000000000
 20
39.444000000000
 10
34.140000000000
 20
39.520000000000
 10
34.083000000000
 20
39.541000000000
 10
34.026000000000
 20
39.561000000000
 10
33.970000000000
 20
39.578000000000
 10
33.774000000000
 20
39.635000000000
 10
33.715000000000
 20
39.651000000000
 10
33.656000000000
 20
39.666000000000
 10
33.609000000000
 20
39.675000000000
 10
33.408000000000
 20
39.714000000000
 10
33.348000000000
 20
39.725000000000
 10
33.288000000000
 20
39.733000000000
 10
33.237000000000
 20
39.739000000000
 10
33.033000000000
 20
39.759000000000
 10
32.972000000000
 20
39.764000000000
 10
32.911000000000
 20
39.767000000000
 10
32.852000000000
 20
39.768000000000
 10
32.648000000000
 20
39.768000000000
 10
32.587000000000
 20
39.767000000000
 10
32.526000000000
 20
39.764000000000
 10
32.467000000000
 20
39.759000000000
 10
32.263000000000
 20
39.739000000000
 10
32.203000000000
 20
39.732000000000
 10
32.143000000000
 20
39.723000000000
 10
32.092000000000
 20
39.714000000000
 10
31.891000000000
 20
39.675000000000
 10
31.831000000000
 20
39.663000000000
 10
31.772000000000
 20
39.648000000000
 10
31.726000000000
 20
39.635000000000
 10
31.530000000000
 20
39.578000000000
 10
31.472000000000
 20
39.560000000000
 10
31.415000000000
 20
39.541000000000
 10
31.360000000000
 20
39.520000000000
 10
31.170000000000
 20
39.444000000000
 10
31.114000000000
 20
39.420000000000
 10
31.059000000000
 20
39.395000000000
 10
31.008000000000
 20
39.370000000000
 10
30.826000000000
 20
39.276000000000
 10
30.772000000000
 20
39.247000000000
 10
30.720000000000
 20
39.216000000000
 10
30.672000000000
 20
39.186000000000
 10
30.500000000000
 20
39.075000000000
 10
30.449000000000
 20
39.042000000000
 10
30.400000000000
 20
39.006000000000
 10
30.363000000000
 20
38.978000000000
 10
30.202000000000
 20
38.852000000000
 10
30.155000000000
 20
38.814000000000
 10
30.109000000000
 20
38.774000000000
 10
30.066000000000
 20
38.734000000000
 10
29.918000000000
 20
38.593000000000
 10
29.875000000000
 20
38.551000000000
 10
29.833000000000
 20
38.507000000000
 10
29.794000000000
 20
38.464000000000
 10
29.660000000000
 20
38.309000000000
 10
29.621000000000
 20
38.262000000000
 10
29.584000000000
 20
38.214000000000
 10
29.553000000000
 20
38.173000000000
 10
29.434000000000
 20
38.006000000000
 10
29.400000000000
 20
37.955000000000
 10
29.367000000000
 20
37.904000000000
 10
29.338000000000
 20
37.856000000000
 10
29.236000000000
 20
37.679000000000
 10
29.207000000000
 20
37.626000000000
 10
29.179000000000
 20
37.571000000000
 10
29.156000000000
 20
37.524000000000
 10
29.071000000000
 20
37.338000000000
 10
29.047000000000
 20
37.282000000000
 10
29.024000000000
 20
37.226000000000
 10
29.006000000000
 20
37.176000000000
 10
28.939000000000
 20
36.983000000000
 10
28.920000000000
 20
36.925000000000
 10
28.903000000000
 20
36.867000000000
 10
28.889000000000
 20
36.810000000000
 10
28.841000000000
 20
36.611000000000
 10
28.827000000000
 20
36.551000000000
 10
28.816000000000
 20
36.492000000000
 10
28.808000000000
 20
36.439000000000
 10
28.779000000000
 20
36.236000000000
 10
28.771000000000
 20
36.175000000000
 10
28.765000000000
 20
36.115000000000
 10
28.762000000000
 20
36.065000000000
 10
28.752000000000
 20
35.861000000000
 10
28.750000000000
 20
35.800000000000
 10
28.750000000000
 20
35.739000000000
 10
28.752000000000
 20
35.679000000000
 10
28.762000000000
 20
35.475000000000
 10
28.766000000000
 20
35.415000000000
 10
28.772000000000
 20
35.354000000000
 10
28.779000000000
 20
35.304000000000
 10
28.808000000000
 20
35.101000000000
 10
28.817000000000
 20
35.041000000000
 10
28.829000000000
 20
34.982000000000
 10
28.841000000000
 20
34.929000000000
 10
28.889000000000
 20
34.730000000000
 10
28.904000000000
 20
34.671000000000
 10
28.921000000000
 20
34.613000000000
 10
28.939000000000
 20
34.557000000000
 10
29.006000000000
 20
34.364000000000
 10
29.027000000000
 20
34.307000000000
 10
29.050000000000
 20
34.251000000000
 10
29.071000000000
 20
34.202000000000
 10
29.156000000000
 20
34.016000000000
 10
29.183000000000
 20
33.961000000000
 10
29.211000000000
 20
33.907000000000
 10
29.236000000000
 20
33.861000000000
 10
29.338000000000
 20
33.684000000000
 10
29.369000000000
 20
33.632000000000
 10
29.402000000000
 20
33.581000000000
 10
29.434000000000
 20
33.534000000000
 10
29.553000000000
 20
33.367000000000
 10
29.589000000000
 20
33.318000000000
 10
29.627000000000
 20
33.271000000000
 10
29.660000000000
 20
33.231000000000
 10
29.794000000000
 20
33.076000000000
 10
29.835000000000
 20
33.031000000000
 10
29.877000000000
 20
32.987000000000
 10
29.918000000000
 20
32.947000000000
 10
30.066000000000
 20
32.806000000000
 10
30.111000000000
 20
32.764000000000
 10
30.157000000000
 20
32.725000000000
 10
30.202000000000
 20
32.688000000000
 10
30.363000000000
 20
32.562000000000
 10
30.411000000000
 20
32.525000000000
 10
30.461000000000
 20
32.490000000000
 10
30.500000000000
 20
32.465000000000
 10
30.672000000000
 20
32.354000000000
 10
30.724000000000
 20
32.321000000000
 10
30.776000000000
 20
32.291000000000
 10
30.826000000000
 20
32.264000000000
 10
31.008000000000
 20
32.170000000000
 10
31.063000000000
 20
32.143000000000
 10
31.118000000000
 20
32.118000000000
 10
31.170000000000
 20
32.096000000000
 10
31.360000000000
 20
32.020000000000
 10
31.417000000000
 20
31.999000000000
 10
31.474000000000
 20
31.979000000000
 10
31.530000000000
 20
31.962000000000
 10
31.726000000000
 20
31.905000000000
 10
31.785000000000
 20
31.889000000000
 10
31.844000000000
 20
31.874000000000
 10
31.891000000000
 20
31.865000000000
 10
32.092000000000
 20
31.826000000000
 10
32.152000000000
 20
31.815000000000
 10
32.212000000000
 20
31.807000000000
 10
32.263000000000
 20
31.801000000000
 10
32.467000000000
 20
31.781000000000
 10
32.528000000000
 20
31.776000000000
 10
32.589000000000
 20
31.773000000000
 10
32.648000000000
 20
31.772000000000
 10
32.852000000000
 20
31.772000000000
 10
32.913000000000
 20
31.773000000000
0
CIRCLE
  5
000000bd
 39
 0.100 
 100
AcDbEntity
8
contour007
 6
CONTINUOUS
100
AcDbCircle
 10
32.750000000000
 20
35.770000000000
 30
 0
 40
2.150000000000
0
ARC
  5
000000be
 39
 0.100 
 100
AcDbEntity
8
contour007
 6
CONTINUOUS
100
AcDbCircle
 10
474.000000000000
 20
5.950000000000
 30
 0
 40
5.249526169094
100
AcDbArc
 50
140.061670631814
 51
219.938329368186
0
ARC
  5
000000bf
 39
 0.100 
 100
AcDbEntity
8
contour007
 6
CONTINUOUS
100
AcDbCircle
 10
470.895380406601
 20
3.349999939704
 30
 0
 40
1.200000000000
100
AcDbArc
 50
219.916207444699
 51
269.981836922414
0
LINE
  5
000000c0
 39
 0.100 
 100
AcDbEntity
8
contour007
 6
CONTINUOUS
 100
AcDbLine
 10
477.105000000000
 20
2.150000000000
 30
 0.0
 11
470.895000000000
 21
2.150000000000
 31
0.0
0
ARC
  5
000000c1
 39
 0.100 
 100
AcDbEntity
8
contour007
 6
CONTINUOUS
100
AcDbCircle
 10
477.104619593399
 20
3.349999939704
 30
 0
 40
1.200000000000
100
AcDbArc
 50
270.018163077586
 51
320.083792555301
0
ARC
  5
000000c2
 39
 0.100 
 100
AcDbEntity
8
contour007
 6
CONTINUOUS
100
AcDbCircle
 10
474.000000000000
 20
5.950000000000
 30
 0
 40
5.249526169094
100
AcDbArc
 50
320.061670631814
 51
399.938329368186
0
ARC
  5
000000c3
 39
 0.100 
 100
AcDbEntity
8
contour007
 6
CONTINUOUS
100
AcDbCircle
 10
477.104619593399
 20
8.550000060296
 30
 0
 40
1.200000000000
100
AcDbArc
 50
39.916207444699
 51
89.981836922414
0
LINE
  5
000000c4
 39
 0.100 
 100
AcDbEntity
8
contour007
 6
CONTINUOUS
 100
AcDbLine
 10
470.895000000000
 20
9.750000000000
 30
 0.0
 11
477.105000000000
 21
9.750000000000
 31
0.0
0
ARC
  5
000000c5
 39
 0.100 
 100
AcDbEntity
8
contour007
 6
CONTINUOUS
100
AcDbCircle
 10
470.895380406601
 20
8.550000060296
 30
 0
 40
1.200000000000
100
AcDbArc
 50
90.018163077586
 51
140.083792555301
0
ARC
  5
000000c6
 39
 0.100 
 100
AcDbEntity
8
contour007
 6
CONTINUOUS
100
AcDbCircle
 10
474.000000000000
 20
37.650000000000
 30
 0
 40
5.249526169094
100
AcDbArc
 50
140.061670631814
 51
219.938329368186
0
ARC
  5
000000c7
 39
 0.100 
 100
AcDbEntity
8
contour007
 6
CONTINUOUS
100
AcDbCircle
 10
470.895380406601
 20
35.049999939704
 30
 0
 40
1.200000000000
100
AcDbArc
 50
219.916207444698
 51
269.981836922413
0
LINE
  5
000000c8
 39
 0.100 
 100
AcDbEntity
8
contour007
 6
CONTINUOUS
 100
AcDbLine
 10
477.105000000000
 20
33.850000000000
 30
 0.0
 11
470.895000000000
 21
33.850000000000
 31
0.0
0
ARC
  5
000000c9
 39
 0.100 
 100
AcDbEntity
8
contour007
 6
CONTINUOUS
100
AcDbCircle
 10
477.104619593399
 20
35.049999939704
 30
 0
 40
1.200000000000
100
AcDbArc
 50
270.018163077586
 51
320.083792555301
0
ARC
  5
000000ca
 39
 0.100 
 100
AcDbEntity
8
contour007
 6
CONTINUOUS
100
AcDbCircle
 10
474.000000000000
 20
37.650000000000
 30
 0
 40
5.249526169094
100
AcDbArc
 50
320.061670631814
 51
399.938329368186
0
ARC
  5
000000cb
 39
 0.100 
 100
AcDbEntity
8
contour007
 6
CONTINUOUS
100
AcDbCircle
 10
477.104619593399
 20
40.250000060296
 30
 0
 40
1.200000000000
100
AcDbArc
 50
39.916207444698
 51
89.981836922414
0
LINE
  5
000000cc
 39
 0.100 
 100
AcDbEntity
8
contour007
 6
CONTINUOUS
 100
AcDbLine
 10
470.895000000000
 20
41.450000000000
 30
 0.0
 11
477.105000000000
 21
41.450000000000
 31
0.0
0
ARC
  5
000000cd
 39
 0.100 
 100
AcDbEntity
8
contour007
 6
CONTINUOUS
100
AcDbCircle
 10
470.895380406601
 20
40.250000060296
 30
 0
 40
1.200000000000
100
AcDbArc
 50
90.018163077586
 51
140.083792555301
0
LWPOLYLINE
  5
000000ce
 39
 0.100 
 100
AcDbEntity
8
contour007
 6
CONTINUOUS
100
AcDbPolyline
 90
265
 70
8
 10
450.413000000000
 20
3.833000000000
 10
450.474000000000
 20
3.836000000000
 10
450.533000000000
 20
3.841000000000
 10
450.737000000000
 20
3.861000000000
 10
450.797000000000
 20
3.868000000000
 10
450.857000000000
 20
3.877000000000
 10
450.908000000000
 20
3.886000000000
 10
451.109000000000
 20
3.925000000000
 10
451.169000000000
 20
3.937000000000
 10
451.228000000000
 20
3.952000000000
 10
451.274000000000
 20
3.965000000000
 10
451.470000000000
 20
4.022000000000
 10
451.528000000000
 20
4.040000000000
 10
451.585000000000
 20
4.059000000000
 10
451.640000000000
 20
4.080000000000
 10
451.830000000000
 20
4.156000000000
 10
451.886000000000
 20
4.180000000000
 10
451.941000000000
 20
4.205000000000
 10
451.992000000000
 20
4.230000000000
 10
452.174000000000
 20
4.324000000000
 10
452.228000000000
 20
4.353000000000
 10
452.280000000000
 20
4.384000000000
 10
452.328000000000
 20
4.414000000000
 10
452.500000000000
 20
4.525000000000
 10
452.551000000000
 20
4.558000000000
 10
452.600000000000
 20
4.594000000000
 10
452.637000000000
 20
4.622000000000
 10
452.798000000000
 20
4.748000000000
 10
452.845000000000
 20
4.786000000000
 10
452.891000000000
 20
4.826000000000
 10
452.934000000000
 20
4.866000000000
 10
453.082000000000
 20
5.007000000000
 10
453.125000000000
 20
5.049000000000
 10
453.167000000000
 20
5.093000000000
 10
453.206000000000
 20
5.136000000000
 10
453.340000000000
 20
5.291000000000
 10
453.379000000000
 20
5.338000000000
 10
453.416000000000
 20
5.386000000000
 10
453.447000000000
 20
5.427000000000
 10
453.566000000000
 20
5.594000000000
 10
453.600000000000
 20
5.645000000000
 10
453.633000000000
 20
5.696000000000
 10
453.662000000000
 20
5.744000000000
 10
453.764000000000
 20
5.921000000000
 10
453.793000000000
 20
5.974000000000
 10
453.821000000000
 20
6.029000000000
 10
453.844000000000
 20
6.076000000000
 10
453.929000000000
 20
6.262000000000
 10
453.953000000000
 20
6.318000000000
 10
453.976000000000
 20
6.374000000000
 10
453.994000000000
 20
6.424000000000
 10
454.061000000000
 20
6.617000000000
 10
454.080000000000
 20
6.675000000000
 10
454.097000000000
 20
6.733000000000
 10
454.111000000000
 20
6.790000000000
 10
454.159000000000
 20
6.989000000000
 10
454.173000000000
 20
7.049000000000
 10
454.184000000000
 20
7.108000000000
 10
454.192000000000
 20
7.161000000000
 10
454.221000000000
 20
7.364000000000
 10
454.229000000000
 20
7.425000000000
 10
454.235000000000
 20
7.485000000000
 10
454.238000000000
 20
7.535000000000
 10
454.248000000000
 20
7.739000000000
 10
454.250000000000
 20
7.800000000000
 10
454.250000000000
 20
7.861000000000
 10
454.248000000000
 20
7.921000000000
 10
454.238000000000
 20
8.125000000000
 10
454.234000000000
 20
8.185000000000
 10
454.228000000000
 20
8.246000000000
 10
454.221000000000
 20
8.296000000000
 10
454.192000000000
 20
8.499000000000
 10
454.183000000000
 20
8.559000000000
 10
454.171000000000
 20
8.618000000000
 10
454.159000000000
 20
8.671000000000
 10
454.111000000000
 20
8.870000000000
 10
454.096000000000
 20
8.929000000000
 10
454.079000000000
 20
8.987000000000
 10
454.061000000000
 20
9.043000000000
 10
453.994000000000
 20
9.236000000000
 10
453.973000000000
 20
9.293000000000
 10
453.950000000000
 20
9.349000000000
 10
453.929000000000
 20
9.398000000000
 10
453.844000000000
 20
9.584000000000
 10
453.817000000000
 20
9.639000000000
 10
453.789000000000
 20
9.693000000000
 10
453.764000000000
 20
9.739000000000
 10
453.662000000000
 20
9.916000000000
 10
453.631000000000
 20
9.968000000000
 10
453.598000000000
 20
10.019000000000
 10
453.566000000000
 20
10.066000000000
 10
453.447000000000
 20
10.233000000000
 10
453.411000000000
 20
10.282000000000
 10
453.373000000000
 20
10.329000000000
 10
453.340000000000
 20
10.369000000000
 10
453.206000000000
 20
10.524000000000
 10
453.165000000000
 20
10.569000000000
 10
453.123000000000
 20
10.613000000000
 10
453.082000000000
 20
10.653000000000
 10
452.934000000000
 20
10.794000000000
 10
452.889000000000
 20
10.836000000000
 10
452.843000000000
 20
10.875000000000
 10
452.798000000000
 20
10.912000000000
 10
452.637000000000
 20
11.038000000000
 10
452.589000000000
 20
11.075000000000
 10
452.539000000000
 20
11.110000000000
 10
452.500000000000
 20
11.135000000000
 10
452.328000000000
 20
11.246000000000
 10
452.276000000000
 20
11.279000000000
 10
452.224000000000
 20
11.309000000000
 10
452.174000000000
 20
11.336000000000
 10
451.992000000000
 20
11.430000000000
 10
451.937000000000
 20
11.457000000000
 10
451.882000000000
 20
11.482000000000
 10
451.830000000000
 20
11.504000000000
 10
451.640000000000
 20
11.580000000000
 10
451.583000000000
 20
11.601000000000
 10
451.526000000000
 20
11.621000000000
 10
451.470000000000
 20
11.638000000000
 10
451.274000000000
 20
11.695000000000
 10
451.215000000000
 20
11.711000000000
 10
451.156000000000
 20
11.726000000000
 10
451.109000000000
 20
11.735000000000
 10
450.908000000000
 20
11.774000000000
 10
450.848000000000
 20
11.785000000000
 10
450.788000000000
 20
11.793000000000
 10
450.737000000000
 20
11.799000000000
 10
450.533000000000
 20
11.819000000000
 10
450.472000000000
 20
11.824000000000
 10
450.411000000000
 20
11.827000000000
 10
450.352000000000
 20
11.828000000000
 10
450.148000000000
 20
11.828000000000
 10
450.087000000000
 20
11.827000000000
 10
450.026000000000
 20
11.824000000000
 10
449.967000000000
 20
11.819000000000
 10
449.763000000000
 20
11.799000000000
 10
449.703000000000
 20
11.792000000000
 10
449.643000000000
 20
11.783000000000
 10
449.592000000000
 20
11.774000000000
 10
449.391000000000
 20
11.735000000000
 10
449.331000000000
 20
11.723000000000
 10
449.272000000000
 20
11.708000000000
 10
449.226000000000
 20
11.695000000000
 10
449.030000000000
 20
11.638000000000
 10
448.972000000000
 20
11.620000000000
 10
448.915000000000
 20
11.601000000000
 10
448.860000000000
 20
11.580000000000
 10
448.670000000000
 20
11.504000000000
 10
448.614000000000
 20
11.480000000000
 10
448.559000000000
 20
11.455000000000
 10
448.508000000000
 20
11.430000000000
 10
448.326000000000
 20
11.336000000000
 10
448.272000000000
 20
11.307000000000
 10
448.220000000000
 20
11.276000000000
 10
448.172000000000
 20
11.246000000000
 10
448.000000000000
 20
11.135000000000
 10
447.949000000000
 20
11.102000000000
 10
447.900000000000
 20
11.066000000000
 10
447.863000000000
 20
11.038000000000
 10
447.702000000000
 20
10.912000000000
 10
447.655000000000
 20
10.874000000000
 10
447.609000000000
 20
10.834000000000
 10
447.566000000000
 20
10.794000000000
 10
447.418000000000
 20
10.653000000000
 10
447.375000000000
 20
10.611000000000
 10
447.333000000000
 20
10.567000000000
 10
447.294000000000
 20
10.524000000000
 10
447.160000000000
 20
10.369000000000
 10
447.121000000000
 20
10.322000000000
 10
447.084000000000
 20
10.274000000000
 10
447.053000000000
 20
10.233000000000
 10
446.934000000000
 20
10.066000000000
 10
446.900000000000
 20
10.015000000000
 10
446.867000000000
 20
9.964000000000
 10
446.838000000000
 20
9.916000000000
 10
446.736000000000
 20
9.739000000000
 10
446.707000000000
 20
9.686000000000
 10
446.679000000000
 20
9.631000000000
 10
446.656000000000
 20
9.584000000000
 10
446.571000000000
 20
9.398000000000
 10
446.547000000000
 20
9.342000000000
 10
446.524000000000
 20
9.286000000000
 10
446.506000000000
 20
9.236000000000
 10
446.439000000000
 20
9.043000000000
 10
446.420000000000
 20
8.985000000000
 10
446.403000000000
 20
8.927000000000
 10
446.389000000000
 20
8.870000000000
 10
446.341000000000
 20
8.671000000000
 10
446.327000000000
 20
8.611000000000
 10
446.316000000000
 20
8.552000000000
 10
446.308000000000
 20
8.499000000000
 10
446.279000000000
 20
8.296000000000
 10
446.271000000000
 20
8.235000000000
 10
446.265000000000
 20
8.175000000000
 10
446.262000000000
 20
8.125000000000
 10
446.252000000000
 20
7.921000000000
 10
446.250000000000
 20
7.860000000000
 10
446.250000000000
 20
7.799000000000
 10
446.252000000000
 20
7.739000000000
 10
446.262000000000
 20
7.535000000000
 10
446.266000000000
 20
7.475000000000
 10
446.272000000000
 20
7.414000000000
 10
446.279000000000
 20
7.364000000000
 10
446.308000000000
 20
7.161000000000
 10
446.317000000000
 20
7.101000000000
 10
446.329000000000
 20
7.042000000000
 10
446.341000000000
 20
6.989000000000
 10
446.389000000000
 20
6.790000000000
 10
446.404000000000
 20
6.731000000000
 10
446.421000000000
 20
6.673000000000
 10
446.439000000000
 20
6.617000000000
 10
446.506000000000
 20
6.424000000000
 10
446.527000000000
 20
6.367000000000
 10
446.550000000000
 20
6.311000000000
 10
446.571000000000
 20
6.262000000000
 10
446.656000000000
 20
6.076000000000
 10
446.683000000000
 20
6.021000000000
 10
446.711000000000
 20
5.967000000000
 10
446.736000000000
 20
5.921000000000
 10
446.838000000000
 20
5.744000000000
 10
446.869000000000
 20
5.692000000000
 10
446.902000000000
 20
5.641000000000
 10
446.934000000000
 20
5.594000000000
 10
447.053000000000
 20
5.427000000000
 10
447.089000000000
 20
5.378000000000
 10
447.127000000000
 20
5.331000000000
 10
447.160000000000
 20
5.291000000000
 10
447.294000000000
 20
5.136000000000
 10
447.335000000000
 20
5.091000000000
 10
447.377000000000
 20
5.047000000000
 10
447.418000000000
 20
5.007000000000
 10
447.566000000000
 20
4.866000000000
 10
447.611000000000
 20
4.824000000000
 10
447.657000000000
 20
4.785000000000
 10
447.702000000000
 20
4.748000000000
 10
447.863000000000
 20
4.622000000000
 10
447.911000000000
 20
4.585000000000
 10
447.961000000000
 20
4.550000000000
 10
448.000000000000
 20
4.525000000000
 10
448.172000000000
 20
4.414000000000
 10
448.224000000000
 20
4.381000000000
 10
448.276000000000
 20
4.351000000000
 10
448.326000000000
 20
4.324000000000
 10
448.508000000000
 20
4.230000000000
 10
448.563000000000
 20
4.203000000000
 10
448.618000000000
 20
4.178000000000
 10
448.670000000000
 20
4.156000000000
 10
448.860000000000
 20
4.080000000000
 10
448.917000000000
 20
4.059000000000
 10
448.974000000000
 20
4.039000000000
 10
449.030000000000
 20
4.022000000000
 10
449.226000000000
 20
3.965000000000
 10
449.285000000000
 20
3.949000000000
 10
449.344000000000
 20
3.934000000000
 10
449.391000000000
 20
3.925000000000
 10
449.592000000000
 20
3.886000000000
 10
449.652000000000
 20
3.875000000000
 10
449.712000000000
 20
3.867000000000
 10
449.763000000000
 20
3.861000000000
 10
449.967000000000
 20
3.841000000000
 10
450.028000000000
 20
3.836000000000
 10
450.089000000000
 20
3.833000000000
 10
450.148000000000
 20
3.832000000000
 10
450.352000000000
 20
3.832000000000
 10
450.413000000000
 20
3.833000000000
0
CIRCLE
  5
000000cf
 39
 0.100 
 100
AcDbEntity
8
contour007
 6
CONTINUOUS
100
AcDbCircle
 10
450.250000000000
 20
7.830000000000
 30
 0
 40
2.150000000000
0
LWPOLYLINE
  5
000000d0
 39
 0.100 
 100
AcDbEntity
8
contour007
 6
CONTINUOUS
100
AcDbPolyline
 90
265
 70
8
 10
450.413000000000
 20
31.773000000000
 10
450.474000000000
 20
31.776000000000
 10
450.533000000000
 20
31.781000000000
 10
450.737000000000
 20
31.801000000000
 10
450.797000000000
 20
31.808000000000
 10
450.857000000000
 20
31.817000000000
 10
450.908000000000
 20
31.826000000000
 10
451.109000000000
 20
31.865000000000
 10
451.169000000000
 20
31.877000000000
 10
451.228000000000
 20
31.892000000000
 10
451.274000000000
 20
31.905000000000
 10
451.470000000000
 20
31.962000000000
 10
451.528000000000
 20
31.980000000000
 10
451.585000000000
 20
31.999000000000
 10
451.640000000000
 20
32.020000000000
 10
451.830000000000
 20
32.096000000000
 10
451.886000000000
 20
32.120000000000
 10
451.941000000000
 20
32.145000000000
 10
451.992000000000
 20
32.170000000000
 10
452.174000000000
 20
32.264000000000
 10
452.228000000000
 20
32.293000000000
 10
452.280000000000
 20
32.324000000000
 10
452.328000000000
 20
32.354000000000
 10
452.500000000000
 20
32.465000000000
 10
452.551000000000
 20
32.498000000000
 10
452.600000000000
 20
32.534000000000
 10
452.637000000000
 20
32.562000000000
 10
452.798000000000
 20
32.688000000000
 10
452.845000000000
 20
32.726000000000
 10
452.891000000000
 20
32.766000000000
 10
452.934000000000
 20
32.806000000000
 10
453.082000000000
 20
32.947000000000
 10
453.125000000000
 20
32.989000000000
 10
453.167000000000
 20
33.033000000000
 10
453.206000000000
 20
33.076000000000
 10
453.340000000000
 20
33.231000000000
 10
453.379000000000
 20
33.278000000000
 10
453.416000000000
 20
33.326000000000
 10
453.447000000000
 20
33.367000000000
 10
453.566000000000
 20
33.534000000000
 10
453.600000000000
 20
33.585000000000
 10
453.633000000000
 20
33.636000000000
 10
453.662000000000
 20
33.684000000000
 10
453.764000000000
 20
33.861000000000
 10
453.793000000000
 20
33.914000000000
 10
453.821000000000
 20
33.969000000000
 10
453.844000000000
 20
34.016000000000
 10
453.929000000000
 20
34.202000000000
 10
453.953000000000
 20
34.258000000000
 10
453.976000000000
 20
34.314000000000
 10
453.994000000000
 20
34.364000000000
 10
454.061000000000
 20
34.557000000000
 10
454.080000000000
 20
34.615000000000
 10
454.097000000000
 20
34.673000000000
 10
454.111000000000
 20
34.730000000000
 10
454.159000000000
 20
34.929000000000
 10
454.173000000000
 20
34.989000000000
 10
454.184000000000
 20
35.048000000000
 10
454.192000000000
 20
35.101000000000
 10
454.221000000000
 20
35.304000000000
 10
454.229000000000
 20
35.365000000000
 10
454.235000000000
 20
35.425000000000
 10
454.238000000000
 20
35.475000000000
 10
454.248000000000
 20
35.679000000000
 10
454.250000000000
 20
35.740000000000
 10
454.250000000000
 20
35.801000000000
 10
454.248000000000
 20
35.861000000000
 10
454.238000000000
 20
36.065000000000
 10
454.234000000000
 20
36.125000000000
 10
454.228000000000
 20
36.186000000000
 10
454.221000000000
 20
36.236000000000
 10
454.192000000000
 20
36.439000000000
 10
454.183000000000
 20
36.499000000000
 10
454.171000000000
 20
36.558000000000
 10
454.159000000000
 20
36.611000000000
 10
454.111000000000
 20
36.810000000000
 10
454.096000000000
 20
36.869000000000
 10
454.079000000000
 20
36.927000000000
 10
454.061000000000
 20
36.983000000000
 10
453.994000000000
 20
37.176000000000
 10
453.973000000000
 20
37.233000000000
 10
453.950000000000
 20
37.289000000000
 10
453.929000000000
 20
37.338000000000
 10
453.844000000000
 20
37.524000000000
 10
453.817000000000
 20
37.579000000000
 10
453.789000000000
 20
37.633000000000
 10
453.764000000000
 20
37.679000000000
 10
453.662000000000
 20
37.856000000000
 10
453.631000000000
 20
37.908000000000
 10
453.598000000000
 20
37.959000000000
 10
453.566000000000
 20
38.006000000000
 10
453.447000000000
 20
38.173000000000
 10
453.411000000000
 20
38.222000000000
 10
453.373000000000
 20
38.269000000000
 10
453.340000000000
 20
38.309000000000
 10
453.206000000000
 20
38.464000000000
 10
453.165000000000
 20
38.509000000000
 10
453.123000000000
 20
38.553000000000
 10
453.082000000000
 20
38.593000000000
 10
452.934000000000
 20
38.734000000000
 10
452.889000000000
 20
38.776000000000
 10
452.843000000000
 20
38.815000000000
 10
452.798000000000
 20
38.852000000000
 10
452.637000000000
 20
38.978000000000
 10
452.589000000000
 20
39.015000000000
 10
452.539000000000
 20
39.050000000000
 10
452.500000000000
 20
39.075000000000
 10
452.328000000000
 20
39.186000000000
 10
452.276000000000
 20
39.219000000000
 10
452.224000000000
 20
39.249000000000
 10
452.174000000000
 20
39.276000000000
 10
451.992000000000
 20
39.370000000000
 10
451.937000000000
 20
39.397000000000
 10
451.882000000000
 20
39.422000000000
 10
451.830000000000
 20
39.444000000000
 10
451.640000000000
 20
39.520000000000
 10
451.583000000000
 20
39.541000000000
 10
451.526000000000
 20
39.561000000000
 10
451.470000000000
 20
39.578000000000
 10
451.274000000000
 20
39.635000000000
 10
451.215000000000
 20
39.651000000000
 10
451.156000000000
 20
39.666000000000
 10
451.109000000000
 20
39.675000000000
 10
450.908000000000
 20
39.714000000000
 10
450.848000000000
 20
39.725000000000
 10
450.788000000000
 20
39.733000000000
 10
450.737000000000
 20
39.739000000000
 10
450.533000000000
 20
39.759000000000
 10
450.472000000000
 20
39.764000000000
 10
450.411000000000
 20
39.767000000000
 10
450.352000000000
 20
39.768000000000
 10
450.148000000000
 20
39.768000000000
 10
450.087000000000
 20
39.767000000000
 10
450.026000000000
 20
39.764000000000
 10
449.967000000000
 20
39.759000000000
 10
449.763000000000
 20
39.739000000000
 10
449.703000000000
 20
39.732000000000
 10
449.643000000000
 20
39.723000000000
 10
449.592000000000
 20
39.714000000000
 10
449.391000000000
 20
39.675000000000
 10
449.331000000000
 20
39.663000000000
 10
449.272000000000
 20
39.648000000000
 10
449.226000000000
 20
39.635000000000
 10
449.030000000000
 20
39.578000000000
 10
448.972000000000
 20
39.560000000000
 10
448.915000000000
 20
39.541000000000
 10
448.860000000000
 20
39.520000000000
 10
448.670000000000
 20
39.444000000000
 10
448.614000000000
 20
39.420000000000
 10
448.559000000000
 20
39.395000000000
 10
448.508000000000
 20
39.370000000000
 10
448.326000000000
 20
39.276000000000
 10
448.272000000000
 20
39.247000000000
 10
448.220000000000
 20
39.216000000000
 10
448.172000000000
 20
39.186000000000
 10
448.000000000000
 20
39.075000000000
 10
447.949000000000
 20
39.042000000000
 10
447.900000000000
 20
39.006000000000
 10
447.863000000000
 20
38.978000000000
 10
447.702000000000
 20
38.852000000000
 10
447.655000000000
 20
38.814000000000
 10
447.609000000000
 20
38.774000000000
 10
447.566000000000
 20
38.734000000000
 10
447.418000000000
 20
38.593000000000
 10
447.375000000000
 20
38.551000000000
 10
447.333000000000
 20
38.507000000000
 10
447.294000000000
 20
38.464000000000
 10
447.160000000000
 20
38.309000000000
 10
447.121000000000
 20
38.262000000000
 10
447.084000000000
 20
38.214000000000
 10
447.053000000000
 20
38.173000000000
 10
446.934000000000
 20
38.006000000000
 10
446.900000000000
 20
37.955000000000
 10
446.867000000000
 20
37.904000000000
 10
446.838000000000
 20
37.856000000000
 10
446.736000000000
 20
37.679000000000
 10
446.707000000000
 20
37.626000000000
 10
446.679000000000
 20
37.571000000000
 10
446.656000000000
 20
37.524000000000
 10
446.571000000000
 20
37.338000000000
 10
446.547000000000
 20
37.282000000000
 10
446.524000000000
 20
37.226000000000
 10
446.506000000000
 20
37.176000000000
 10
446.439000000000
 20
36.983000000000
 10
446.420000000000
 20
36.925000000000
 10
446.403000000000
 20
36.867000000000
 10
446.389000000000
 20
36.810000000000
 10
446.341000000000
 20
36.611000000000
 10
446.327000000000
 20
36.551000000000
 10
446.316000000000
 20
36.492000000000
 10
446.308000000000
 20
36.439000000000
 10
446.279000000000
 20
36.236000000000
 10
446.271000000000
 20
36.175000000000
 10
446.265000000000
 20
36.115000000000
 10
446.262000000000
 20
36.065000000000
 10
446.252000000000
 20
35.861000000000
 10
446.250000000000
 20
35.800000000000
 10
446.250000000000
 20
35.739000000000
 10
446.252000000000
 20
35.679000000000
 10
446.262000000000
 20
35.475000000000
 10
446.266000000000
 20
35.415000000000
 10
446.272000000000
 20
35.354000000000
 10
446.279000000000
 20
35.304000000000
 10
446.308000000000
 20
35.101000000000
 10
446.317000000000
 20
35.041000000000
 10
446.329000000000
 20
34.982000000000
 10
446.341000000000
 20
34.929000000000
 10
446.389000000000
 20
34.730000000000
 10
446.404000000000
 20
34.671000000000
 10
446.421000000000
 20
34.613000000000
 10
446.439000000000
 20
34.557000000000
 10
446.506000000000
 20
34.364000000000
 10
446.527000000000
 20
34.307000000000
 10
446.550000000000
 20
34.251000000000
 10
446.571000000000
 20
34.202000000000
 10
446.656000000000
 20
34.016000000000
 10
446.683000000000
 20
33.961000000000
 10
446.711000000000
 20
33.907000000000
 10
446.736000000000
 20
33.861000000000
 10
446.838000000000
 20
33.684000000000
 10
446.869000000000
 20
33.632000000000
 10
446.902000000000
 20
33.581000000000
 10
446.934000000000
 20
33.534000000000
 10
447.053000000000
 20
33.367000000000
 10
447.089000000000
 20
33.318000000000
 10
447.127000000000
 20
33.271000000000
 10
447.160000000000
 20
33.231000000000
 10
447.294000000000
 20
33.076000000000
 10
447.335000000000
 20
33.031000000000
 10
447.377000000000
 20
32.987000000000
 10
447.418000000000
 20
32.947000000000
 10
447.566000000000
 20
32.806000000000
 10
447.611000000000
 20
32.764000000000
 10
447.657000000000
 20
32.725000000000
 10
447.702000000000
 20
32.688000000000
 10
447.863000000000
 20
32.562000000000
 10
447.911000000000
 20
32.525000000000
 10
447.961000000000
 20
32.490000000000
 10
448.000000000000
 20
32.465000000000
 10
448.172000000000
 20
32.354000000000
 10
448.224000000000
 20
32.321000000000
 10
448.276000000000
 20
32.291000000000
 10
448.326000000000
 20
32.264000000000
 10
448.508000000000
 20
32.170000000000
 10
448.563000000000
 20
32.143000000000
 10
448.618000000000
 20
32.118000000000
 10
448.670000000000
 20
32.096000000000
 10
448.860000000000
 20
32.020000000000
 10
448.917000000000
 20
31.999000000000
 10
448.974000000000
 20
31.979000000000
 10
449.030000000000
 20
31.962000000000
 10
449.226000000000
 20
31.905000000000
 10
449.285000000000
 20
31.889000000000
 10
449.344000000000
 20
31.874000000000
 10
449.391000000000
 20
31.865000000000
 10
449.592000000000
 20
31.826000000000
 10
449.652000000000
 20
31.815000000000
 10
449.712000000000
 20
31.807000000000
 10
449.763000000000
 20
31.801000000000
 10
449.967000000000
 20
31.781000000000
 10
450.028000000000
 20
31.776000000000
 10
450.089000000000
 20
31.773000000000
 10
450.148000000000
 20
31.772000000000
 10
450.352000000000
 20
31.772000000000
 10
450.413000000000
 20
31.773000000000
0
CIRCLE
  5
000000d1
 39
 0.100 
 100
AcDbEntity
8
contour007
 6
CONTINUOUS
100
AcDbCircle
 10
450.250000000000
 20
35.770000000000
 30
 0
 40
2.150000000000
0
ARC
  5
000000d2
 39
 0.100 
 100
AcDbEntity
8
contour007
 6
CONTINUOUS
100
AcDbCircle
 10
50.500000000000
 20
11.000000000000
 30
 0
 40
1.000000000000
100
AcDbArc
 50
180.000000000000
 51
270.000000000000
0
LINE
  5
000000d3
 39
 0.100 
 100
AcDbEntity
8
contour007
 6
CONTINUOUS
 100
AcDbLine
 10
72.500000000000
 20
10.000000000000
 30
 0.0
 11
50.500000000000
 21
10.000000000000
 31
0.0
0
ARC
  5
000000d4
 39
 0.100 
 100
AcDbEntity
8
contour007
 6
CONTINUOUS
100
AcDbCircle
 10
72.500000000000
 20
11.000000000000
 30
 0
 40
1.000000000000
100
AcDbArc
 50
270.000000000000
 51
360.000000000000
0
LINE
  5
000000d5
 39
 0.100 
 100
AcDbEntity
8
contour007
 6
CONTINUOUS
 100
AcDbLine
 10
73.500000000000
 20
31.000000000000
 30
 0.0
 11
73.500000000000
 21
11.000000000000
 31
0.0
0
ARC
  5
000000d6
 39
 0.100 
 100
AcDbEntity
8
contour007
 6
CONTINUOUS
100
AcDbCircle
 10
72.500000000000
 20
31.000000000000
 30
 0
 40
1.000000000000
100
AcDbArc
 50
0.000000000000
 51
90.000000000000
0
LINE
  5
000000d7
 39
 0.100 
 100
AcDbEntity
8
contour007
 6
CONTINUOUS
 100
AcDbLine
 10
50.500000000000
 20
32.000000000000
 30
 0.0
 11
72.500000000000
 21
32.000000000000
 31
0.0
0
ARC
  5
000000d8
 39
 0.100 
 100
AcDbEntity
8
contour007
 6
CONTINUOUS
100
AcDbCircle
 10
50.500000000000
 20
31.000000000000
 30
 0
 40
1.000000000000
100
AcDbArc
 50
90.000000000000
 51
180.000000000000
0
LINE
  5
000000d9
 39
 0.100 
 100
AcDbEntity
8
contour007
 6
CONTINUOUS
 100
AcDbLine
 10
49.500000000000
 20
11.000000000000
 30
 0.0
 11
49.500000000000
 21
31.000000000000
 31
0.0
0
CIRCLE
  5
000000da
 39
 0.100 
 100
AcDbEntity
8
contour007
 6
CONTINUOUS
100
AcDbCircle
 10
46.272000000000
 20
33.900000000000
 30
 0
 40
1.229000000000
0
ARC
  5
000000db
 39
 0.100 
 100
AcDbEntity
8
contour007
 6
CONTINUOUS
100
AcDbCircle
 10
46.272000000000
 20
33.900000000000
 30
 0
 40
1.500000000000
100
AcDbArc
 50
0.000000000000
 51
270.000000000000
0
CIRCLE
  5
000000dc
 39
 0.100 
 100
AcDbEntity
8
contour007
 6
CONTINUOUS
100
AcDbCircle
 10
76.729000000000
 20
33.900000000000
 30
 0
 40
1.229000000000
0
ARC
  5
000000dd
 39
 0.100 
 100
AcDbEntity
8
contour007
 6
CONTINUOUS
100
AcDbCircle
 10
76.729000000000
 20
33.900000000000
 30
 0
 40
1.500000000000
100
AcDbArc
 50
0.000000000000
 51
270.000000000000
0
ARC
  5
000000de
 39
 0.100 
 100
AcDbEntity
8
contour007
 6
CONTINUOUS
100
AcDbCircle
 10
88.352553390593
 20
10.153553390593
 30
 0
 40
0.500000000000
100
AcDbArc
 50
135.000000000000
 51
315.000000000000
0
LINE
  5
000000df
 39
 0.100 
 100
AcDbEntity
8
contour007
 6
CONTINUOUS
 100
AcDbLine
 10
105.291893218813
 20
9.800000000000
 30
 0.0
 11
88.706106781187
 21
9.800000000000
 31
0.0
0
ARC
  5
000000e0
 39
 0.100 
 100
AcDbEntity
8
contour007
 6
CONTINUOUS
100
AcDbCircle
 10
105.645446609407
 20
10.153553390593
 30
 0
 40
0.500000000000
100
AcDbArc
 50
225.000000000000
 51
405.000000000000
0
LINE
  5
000000e1
 39
 0.100 
 100
AcDbEntity
8
contour007
 6
CONTINUOUS
 100
AcDbLine
 10
105.999000000000
 20
33.092893218813
 30
 0.0
 11
105.999000000000
 21
10.507106781187
 31
0.0
0
ARC
  5
000000e2
 39
 0.100 
 100
AcDbEntity
8
contour007
 6
CONTINUOUS
100
AcDbCircle
 10
105.645446609407
 20
33.446446609407
 30
 0
 40
0.500000000000
100
AcDbArc
 50
315.000000000001
 51
495.000000000001
0
LINE
  5
000000e3
 39
 0.100 
 100
AcDbEntity
8
contour007
 6
CONTINUOUS
 100
AcDbLine
 10
88.706106781187
 20
33.800000000000
 30
 0.0
 11
105.291893218813
 21
33.800000000000
 31
0.0
0
ARC
  5
000000e4
 39
 0.100 
 100
AcDbEntity
8
contour007
 6
CONTINUOUS
100
AcDbCircle
 10
88.352553390593
 20
33.446446609407
 30
 0
 40
0.500000000000
100
AcDbArc
 50
45.000000000000
 51
225.000000000000
0
LINE
  5
000000e5
 39
 0.100 
 100
AcDbEntity
8
contour007
 6
CONTINUOUS
 100
AcDbLine
 10
87.999000000000
 20
10.507106781187
 30
 0.0
 11
87.999000000000
 21
33.092893218813
 31
0.0
0
CIRCLE
  5
000000e6
 39
 0.100 
 100
AcDbEntity
8
contour007
 6
CONTINUOUS
100
AcDbCircle
 10
96.999000000000
 20
36.250000000000
 30
 0
 40
1.229000000000
0
ARC
  5
000000e7
 39
 0.100 
 100
AcDbEntity
8
contour007
 6
CONTINUOUS
100
AcDbCircle
 10
96.999000000000
 20
36.250000000000
 30
 0
 40
1.500000000000
100
AcDbArc
 50
0.000000000000
 51
270.000000000000
0
CIRCLE
  5
000000e8
 39
 0.100 
 100
AcDbEntity
8
contour007
 6
CONTINUOUS
100
AcDbCircle
 10
96.999000000000
 20
7.350000000000
 30
 0
 40
1.229000000000
0
ARC
  5
000000e9
 39
 0.100 
 100
AcDbEntity
8
contour007
 6
CONTINUOUS
100
AcDbCircle
 10
96.999000000000
 20
7.350000000000
 30
 0
 40
1.500000000000
100
AcDbArc
 50
0.000000000000
 51
270.000000000000
0
ARC
  5
000000ea
 39
 0.100 
 100
AcDbEntity
8
contour007
 6
CONTINUOUS
100
AcDbCircle
 10
109.352553390593
 20
10.153553390593
 30
 0
 40
0.500000000000
100
AcDbArc
 50
135.000000000000
 51
315.000000000000
0
LINE
  5
000000eb
 39
 0.100 
 100
AcDbEntity
8
contour007
 6
CONTINUOUS
 100
AcDbLine
 10
126.291893218813
 20
9.800000000000
 30
 0.0
 11
109.706106781187
 21
9.800000000000
 31
0.0
0
ARC
  5
000000ec
 39
 0.100 
 100
AcDbEntity
8
contour007
 6
CONTINUOUS
100
AcDbCircle
 10
126.645446609407
 20
10.153553390593
 30
 0
 40
0.500000000000
100
AcDbArc
 50
225.000000000000
 51
405.000000000000
0
LINE
  5
000000ed
 39
 0.100 
 100
AcDbEntity
8
contour007
 6
CONTINUOUS
 100
AcDbLine
 10
126.999000000000
 20
33.092893218813
 30
 0.0
 11
126.999000000000
 21
10.507106781187
 31
0.0
0
ARC
  5
000000ee
 39
 0.100 
 100
AcDbEntity
8
contour007
 6
CONTINUOUS
100
AcDbCircle
 10
126.645446609407
 20
33.446446609407
 30
 0
 40
0.500000000000
100
AcDbArc
 50
315.000000000001
 51
495.000000000001
0
LINE
  5
000000ef
 39
 0.100 
 100
AcDbEntity
8
contour007
 6
CONTINUOUS
 100
AcDbLine
 10
109.706106781187
 20
33.800000000000
 30
 0.0
 11
126.291893218813
 21
33.800000000000
 31
0.0
0
ARC
  5
000000f0
 39
 0.100 
 100
AcDbEntity
8
contour007
 6
CONTINUOUS
100
AcDbCircle
 10
109.352553390593
 20
33.446446609407
 30
 0
 40
0.500000000000
100
AcDbArc
 50
45.000000000000
 51
225.000000000000
0
LINE
  5
000000f1
 39
 0.100 
 100
AcDbEntity
8
contour007
 6
CONTINUOUS
 100
AcDbLine
 10
108.999000000000
 20
10.507106781187
 30
 0.0
 11
108.999000000000
 21
33.092893218813
 31
0.0
0
CIRCLE
  5
000000f2
 39
 0.100 
 100
AcDbEntity
8
contour007
 6
CONTINUOUS
100
AcDbCircle
 10
117.999000000000
 20
36.250000000000
 30
 0
 40
1.229000000000
0
ARC
  5
000000f3
 39
 0.100 
 100
AcDbEntity
8
contour007
 6
CONTINUOUS
100
AcDbCircle
 10
117.999000000000
 20
36.250000000000
 30
 0
 40
1.500000000000
100
AcDbArc
 50
0.000000000000
 51
270.000000000000
0
CIRCLE
  5
000000f4
 39
 0.100 
 100
AcDbEntity
8
contour007
 6
CONTINUOUS
100
AcDbCircle
 10
117.999000000000
 20
7.350000000000
 30
 0
 40
1.229000000000
0
ARC
  5
000000f5
 39
 0.100 
 100
AcDbEntity
8
contour007
 6
CONTINUOUS
100
AcDbCircle
 10
117.999000000000
 20
7.350000000000
 30
 0
 40
1.500000000000
100
AcDbArc
 50
0.000000000000
 51
270.000000000000
0
ARC
  5
000000f6
 39
 0.100 
 100
AcDbEntity
8
contour007
 6
CONTINUOUS
100
AcDbCircle
 10
130.352553390593
 20
10.153553390593
 30
 0
 40
0.500000000000
100
AcDbArc
 50
135.000000000000
 51
315.000000000000
0
LINE
  5
000000f7
 39
 0.100 
 100
AcDbEntity
8
contour007
 6
CONTINUOUS
 100
AcDbLine
 10
147.291893218813
 20
9.800000000000
 30
 0.0
 11
130.706106781187
 21
9.800000000000
 31
0.0
0
ARC
  5
000000f8
 39
 0.100 
 100
AcDbEntity
8
contour007
 6
CONTINUOUS
100
AcDbCircle
 10
147.645446609407
 20
10.153553390593
 30
 0
 40
0.500000000000
100
AcDbArc
 50
225.000000000000
 51
405.000000000000
0
LINE
  5
000000f9
 39
 0.100 
 100
AcDbEntity
8
contour007
 6
CONTINUOUS
 100
AcDbLine
 10
147.999000000000
 20
33.092893218813
 30
 0.0
 11
147.999000000000
 21
10.507106781187
 31
0.0
0
ARC
  5
000000fa
 39
 0.100 
 100
AcDbEntity
8
contour007
 6
CONTINUOUS
100
AcDbCircle
 10
147.645446609407
 20
33.446446609407
 30
 0
 40
0.500000000000
100
AcDbArc
 50
315.000000000001
 51
495.000000000001
0
LINE
  5
000000fb
 39
 0.100 
 100
AcDbEntity
8
contour007
 6
CONTINUOUS
 100
AcDbLine
 10
130.706106781187
 20
33.800000000000
 30
 0.0
 11
147.291893218813
 21
33.800000000000
 31
0.0
0
ARC
  5
000000fc
 39
 0.100 
 100
AcDbEntity
8
contour007
 6
CONTINUOUS
100
AcDbCircle
 10
130.352553390593
 20
33.446446609407
 30
 0
 40
0.500000000000
100
AcDbArc
 50
45.000000000000
 51
225.000000000000
0
LINE
  5
000000fd
 39
 0.100 
 100
AcDbEntity
8
contour007
 6
CONTINUOUS
 100
AcDbLine
 10
129.999000000000
 20
10.507106781187
 30
 0.0
 11
129.999000000000
 21
33.092893218813
 31
0.0
0
CIRCLE
  5
000000fe
 39
 0.100 
 100
AcDbEntity
8
contour007
 6
CONTINUOUS
100
AcDbCircle
 10
138.999000000000
 20
36.250000000000
 30
 0
 40
1.229000000000
0
ARC
  5
000000ff
 39
 0.100 
 100
AcDbEntity
8
contour007
 6
CONTINUOUS
100
AcDbCircle
 10
138.999000000000
 20
36.250000000000
 30
 0
 40
1.500000000000
100
AcDbArc
 50
0.000000000000
 51
270.000000000000
0
CIRCLE
  5
00000100
 39
 0.100 
 100
AcDbEntity
8
contour007
 6
CONTINUOUS
100
AcDbCircle
 10
138.999000000000
 20
7.350000000000
 30
 0
 40
1.229000000000
0
ARC
  5
00000101
 39
 0.100 
 100
AcDbEntity
8
contour007
 6
CONTINUOUS
100
AcDbCircle
 10
138.999000000000
 20
7.350000000000
 30
 0
 40
1.500000000000
100
AcDbArc
 50
0.000000000000
 51
270.000000000000
0
ARC
  5
00000102
 39
 0.100 
 100
AcDbEntity
8
contour007
 6
CONTINUOUS
100
AcDbCircle
 10
151.352553390593
 20
10.153553390593
 30
 0
 40
0.500000000000
100
AcDbArc
 50
135.000000000000
 51
315.000000000000
0
LINE
  5
00000103
 39
 0.100 
 100
AcDbEntity
8
contour007
 6
CONTINUOUS
 100
AcDbLine
 10
168.291893218813
 20
9.800000000000
 30
 0.0
 11
151.706106781187
 21
9.800000000000
 31
0.0
0
ARC
  5
00000104
 39
 0.100 
 100
AcDbEntity
8
contour007
 6
CONTINUOUS
100
AcDbCircle
 10
168.645446609407
 20
10.153553390593
 30
 0
 40
0.500000000000
100
AcDbArc
 50
225.000000000000
 51
405.000000000000
0
LINE
  5
00000105
 39
 0.100 
 100
AcDbEntity
8
contour007
 6
CONTINUOUS
 100
AcDbLine
 10
168.999000000000
 20
33.092893218813
 30
 0.0
 11
168.999000000000
 21
10.507106781187
 31
0.0
0
ARC
  5
00000106
 39
 0.100 
 100
AcDbEntity
8
contour007
 6
CONTINUOUS
100
AcDbCircle
 10
168.645446609407
 20
33.446446609407
 30
 0
 40
0.500000000000
100
AcDbArc
 50
315.000000000001
 51
495.000000000001
0
LINE
  5
00000107
 39
 0.100 
 100
AcDbEntity
8
contour007
 6
CONTINUOUS
 100
AcDbLine
 10
151.706106781187
 20
33.800000000000
 30
 0.0
 11
168.291893218813
 21
33.800000000000
 31
0.0
0
ARC
  5
00000108
 39
 0.100 
 100
AcDbEntity
8
contour007
 6
CONTINUOUS
100
AcDbCircle
 10
151.352553390593
 20
33.446446609407
 30
 0
 40
0.500000000000
100
AcDbArc
 50
45.000000000000
 51
225.000000000000
0
LINE
  5
00000109
 39
 0.100 
 100
AcDbEntity
8
contour007
 6
CONTINUOUS
 100
AcDbLine
 10
150.999000000000
 20
10.507106781187
 30
 0.0
 11
150.999000000000
 21
33.092893218813
 31
0.0
0
CIRCLE
  5
0000010a
 39
 0.100 
 100
AcDbEntity
8
contour007
 6
CONTINUOUS
100
AcDbCircle
 10
159.999000000000
 20
36.250000000000
 30
 0
 40
1.229000000000
0
ARC
  5
0000010b
 39
 0.100 
 100
AcDbEntity
8
contour007
 6
CONTINUOUS
100
AcDbCircle
 10
159.999000000000
 20
36.250000000000
 30
 0
 40
1.500000000000
100
AcDbArc
 50
0.000000000000
 51
270.000000000000
0
CIRCLE
  5
0000010c
 39
 0.100 
 100
AcDbEntity
8
contour007
 6
CONTINUOUS
100
AcDbCircle
 10
159.999000000000
 20
7.350000000000
 30
 0
 40
1.229000000000
0
ARC
  5
0000010d
 39
 0.100 
 100
AcDbEntity
8
contour007
 6
CONTINUOUS
100
AcDbCircle
 10
159.999000000000
 20
7.350000000000
 30
 0
 40
1.500000000000
100
AcDbArc
 50
0.000000000000
 51
270.000000000000
0
CIRCLE
  5
0000010e
 39
 0.100 
 100
AcDbEntity
8
contour007
 6
CONTINUOUS
100
AcDbCircle
 10
196.100000000000
 20
21.800000000000
 30
 0
 40
3.500000000000
0
CIRCLE
  5
0000010f
 39
 0.100 
 100
AcDbEntity
8
contour007
 6
CONTINUOUS
100
AcDbCircle
 10
321.100000000000
 20
21.800000000000
 30
 0
 40
3.500000000000
0
LWPOLYLINE
  5
00000110
 39
 0.100 
 100
AcDbEntity
8
contour007
 6
CONTINUOUS
100
AcDbPolyline
 90
229
 70
8
 10
204.767000000000
 20
25.655000000000
 10
204.823000000000
 20
25.658000000000
 10
204.878000000000
 20
25.662000000000
 10
204.951000000000
 20
25.671000000000
 10
205.126000000000
 20
25.696000000000
 10
205.181000000000
 20
25.704000000000
 10
205.236000000000
 20
25.715000000000
 10
205.285000000000
 20
25.727000000000
 10
205.456000000000
 20
25.770000000000
 10
205.510000000000
 20
25.784000000000
 10
205.563000000000
 20
25.801000000000
 10
205.623000000000
 20
25.822000000000
 10
205.788000000000
 20
25.884000000000
 10
205.840000000000
 20
25.905000000000
 10
205.891000000000
 20
25.927000000000
 10
205.940000000000
 20
25.950000000000
 10
206.097000000000
 20
26.029000000000
 10
206.146000000000
 20
26.055000000000
 10
206.194000000000
 20
26.083000000000
 10
206.250000000000
 20
26.118000000000
 10
206.398000000000
 20
26.215000000000
 10
206.444000000000
 20
26.246000000000
 10
206.489000000000
 20
26.279000000000
 10
206.533000000000
 20
26.315000000000
 10
206.669000000000
 20
26.427000000000
 10
206.712000000000
 20
26.463000000000
 10
206.753000000000
 20
26.500000000000
 10
206.793000000000
 20
26.540000000000
 10
206.916000000000
 20
26.666000000000
 10
206.954000000000
 20
26.707000000000
 10
206.991000000000
 20
26.749000000000
 10
207.031000000000
 20
26.798000000000
 10
207.139000000000
 20
26.937000000000
 10
207.172000000000
 20
26.982000000000
 10
207.204000000000
 20
27.027000000000
 10
207.236000000000
 20
27.078000000000
 10
207.328000000000
 20
27.228000000000
 10
207.357000000000
 20
27.276000000000
 10
207.383000000000
 20
27.325000000000
 10
207.410000000000
 20
27.380000000000
 10
207.485000000000
 20
27.540000000000
 10
207.508000000000
 20
27.591000000000
 10
207.529000000000
 20
27.643000000000
 10
207.546000000000
 20
27.689000000000
 10
207.604000000000
 20
27.856000000000
 10
207.622000000000
 20
27.909000000000
 10
207.637000000000
 20
27.963000000000
 10
207.654000000000
 20
28.031000000000
 10
207.692000000000
 20
28.203000000000
 10
207.703000000000
 20
28.257000000000
 10
207.712000000000
 20
28.312000000000
 10
207.718000000000
 20
28.361000000000
 10
207.738000000000
 20
28.536000000000
 10
207.743000000000
 20
28.591000000000
 10
207.747000000000
 20
28.647000000000
 10
207.748000000000
 20
28.712000000000
 10
207.748000000000
 20
28.888000000000
 10
207.747000000000
 20
28.944000000000
 10
207.744000000000
 20
28.999000000000
 10
207.738000000000
 20
29.064000000000
 10
207.718000000000
 20
29.239000000000
 10
207.711000000000
 20
29.294000000000
 10
207.701000000000
 20
29.349000000000
 10
207.692000000000
 20
29.397000000000
 10
207.654000000000
 20
29.569000000000
 10
207.641000000000
 20
29.624000000000
 10
207.626000000000
 20
29.677000000000
 10
207.604000000000
 20
29.744000000000
 10
207.546000000000
 20
29.911000000000
 10
207.527000000000
 20
29.963000000000
 10
207.506000000000
 20
30.014000000000
 10
207.485000000000
 20
30.060000000000
 10
207.410000000000
 20
30.220000000000
 10
207.386000000000
 20
30.270000000000
 10
207.360000000000
 20
30.319000000000
 10
207.328000000000
 20
30.372000000000
 10
207.236000000000
 20
30.522000000000
 10
207.206000000000
 20
30.569000000000
 10
207.175000000000
 20
30.615000000000
 10
207.139000000000
 20
30.663000000000
 10
207.031000000000
 20
30.802000000000
 10
206.996000000000
 20
30.845000000000
 10
206.960000000000
 20
30.887000000000
 10
206.916000000000
 20
30.934000000000
 10
206.793000000000
 20
31.060000000000
 10
206.754000000000
 20
31.099000000000
 10
206.713000000000
 20
31.137000000000
 10
206.669000000000
 20
31.173000000000
 10
206.533000000000
 20
31.285000000000
 10
206.490000000000
 20
31.320000000000
 10
206.445000000000
 20
31.353000000000
 10
206.398000000000
 20
31.385000000000
 10
206.250000000000
 20
31.482000000000
 10
206.203000000000
 20
31.512000000000
 10
206.154000000000
 20
31.540000000000
 10
206.097000000000
 20
31.571000000000
 10
205.940000000000
 20
31.650000000000
 10
205.890000000000
 20
31.674000000000
 10
205.839000000000
 20
31.696000000000
 10
205.788000000000
 20
31.716000000000
 10
205.623000000000
 20
31.778000000000
 10
205.571000000000
 20
31.797000000000
 10
205.518000000000
 20
31.813000000000
 10
205.456000000000
 20
31.830000000000
 10
205.285000000000
 20
31.873000000000
 10
205.231000000000
 20
31.886000000000
 10
205.176000000000
 20
31.896000000000
 10
205.126000000000
 20
31.904000000000
 10
204.951000000000
 20
31.929000000000
 10
204.896000000000
 20
31.936000000000
 10
204.840000000000
 20
31.941000000000
 10
204.767000000000
 20
31.945000000000
 10
204.591000000000
 20
31.949000000000
 10
204.536000000000
 20
31.949000000000
 10
204.480000000000
 20
31.947000000000
 10
204.433000000000
 20
31.944000000000
 10
204.257000000000
 20
31.930000000000
 10
204.202000000000
 20
31.925000000000
 10
204.146000000000
 20
31.917000000000
 10
204.081000000000
 20
31.906000000000
 10
203.908000000000
 20
31.872000000000
 10
203.854000000000
 20
31.860000000000
 10
203.800000000000
 20
31.847000000000
 10
203.741000000000
 20
31.829000000000
 10
203.573000000000
 20
31.776000000000
 10
203.520000000000
 20
31.758000000000
 10
203.468000000000
 20
31.739000000000
 10
203.421000000000
 20
31.719000000000
 10
203.260000000000
 20
31.649000000000
 10
203.209000000000
 20
31.626000000000
 10
203.160000000000
 20
31.601000000000
 10
203.099000000000
 20
31.568000000000
 10
202.946000000000
 20
31.479000000000
 10
202.898000000000
 20
31.450000000000
 10
202.851000000000
 20
31.419000000000
 10
202.809000000000
 20
31.389000000000
 10
202.667000000000
 20
31.285000000000
 10
202.623000000000
 20
31.252000000000
 10
202.580000000000
 20
31.217000000000
 10
202.536000000000
 20
31.178000000000
 10
202.406000000000
 20
31.059000000000
 10
202.366000000000
 20
31.021000000000
 10
202.327000000000
 20
30.981000000000
 10
202.285000000000
 20
30.935000000000
 10
202.169000000000
 20
30.802000000000
 10
202.133000000000
 20
30.759000000000
 10
202.099000000000
 20
30.715000000000
 10
202.061000000000
 20
30.663000000000
 10
201.961000000000
 20
30.518000000000
 10
201.930000000000
 20
30.472000000000
 10
201.901000000000
 20
30.424000000000
 10
201.874000000000
 20
30.377000000000
 10
201.790000000000
 20
30.222000000000
 10
201.765000000000
 20
30.172000000000
 10
201.741000000000
 20
30.122000000000
 10
201.716000000000
 20
30.065000000000
 10
201.650000000000
 20
29.902000000000
 10
201.630000000000
 20
29.850000000000
 10
201.612000000000
 20
29.797000000000
 10
201.595000000000
 20
29.741000000000
 10
201.547000000000
 20
29.571000000000
 10
201.533000000000
 20
29.517000000000
 10
201.521000000000
 20
29.463000000000
 10
201.510000000000
 20
29.405000000000
 10
201.481000000000
 20
29.231000000000
 10
201.473000000000
 20
29.176000000000
 10
201.467000000000
 20
29.120000000000
 10
201.462000000000
 20
29.064000000000
 10
201.452000000000
 20
28.888000000000
 10
201.450000000000
 20
28.832000000000
 10
201.450000000000
 20
28.777000000000
 10
201.452000000000
 20
28.712000000000
 10
201.462000000000
 20
28.536000000000
 10
201.467000000000
 20
28.481000000000
 10
201.473000000000
 20
28.425000000000
 10
201.481000000000
 20
28.369000000000
 10
201.510000000000
 20
28.195000000000
 10
201.520000000000
 20
28.140000000000
 10
201.532000000000
 20
28.086000000000
 10
201.547000000000
 20
28.029000000000
 10
201.595000000000
 20
27.859000000000
 10
201.611000000000
 20
27.806000000000
 10
201.629000000000
 20
27.753000000000
 10
201.650000000000
 20
27.698000000000
 10
201.716000000000
 20
27.535000000000
 10
201.738000000000
 20
27.484000000000
 10
201.762000000000
 20
27.434000000000
 10
201.790000000000
 20
27.378000000000
 10
201.874000000000
 20
27.223000000000
 10
201.902000000000
 20
27.175000000000
 10
201.931000000000
 20
27.128000000000
 10
201.961000000000
 20
27.082000000000
 10
202.061000000000
 20
26.937000000000
 10
202.093000000000
 20
26.892000000000
 10
202.127000000000
 20
26.848000000000
 10
202.169000000000
 20
26.798000000000
 10
202.285000000000
 20
26.665000000000
 10
202.322000000000
 20
26.624000000000
 10
202.361000000000
 20
26.584000000000
 10
202.406000000000
 20
26.541000000000
 10
202.536000000000
 20
26.422000000000
 10
202.578000000000
 20
26.385000000000
 10
202.621000000000
 20
26.350000000000
 10
202.667000000000
 20
26.315000000000
 10
202.809000000000
 20
26.211000000000
 10
202.855000000000
 20
26.178000000000
 10
202.901000000000
 20
26.148000000000
 10
202.946000000000
 20
26.121000000000
 10
203.099000000000
 20
26.032000000000
 10
203.147000000000
 20
26.005000000000
 10
203.197000000000
 20
25.980000000000
 10
203.260000000000
 20
25.951000000000
 10
203.421000000000
 20
25.881000000000
 10
203.472000000000
 20
25.859000000000
 10
203.525000000000
 20
25.840000000000
 10
203.573000000000
 20
25.824000000000
 10
203.741000000000
 20
25.771000000000
 10
203.794000000000
 20
25.755000000000
 10
203.848000000000
 20
25.741000000000
 10
203.908000000000
 20
25.728000000000
 10
204.081000000000
 20
25.694000000000
 10
204.136000000000
 20
25.684000000000
 10
204.191000000000
 20
25.677000000000
 10
204.257000000000
 20
25.670000000000
 10
204.433000000000
 20
25.656000000000
 10
204.489000000000
 20
25.652000000000
 10
204.544000000000
 20
25.651000000000
 10
204.591000000000
 20
25.651000000000
 10
204.767000000000
 20
25.655000000000
0
CIRCLE
  5
00000111
 39
 0.100 
 100
AcDbEntity
8
contour007
 6
CONTINUOUS
100
AcDbCircle
 10
204.600000000000
 20
28.800000000000
 30
 0
 40
1.600000000000
0
LWPOLYLINE
  5
00000112
 39
 0.100 
 100
AcDbEntity
8
contour007
 6
CONTINUOUS
100
AcDbPolyline
 90
229
 70
8
 10
310.767000000000
 20
11.655000000000
 10
310.823000000000
 20
11.658000000000
 10
310.878000000000
 20
11.662000000000
 10
310.951000000000
 20
11.671000000000
 10
311.126000000000
 20
11.696000000000
 10
311.181000000000
 20
11.704000000000
 10
311.236000000000
 20
11.715000000000
 10
311.285000000000
 20
11.727000000000
 10
311.456000000000
 20
11.770000000000
 10
311.510000000000
 20
11.784000000000
 10
311.563000000000
 20
11.801000000000
 10
311.623000000000
 20
11.822000000000
 10
311.788000000000
 20
11.884000000000
 10
311.840000000000
 20
11.905000000000
 10
311.891000000000
 20
11.927000000000
 10
311.940000000000
 20
11.950000000000
 10
312.097000000000
 20
12.029000000000
 10
312.146000000000
 20
12.055000000000
 10
312.194000000000
 20
12.083000000000
 10
312.250000000000
 20
12.118000000000
 10
312.398000000000
 20
12.215000000000
 10
312.444000000000
 20
12.246000000000
 10
312.489000000000
 20
12.279000000000
 10
312.533000000000
 20
12.315000000000
 10
312.669000000000
 20
12.427000000000
 10
312.712000000000
 20
12.463000000000
 10
312.753000000000
 20
12.500000000000
 10
312.793000000000
 20
12.540000000000
 10
312.916000000000
 20
12.666000000000
 10
312.954000000000
 20
12.707000000000
 10
312.991000000000
 20
12.749000000000
 10
313.031000000000
 20
12.798000000000
 10
313.139000000000
 20
12.937000000000
 10
313.172000000000
 20
12.982000000000
 10
313.204000000000
 20
13.027000000000
 10
313.236000000000
 20
13.078000000000
 10
313.328000000000
 20
13.228000000000
 10
313.357000000000
 20
13.276000000000
 10
313.383000000000
 20
13.325000000000
 10
313.410000000000
 20
13.380000000000
 10
313.485000000000
 20
13.540000000000
 10
313.508000000000
 20
13.591000000000
 10
313.529000000000
 20
13.643000000000
 10
313.546000000000
 20
13.689000000000
 10
313.604000000000
 20
13.856000000000
 10
313.622000000000
 20
13.909000000000
 10
313.637000000000
 20
13.963000000000
 10
313.654000000000
 20
14.031000000000
 10
313.692000000000
 20
14.203000000000
 10
313.703000000000
 20
14.257000000000
 10
313.712000000000
 20
14.312000000000
 10
313.718000000000
 20
14.361000000000
 10
313.738000000000
 20
14.536000000000
 10
313.743000000000
 20
14.591000000000
 10
313.747000000000
 20
14.647000000000
 10
313.748000000000
 20
14.712000000000
 10
313.748000000000
 20
14.888000000000
 10
313.747000000000
 20
14.944000000000
 10
313.744000000000
 20
14.999000000000
 10
313.738000000000
 20
15.064000000000
 10
313.718000000000
 20
15.239000000000
 10
313.711000000000
 20
15.294000000000
 10
313.701000000000
 20
15.349000000000
 10
313.692000000000
 20
15.397000000000
 10
313.654000000000
 20
15.569000000000
 10
313.641000000000
 20
15.624000000000
 10
313.626000000000
 20
15.677000000000
 10
313.604000000000
 20
15.744000000000
 10
313.546000000000
 20
15.911000000000
 10
313.527000000000
 20
15.963000000000
 10
313.506000000000
 20
16.014000000000
 10
313.485000000000
 20
16.060000000000
 10
313.410000000000
 20
16.220000000000
 10
313.386000000000
 20
16.270000000000
 10
313.360000000000
 20
16.319000000000
 10
313.328000000000
 20
16.372000000000
 10
313.236000000000
 20
16.522000000000
 10
313.206000000000
 20
16.569000000000
 10
313.175000000000
 20
16.615000000000
 10
313.139000000000
 20
16.663000000000
 10
313.031000000000
 20
16.802000000000
 10
312.996000000000
 20
16.845000000000
 10
312.960000000000
 20
16.887000000000
 10
312.916000000000
 20
16.934000000000
 10
312.793000000000
 20
17.060000000000
 10
312.754000000000
 20
17.099000000000
 10
312.713000000000
 20
17.137000000000
 10
312.669000000000
 20
17.173000000000
 10
312.533000000000
 20
17.285000000000
 10
312.490000000000
 20
17.320000000000
 10
312.445000000000
 20
17.353000000000
 10
312.398000000000
 20
17.385000000000
 10
312.250000000000
 20
17.482000000000
 10
312.203000000000
 20
17.512000000000
 10
312.154000000000
 20
17.540000000000
 10
312.097000000000
 20
17.571000000000
 10
311.940000000000
 20
17.650000000000
 10
311.890000000000
 20
17.674000000000
 10
311.839000000000
 20
17.696000000000
 10
311.788000000000
 20
17.716000000000
 10
311.623000000000
 20
17.778000000000
 10
311.571000000000
 20
17.797000000000
 10
311.518000000000
 20
17.813000000000
 10
311.456000000000
 20
17.830000000000
 10
311.285000000000
 20
17.873000000000
 10
311.231000000000
 20
17.886000000000
 10
311.176000000000
 20
17.896000000000
 10
311.126000000000
 20
17.904000000000
 10
310.951000000000
 20
17.929000000000
 10
310.896000000000
 20
17.936000000000
 10
310.840000000000
 20
17.941000000000
 10
310.767000000000
 20
17.945000000000
 10
310.591000000000
 20
17.949000000000
 10
310.536000000000
 20
17.949000000000
 10
310.480000000000
 20
17.947000000000
 10
310.433000000000
 20
17.944000000000
 10
310.257000000000
 20
17.930000000000
 10
310.202000000000
 20
17.925000000000
 10
310.146000000000
 20
17.917000000000
 10
310.081000000000
 20
17.906000000000
 10
309.908000000000
 20
17.872000000000
 10
309.854000000000
 20
17.860000000000
 10
309.800000000000
 20
17.847000000000
 10
309.741000000000
 20
17.829000000000
 10
309.573000000000
 20
17.776000000000
 10
309.520000000000
 20
17.758000000000
 10
309.468000000000
 20
17.739000000000
 10
309.421000000000
 20
17.719000000000
 10
309.260000000000
 20
17.649000000000
 10
309.209000000000
 20
17.626000000000
 10
309.160000000000
 20
17.601000000000
 10
309.099000000000
 20
17.568000000000
 10
308.946000000000
 20
17.479000000000
 10
308.898000000000
 20
17.450000000000
 10
308.851000000000
 20
17.419000000000
 10
308.809000000000
 20
17.389000000000
 10
308.667000000000
 20
17.285000000000
 10
308.623000000000
 20
17.252000000000
 10
308.580000000000
 20
17.217000000000
 10
308.536000000000
 20
17.178000000000
 10
308.406000000000
 20
17.059000000000
 10
308.366000000000
 20
17.021000000000
 10
308.327000000000
 20
16.981000000000
 10
308.285000000000
 20
16.935000000000
 10
308.169000000000
 20
16.802000000000
 10
308.133000000000
 20
16.759000000000
 10
308.099000000000
 20
16.715000000000
 10
308.061000000000
 20
16.663000000000
 10
307.961000000000
 20
16.518000000000
 10
307.930000000000
 20
16.472000000000
 10
307.901000000000
 20
16.424000000000
 10
307.874000000000
 20
16.377000000000
 10
307.790000000000
 20
16.222000000000
 10
307.765000000000
 20
16.172000000000
 10
307.741000000000
 20
16.122000000000
 10
307.716000000000
 20
16.065000000000
 10
307.650000000000
 20
15.902000000000
 10
307.630000000000
 20
15.850000000000
 10
307.612000000000
 20
15.797000000000
 10
307.595000000000
 20
15.741000000000
 10
307.547000000000
 20
15.571000000000
 10
307.533000000000
 20
15.517000000000
 10
307.521000000000
 20
15.463000000000
 10
307.510000000000
 20
15.405000000000
 10
307.481000000000
 20
15.231000000000
 10
307.473000000000
 20
15.176000000000
 10
307.467000000000
 20
15.120000000000
 10
307.462000000000
 20
15.064000000000
 10
307.452000000000
 20
14.888000000000
 10
307.450000000000
 20
14.832000000000
 10
307.450000000000
 20
14.777000000000
 10
307.452000000000
 20
14.712000000000
 10
307.462000000000
 20
14.536000000000
 10
307.467000000000
 20
14.481000000000
 10
307.473000000000
 20
14.425000000000
 10
307.481000000000
 20
14.369000000000
 10
307.510000000000
 20
14.195000000000
 10
307.520000000000
 20
14.140000000000
 10
307.532000000000
 20
14.086000000000
 10
307.547000000000
 20
14.029000000000
 10
307.595000000000
 20
13.859000000000
 10
307.611000000000
 20
13.806000000000
 10
307.629000000000
 20
13.753000000000
 10
307.650000000000
 20
13.698000000000
 10
307.716000000000
 20
13.535000000000
 10
307.738000000000
 20
13.484000000000
 10
307.762000000000
 20
13.434000000000
 10
307.790000000000
 20
13.378000000000
 10
307.874000000000
 20
13.223000000000
 10
307.902000000000
 20
13.175000000000
 10
307.931000000000
 20
13.128000000000
 10
307.961000000000
 20
13.082000000000
 10
308.061000000000
 20
12.937000000000
 10
308.093000000000
 20
12.892000000000
 10
308.127000000000
 20
12.848000000000
 10
308.169000000000
 20
12.798000000000
 10
308.285000000000
 20
12.665000000000
 10
308.322000000000
 20
12.624000000000
 10
308.361000000000
 20
12.584000000000
 10
308.406000000000
 20
12.541000000000
 10
308.536000000000
 20
12.422000000000
 10
308.578000000000
 20
12.385000000000
 10
308.621000000000
 20
12.350000000000
 10
308.667000000000
 20
12.315000000000
 10
308.809000000000
 20
12.211000000000
 10
308.855000000000
 20
12.178000000000
 10
308.901000000000
 20
12.148000000000
 10
308.946000000000
 20
12.121000000000
 10
309.099000000000
 20
12.032000000000
 10
309.147000000000
 20
12.005000000000
 10
309.197000000000
 20
11.980000000000
 10
309.260000000000
 20
11.951000000000
 10
309.421000000000
 20
11.881000000000
 10
309.472000000000
 20
11.859000000000
 10
309.525000000000
 20
11.840000000000
 10
309.573000000000
 20
11.824000000000
 10
309.741000000000
 20
11.771000000000
 10
309.794000000000
 20
11.755000000000
 10
309.848000000000
 20
11.741000000000
 10
309.908000000000
 20
11.728000000000
 10
310.081000000000
 20
11.694000000000
 10
310.136000000000
 20
11.684000000000
 10
310.191000000000
 20
11.677000000000
 10
310.257000000000
 20
11.670000000000
 10
310.433000000000
 20
11.656000000000
 10
310.489000000000
 20
11.652000000000
 10
310.544000000000
 20
11.651000000000
 10
310.591000000000
 20
11.651000000000
 10
310.767000000000
 20
11.655000000000
0
CIRCLE
  5
00000113
 39
 0.100 
 100
AcDbEntity
8
contour007
 6
CONTINUOUS
100
AcDbCircle
 10
310.600000000000
 20
14.800000000000
 30
 0
 40
1.600000000000
0
LWPOLYLINE
  5
00000114
 39
 0.100 
 100
AcDbEntity
8
contour007
 6
CONTINUOUS
100
AcDbPolyline
 90
229
 70
8
 10
310.767000000000
 20
25.655000000000
 10
310.823000000000
 20
25.658000000000
 10
310.878000000000
 20
25.662000000000
 10
310.951000000000
 20
25.671000000000
 10
311.126000000000
 20
25.696000000000
 10
311.181000000000
 20
25.704000000000
 10
311.236000000000
 20
25.715000000000
 10
311.285000000000
 20
25.727000000000
 10
311.456000000000
 20
25.770000000000
 10
311.510000000000
 20
25.784000000000
 10
311.563000000000
 20
25.801000000000
 10
311.623000000000
 20
25.822000000000
 10
311.788000000000
 20
25.884000000000
 10
311.840000000000
 20
25.905000000000
 10
311.891000000000
 20
25.927000000000
 10
311.940000000000
 20
25.950000000000
 10
312.097000000000
 20
26.029000000000
 10
312.146000000000
 20
26.055000000000
 10
312.194000000000
 20
26.083000000000
 10
312.250000000000
 20
26.118000000000
 10
312.398000000000
 20
26.215000000000
 10
312.444000000000
 20
26.246000000000
 10
312.489000000000
 20
26.279000000000
 10
312.533000000000
 20
26.315000000000
 10
312.669000000000
 20
26.427000000000
 10
312.712000000000
 20
26.463000000000
 10
312.753000000000
 20
26.500000000000
 10
312.793000000000
 20
26.540000000000
 10
312.916000000000
 20
26.666000000000
 10
312.954000000000
 20
26.707000000000
 10
312.991000000000
 20
26.749000000000
 10
313.031000000000
 20
26.798000000000
 10
313.139000000000
 20
26.937000000000
 10
313.172000000000
 20
26.982000000000
 10
313.204000000000
 20
27.027000000000
 10
313.236000000000
 20
27.078000000000
 10
313.328000000000
 20
27.228000000000
 10
313.357000000000
 20
27.276000000000
 10
313.383000000000
 20
27.325000000000
 10
313.410000000000
 20
27.380000000000
 10
313.485000000000
 20
27.540000000000
 10
313.508000000000
 20
27.591000000000
 10
313.529000000000
 20
27.643000000000
 10
313.546000000000
 20
27.689000000000
 10
313.604000000000
 20
27.856000000000
 10
313.622000000000
 20
27.909000000000
 10
313.637000000000
 20
27.963000000000
 10
313.654000000000
 20
28.031000000000
 10
313.692000000000
 20
28.203000000000
 10
313.703000000000
 20
28.257000000000
 10
313.712000000000
 20
28.312000000000
 10
313.718000000000
 20
28.361000000000
 10
313.738000000000
 20
28.536000000000
 10
313.743000000000
 20
28.591000000000
 10
313.747000000000
 20
28.647000000000
 10
313.748000000000
 20
28.712000000000
 10
313.748000000000
 20
28.888000000000
 10
313.747000000000
 20
28.944000000000
 10
313.744000000000
 20
28.999000000000
 10
313.738000000000
 20
29.064000000000
 10
313.718000000000
 20
29.239000000000
 10
313.711000000000
 20
29.294000000000
 10
313.701000000000
 20
29.349000000000
 10
313.692000000000
 20
29.397000000000
 10
313.654000000000
 20
29.569000000000
 10
313.641000000000
 20
29.624000000000
 10
313.626000000000
 20
29.677000000000
 10
313.604000000000
 20
29.744000000000
 10
313.546000000000
 20
29.911000000000
 10
313.527000000000
 20
29.963000000000
 10
313.506000000000
 20
30.014000000000
 10
313.485000000000
 20
30.060000000000
 10
313.410000000000
 20
30.220000000000
 10
313.386000000000
 20
30.270000000000
 10
313.360000000000
 20
30.319000000000
 10
313.328000000000
 20
30.372000000000
 10
313.236000000000
 20
30.522000000000
 10
313.206000000000
 20
30.569000000000
 10
313.175000000000
 20
30.615000000000
 10
313.139000000000
 20
30.663000000000
 10
313.031000000000
 20
30.802000000000
 10
312.996000000000
 20
30.845000000000
 10
312.960000000000
 20
30.887000000000
 10
312.916000000000
 20
30.934000000000
 10
312.793000000000
 20
31.060000000000
 10
312.754000000000
 20
31.099000000000
 10
312.713000000000
 20
31.137000000000
 10
312.669000000000
 20
31.173000000000
 10
312.533000000000
 20
31.285000000000
 10
312.490000000000
 20
31.320000000000
 10
312.445000000000
 20
31.353000000000
 10
312.398000000000
 20
31.385000000000
 10
312.250000000000
 20
31.482000000000
 10
312.203000000000
 20
31.512000000000
 10
312.154000000000
 20
31.540000000000
 10
312.097000000000
 20
31.571000000000
 10
311.940000000000
 20
31.650000000000
 10
311.890000000000
 20
31.674000000000
 10
311.839000000000
 20
31.696000000000
 10
311.788000000000
 20
31.716000000000
 10
311.623000000000
 20
31.778000000000
 10
311.571000000000
 20
31.797000000000
 10
311.518000000000
 20
31.813000000000
 10
311.456000000000
 20
31.830000000000
 10
311.285000000000
 20
31.873000000000
 10
311.231000000000
 20
31.886000000000
 10
311.176000000000
 20
31.896000000000
 10
311.126000000000
 20
31.904000000000
 10
310.951000000000
 20
31.929000000000
 10
310.896000000000
 20
31.936000000000
 10
310.840000000000
 20
31.941000000000
 10
310.767000000000
 20
31.945000000000
 10
310.591000000000
 20
31.949000000000
 10
310.536000000000
 20
31.949000000000
 10
310.480000000000
 20
31.947000000000
 10
310.433000000000
 20
31.944000000000
 10
310.257000000000
 20
31.930000000000
 10
310.202000000000
 20
31.925000000000
 10
310.146000000000
 20
31.917000000000
 10
310.081000000000
 20
31.906000000000
 10
309.908000000000
 20
31.872000000000
 10
309.854000000000
 20
31.860000000000
 10
309.800000000000
 20
31.847000000000
 10
309.741000000000
 20
31.829000000000
 10
309.573000000000
 20
31.776000000000
 10
309.520000000000
 20
31.758000000000
 10
309.468000000000
 20
31.739000000000
 10
309.421000000000
 20
31.719000000000
 10
309.260000000000
 20
31.649000000000
 10
309.209000000000
 20
31.626000000000
 10
309.160000000000
 20
31.601000000000
 10
309.099000000000
 20
31.568000000000
 10
308.946000000000
 20
31.479000000000
 10
308.898000000000
 20
31.450000000000
 10
308.851000000000
 20
31.419000000000
 10
308.809000000000
 20
31.389000000000
 10
308.667000000000
 20
31.285000000000
 10
308.623000000000
 20
31.252000000000
 10
308.580000000000
 20
31.217000000000
 10
308.536000000000
 20
31.178000000000
 10
308.406000000000
 20
31.059000000000
 10
308.366000000000
 20
31.021000000000
 10
308.327000000000
 20
30.981000000000
 10
308.285000000000
 20
30.935000000000
 10
308.169000000000
 20
30.802000000000
 10
308.133000000000
 20
30.759000000000
 10
308.099000000000
 20
30.715000000000
 10
308.061000000000
 20
30.663000000000
 10
307.961000000000
 20
30.518000000000
 10
307.930000000000
 20
30.472000000000
 10
307.901000000000
 20
30.424000000000
 10
307.874000000000
 20
30.377000000000
 10
307.790000000000
 20
30.222000000000
 10
307.765000000000
 20
30.172000000000
 10
307.741000000000
 20
30.122000000000
 10
307.716000000000
 20
30.065000000000
 10
307.650000000000
 20
29.902000000000
 10
307.630000000000
 20
29.850000000000
 10
307.612000000000
 20
29.797000000000
 10
307.595000000000
 20
29.741000000000
 10
307.547000000000
 20
29.571000000000
 10
307.533000000000
 20
29.517000000000
 10
307.521000000000
 20
29.463000000000
 10
307.510000000000
 20
29.405000000000
 10
307.481000000000
 20
29.231000000000
 10
307.473000000000
 20
29.176000000000
 10
307.467000000000
 20
29.120000000000
 10
307.462000000000
 20
29.064000000000
 10
307.452000000000
 20
28.888000000000
 10
307.450000000000
 20
28.832000000000
 10
307.450000000000
 20
28.777000000000
 10
307.452000000000
 20
28.712000000000
 10
307.462000000000
 20
28.536000000000
 10
307.467000000000
 20
28.481000000000
 10
307.473000000000
 20
28.425000000000
 10
307.481000000000
 20
28.369000000000
 10
307.510000000000
 20
28.195000000000
 10
307.520000000000
 20
28.140000000000
 10
307.532000000000
 20
28.086000000000
 10
307.547000000000
 20
28.029000000000
 10
307.595000000000
 20
27.859000000000
 10
307.611000000000
 20
27.806000000000
 10
307.629000000000
 20
27.753000000000
 10
307.650000000000
 20
27.698000000000
 10
307.716000000000
 20
27.535000000000
 10
307.738000000000
 20
27.484000000000
 10
307.762000000000
 20
27.434000000000
 10
307.790000000000
 20
27.378000000000
 10
307.874000000000
 20
27.223000000000
 10
307.902000000000
 20
27.175000000000
 10
307.931000000000
 20
27.128000000000
 10
307.961000000000
 20
27.082000000000
 10
308.061000000000
 20
26.937000000000
 10
308.093000000000
 20
26.892000000000
 10
308.127000000000
 20
26.848000000000
 10
308.169000000000
 20
26.798000000000
 10
308.285000000000
 20
26.665000000000
 10
308.322000000000
 20
26.624000000000
 10
308.361000000000
 20
26.584000000000
 10
308.406000000000
 20
26.541000000000
 10
308.536000000000
 20
26.422000000000
 10
308.578000000000
 20
26.385000000000
 10
308.621000000000
 20
26.350000000000
 10
308.667000000000
 20
26.315000000000
 10
308.809000000000
 20
26.211000000000
 10
308.855000000000
 20
26.178000000000
 10
308.901000000000
 20
26.148000000000
 10
308.946000000000
 20
26.121000000000
 10
309.099000000000
 20
26.032000000000
 10
309.147000000000
 20
26.005000000000
 10
309.197000000000
 20
25.980000000000
 10
309.260000000000
 20
25.951000000000
 10
309.421000000000
 20
25.881000000000
 10
309.472000000000
 20
25.859000000000
 10
309.525000000000
 20
25.840000000000
 10
309.573000000000
 20
25.824000000000
 10
309.741000000000
 20
25.771000000000
 10
309.794000000000
 20
25.755000000000
 10
309.848000000000
 20
25.741000000000
 10
309.908000000000
 20
25.728000000000
 10
310.081000000000
 20
25.694000000000
 10
310.136000000000
 20
25.684000000000
 10
310.191000000000
 20
25.677000000000
 10
310.257000000000
 20
25.670000000000
 10
310.433000000000
 20
25.656000000000
 10
310.489000000000
 20
25.652000000000
 10
310.544000000000
 20
25.651000000000
 10
310.591000000000
 20
25.651000000000
 10
310.767000000000
 20
25.655000000000
0
CIRCLE
  5
00000115
 39
 0.100 
 100
AcDbEntity
8
contour007
 6
CONTINUOUS
100
AcDbCircle
 10
310.600000000000
 20
28.800000000000
 30
 0
 40
1.600000000000
0
ARC
  5
00000116
 39
 0.100 
 100
AcDbEntity
8
contour007
 6
CONTINUOUS
100
AcDbCircle
 10
210.100000000000
 20
11.300000000000
 30
 0
 40
1.500000000000
100
AcDbArc
 50
180.000000000000
 51
270.000000000000
0
LINE
  5
00000117
 39
 0.100 
 100
AcDbEntity
8
contour007
 6
CONTINUOUS
 100
AcDbLine
 10
305.100000000000
 20
9.800000000000
 30
 0.0
 11
210.100000000000
 21
9.800000000000
 31
0.0
0
ARC
  5
00000118
 39
 0.100 
 100
AcDbEntity
8
contour007
 6
CONTINUOUS
100
AcDbCircle
 10
305.100000000000
 20
11.300000000000
 30
 0
 40
1.500000000000
100
AcDbArc
 50
270.000000000000
 51
360.000000000000
0
LINE
  5
00000119
 39
 0.100 
 100
AcDbEntity
8
contour007
 6
CONTINUOUS
 100
AcDbLine
 10
306.600000000000
 20
32.300000000000
 30
 0.0
 11
306.600000000000
 21
11.300000000000
 31
0.0
0
ARC
  5
0000011a
 39
 0.100 
 100
AcDbEntity
8
contour007
 6
CONTINUOUS
100
AcDbCircle
 10
305.100000000000
 20
32.300000000000
 30
 0
 40
1.500000000000
100
AcDbArc
 50
0.000000000000
 51
90.000000000000
0
LINE
  5
0000011b
 39
 0.100 
 100
AcDbEntity
8
contour007
 6
CONTINUOUS
 100
AcDbLine
 10
210.100000000000
 20
33.800000000000
 30
 0.0
 11
305.100000000000
 21
33.800000000000
 31
0.0
0
ARC
  5
0000011c
 39
 0.100 
 100
AcDbEntity
8
contour007
 6
CONTINUOUS
100
AcDbCircle
 10
210.100000000000
 20
32.300000000000
 30
 0
 40
1.500000000000
100
AcDbArc
 50
90.000000000000
 51
180.000000000000
0
LINE
  5
0000011d
 39
 0.100 
 100
AcDbEntity
8
contour007
 6
CONTINUOUS
 100
AcDbLine
 10
208.600000000000
 20
11.300000000000
 30
 0.0
 11
208.600000000000
 21
32.300000000000
 31
0.0
0
LWPOLYLINE
  5
0000011e
 39
 0.100 
 100
AcDbEntity
8
contour007
 6
CONTINUOUS
100
AcDbPolyline
 90
229
 70
8
 10
204.767000000000
 20
11.655000000000
 10
204.823000000000
 20
11.658000000000
 10
204.878000000000
 20
11.662000000000
 10
204.951000000000
 20
11.671000000000
 10
205.126000000000
 20
11.696000000000
 10
205.181000000000
 20
11.704000000000
 10
205.236000000000
 20
11.715000000000
 10
205.285000000000
 20
11.727000000000
 10
205.456000000000
 20
11.770000000000
 10
205.510000000000
 20
11.784000000000
 10
205.563000000000
 20
11.801000000000
 10
205.623000000000
 20
11.822000000000
 10
205.788000000000
 20
11.884000000000
 10
205.840000000000
 20
11.905000000000
 10
205.891000000000
 20
11.927000000000
 10
205.940000000000
 20
11.950000000000
 10
206.097000000000
 20
12.029000000000
 10
206.146000000000
 20
12.055000000000
 10
206.194000000000
 20
12.083000000000
 10
206.250000000000
 20
12.118000000000
 10
206.398000000000
 20
12.215000000000
 10
206.444000000000
 20
12.246000000000
 10
206.489000000000
 20
12.279000000000
 10
206.533000000000
 20
12.315000000000
 10
206.669000000000
 20
12.427000000000
 10
206.712000000000
 20
12.463000000000
 10
206.753000000000
 20
12.500000000000
 10
206.793000000000
 20
12.540000000000
 10
206.916000000000
 20
12.666000000000
 10
206.954000000000
 20
12.707000000000
 10
206.991000000000
 20
12.749000000000
 10
207.031000000000
 20
12.798000000000
 10
207.139000000000
 20
12.937000000000
 10
207.172000000000
 20
12.982000000000
 10
207.204000000000
 20
13.027000000000
 10
207.236000000000
 20
13.078000000000
 10
207.328000000000
 20
13.228000000000
 10
207.357000000000
 20
13.276000000000
 10
207.383000000000
 20
13.325000000000
 10
207.410000000000
 20
13.380000000000
 10
207.485000000000
 20
13.540000000000
 10
207.508000000000
 20
13.591000000000
 10
207.529000000000
 20
13.643000000000
 10
207.546000000000
 20
13.689000000000
 10
207.604000000000
 20
13.856000000000
 10
207.622000000000
 20
13.909000000000
 10
207.637000000000
 20
13.963000000000
 10
207.654000000000
 20
14.031000000000
 10
207.692000000000
 20
14.203000000000
 10
207.703000000000
 20
14.257000000000
 10
207.712000000000
 20
14.312000000000
 10
207.718000000000
 20
14.361000000000
 10
207.738000000000
 20
14.536000000000
 10
207.743000000000
 20
14.591000000000
 10
207.747000000000
 20
14.647000000000
 10
207.748000000000
 20
14.712000000000
 10
207.748000000000
 20
14.888000000000
 10
207.747000000000
 20
14.944000000000
 10
207.744000000000
 20
14.999000000000
 10
207.738000000000
 20
15.064000000000
 10
207.718000000000
 20
15.239000000000
 10
207.711000000000
 20
15.294000000000
 10
207.701000000000
 20
15.349000000000
 10
207.692000000000
 20
15.397000000000
 10
207.654000000000
 20
15.569000000000
 10
207.641000000000
 20
15.624000000000
 10
207.626000000000
 20
15.677000000000
 10
207.604000000000
 20
15.744000000000
 10
207.546000000000
 20
15.911000000000
 10
207.527000000000
 20
15.963000000000
 10
207.506000000000
 20
16.014000000000
 10
207.485000000000
 20
16.060000000000
 10
207.410000000000
 20
16.220000000000
 10
207.386000000000
 20
16.270000000000
 10
207.360000000000
 20
16.319000000000
 10
207.328000000000
 20
16.372000000000
 10
207.236000000000
 20
16.522000000000
 10
207.206000000000
 20
16.569000000000
 10
207.175000000000
 20
16.615000000000
 10
207.139000000000
 20
16.663000000000
 10
207.031000000000
 20
16.802000000000
 10
206.996000000000
 20
16.845000000000
 10
206.960000000000
 20
16.887000000000
 10
206.916000000000
 20
16.934000000000
 10
206.793000000000
 20
17.060000000000
 10
206.754000000000
 20
17.099000000000
 10
206.713000000000
 20
17.137000000000
 10
206.669000000000
 20
17.173000000000
 10
206.533000000000
 20
17.285000000000
 10
206.490000000000
 20
17.320000000000
 10
206.445000000000
 20
17.353000000000
 10
206.398000000000
 20
17.385000000000
 10
206.250000000000
 20
17.482000000000
 10
206.203000000000
 20
17.512000000000
 10
206.154000000000
 20
17.540000000000
 10
206.097000000000
 20
17.571000000000
 10
205.940000000000
 20
17.650000000000
 10
205.890000000000
 20
17.674000000000
 10
205.839000000000
 20
17.696000000000
 10
205.788000000000
 20
17.716000000000
 10
205.623000000000
 20
17.778000000000
 10
205.571000000000
 20
17.797000000000
 10
205.518000000000
 20
17.813000000000
 10
205.456000000000
 20
17.830000000000
 10
205.285000000000
 20
17.873000000000
 10
205.231000000000
 20
17.886000000000
 10
205.176000000000
 20
17.896000000000
 10
205.126000000000
 20
17.904000000000
 10
204.951000000000
 20
17.929000000000
 10
204.896000000000
 20
17.936000000000
 10
204.840000000000
 20
17.941000000000
 10
204.767000000000
 20
17.945000000000
 10
204.591000000000
 20
17.949000000000
 10
204.536000000000
 20
17.949000000000
 10
204.480000000000
 20
17.947000000000
 10
204.433000000000
 20
17.944000000000
 10
204.257000000000
 20
17.930000000000
 10
204.202000000000
 20
17.925000000000
 10
204.146000000000
 20
17.917000000000
 10
204.081000000000
 20
17.906000000000
 10
203.908000000000
 20
17.872000000000
 10
203.854000000000
 20
17.860000000000
 10
203.800000000000
 20
17.847000000000
 10
203.741000000000
 20
17.829000000000
 10
203.573000000000
 20
17.776000000000
 10
203.520000000000
 20
17.758000000000
 10
203.468000000000
 20
17.739000000000
 10
203.421000000000
 20
17.719000000000
 10
203.260000000000
 20
17.649000000000
 10
203.209000000000
 20
17.626000000000
 10
203.160000000000
 20
17.601000000000
 10
203.099000000000
 20
17.568000000000
 10
202.946000000000
 20
17.479000000000
 10
202.898000000000
 20
17.450000000000
 10
202.851000000000
 20
17.419000000000
 10
202.809000000000
 20
17.389000000000
 10
202.667000000000
 20
17.285000000000
 10
202.623000000000
 20
17.252000000000
 10
202.580000000000
 20
17.217000000000
 10
202.536000000000
 20
17.178000000000
 10
202.406000000000
 20
17.059000000000
 10
202.366000000000
 20
17.021000000000
 10
202.327000000000
 20
16.981000000000
 10
202.285000000000
 20
16.935000000000
 10
202.169000000000
 20
16.802000000000
 10
202.133000000000
 20
16.759000000000
 10
202.099000000000
 20
16.715000000000
 10
202.061000000000
 20
16.663000000000
 10
201.961000000000
 20
16.518000000000
 10
201.930000000000
 20
16.472000000000
 10
201.901000000000
 20
16.424000000000
 10
201.874000000000
 20
16.377000000000
 10
201.790000000000
 20
16.222000000000
 10
201.765000000000
 20
16.172000000000
 10
201.741000000000
 20
16.122000000000
 10
201.716000000000
 20
16.065000000000
 10
201.650000000000
 20
15.902000000000
 10
201.630000000000
 20
15.850000000000
 10
201.612000000000
 20
15.797000000000
 10
201.595000000000
 20
15.741000000000
 10
201.547000000000
 20
15.571000000000
 10
201.533000000000
 20
15.517000000000
 10
201.521000000000
 20
15.463000000000
 10
201.510000000000
 20
15.405000000000
 10
201.481000000000
 20
15.231000000000
 10
201.473000000000
 20
15.176000000000
 10
201.467000000000
 20
15.120000000000
 10
201.462000000000
 20
15.064000000000
 10
201.452000000000
 20
14.888000000000
 10
201.450000000000
 20
14.832000000000
 10
201.450000000000
 20
14.777000000000
 10
201.452000000000
 20
14.712000000000
 10
201.462000000000
 20
14.536000000000
 10
201.467000000000
 20
14.481000000000
 10
201.473000000000
 20
14.425000000000
 10
201.481000000000
 20
14.369000000000
 10
201.510000000000
 20
14.195000000000
 10
201.520000000000
 20
14.140000000000
 10
201.532000000000
 20
14.086000000000
 10
201.547000000000
 20
14.029000000000
 10
201.595000000000
 20
13.859000000000
 10
201.611000000000
 20
13.806000000000
 10
201.629000000000
 20
13.753000000000
 10
201.650000000000
 20
13.698000000000
 10
201.716000000000
 20
13.535000000000
 10
201.738000000000
 20
13.484000000000
 10
201.762000000000
 20
13.434000000000
 10
201.790000000000
 20
13.378000000000
 10
201.874000000000
 20
13.223000000000
 10
201.902000000000
 20
13.175000000000
 10
201.931000000000
 20
13.128000000000
 10
201.961000000000
 20
13.082000000000
 10
202.061000000000
 20
12.937000000000
 10
202.093000000000
 20
12.892000000000
 10
202.127000000000
 20
12.848000000000
 10
202.169000000000
 20
12.798000000000
 10
202.285000000000
 20
12.665000000000
 10
202.322000000000
 20
12.624000000000
 10
202.361000000000
 20
12.584000000000
 10
202.406000000000
 20
12.541000000000
 10
202.536000000000
 20
12.422000000000
 10
202.578000000000
 20
12.385000000000
 10
202.621000000000
 20
12.350000000000
 10
202.667000000000
 20
12.315000000000
 10
202.809000000000
 20
12.211000000000
 10
202.855000000000
 20
12.178000000000
 10
202.901000000000
 20
12.148000000000
 10
202.946000000000
 20
12.121000000000
 10
203.099000000000
 20
12.032000000000
 10
203.147000000000
 20
12.005000000000
 10
203.197000000000
 20
11.980000000000
 10
203.260000000000
 20
11.951000000000
 10
203.421000000000
 20
11.881000000000
 10
203.472000000000
 20
11.859000000000
 10
203.525000000000
 20
11.840000000000
 10
203.573000000000
 20
11.824000000000
 10
203.741000000000
 20
11.771000000000
 10
203.794000000000
 20
11.755000000000
 10
203.848000000000
 20
11.741000000000
 10
203.908000000000
 20
11.728000000000
 10
204.081000000000
 20
11.694000000000
 10
204.136000000000
 20
11.684000000000
 10
204.191000000000
 20
11.677000000000
 10
204.257000000000
 20
11.670000000000
 10
204.433000000000
 20
11.656000000000
 10
204.489000000000
 20
11.652000000000
 10
204.544000000000
 20
11.651000000000
 10
204.591000000000
 20
11.651000000000
 10
204.767000000000
 20
11.655000000000
0
CIRCLE
  5
0000011f
 39
 0.100 
 100
AcDbEntity
8
contour007
 6
CONTINUOUS
100
AcDbCircle
 10
204.600000000000
 20
14.800000000000
 30
 0
 40
1.600000000000
0
LWPOLYLINE
  5
00000120
 39
 0.100 
 100
AcDbEntity
8
contour007
 6
CONTINUOUS
100
AcDbPolyline
 90
229
 70
8
 10
329.767000000000
 20
11.655000000000
 10
329.823000000000
 20
11.658000000000
 10
329.878000000000
 20
11.662000000000
 10
329.951000000000
 20
11.671000000000
 10
330.126000000000
 20
11.696000000000
 10
330.181000000000
 20
11.704000000000
 10
330.236000000000
 20
11.715000000000
 10
330.285000000000
 20
11.727000000000
 10
330.456000000000
 20
11.770000000000
 10
330.510000000000
 20
11.784000000000
 10
330.563000000000
 20
11.801000000000
 10
330.623000000000
 20
11.822000000000
 10
330.788000000000
 20
11.884000000000
 10
330.840000000000
 20
11.905000000000
 10
330.891000000000
 20
11.927000000000
 10
330.940000000000
 20
11.950000000000
 10
331.097000000000
 20
12.029000000000
 10
331.146000000000
 20
12.055000000000
 10
331.194000000000
 20
12.083000000000
 10
331.250000000000
 20
12.118000000000
 10
331.398000000000
 20
12.215000000000
 10
331.444000000000
 20
12.246000000000
 10
331.489000000000
 20
12.279000000000
 10
331.533000000000
 20
12.315000000000
 10
331.669000000000
 20
12.427000000000
 10
331.712000000000
 20
12.463000000000
 10
331.753000000000
 20
12.500000000000
 10
331.793000000000
 20
12.540000000000
 10
331.916000000000
 20
12.666000000000
 10
331.954000000000
 20
12.707000000000
 10
331.991000000000
 20
12.749000000000
 10
332.031000000000
 20
12.798000000000
 10
332.139000000000
 20
12.937000000000
 10
332.172000000000
 20
12.982000000000
 10
332.204000000000
 20
13.027000000000
 10
332.236000000000
 20
13.078000000000
 10
332.328000000000
 20
13.228000000000
 10
332.357000000000
 20
13.276000000000
 10
332.383000000000
 20
13.325000000000
 10
332.410000000000
 20
13.380000000000
 10
332.485000000000
 20
13.540000000000
 10
332.508000000000
 20
13.591000000000
 10
332.529000000000
 20
13.643000000000
 10
332.546000000000
 20
13.689000000000
 10
332.604000000000
 20
13.856000000000
 10
332.622000000000
 20
13.909000000000
 10
332.637000000000
 20
13.963000000000
 10
332.654000000000
 20
14.031000000000
 10
332.692000000000
 20
14.203000000000
 10
332.703000000000
 20
14.257000000000
 10
332.712000000000
 20
14.312000000000
 10
332.718000000000
 20
14.361000000000
 10
332.738000000000
 20
14.536000000000
 10
332.743000000000
 20
14.591000000000
 10
332.747000000000
 20
14.647000000000
 10
332.748000000000
 20
14.712000000000
 10
332.748000000000
 20
14.888000000000
 10
332.747000000000
 20
14.944000000000
 10
332.744000000000
 20
14.999000000000
 10
332.738000000000
 20
15.064000000000
 10
332.718000000000
 20
15.239000000000
 10
332.711000000000
 20
15.294000000000
 10
332.701000000000
 20
15.349000000000
 10
332.692000000000
 20
15.397000000000
 10
332.654000000000
 20
15.569000000000
 10
332.641000000000
 20
15.624000000000
 10
332.626000000000
 20
15.677000000000
 10
332.604000000000
 20
15.744000000000
 10
332.546000000000
 20
15.911000000000
 10
332.527000000000
 20
15.963000000000
 10
332.506000000000
 20
16.014000000000
 10
332.485000000000
 20
16.060000000000
 10
332.410000000000
 20
16.220000000000
 10
332.386000000000
 20
16.270000000000
 10
332.360000000000
 20
16.319000000000
 10
332.328000000000
 20
16.372000000000
 10
332.236000000000
 20
16.522000000000
 10
332.206000000000
 20
16.569000000000
 10
332.175000000000
 20
16.615000000000
 10
332.139000000000
 20
16.663000000000
 10
332.031000000000
 20
16.802000000000
 10
331.996000000000
 20
16.845000000000
 10
331.960000000000
 20
16.887000000000
 10
331.916000000000
 20
16.934000000000
 10
331.793000000000
 20
17.060000000000
 10
331.754000000000
 20
17.099000000000
 10
331.713000000000
 20
17.137000000000
 10
331.669000000000
 20
17.173000000000
 10
331.533000000000
 20
17.285000000000
 10
331.490000000000
 20
17.320000000000
 10
331.445000000000
 20
17.353000000000
 10
331.398000000000
 20
17.385000000000
 10
331.250000000000
 20
17.482000000000
 10
331.203000000000
 20
17.512000000000
 10
331.154000000000
 20
17.540000000000
 10
331.097000000000
 20
17.571000000000
 10
330.940000000000
 20
17.650000000000
 10
330.890000000000
 20
17.674000000000
 10
330.839000000000
 20
17.696000000000
 10
330.788000000000
 20
17.716000000000
 10
330.623000000000
 20
17.778000000000
 10
330.571000000000
 20
17.797000000000
 10
330.518000000000
 20
17.813000000000
 10
330.456000000000
 20
17.830000000000
 10
330.285000000000
 20
17.873000000000
 10
330.231000000000
 20
17.886000000000
 10
330.176000000000
 20
17.896000000000
 10
330.126000000000
 20
17.904000000000
 10
329.951000000000
 20
17.929000000000
 10
329.896000000000
 20
17.936000000000
 10
329.840000000000
 20
17.941000000000
 10
329.767000000000
 20
17.945000000000
 10
329.591000000000
 20
17.949000000000
 10
329.536000000000
 20
17.949000000000
 10
329.480000000000
 20
17.947000000000
 10
329.433000000000
 20
17.944000000000
 10
329.257000000000
 20
17.930000000000
 10
329.202000000000
 20
17.925000000000
 10
329.146000000000
 20
17.917000000000
 10
329.081000000000
 20
17.906000000000
 10
328.908000000000
 20
17.872000000000
 10
328.854000000000
 20
17.860000000000
 10
328.800000000000
 20
17.847000000000
 10
328.741000000000
 20
17.829000000000
 10
328.573000000000
 20
17.776000000000
 10
328.520000000000
 20
17.758000000000
 10
328.468000000000
 20
17.739000000000
 10
328.421000000000
 20
17.719000000000
 10
328.260000000000
 20
17.649000000000
 10
328.209000000000
 20
17.626000000000
 10
328.160000000000
 20
17.601000000000
 10
328.099000000000
 20
17.568000000000
 10
327.946000000000
 20
17.479000000000
 10
327.898000000000
 20
17.450000000000
 10
327.851000000000
 20
17.419000000000
 10
327.809000000000
 20
17.389000000000
 10
327.667000000000
 20
17.285000000000
 10
327.623000000000
 20
17.252000000000
 10
327.580000000000
 20
17.217000000000
 10
327.536000000000
 20
17.178000000000
 10
327.406000000000
 20
17.059000000000
 10
327.366000000000
 20
17.021000000000
 10
327.327000000000
 20
16.981000000000
 10
327.285000000000
 20
16.935000000000
 10
327.169000000000
 20
16.802000000000
 10
327.133000000000
 20
16.759000000000
 10
327.099000000000
 20
16.715000000000
 10
327.061000000000
 20
16.663000000000
 10
326.961000000000
 20
16.518000000000
 10
326.930000000000
 20
16.472000000000
 10
326.901000000000
 20
16.424000000000
 10
326.874000000000
 20
16.377000000000
 10
326.790000000000
 20
16.222000000000
 10
326.765000000000
 20
16.172000000000
 10
326.741000000000
 20
16.122000000000
 10
326.716000000000
 20
16.065000000000
 10
326.650000000000
 20
15.902000000000
 10
326.630000000000
 20
15.850000000000
 10
326.612000000000
 20
15.797000000000
 10
326.595000000000
 20
15.741000000000
 10
326.547000000000
 20
15.571000000000
 10
326.533000000000
 20
15.517000000000
 10
326.521000000000
 20
15.463000000000
 10
326.510000000000
 20
15.405000000000
 10
326.481000000000
 20
15.231000000000
 10
326.473000000000
 20
15.176000000000
 10
326.467000000000
 20
15.120000000000
 10
326.462000000000
 20
15.064000000000
 10
326.452000000000
 20
14.888000000000
 10
326.450000000000
 20
14.832000000000
 10
326.450000000000
 20
14.777000000000
 10
326.452000000000
 20
14.712000000000
 10
326.462000000000
 20
14.536000000000
 10
326.467000000000
 20
14.481000000000
 10
326.473000000000
 20
14.425000000000
 10
326.481000000000
 20
14.369000000000
 10
326.510000000000
 20
14.195000000000
 10
326.520000000000
 20
14.140000000000
 10
326.532000000000
 20
14.086000000000
 10
326.547000000000
 20
14.029000000000
 10
326.595000000000
 20
13.859000000000
 10
326.611000000000
 20
13.806000000000
 10
326.629000000000
 20
13.753000000000
 10
326.650000000000
 20
13.698000000000
 10
326.716000000000
 20
13.535000000000
 10
326.738000000000
 20
13.484000000000
 10
326.762000000000
 20
13.434000000000
 10
326.790000000000
 20
13.378000000000
 10
326.874000000000
 20
13.223000000000
 10
326.902000000000
 20
13.175000000000
 10
326.931000000000
 20
13.128000000000
 10
326.961000000000
 20
13.082000000000
 10
327.061000000000
 20
12.937000000000
 10
327.093000000000
 20
12.892000000000
 10
327.127000000000
 20
12.848000000000
 10
327.169000000000
 20
12.798000000000
 10
327.285000000000
 20
12.665000000000
 10
327.322000000000
 20
12.624000000000
 10
327.361000000000
 20
12.584000000000
 10
327.406000000000
 20
12.541000000000
 10
327.536000000000
 20
12.422000000000
 10
327.578000000000
 20
12.385000000000
 10
327.621000000000
 20
12.350000000000
 10
327.667000000000
 20
12.315000000000
 10
327.809000000000
 20
12.211000000000
 10
327.855000000000
 20
12.178000000000
 10
327.901000000000
 20
12.148000000000
 10
327.946000000000
 20
12.121000000000
 10
328.099000000000
 20
12.032000000000
 10
328.147000000000
 20
12.005000000000
 10
328.197000000000
 20
11.980000000000
 10
328.260000000000
 20
11.951000000000
 10
328.421000000000
 20
11.881000000000
 10
328.472000000000
 20
11.859000000000
 10
328.525000000000
 20
11.840000000000
 10
328.573000000000
 20
11.824000000000
 10
328.741000000000
 20
11.771000000000
 10
328.794000000000
 20
11.755000000000
 10
328.848000000000
 20
11.741000000000
 10
328.908000000000
 20
11.728000000000
 10
329.081000000000
 20
11.694000000000
 10
329.136000000000
 20
11.684000000000
 10
329.191000000000
 20
11.677000000000
 10
329.257000000000
 20
11.670000000000
 10
329.433000000000
 20
11.656000000000
 10
329.489000000000
 20
11.652000000000
 10
329.544000000000
 20
11.651000000000
 10
329.591000000000
 20
11.651000000000
 10
329.767000000000
 20
11.655000000000
0
CIRCLE
  5
00000121
 39
 0.100 
 100
AcDbEntity
8
contour007
 6
CONTINUOUS
100
AcDbCircle
 10
329.600000000000
 20
14.800000000000
 30
 0
 40
1.600000000000
0
LWPOLYLINE
  5
00000122
 39
 0.100 
 100
AcDbEntity
8
contour007
 6
CONTINUOUS
100
AcDbPolyline
 90
229
 70
8
 10
329.767000000000
 20
25.655000000000
 10
329.823000000000
 20
25.658000000000
 10
329.878000000000
 20
25.662000000000
 10
329.951000000000
 20
25.671000000000
 10
330.126000000000
 20
25.696000000000
 10
330.181000000000
 20
25.704000000000
 10
330.236000000000
 20
25.715000000000
 10
330.285000000000
 20
25.727000000000
 10
330.456000000000
 20
25.770000000000
 10
330.510000000000
 20
25.784000000000
 10
330.563000000000
 20
25.801000000000
 10
330.623000000000
 20
25.822000000000
 10
330.788000000000
 20
25.884000000000
 10
330.840000000000
 20
25.905000000000
 10
330.891000000000
 20
25.927000000000
 10
330.940000000000
 20
25.950000000000
 10
331.097000000000
 20
26.029000000000
 10
331.146000000000
 20
26.055000000000
 10
331.194000000000
 20
26.083000000000
 10
331.250000000000
 20
26.118000000000
 10
331.398000000000
 20
26.215000000000
 10
331.444000000000
 20
26.246000000000
 10
331.489000000000
 20
26.279000000000
 10
331.533000000000
 20
26.315000000000
 10
331.669000000000
 20
26.427000000000
 10
331.712000000000
 20
26.463000000000
 10
331.753000000000
 20
26.500000000000
 10
331.793000000000
 20
26.540000000000
 10
331.916000000000
 20
26.666000000000
 10
331.954000000000
 20
26.707000000000
 10
331.991000000000
 20
26.749000000000
 10
332.031000000000
 20
26.798000000000
 10
332.139000000000
 20
26.937000000000
 10
332.172000000000
 20
26.982000000000
 10
332.204000000000
 20
27.027000000000
 10
332.236000000000
 20
27.078000000000
 10
332.328000000000
 20
27.228000000000
 10
332.357000000000
 20
27.276000000000
 10
332.383000000000
 20
27.325000000000
 10
332.410000000000
 20
27.380000000000
 10
332.485000000000
 20
27.540000000000
 10
332.508000000000
 20
27.591000000000
 10
332.529000000000
 20
27.643000000000
 10
332.546000000000
 20
27.689000000000
 10
332.604000000000
 20
27.856000000000
 10
332.622000000000
 20
27.909000000000
 10
332.637000000000
 20
27.963000000000
 10
332.654000000000
 20
28.031000000000
 10
332.692000000000
 20
28.203000000000
 10
332.703000000000
 20
28.257000000000
 10
332.712000000000
 20
28.312000000000
 10
332.718000000000
 20
28.361000000000
 10
332.738000000000
 20
28.536000000000
 10
332.743000000000
 20
28.591000000000
 10
332.747000000000
 20
28.647000000000
 10
332.748000000000
 20
28.712000000000
 10
332.748000000000
 20
28.888000000000
 10
332.747000000000
 20
28.944000000000
 10
332.744000000000
 20
28.999000000000
 10
332.738000000000
 20
29.064000000000
 10
332.718000000000
 20
29.239000000000
 10
332.711000000000
 20
29.294000000000
 10
332.701000000000
 20
29.349000000000
 10
332.692000000000
 20
29.397000000000
 10
332.654000000000
 20
29.569000000000
 10
332.641000000000
 20
29.624000000000
 10
332.626000000000
 20
29.677000000000
 10
332.604000000000
 20
29.744000000000
 10
332.546000000000
 20
29.911000000000
 10
332.527000000000
 20
29.963000000000
 10
332.506000000000
 20
30.014000000000
 10
332.485000000000
 20
30.060000000000
 10
332.410000000000
 20
30.220000000000
 10
332.386000000000
 20
30.270000000000
 10
332.360000000000
 20
30.319000000000
 10
332.328000000000
 20
30.372000000000
 10
332.236000000000
 20
30.522000000000
 10
332.206000000000
 20
30.569000000000
 10
332.175000000000
 20
30.615000000000
 10
332.139000000000
 20
30.663000000000
 10
332.031000000000
 20
30.802000000000
 10
331.996000000000
 20
30.845000000000
 10
331.960000000000
 20
30.887000000000
 10
331.916000000000
 20
30.934000000000
 10
331.793000000000
 20
31.060000000000
 10
331.754000000000
 20
31.099000000000
 10
331.713000000000
 20
31.137000000000
 10
331.669000000000
 20
31.173000000000
 10
331.533000000000
 20
31.285000000000
 10
331.490000000000
 20
31.320000000000
 10
331.445000000000
 20
31.353000000000
 10
331.398000000000
 20
31.385000000000
 10
331.250000000000
 20
31.482000000000
 10
331.203000000000
 20
31.512000000000
 10
331.154000000000
 20
31.540000000000
 10
331.097000000000
 20
31.571000000000
 10
330.940000000000
 20
31.650000000000
 10
330.890000000000
 20
31.674000000000
 10
330.839000000000
 20
31.696000000000
 10
330.788000000000
 20
31.716000000000
 10
330.623000000000
 20
31.778000000000
 10
330.571000000000
 20
31.797000000000
 10
330.518000000000
 20
31.813000000000
 10
330.456000000000
 20
31.830000000000
 10
330.285000000000
 20
31.873000000000
 10
330.231000000000
 20
31.886000000000
 10
330.176000000000
 20
31.896000000000
 10
330.126000000000
 20
31.904000000000
 10
329.951000000000
 20
31.929000000000
 10
329.896000000000
 20
31.936000000000
 10
329.840000000000
 20
31.941000000000
 10
329.767000000000
 20
31.945000000000
 10
329.591000000000
 20
31.949000000000
 10
329.536000000000
 20
31.949000000000
 10
329.480000000000
 20
31.947000000000
 10
329.433000000000
 20
31.944000000000
 10
329.257000000000
 20
31.930000000000
 10
329.202000000000
 20
31.925000000000
 10
329.146000000000
 20
31.917000000000
 10
329.081000000000
 20
31.906000000000
 10
328.908000000000
 20
31.872000000000
 10
328.854000000000
 20
31.860000000000
 10
328.800000000000
 20
31.847000000000
 10
328.741000000000
 20
31.829000000000
 10
328.573000000000
 20
31.776000000000
 10
328.520000000000
 20
31.758000000000
 10
328.468000000000
 20
31.739000000000
 10
328.421000000000
 20
31.719000000000
 10
328.260000000000
 20
31.649000000000
 10
328.209000000000
 20
31.626000000000
 10
328.160000000000
 20
31.601000000000
 10
328.099000000000
 20
31.568000000000
 10
327.946000000000
 20
31.479000000000
 10
327.898000000000
 20
31.450000000000
 10
327.851000000000
 20
31.419000000000
 10
327.809000000000
 20
31.389000000000
 10
327.667000000000
 20
31.285000000000
 10
327.623000000000
 20
31.252000000000
 10
327.580000000000
 20
31.217000000000
 10
327.536000000000
 20
31.178000000000
 10
327.406000000000
 20
31.059000000000
 10
327.366000000000
 20
31.021000000000
 10
327.327000000000
 20
30.981000000000
 10
327.285000000000
 20
30.935000000000
 10
327.169000000000
 20
30.802000000000
 10
327.133000000000
 20
30.759000000000
 10
327.099000000000
 20
30.715000000000
 10
327.061000000000
 20
30.663000000000
 10
326.961000000000
 20
30.518000000000
 10
326.930000000000
 20
30.472000000000
 10
326.901000000000
 20
30.424000000000
 10
326.874000000000
 20
30.377000000000
 10
326.790000000000
 20
30.222000000000
 10
326.765000000000
 20
30.172000000000
 10
326.741000000000
 20
30.122000000000
 10
326.716000000000
 20
30.065000000000
 10
326.650000000000
 20
29.902000000000
 10
326.630000000000
 20
29.850000000000
 10
326.612000000000
 20
29.797000000000
 10
326.595000000000
 20
29.741000000000
 10
326.547000000000
 20
29.571000000000
 10
326.533000000000
 20
29.517000000000
 10
326.521000000000
 20
29.463000000000
 10
326.510000000000
 20
29.405000000000
 10
326.481000000000
 20
29.231000000000
 10
326.473000000000
 20
29.176000000000
 10
326.467000000000
 20
29.120000000000
 10
326.462000000000
 20
29.064000000000
 10
326.452000000000
 20
28.888000000000
 10
326.450000000000
 20
28.832000000000
 10
326.450000000000
 20
28.777000000000
 10
326.452000000000
 20
28.712000000000
 10
326.462000000000
 20
28.536000000000
 10
326.467000000000
 20
28.481000000000
 10
326.473000000000
 20
28.425000000000
 10
326.481000000000
 20
28.369000000000
 10
326.510000000000
 20
28.195000000000
 10
326.520000000000
 20
28.140000000000
 10
326.532000000000
 20
28.086000000000
 10
326.547000000000
 20
28.029000000000
 10
326.595000000000
 20
27.859000000000
 10
326.611000000000
 20
27.806000000000
 10
326.629000000000
 20
27.753000000000
 10
326.650000000000
 20
27.698000000000
 10
326.716000000000
 20
27.535000000000
 10
326.738000000000
 20
27.484000000000
 10
326.762000000000
 20
27.434000000000
 10
326.790000000000
 20
27.378000000000
 10
326.874000000000
 20
27.223000000000
 10
326.902000000000
 20
27.175000000000
 10
326.931000000000
 20
27.128000000000
 10
326.961000000000
 20
27.082000000000
 10
327.061000000000
 20
26.937000000000
 10
327.093000000000
 20
26.892000000000
 10
327.127000000000
 20
26.848000000000
 10
327.169000000000
 20
26.798000000000
 10
327.285000000000
 20
26.665000000000
 10
327.322000000000
 20
26.624000000000
 10
327.361000000000
 20
26.584000000000
 10
327.406000000000
 20
26.541000000000
 10
327.536000000000
 20
26.422000000000
 10
327.578000000000
 20
26.385000000000
 10
327.621000000000
 20
26.350000000000
 10
327.667000000000
 20
26.315000000000
 10
327.809000000000
 20
26.211000000000
 10
327.855000000000
 20
26.178000000000
 10
327.901000000000
 20
26.148000000000
 10
327.946000000000
 20
26.121000000000
 10
328.099000000000
 20
26.032000000000
 10
328.147000000000
 20
26.005000000000
 10
328.197000000000
 20
25.980000000000
 10
328.260000000000
 20
25.951000000000
 10
328.421000000000
 20
25.881000000000
 10
328.472000000000
 20
25.859000000000
 10
328.525000000000
 20
25.840000000000
 10
328.573000000000
 20
25.824000000000
 10
328.741000000000
 20
25.771000000000
 10
328.794000000000
 20
25.755000000000
 10
328.848000000000
 20
25.741000000000
 10
328.908000000000
 20
25.728000000000
 10
329.081000000000
 20
25.694000000000
 10
329.136000000000
 20
25.684000000000
 10
329.191000000000
 20
25.677000000000
 10
329.257000000000
 20
25.670000000000
 10
329.433000000000
 20
25.656000000000
 10
329.489000000000
 20
25.652000000000
 10
329.544000000000
 20
25.651000000000
 10
329.591000000000
 20
25.651000000000
 10
329.767000000000
 20
25.655000000000
0
CIRCLE
  5
00000123
 39
 0.100 
 100
AcDbEntity
8
contour007
 6
CONTINUOUS
100
AcDbCircle
 10
329.600000000000
 20
28.800000000000
 30
 0
 40
1.600000000000
0
LWPOLYLINE
  5
00000124
 39
 0.100 
 100
AcDbEntity
8
contour007
 6
CONTINUOUS
100
AcDbPolyline
 90
229
 70
8
 10
435.767000000000
 20
11.655000000000
 10
435.823000000000
 20
11.658000000000
 10
435.878000000000
 20
11.662000000000
 10
435.951000000000
 20
11.671000000000
 10
436.126000000000
 20
11.696000000000
 10
436.181000000000
 20
11.704000000000
 10
436.236000000000
 20
11.715000000000
 10
436.285000000000
 20
11.727000000000
 10
436.456000000000
 20
11.770000000000
 10
436.510000000000
 20
11.784000000000
 10
436.563000000000
 20
11.801000000000
 10
436.623000000000
 20
11.822000000000
 10
436.788000000000
 20
11.884000000000
 10
436.840000000000
 20
11.905000000000
 10
436.891000000000
 20
11.927000000000
 10
436.940000000000
 20
11.950000000000
 10
437.097000000000
 20
12.029000000000
 10
437.146000000000
 20
12.055000000000
 10
437.194000000000
 20
12.083000000000
 10
437.250000000000
 20
12.118000000000
 10
437.398000000000
 20
12.215000000000
 10
437.444000000000
 20
12.246000000000
 10
437.489000000000
 20
12.279000000000
 10
437.533000000000
 20
12.315000000000
 10
437.669000000000
 20
12.427000000000
 10
437.712000000000
 20
12.463000000000
 10
437.753000000000
 20
12.500000000000
 10
437.793000000000
 20
12.540000000000
 10
437.916000000000
 20
12.666000000000
 10
437.954000000000
 20
12.707000000000
 10
437.991000000000
 20
12.749000000000
 10
438.031000000000
 20
12.798000000000
 10
438.139000000000
 20
12.937000000000
 10
438.172000000000
 20
12.982000000000
 10
438.204000000000
 20
13.027000000000
 10
438.236000000000
 20
13.078000000000
 10
438.328000000000
 20
13.228000000000
 10
438.357000000000
 20
13.276000000000
 10
438.383000000000
 20
13.325000000000
 10
438.410000000000
 20
13.380000000000
 10
438.485000000000
 20
13.540000000000
 10
438.508000000000
 20
13.591000000000
 10
438.529000000000
 20
13.643000000000
 10
438.546000000000
 20
13.689000000000
 10
438.604000000000
 20
13.856000000000
 10
438.622000000000
 20
13.909000000000
 10
438.637000000000
 20
13.963000000000
 10
438.654000000000
 20
14.031000000000
 10
438.692000000000
 20
14.203000000000
 10
438.703000000000
 20
14.257000000000
 10
438.712000000000
 20
14.312000000000
 10
438.718000000000
 20
14.361000000000
 10
438.738000000000
 20
14.536000000000
 10
438.743000000000
 20
14.591000000000
 10
438.747000000000
 20
14.647000000000
 10
438.748000000000
 20
14.712000000000
 10
438.748000000000
 20
14.888000000000
 10
438.747000000000
 20
14.944000000000
 10
438.744000000000
 20
14.999000000000
 10
438.738000000000
 20
15.064000000000
 10
438.718000000000
 20
15.239000000000
 10
438.711000000000
 20
15.294000000000
 10
438.701000000000
 20
15.349000000000
 10
438.692000000000
 20
15.397000000000
 10
438.654000000000
 20
15.569000000000
 10
438.641000000000
 20
15.624000000000
 10
438.626000000000
 20
15.677000000000
 10
438.604000000000
 20
15.744000000000
 10
438.546000000000
 20
15.911000000000
 10
438.527000000000
 20
15.963000000000
 10
438.506000000000
 20
16.014000000000
 10
438.485000000000
 20
16.060000000000
 10
438.410000000000
 20
16.220000000000
 10
438.386000000000
 20
16.270000000000
 10
438.360000000000
 20
16.319000000000
 10
438.328000000000
 20
16.372000000000
 10
438.236000000000
 20
16.522000000000
 10
438.206000000000
 20
16.569000000000
 10
438.175000000000
 20
16.615000000000
 10
438.139000000000
 20
16.663000000000
 10
438.031000000000
 20
16.802000000000
 10
437.996000000000
 20
16.845000000000
 10
437.960000000000
 20
16.887000000000
 10
437.916000000000
 20
16.934000000000
 10
437.793000000000
 20
17.060000000000
 10
437.754000000000
 20
17.099000000000
 10
437.713000000000
 20
17.137000000000
 10
437.669000000000
 20
17.173000000000
 10
437.533000000000
 20
17.285000000000
 10
437.490000000000
 20
17.320000000000
 10
437.445000000000
 20
17.353000000000
 10
437.398000000000
 20
17.385000000000
 10
437.250000000000
 20
17.482000000000
 10
437.203000000000
 20
17.512000000000
 10
437.154000000000
 20
17.540000000000
 10
437.097000000000
 20
17.571000000000
 10
436.940000000000
 20
17.650000000000
 10
436.890000000000
 20
17.674000000000
 10
436.839000000000
 20
17.696000000000
 10
436.788000000000
 20
17.716000000000
 10
436.623000000000
 20
17.778000000000
 10
436.571000000000
 20
17.797000000000
 10
436.518000000000
 20
17.813000000000
 10
436.456000000000
 20
17.830000000000
 10
436.285000000000
 20
17.873000000000
 10
436.231000000000
 20
17.886000000000
 10
436.176000000000
 20
17.896000000000
 10
436.126000000000
 20
17.904000000000
 10
435.951000000000
 20
17.929000000000
 10
435.896000000000
 20
17.936000000000
 10
435.840000000000
 20
17.941000000000
 10
435.767000000000
 20
17.945000000000
 10
435.591000000000
 20
17.949000000000
 10
435.536000000000
 20
17.949000000000
 10
435.480000000000
 20
17.947000000000
 10
435.433000000000
 20
17.944000000000
 10
435.257000000000
 20
17.930000000000
 10
435.202000000000
 20
17.925000000000
 10
435.146000000000
 20
17.917000000000
 10
435.081000000000
 20
17.906000000000
 10
434.908000000000
 20
17.872000000000
 10
434.854000000000
 20
17.860000000000
 10
434.800000000000
 20
17.847000000000
 10
434.741000000000
 20
17.829000000000
 10
434.573000000000
 20
17.776000000000
 10
434.520000000000
 20
17.758000000000
 10
434.468000000000
 20
17.739000000000
 10
434.421000000000
 20
17.719000000000
 10
434.260000000000
 20
17.649000000000
 10
434.209000000000
 20
17.626000000000
 10
434.160000000000
 20
17.601000000000
 10
434.099000000000
 20
17.568000000000
 10
433.946000000000
 20
17.479000000000
 10
433.898000000000
 20
17.450000000000
 10
433.851000000000
 20
17.419000000000
 10
433.809000000000
 20
17.389000000000
 10
433.667000000000
 20
17.285000000000
 10
433.623000000000
 20
17.252000000000
 10
433.580000000000
 20
17.217000000000
 10
433.536000000000
 20
17.178000000000
 10
433.406000000000
 20
17.059000000000
 10
433.366000000000
 20
17.021000000000
 10
433.327000000000
 20
16.981000000000
 10
433.285000000000
 20
16.935000000000
 10
433.169000000000
 20
16.802000000000
 10
433.133000000000
 20
16.759000000000
 10
433.099000000000
 20
16.715000000000
 10
433.061000000000
 20
16.663000000000
 10
432.961000000000
 20
16.518000000000
 10
432.930000000000
 20
16.472000000000
 10
432.901000000000
 20
16.424000000000
 10
432.874000000000
 20
16.377000000000
 10
432.790000000000
 20
16.222000000000
 10
432.765000000000
 20
16.172000000000
 10
432.741000000000
 20
16.122000000000
 10
432.716000000000
 20
16.065000000000
 10
432.650000000000
 20
15.902000000000
 10
432.630000000000
 20
15.850000000000
 10
432.612000000000
 20
15.797000000000
 10
432.595000000000
 20
15.741000000000
 10
432.547000000000
 20
15.571000000000
 10
432.533000000000
 20
15.517000000000
 10
432.521000000000
 20
15.463000000000
 10
432.510000000000
 20
15.405000000000
 10
432.481000000000
 20
15.231000000000
 10
432.473000000000
 20
15.176000000000
 10
432.467000000000
 20
15.120000000000
 10
432.462000000000
 20
15.064000000000
 10
432.452000000000
 20
14.888000000000
 10
432.450000000000
 20
14.832000000000
 10
432.450000000000
 20
14.777000000000
 10
432.452000000000
 20
14.712000000000
 10
432.462000000000
 20
14.536000000000
 10
432.467000000000
 20
14.481000000000
 10
432.473000000000
 20
14.425000000000
 10
432.481000000000
 20
14.369000000000
 10
432.510000000000
 20
14.195000000000
 10
432.520000000000
 20
14.140000000000
 10
432.532000000000
 20
14.086000000000
 10
432.547000000000
 20
14.029000000000
 10
432.595000000000
 20
13.859000000000
 10
432.611000000000
 20
13.806000000000
 10
432.629000000000
 20
13.753000000000
 10
432.650000000000
 20
13.698000000000
 10
432.716000000000
 20
13.535000000000
 10
432.738000000000
 20
13.484000000000
 10
432.762000000000
 20
13.434000000000
 10
432.790000000000
 20
13.378000000000
 10
432.874000000000
 20
13.223000000000
 10
432.902000000000
 20
13.175000000000
 10
432.931000000000
 20
13.128000000000
 10
432.961000000000
 20
13.082000000000
 10
433.061000000000
 20
12.937000000000
 10
433.093000000000
 20
12.892000000000
 10
433.127000000000
 20
12.848000000000
 10
433.169000000000
 20
12.798000000000
 10
433.285000000000
 20
12.665000000000
 10
433.322000000000
 20
12.624000000000
 10
433.361000000000
 20
12.584000000000
 10
433.406000000000
 20
12.541000000000
 10
433.536000000000
 20
12.422000000000
 10
433.578000000000
 20
12.385000000000
 10
433.621000000000
 20
12.350000000000
 10
433.667000000000
 20
12.315000000000
 10
433.809000000000
 20
12.211000000000
 10
433.855000000000
 20
12.178000000000
 10
433.901000000000
 20
12.148000000000
 10
433.946000000000
 20
12.121000000000
 10
434.099000000000
 20
12.032000000000
 10
434.147000000000
 20
12.005000000000
 10
434.197000000000
 20
11.980000000000
 10
434.260000000000
 20
11.951000000000
 10
434.421000000000
 20
11.881000000000
 10
434.472000000000
 20
11.859000000000
 10
434.525000000000
 20
11.840000000000
 10
434.573000000000
 20
11.824000000000
 10
434.741000000000
 20
11.771000000000
 10
434.794000000000
 20
11.755000000000
 10
434.848000000000
 20
11.741000000000
 10
434.908000000000
 20
11.728000000000
 10
435.081000000000
 20
11.694000000000
 10
435.136000000000
 20
11.684000000000
 10
435.191000000000
 20
11.677000000000
 10
435.257000000000
 20
11.670000000000
 10
435.433000000000
 20
11.656000000000
 10
435.489000000000
 20
11.652000000000
 10
435.544000000000
 20
11.651000000000
 10
435.591000000000
 20
11.651000000000
 10
435.767000000000
 20
11.655000000000
0
CIRCLE
  5
00000125
 39
 0.100 
 100
AcDbEntity
8
contour007
 6
CONTINUOUS
100
AcDbCircle
 10
435.600000000000
 20
14.800000000000
 30
 0
 40
1.600000000000
0
LWPOLYLINE
  5
00000126
 39
 0.100 
 100
AcDbEntity
8
contour007
 6
CONTINUOUS
100
AcDbPolyline
 90
229
 70
8
 10
435.767000000000
 20
25.655000000000
 10
435.823000000000
 20
25.658000000000
 10
435.878000000000
 20
25.662000000000
 10
435.951000000000
 20
25.671000000000
 10
436.126000000000
 20
25.696000000000
 10
436.181000000000
 20
25.704000000000
 10
436.236000000000
 20
25.715000000000
 10
436.285000000000
 20
25.727000000000
 10
436.456000000000
 20
25.770000000000
 10
436.510000000000
 20
25.784000000000
 10
436.563000000000
 20
25.801000000000
 10
436.623000000000
 20
25.822000000000
 10
436.788000000000
 20
25.884000000000
 10
436.840000000000
 20
25.905000000000
 10
436.891000000000
 20
25.927000000000
 10
436.940000000000
 20
25.950000000000
 10
437.097000000000
 20
26.029000000000
 10
437.146000000000
 20
26.055000000000
 10
437.194000000000
 20
26.083000000000
 10
437.250000000000
 20
26.118000000000
 10
437.398000000000
 20
26.215000000000
 10
437.444000000000
 20
26.246000000000
 10
437.489000000000
 20
26.279000000000
 10
437.533000000000
 20
26.315000000000
 10
437.669000000000
 20
26.427000000000
 10
437.712000000000
 20
26.463000000000
 10
437.753000000000
 20
26.500000000000
 10
437.793000000000
 20
26.540000000000
 10
437.916000000000
 20
26.666000000000
 10
437.954000000000
 20
26.707000000000
 10
437.991000000000
 20
26.749000000000
 10
438.031000000000
 20
26.798000000000
 10
438.139000000000
 20
26.937000000000
 10
438.172000000000
 20
26.982000000000
 10
438.204000000000
 20
27.027000000000
 10
438.236000000000
 20
27.078000000000
 10
438.328000000000
 20
27.228000000000
 10
438.357000000000
 20
27.276000000000
 10
438.383000000000
 20
27.325000000000
 10
438.410000000000
 20
27.380000000000
 10
438.485000000000
 20
27.540000000000
 10
438.508000000000
 20
27.591000000000
 10
438.529000000000
 20
27.643000000000
 10
438.546000000000
 20
27.689000000000
 10
438.604000000000
 20
27.856000000000
 10
438.622000000000
 20
27.909000000000
 10
438.637000000000
 20
27.963000000000
 10
438.654000000000
 20
28.031000000000
 10
438.692000000000
 20
28.203000000000
 10
438.703000000000
 20
28.257000000000
 10
438.712000000000
 20
28.312000000000
 10
438.718000000000
 20
28.361000000000
 10
438.738000000000
 20
28.536000000000
 10
438.743000000000
 20
28.591000000000
 10
438.747000000000
 20
28.647000000000
 10
438.748000000000
 20
28.712000000000
 10
438.748000000000
 20
28.888000000000
 10
438.747000000000
 20
28.944000000000
 10
438.744000000000
 20
28.999000000000
 10
438.738000000000
 20
29.064000000000
 10
438.718000000000
 20
29.239000000000
 10
438.711000000000
 20
29.294000000000
 10
438.701000000000
 20
29.349000000000
 10
438.692000000000
 20
29.397000000000
 10
438.654000000000
 20
29.569000000000
 10
438.641000000000
 20
29.624000000000
 10
438.626000000000
 20
29.677000000000
 10
438.604000000000
 20
29.744000000000
 10
438.546000000000
 20
29.911000000000
 10
438.527000000000
 20
29.963000000000
 10
438.506000000000
 20
30.014000000000
 10
438.485000000000
 20
30.060000000000
 10
438.410000000000
 20
30.220000000000
 10
438.386000000000
 20
30.270000000000
 10
438.360000000000
 20
30.319000000000
 10
438.328000000000
 20
30.372000000000
 10
438.236000000000
 20
30.522000000000
 10
438.206000000000
 20
30.569000000000
 10
438.175000000000
 20
30.615000000000
 10
438.139000000000
 20
30.663000000000
 10
438.031000000000
 20
30.802000000000
 10
437.996000000000
 20
30.845000000000
 10
437.960000000000
 20
30.887000000000
 10
437.916000000000
 20
30.934000000000
 10
437.793000000000
 20
31.060000000000
 10
437.754000000000
 20
31.099000000000
 10
437.713000000000
 20
31.137000000000
 10
437.669000000000
 20
31.173000000000
 10
437.533000000000
 20
31.285000000000
 10
437.490000000000
 20
31.320000000000
 10
437.445000000000
 20
31.353000000000
 10
437.398000000000
 20
31.385000000000
 10
437.250000000000
 20
31.482000000000
 10
437.203000000000
 20
31.512000000000
 10
437.154000000000
 20
31.540000000000
 10
437.097000000000
 20
31.571000000000
 10
436.940000000000
 20
31.650000000000
 10
436.890000000000
 20
31.674000000000
 10
436.839000000000
 20
31.696000000000
 10
436.788000000000
 20
31.716000000000
 10
436.623000000000
 20
31.778000000000
 10
436.571000000000
 20
31.797000000000
 10
436.518000000000
 20
31.813000000000
 10
436.456000000000
 20
31.830000000000
 10
436.285000000000
 20
31.873000000000
 10
436.231000000000
 20
31.886000000000
 10
436.176000000000
 20
31.896000000000
 10
436.126000000000
 20
31.904000000000
 10
435.951000000000
 20
31.929000000000
 10
435.896000000000
 20
31.936000000000
 10
435.840000000000
 20
31.941000000000
 10
435.767000000000
 20
31.945000000000
 10
435.591000000000
 20
31.949000000000
 10
435.536000000000
 20
31.949000000000
 10
435.480000000000
 20
31.947000000000
 10
435.433000000000
 20
31.944000000000
 10
435.257000000000
 20
31.930000000000
 10
435.202000000000
 20
31.925000000000
 10
435.146000000000
 20
31.917000000000
 10
435.081000000000
 20
31.906000000000
 10
434.908000000000
 20
31.872000000000
 10
434.854000000000
 20
31.860000000000
 10
434.800000000000
 20
31.847000000000
 10
434.741000000000
 20
31.829000000000
 10
434.573000000000
 20
31.776000000000
 10
434.520000000000
 20
31.758000000000
 10
434.468000000000
 20
31.739000000000
 10
434.421000000000
 20
31.719000000000
 10
434.260000000000
 20
31.649000000000
 10
434.209000000000
 20
31.626000000000
 10
434.160000000000
 20
31.601000000000
 10
434.099000000000
 20
31.568000000000
 10
433.946000000000
 20
31.479000000000
 10
433.898000000000
 20
31.450000000000
 10
433.851000000000
 20
31.419000000000
 10
433.809000000000
 20
31.389000000000
 10
433.667000000000
 20
31.285000000000
 10
433.623000000000
 20
31.252000000000
 10
433.580000000000
 20
31.217000000000
 10
433.536000000000
 20
31.178000000000
 10
433.406000000000
 20
31.059000000000
 10
433.366000000000
 20
31.021000000000
 10
433.327000000000
 20
30.981000000000
 10
433.285000000000
 20
30.935000000000
 10
433.169000000000
 20
30.802000000000
 10
433.133000000000
 20
30.759000000000
 10
433.099000000000
 20
30.715000000000
 10
433.061000000000
 20
30.663000000000
 10
432.961000000000
 20
30.518000000000
 10
432.930000000000
 20
30.472000000000
 10
432.901000000000
 20
30.424000000000
 10
432.874000000000
 20
30.377000000000
 10
432.790000000000
 20
30.222000000000
 10
432.765000000000
 20
30.172000000000
 10
432.741000000000
 20
30.122000000000
 10
432.716000000000
 20
30.065000000000
 10
432.650000000000
 20
29.902000000000
 10
432.630000000000
 20
29.850000000000
 10
432.612000000000
 20
29.797000000000
 10
432.595000000000
 20
29.741000000000
 10
432.547000000000
 20
29.571000000000
 10
432.533000000000
 20
29.517000000000
 10
432.521000000000
 20
29.463000000000
 10
432.510000000000
 20
29.405000000000
 10
432.481000000000
 20
29.231000000000
 10
432.473000000000
 20
29.176000000000
 10
432.467000000000
 20
29.120000000000
 10
432.462000000000
 20
29.064000000000
 10
432.452000000000
 20
28.888000000000
 10
432.450000000000
 20
28.832000000000
 10
432.450000000000
 20
28.777000000000
 10
432.452000000000
 20
28.712000000000
 10
432.462000000000
 20
28.536000000000
 10
432.467000000000
 20
28.481000000000
 10
432.473000000000
 20
28.425000000000
 10
432.481000000000
 20
28.369000000000
 10
432.510000000000
 20
28.195000000000
 10
432.520000000000
 20
28.140000000000
 10
432.532000000000
 20
28.086000000000
 10
432.547000000000
 20
28.029000000000
 10
432.595000000000
 20
27.859000000000
 10
432.611000000000
 20
27.806000000000
 10
432.629000000000
 20
27.753000000000
 10
432.650000000000
 20
27.698000000000
 10
432.716000000000
 20
27.535000000000
 10
432.738000000000
 20
27.484000000000
 10
432.762000000000
 20
27.434000000000
 10
432.790000000000
 20
27.378000000000
 10
432.874000000000
 20
27.223000000000
 10
432.902000000000
 20
27.175000000000
 10
432.931000000000
 20
27.128000000000
 10
432.961000000000
 20
27.082000000000
 10
433.061000000000
 20
26.937000000000
 10
433.093000000000
 20
26.892000000000
 10
433.127000000000
 20
26.848000000000
 10
433.169000000000
 20
26.798000000000
 10
433.285000000000
 20
26.665000000000
 10
433.322000000000
 20
26.624000000000
 10
433.361000000000
 20
26.584000000000
 10
433.406000000000
 20
26.541000000000
 10
433.536000000000
 20
26.422000000000
 10
433.578000000000
 20
26.385000000000
 10
433.621000000000
 20
26.350000000000
 10
433.667000000000
 20
26.315000000000
 10
433.809000000000
 20
26.211000000000
 10
433.855000000000
 20
26.178000000000
 10
433.901000000000
 20
26.148000000000
 10
433.946000000000
 20
26.121000000000
 10
434.099000000000
 20
26.032000000000
 10
434.147000000000
 20
26.005000000000
 10
434.197000000000
 20
25.980000000000
 10
434.260000000000
 20
25.951000000000
 10
434.421000000000
 20
25.881000000000
 10
434.472000000000
 20
25.859000000000
 10
434.525000000000
 20
25.840000000000
 10
434.573000000000
 20
25.824000000000
 10
434.741000000000
 20
25.771000000000
 10
434.794000000000
 20
25.755000000000
 10
434.848000000000
 20
25.741000000000
 10
434.908000000000
 20
25.728000000000
 10
435.081000000000
 20
25.694000000000
 10
435.136000000000
 20
25.684000000000
 10
435.191000000000
 20
25.677000000000
 10
435.257000000000
 20
25.670000000000
 10
435.433000000000
 20
25.656000000000
 10
435.489000000000
 20
25.652000000000
 10
435.544000000000
 20
25.651000000000
 10
435.591000000000
 20
25.651000000000
 10
435.767000000000
 20
25.655000000000
0
CIRCLE
  5
00000127
 39
 0.100 
 100
AcDbEntity
8
contour007
 6
CONTINUOUS
100
AcDbCircle
 10
435.600000000000
 20
28.800000000000
 30
 0
 40
1.600000000000
0
ARC
  5
00000128
 39
 0.100 
 100
AcDbEntity
8
contour007
 6
CONTINUOUS
100
AcDbCircle
 10
335.100000000000
 20
11.300000000000
 30
 0
 40
1.500000000000
100
AcDbArc
 50
180.000000000000
 51
270.000000000000
0
LINE
  5
00000129
 39
 0.100 
 100
AcDbEntity
8
contour007
 6
CONTINUOUS
 100
AcDbLine
 10
430.100000000000
 20
9.800000000000
 30
 0.0
 11
335.100000000000
 21
9.800000000000
 31
0.0
0
ARC
  5
0000012a
 39
 0.100 
 100
AcDbEntity
8
contour007
 6
CONTINUOUS
100
AcDbCircle
 10
430.100000000000
 20
11.300000000000
 30
 0
 40
1.500000000000
100
AcDbArc
 50
270.000000000000
 51
360.000000000000
0
LINE
  5
0000012b
 39
 0.100 
 100
AcDbEntity
8
contour007
 6
CONTINUOUS
 100
AcDbLine
 10
431.600000000000
 20
32.300000000000
 30
 0.0
 11
431.600000000000
 21
11.300000000000
 31
0.0
0
ARC
  5
0000012c
 39
 0.100 
 100
AcDbEntity
8
contour007
 6
CONTINUOUS
100
AcDbCircle
 10
430.100000000000
 20
32.300000000000
 30
 0
 40
1.500000000000
100
AcDbArc
 50
0.000000000000
 51
90.000000000000
0
LINE
  5
0000012d
 39
 0.100 
 100
AcDbEntity
8
contour007
 6
CONTINUOUS
 100
AcDbLine
 10
335.100000000000
 20
33.800000000000
 30
 0.0
 11
430.100000000000
 21
33.800000000000
 31
0.0
0
ARC
  5
0000012e
 39
 0.100 
 100
AcDbEntity
8
contour007
 6
CONTINUOUS
100
AcDbCircle
 10
335.100000000000
 20
32.300000000000
 30
 0
 40
1.500000000000
100
AcDbArc
 50
90.000000000000
 51
180.000000000000
0
LINE
  5
0000012f
 39
 0.100 
 100
AcDbEntity
8
contour007
 6
CONTINUOUS
 100
AcDbLine
 10
333.600000000000
 20
11.300000000000
 30
 0.0
 11
333.600000000000
 21
32.300000000000
 31
0.0
0
LINE
  5
00000130
 39
 0.100 
 100
AcDbEntity
8
reference_cross001
 6
CONTINUOUS
 100
AcDbLine
 10
9.750000000000
 20
5.950000000000
 30
 0.0
 11
8.250000000000
 21
5.950000000000
 31
0.0
0
LINE
  5
00000131
 39
 0.100 
 100
AcDbEntity
8
reference_cross001
 6
CONTINUOUS
 100
AcDbLine
 10
9.000000000000
 20
5.200000000000
 30
 0.0
 11
9.000000000000
 21
6.700000000000
 31
0.0
0
LINE
  5
00000132
 39
 0.100 
 100
AcDbEntity
8
reference_cross001
 6
CONTINUOUS
 100
AcDbLine
 10
9.750000000000
 20
37.650000000000
 30
 0.0
 11
8.250000000000
 21
37.650000000000
 31
0.0
0
LINE
  5
00000133
 39
 0.100 
 100
AcDbEntity
8
reference_cross001
 6
CONTINUOUS
 100
AcDbLine
 10
9.000000000000
 20
36.900000000000
 30
 0.0
 11
9.000000000000
 21
38.400000000000
 31
0.0
0
LINE
  5
00000134
 39
 0.100 
 100
AcDbEntity
8
reference_cross001
 6
CONTINUOUS
 100
AcDbLine
 10
33.500000000000
 20
7.830000000000
 30
 0.0
 11
32.000000000000
 21
7.830000000000
 31
0.0
0
LINE
  5
00000135
 39
 0.100 
 100
AcDbEntity
8
reference_cross001
 6
CONTINUOUS
 100
AcDbLine
 10
32.750000000000
 20
7.080000000000
 30
 0.0
 11
32.750000000000
 21
8.580000000000
 31
0.0
0
LINE
  5
00000136
 39
 0.100 
 100
AcDbEntity
8
reference_cross001
 6
CONTINUOUS
 100
AcDbLine
 10
33.500000000000
 20
35.770000000000
 30
 0.0
 11
32.000000000000
 21
35.770000000000
 31
0.0
0
LINE
  5
00000137
 39
 0.100 
 100
AcDbEntity
8
reference_cross001
 6
CONTINUOUS
 100
AcDbLine
 10
32.750000000000
 20
35.020000000000
 30
 0.0
 11
32.750000000000
 21
36.520000000000
 31
0.0
0
LINE
  5
00000138
 39
 0.100 
 100
AcDbEntity
8
reference_cross001
 6
CONTINUOUS
 100
AcDbLine
 10
474.750000000000
 20
5.950000000000
 30
 0.0
 11
473.250000000000
 21
5.950000000000
 31
0.0
0
LINE
  5
00000139
 39
 0.100 
 100
AcDbEntity
8
reference_cross001
 6
CONTINUOUS
 100
AcDbLine
 10
474.000000000000
 20
5.200000000000
 30
 0.0
 11
474.000000000000
 21
6.700000000000
 31
0.0
0
LINE
  5
0000013a
 39
 0.100 
 100
AcDbEntity
8
reference_cross001
 6
CONTINUOUS
 100
AcDbLine
 10
474.750000000000
 20
37.650000000000
 30
 0.0
 11
473.250000000000
 21
37.650000000000
 31
0.0
0
LINE
  5
0000013b
 39
 0.100 
 100
AcDbEntity
8
reference_cross001
 6
CONTINUOUS
 100
AcDbLine
 10
474.000000000000
 20
36.900000000000
 30
 0.0
 11
474.000000000000
 21
38.400000000000
 31
0.0
0
LINE
  5
0000013c
 39
 0.100 
 100
AcDbEntity
8
reference_cross001
 6
CONTINUOUS
 100
AcDbLine
 10
451.000000000000
 20
7.830000000000
 30
 0.0
 11
449.500000000000
 21
7.830000000000
 31
0.0
0
LINE
  5
0000013d
 39
 0.100 
 100
AcDbEntity
8
reference_cross001
 6
CONTINUOUS
 100
AcDbLine
 10
450.250000000000
 20
7.080000000000
 30
 0.0
 11
450.250000000000
 21
8.580000000000
 31
0.0
0
LINE
  5
0000013e
 39
 0.100 
 100
AcDbEntity
8
reference_cross001
 6
CONTINUOUS
 100
AcDbLine
 10
451.000000000000
 20
35.770000000000
 30
 0.0
 11
449.500000000000
 21
35.770000000000
 31
0.0
0
LINE
  5
0000013f
 39
 0.100 
 100
AcDbEntity
8
reference_cross001
 6
CONTINUOUS
 100
AcDbLine
 10
450.250000000000
 20
35.020000000000
 30
 0.0
 11
450.250000000000
 21
36.520000000000
 31
0.0
0
LINE
  5
00000140
 39
 0.100 
 100
AcDbEntity
8
reference_cross001
 6
CONTINUOUS
 100
AcDbLine
 10
62.250000000000
 20
21.000000000000
 30
 0.0
 11
60.750000000000
 21
21.000000000000
 31
0.0
0
LINE
  5
00000141
 39
 0.100 
 100
AcDbEntity
8
reference_cross001
 6
CONTINUOUS
 100
AcDbLine
 10
61.500000000000
 20
20.250000000000
 30
 0.0
 11
61.500000000000
 21
21.750000000000
 31
0.0
0
LINE
  5
00000142
 39
 0.100 
 100
AcDbEntity
8
reference_cross001
 6
CONTINUOUS
 100
AcDbLine
 10
47.022000000000
 20
33.900000000000
 30
 0.0
 11
45.522000000000
 21
33.900000000000
 31
0.0
0
LINE
  5
00000143
 39
 0.100 
 100
AcDbEntity
8
reference_cross001
 6
CONTINUOUS
 100
AcDbLine
 10
46.272000000000
 20
33.150000000000
 30
 0.0
 11
46.272000000000
 21
34.650000000000
 31
0.0
0
LINE
  5
00000144
 39
 0.100 
 100
AcDbEntity
8
reference_cross001
 6
CONTINUOUS
 100
AcDbLine
 10
77.479000000000
 20
33.900000000000
 30
 0.0
 11
75.979000000000
 21
33.900000000000
 31
0.0
0
LINE
  5
00000145
 39
 0.100 
 100
AcDbEntity
8
reference_cross001
 6
CONTINUOUS
 100
AcDbLine
 10
76.729000000000
 20
33.150000000000
 30
 0.0
 11
76.729000000000
 21
34.650000000000
 31
0.0
0
LINE
  5
00000146
 39
 0.100 
 100
AcDbEntity
8
reference_cross001
 6
CONTINUOUS
 100
AcDbLine
 10
97.749000000000
 20
21.800000000000
 30
 0.0
 11
96.249000000000
 21
21.800000000000
 31
0.0
0
LINE
  5
00000147
 39
 0.100 
 100
AcDbEntity
8
reference_cross001
 6
CONTINUOUS
 100
AcDbLine
 10
96.999000000000
 20
21.050000000000
 30
 0.0
 11
96.999000000000
 21
22.550000000000
 31
0.0
0
LINE
  5
00000148
 39
 0.100 
 100
AcDbEntity
8
reference_cross001
 6
CONTINUOUS
 100
AcDbLine
 10
97.749000000000
 20
36.250000000000
 30
 0.0
 11
96.249000000000
 21
36.250000000000
 31
0.0
0
LINE
  5
00000149
 39
 0.100 
 100
AcDbEntity
8
reference_cross001
 6
CONTINUOUS
 100
AcDbLine
 10
96.999000000000
 20
35.500000000000
 30
 0.0
 11
96.999000000000
 21
37.000000000000
 31
0.0
0
LINE
  5
0000014a
 39
 0.100 
 100
AcDbEntity
8
reference_cross001
 6
CONTINUOUS
 100
AcDbLine
 10
97.749000000000
 20
7.350000000000
 30
 0.0
 11
96.249000000000
 21
7.350000000000
 31
0.0
0
LINE
  5
0000014b
 39
 0.100 
 100
AcDbEntity
8
reference_cross001
 6
CONTINUOUS
 100
AcDbLine
 10
96.999000000000
 20
6.600000000000
 30
 0.0
 11
96.999000000000
 21
8.100000000000
 31
0.0
0
LINE
  5
0000014c
 39
 0.100 
 100
AcDbEntity
8
reference_cross001
 6
CONTINUOUS
 100
AcDbLine
 10
118.749000000000
 20
21.800000000000
 30
 0.0
 11
117.249000000000
 21
21.800000000000
 31
0.0
0
LINE
  5
0000014d
 39
 0.100 
 100
AcDbEntity
8
reference_cross001
 6
CONTINUOUS
 100
AcDbLine
 10
117.999000000000
 20
21.050000000000
 30
 0.0
 11
117.999000000000
 21
22.550000000000
 31
0.0
0
LINE
  5
0000014e
 39
 0.100 
 100
AcDbEntity
8
reference_cross001
 6
CONTINUOUS
 100
AcDbLine
 10
118.749000000000
 20
36.250000000000
 30
 0.0
 11
117.249000000000
 21
36.250000000000
 31
0.0
0
LINE
  5
0000014f
 39
 0.100 
 100
AcDbEntity
8
reference_cross001
 6
CONTINUOUS
 100
AcDbLine
 10
117.999000000000
 20
35.500000000000
 30
 0.0
 11
117.999000000000
 21
37.000000000000
 31
0.0
0
LINE
  5
00000150
 39
 0.100 
 100
AcDbEntity
8
reference_cross001
 6
CONTINUOUS
 100
AcDbLine
 10
118.749000000000
 20
7.350000000000
 30
 0.0
 11
117.249000000000
 21
7.350000000000
 31
0.0
0
LINE
  5
00000151
 39
 0.100 
 100
AcDbEntity
8
reference_cross001
 6
CONTINUOUS
 100
AcDbLine
 10
117.999000000000
 20
6.600000000000
 30
 0.0
 11
117.999000000000
 21
8.100000000000
 31
0.0
0
LINE
  5
00000152
 39
 0.100 
 100
AcDbEntity
8
reference_cross001
 6
CONTINUOUS
 100
AcDbLine
 10
139.749000000000
 20
21.800000000000
 30
 0.0
 11
138.249000000000
 21
21.800000000000
 31
0.0
0
LINE
  5
00000153
 39
 0.100 
 100
AcDbEntity
8
reference_cross001
 6
CONTINUOUS
 100
AcDbLine
 10
138.999000000000
 20
21.050000000000
 30
 0.0
 11
138.999000000000
 21
22.550000000000
 31
0.0
0
LINE
  5
00000154
 39
 0.100 
 100
AcDbEntity
8
reference_cross001
 6
CONTINUOUS
 100
AcDbLine
 10
139.749000000000
 20
36.250000000000
 30
 0.0
 11
138.249000000000
 21
36.250000000000
 31
0.0
0
LINE
  5
00000155
 39
 0.100 
 100
AcDbEntity
8
reference_cross001
 6
CONTINUOUS
 100
AcDbLine
 10
138.999000000000
 20
35.500000000000
 30
 0.0
 11
138.999000000000
 21
37.000000000000
 31
0.0
0
LINE
  5
00000156
 39
 0.100 
 100
AcDbEntity
8
reference_cross001
 6
CONTINUOUS
 100
AcDbLine
 10
139.749000000000
 20
7.350000000000
 30
 0.0
 11
138.249000000000
 21
7.350000000000
 31
0.0
0
LINE
  5
00000157
 39
 0.100 
 100
AcDbEntity
8
reference_cross001
 6
CONTINUOUS
 100
AcDbLine
 10
138.999000000000
 20
6.600000000000
 30
 0.0
 11
138.999000000000
 21
8.100000000000
 31
0.0
0
LINE
  5
00000158
 39
 0.100 
 100
AcDbEntity
8
reference_cross001
 6
CONTINUOUS
 100
AcDbLine
 10
160.749000000000
 20
21.800000000000
 30
 0.0
 11
159.249000000000
 21
21.800000000000
 31
0.0
0
LINE
  5
00000159
 39
 0.100 
 100
AcDbEntity
8
reference_cross001
 6
CONTINUOUS
 100
AcDbLine
 10
159.999000000000
 20
21.050000000000
 30
 0.0
 11
159.999000000000
 21
22.550000000000
 31
0.0
0
LINE
  5
0000015a
 39
 0.100 
 100
AcDbEntity
8
reference_cross001
 6
CONTINUOUS
 100
AcDbLine
 10
160.749000000000
 20
36.250000000000
 30
 0.0
 11
159.249000000000
 21
36.250000000000
 31
0.0
0
LINE
  5
0000015b
 39
 0.100 
 100
AcDbEntity
8
reference_cross001
 6
CONTINUOUS
 100
AcDbLine
 10
159.999000000000
 20
35.500000000000
 30
 0.0
 11
159.999000000000
 21
37.000000000000
 31
0.0
0
LINE
  5
0000015c
 39
 0.100 
 100
AcDbEntity
8
reference_cross001
 6
CONTINUOUS
 100
AcDbLine
 10
160.749000000000
 20
7.350000000000
 30
 0.0
 11
159.249000000000
 21
7.350000000000
 31
0.0
0
LINE
  5
0000015d
 39
 0.100 
 100
AcDbEntity
8
reference_cross001
 6
CONTINUOUS
 100
AcDbLine
 10
159.999000000000
 20
6.600000000000
 30
 0.0
 11
159.999000000000
 21
8.100000000000
 31
0.0
0
LINE
  5
0000015e
 39
 0.100 
 100
AcDbEntity
8
reference_cross001
 6
CONTINUOUS
 100
AcDbLine
 10
196.850000000000
 20
21.800000000000
 30
 0.0
 11
195.350000000000
 21
21.800000000000
 31
0.0
0
LINE
  5
0000015f
 39
 0.100 
 100
AcDbEntity
8
reference_cross001
 6
CONTINUOUS
 100
AcDbLine
 10
196.100000000000
 20
21.050000000000
 30
 0.0
 11
196.100000000000
 21
22.550000000000
 31
0.0
0
LINE
  5
00000160
 39
 0.100 
 100
AcDbEntity
8
reference_cross001
 6
CONTINUOUS
 100
AcDbLine
 10
321.850000000000
 20
21.800000000000
 30
 0.0
 11
320.350000000000
 21
21.800000000000
 31
0.0
0
LINE
  5
00000161
 39
 0.100 
 100
AcDbEntity
8
reference_cross001
 6
CONTINUOUS
 100
AcDbLine
 10
321.100000000000
 20
21.050000000000
 30
 0.0
 11
321.100000000000
 21
22.550000000000
 31
0.0
0
LINE
  5
00000162
 39
 0.100 
 100
AcDbEntity
8
reference_cross001
 6
CONTINUOUS
 100
AcDbLine
 10
205.350000000000
 20
28.800000000000
 30
 0.0
 11
203.850000000000
 21
28.800000000000
 31
0.0
0
LINE
  5
00000163
 39
 0.100 
 100
AcDbEntity
8
reference_cross001
 6
CONTINUOUS
 100
AcDbLine
 10
204.600000000000
 20
28.050000000000
 30
 0.0
 11
204.600000000000
 21
29.550000000000
 31
0.0
0
LINE
  5
00000164
 39
 0.100 
 100
AcDbEntity
8
reference_cross001
 6
CONTINUOUS
 100
AcDbLine
 10
311.350000000000
 20
14.800000000000
 30
 0.0
 11
309.850000000000
 21
14.800000000000
 31
0.0
0
LINE
  5
00000165
 39
 0.100 
 100
AcDbEntity
8
reference_cross001
 6
CONTINUOUS
 100
AcDbLine
 10
310.600000000000
 20
14.050000000000
 30
 0.0
 11
310.600000000000
 21
15.550000000000
 31
0.0
0
LINE
  5
00000166
 39
 0.100 
 100
AcDbEntity
8
reference_cross001
 6
CONTINUOUS
 100
AcDbLine
 10
311.350000000000
 20
28.800000000000
 30
 0.0
 11
309.850000000000
 21
28.800000000000
 31
0.0
0
LINE
  5
00000167
 39
 0.100 
 100
AcDbEntity
8
reference_cross001
 6
CONTINUOUS
 100
AcDbLine
 10
310.600000000000
 20
28.050000000000
 30
 0.0
 11
310.600000000000
 21
29.550000000000
 31
0.0
0
LINE
  5
00000168
 39
 0.100 
 100
AcDbEntity
8
reference_cross001
 6
CONTINUOUS
 100
AcDbLine
 10
258.350000000000
 20
21.800000000000
 30
 0.0
 11
256.850000000000
 21
21.800000000000
 31
0.0
0
LINE
  5
00000169
 39
 0.100 
 100
AcDbEntity
8
reference_cross001
 6
CONTINUOUS
 100
AcDbLine
 10
257.600000000000
 20
21.050000000000
 30
 0.0
 11
257.600000000000
 21
22.550000000000
 31
0.0
0
LINE
  5
0000016a
 39
 0.100 
 100
AcDbEntity
8
reference_cross001
 6
CONTINUOUS
 100
AcDbLine
 10
205.350000000000
 20
14.800000000000
 30
 0.0
 11
203.850000000000
 21
14.800000000000
 31
0.0
0
LINE
  5
0000016b
 39
 0.100 
 100
AcDbEntity
8
reference_cross001
 6
CONTINUOUS
 100
AcDbLine
 10
204.600000000000
 20
14.050000000000
 30
 0.0
 11
204.600000000000
 21
15.550000000000
 31
0.0
0
LINE
  5
0000016c
 39
 0.100 
 100
AcDbEntity
8
reference_cross001
 6
CONTINUOUS
 100
AcDbLine
 10
330.350000000000
 20
14.800000000000
 30
 0.0
 11
328.850000000000
 21
14.800000000000
 31
0.0
0
LINE
  5
0000016d
 39
 0.100 
 100
AcDbEntity
8
reference_cross001
 6
CONTINUOUS
 100
AcDbLine
 10
329.600000000000
 20
14.050000000000
 30
 0.0
 11
329.600000000000
 21
15.550000000000
 31
0.0
0
LINE
  5
0000016e
 39
 0.100 
 100
AcDbEntity
8
reference_cross001
 6
CONTINUOUS
 100
AcDbLine
 10
330.350000000000
 20
28.800000000000
 30
 0.0
 11
328.850000000000
 21
28.800000000000
 31
0.0
0
LINE
  5
0000016f
 39
 0.100 
 100
AcDbEntity
8
reference_cross001
 6
CONTINUOUS
 100
AcDbLine
 10
329.600000000000
 20
28.050000000000
 30
 0.0
 11
329.600000000000
 21
29.550000000000
 31
0.0
0
LINE
  5
00000170
 39
 0.100 
 100
AcDbEntity
8
reference_cross001
 6
CONTINUOUS
 100
AcDbLine
 10
436.350000000000
 20
14.800000000000
 30
 0.0
 11
434.850000000000
 21
14.800000000000
 31
0.0
0
LINE
  5
00000171
 39
 0.100 
 100
AcDbEntity
8
reference_cross001
 6
CONTINUOUS
 100
AcDbLine
 10
435.600000000000
 20
14.050000000000
 30
 0.0
 11
435.600000000000
 21
15.550000000000
 31
0.0
0
LINE
  5
00000172
 39
 0.100 
 100
AcDbEntity
8
reference_cross001
 6
CONTINUOUS
 100
AcDbLine
 10
436.350000000000
 20
28.800000000000
 30
 0.0
 11
434.850000000000
 21
28.800000000000
 31
0.0
0
LINE
  5
00000173
 39
 0.100 
 100
AcDbEntity
8
reference_cross001
 6
CONTINUOUS
 100
AcDbLine
 10
435.600000000000
 20
28.050000000000
 30
 0.0
 11
435.600000000000
 21
29.550000000000
 31
0.0
0
LINE
  5
00000174
 39
 0.100 
 100
AcDbEntity
8
reference_cross001
 6
CONTINUOUS
 100
AcDbLine
 10
383.350000000000
 20
21.800000000000
 30
 0.0
 11
381.850000000000
 21
21.800000000000
 31
0.0
0
LINE
  5
00000175
 39
 0.100 
 100
AcDbEntity
8
reference_cross001
 6
CONTINUOUS
 100
AcDbLine
 10
382.600000000000
 20
21.050000000000
 30
 0.0
 11
382.600000000000
 21
22.550000000000
 31
0.0
0
ENDSEC
0
SECTION
2
OBJECTS
0
DICTIONARY
5
C
330
0
100
AcDbDictionary
281
1
3
ACAD_GROUP
350
D
0
DICTIONARY
5
D
330
C
100
AcDbDictionary
281
1
0
ENDSEC
0
EOF
