999
dxfrw 0.5.10
0
SECTION
  2
HEADER
9
$ACADVER
  1
AC1021
  9
$MEASUREMENT
  70
  1
  9
$INSUNITS
  70
  4
9
$HANDSEED
  5
20000
0
ENDSEC
 0
SECTION
2
CLASSES
0
ENDSEC
 0
SECTION
 2
TABLES
0
TABLE
2
VPORT
5
8
330
0
100
AcDbSymbolTable
70
1
0
VPORT
5
31
330
2
100
AcDbSymbolTableRecord
100
AcDbViewportTableRecord
2
*ACTIVE
70
0
10
0
20
0
11
1
21
1
12
209.475294253
22
86.0026335861
13
0
23
0
14
10
24
10
15
10
25
10
16
0
26
0
36
1
17
0
27
0
37
0
40
319.744231092
41
2.12946428571
42
50
43
0
44
0
50
0
51
0
71
0
72
100
73
1
74
3
75
0
76
0
77
0
78
0
281
0
65
1
110
0
120
0
130
0
111
1
121
0
131
0
112
0
122
1
132
0
79
0
146
0
348
10020
60
7
61
5
292
1
282
1
141
0
142
0
63
250
421
3358443
0
ENDTAB
0
TABLE
2
LTYPE
5
5
330
0
100
AcDbSymbolTable
70
4
0
LTYPE
5
14
330
5
100
AcDbSymbolTableRecord
100
AcDbLinetypeTableRecord
2
ByBlock
70
0
3

72
65
73
0
40
0
0
LTYPE
5
15
330
5
100
AcDbSymbolTableRecord
100
AcDbLinetypeTableRecord
2
ByLayer
70
0
3
 
72
65
73
0
40
0
0
LTYPE
5
16
330
5
100
AcDbSymbolTableRecord
100
AcDbLinetypeTableRecord
2
Continuous
70
0
3
Solid line
72
65
73
0
40
0.0
0
LTYPE
5
 0000009d
100
AcDbSymbolTableRecord
100
AcDbLinetypeTableRecord
2
DOT
70
0
3
Dot . . . . . . . . . . . . . . . . . . . . . .
72
65
73
2
40
 3.0
49
 1.0
74
 0
49
 0.0
74
 0
0
LTYPE
5
 0000009e
100
AcDbSymbolTableRecord
100
AcDbLinetypeTableRecord
2
DASHED
70
0
3
Dashed __ __ __ __ __ __ __ __ __ __ __ __ __ _
72
65
73
2
40
1.0
49
 0.55
74
0
49
-0.45
74
0
0
ENDTAB
0
TABLE
2
LAYER
5
10
330
0
100
AcDbSymbolTable
70
1
0
LAYER
5
 0000009f
330
 2
100
AcDbSymbolTableRecord
100
AcDbLayerTableRecord
2
0
70
0
62
7
6
CONTINUOUS
370
 -3,0
390
F
0
LAYER
5
 000000a0
330
 2
100
AcDbSymbolTableRecord
100
AcDbLayerTableRecord
2
contour005
70
0
62
5
6
CONTINUOUS
370
 0,1
390
F
0
LAYER
5
 000000a1
330
 2
100
AcDbSymbolTableRecord
100
AcDbLayerTableRecord
2
contour007
70
0
62
7
6
CONTINUOUS
370
 0,1
390
F
0
LAYER
5
 000000a2
330
 2
100
AcDbSymbolTableRecord
100
AcDbLayerTableRecord
2
reference_cross001
70
0
62
1
6
CONTINUOUS
370
 0,1
390
F
0
ENDTAB
0
TABLE
2
STYLE
5
3
330
0
100
AcDbSymbolTable
70
3
0
STYLE
5
45
330
2
100
AcDbSymbolTableRecord
100
AcDbTextStyleTableRecord
2
Standard
70
0
40
0
41
1
50
0
71
0
42
1
3
txt
4
 
0
ENDTAB
0
TABLE
2
VIEW
5
6
330
0
100
AcDbSymbolTable
70
0
0
ENDTAB
0
TABLE
2
UCS
5
7
330
0
100
AcDbSymbolTable
70
0
0
ENDTAB
0
TABLE
2
APPID
5
9
330
0
100
AcDbSymbolTable
70
1
0
APPID
5
12
330
9
100
AcDbSymbolTableRecord
100
AcDbRegAppTableRecord
2
ACAD
70
0
0
ENDTAB
0
TABLE
2
DIMSTYLE
5
A
330
0
100
AcDbSymbolTable
70
1
100
AcDbDimStyleTable
71
1
0
DIMSTYLE
105
46
330
A
100
AcDbSymbolTableRecord
100
AcDbDimStyleTableRecord
2
Standard
70
0
40
1
41
0.18
42
0.0625
43
0.38
44
0.18
45
0
46
0
47
0
48
0
140
0.18
141
0.09
142
0
143
25.4
144
1
145
0
146
1
147
0.09
148
0
71
0
72
0
73
0
74
1
75
0
76
0
77
0
78
0
79
0
170
0
171
2
172
0
173
0
174
0
175
0
176
0
177
0
178
0
179
0
271
4
272
4
273
2
274
2
275
0
276
0
277
2
278
46
279
0
280
0
281
0
282
0
283
1
284
0
285
0
286
0
288
0
289
3
340
Standard
341
 
371
-2
372
-2
0
ENDTAB
0
TABLE
2
BLOCK_RECORD
5
1
330
0
100
AcDbSymbolTable
70
2
0
BLOCK_RECORD
5
1F
330
1
100
AcDbSymbolTableRecord
100
AcDbBlockTableRecord
2
*Model_Space
70
0
280
1
281
0
0
BLOCK_RECORD
5
1E
330
1
100
AcDbSymbolTableRecord
100
AcDbBlockTableRecord
2
*Paper_Space
70
0
280
1
281
0
0
ENDTAB
0
ENDSEC
0
SECTION
2
BLOCKS
0
BLOCK
5
20
330
1F
100
AcDbEntity
8
0
100
AcDbBlockBegin
2
*Model_Space
70
0
10
0
20
0
30
0
3
*Model_Space
1
 
0
ENDBLK
5
21
330
1F
100
AcDbEntity
8
0
100
AcDbBlockEnd
0
BLOCK
5
1C
330
1B
100
AcDbEntity
8
0
100
AcDbBlockBegin
2
*Paper_Space
70
0
10
0
20
0
30
0
3
*Paper_Space
1
 
0
ENDBLK
5
1D
330
1E
100
AcDbEntity
8
0
100
AcDbBlockEnd
0
ENDSEC
0
SECTION
  2
ENTITIES
0
ARC
  5
000000a3
 39
 0.100 
 100
AcDbEntity
8
contour007
 6
CONTINUOUS
100
AcDbCircle
 10
482.000000000000
 20
42.600000000000
 30
 0
 40
1.000000000000
100
AcDbArc
 50
360.000000000000
 51
90.000000000000
0
LINE
  5
000000a4
 39
 0.100 
 100
AcDbEntity
8
contour007
 6
CONTINUOUS
 100
AcDbLine
 10
483.000000000000
 20
1.000000000000
 30
 0.0
 11
483.000000000000
 21
42.600000000000
 31
0.0
0
ARC
  5
000000a5
 39
 0.100 
 100
AcDbEntity
8
contour007
 6
CONTINUOUS
100
AcDbCircle
 10
482.000000000000
 20
1.000000000000
 30
 0
 40
1.000000000000
100
AcDbArc
 50
270.000000000000
 51
0.000000000000
0
LINE
  5
000000a6
 39
 0.100 
 100
AcDbEntity
8
contour007
 6
CONTINUOUS
 100
AcDbLine
 10
1.000000000000
 20
0.000000000000
 30
 0.0
 11
482.000000000000
 21
0.000000000000
 31
0.0
0
ARC
  5
000000a7
 39
 0.100 
 100
AcDbEntity
8
contour007
 6
CONTINUOUS
100
AcDbCircle
 10
1.000000000000
 20
1.000000000000
 30
 0
 40
1.000000000000
100
AcDbArc
 50
540.000000000000
 51
270.000000000000
0
LINE
  5
000000a8
 39
 0.100 
 100
AcDbEntity
8
contour007
 6
CONTINUOUS
 100
AcDbLine
 10
0.000000000000
 20
42.600000000000
 30
 0.0
 11
0.000000000000
 21
1.000000000000
 31
0.0
0
ARC
  5
000000a9
 39
 0.100 
 100
AcDbEntity
8
contour007
 6
CONTINUOUS
100
AcDbCircle
 10
1.000000000000
 20
42.600000000000
 30
 0
 40
1.000000000000
100
AcDbArc
 50
450.000000000000
 51
180.000000000000
0
LINE
  5
000000aa
 39
 0.100 
 100
AcDbEntity
8
contour007
 6
CONTINUOUS
 100
AcDbLine
 10
482.000000000000
 20
43.600000000000
 30
 0.0
 11
1.000000000000
 21
43.600000000000
 31
0.0
0
ARC
  5
000000ab
 39
 0.100 
 100
AcDbEntity
8
contour007
 6
CONTINUOUS
100
AcDbCircle
 10
9.000000000000
 20
5.950000000000
 30
 0
 40
5.249526169094
100
AcDbArc
 50
140.061670631814
 51
219.938329368186
0
ARC
  5
000000ac
 39
 0.100 
 100
AcDbEntity
8
contour007
 6
CONTINUOUS
100
AcDbCircle
 10
5.895380406601
 20
3.349999939705
 30
 0
 40
1.200000000000
100
AcDbArc
 50
219.916207444700
 51
269.981836922415
0
LINE
  5
000000ad
 39
 0.100 
 100
AcDbEntity
8
contour007
 6
CONTINUOUS
 100
AcDbLine
 10
12.105000000000
 20
2.150000000000
 30
 0.0
 11
5.895000000000
 21
2.150000000000
 31
0.0
0
ARC
  5
000000ae
 39
 0.100 
 100
AcDbEntity
8
contour007
 6
CONTINUOUS
100
AcDbCircle
 10
12.104619593399
 20
3.349999939705
 30
 0
 40
1.200000000000
100
AcDbArc
 50
270.018163077585
 51
320.083792555300
0
ARC
  5
000000af
 39
 0.100 
 100
AcDbEntity
8
contour007
 6
CONTINUOUS
100
AcDbCircle
 10
9.000000000000
 20
5.950000000000
 30
 0
 40
5.249526169094
100
AcDbArc
 50
320.061670631814
 51
399.938329368186
0
ARC
  5
000000b0
 39
 0.100 
 100
AcDbEntity
8
contour007
 6
CONTINUOUS
100
AcDbCircle
 10
12.104619593399
 20
8.550000060295
 30
 0
 40
1.200000000000
100
AcDbArc
 50
39.916207444699
 51
89.981836922415
0
LINE
  5
000000b1
 39
 0.100 
 100
AcDbEntity
8
contour007
 6
CONTINUOUS
 100
AcDbLine
 10
5.895000000000
 20
9.750000000000
 30
 0.0
 11
12.105000000000
 21
9.750000000000
 31
0.0
0
ARC
  5
000000b2
 39
 0.100 
 100
AcDbEntity
8
contour007
 6
CONTINUOUS
100
AcDbCircle
 10
5.895380406601
 20
8.550000060295
 30
 0
 40
1.200000000000
100
AcDbArc
 50
90.018163077585
 51
140.083792555300
0
ARC
  5
000000b3
 39
 0.100 
 100
AcDbEntity
8
contour007
 6
CONTINUOUS
100
AcDbCircle
 10
9.000000000000
 20
37.650000000000
 30
 0
 40
5.249526169094
100
AcDbArc
 50
140.061670631814
 51
219.938329368186
0
ARC
  5
000000b4
 39
 0.100 
 100
AcDbEntity
8
contour007
 6
CONTINUOUS
100
AcDbCircle
 10
5.895380406601
 20
35.049999939705
 30
 0
 40
1.200000000000
100
AcDbArc
 50
219.916207444700
 51
269.981836922415
0
LINE
  5
000000b5
 39
 0.100 
 100
AcDbEntity
8
contour007
 6
CONTINUOUS
 100
AcDbLine
 10
12.105000000000
 20
33.850000000000
 30
 0.0
 11
5.895000000000
 21
33.850000000000
 31
0.0
0
ARC
  5
000000b6
 39
 0.100 
 100
AcDbEntity
8
contour007
 6
CONTINUOUS
100
AcDbCircle
 10
12.104619593399
 20
35.049999939705
 30
 0
 40
1.200000000000
100
AcDbArc
 50
270.018163077585
 51
320.083792555300
0
ARC
  5
000000b7
 39
 0.100 
 100
AcDbEntity
8
contour007
 6
CONTINUOUS
100
AcDbCircle
 10
9.000000000000
 20
37.650000000000
 30
 0
 40
5.249526169094
100
AcDbArc
 50
320.061670631814
 51
399.938329368186
0
ARC
  5
000000b8
 39
 0.100 
 100
AcDbEntity
8
contour007
 6
CONTINUOUS
100
AcDbCircle
 10
12.104619593399
 20
40.250000060295
 30
 0
 40
1.200000000000
100
AcDbArc
 50
39.916207444699
 51
89.981836922414
0
LINE
  5
000000b9
 39
 0.100 
 100
AcDbEntity
8
contour007
 6
CONTINUOUS
 100
AcDbLine
 10
5.895000000000
 20
41.450000000000
 30
 0.0
 11
12.105000000000
 21
41.450000000000
 31
0.0
0
ARC
  5
000000ba
 39
 0.100 
 100
AcDbEntity
8
contour007
 6
CONTINUOUS
100
AcDbCircle
 10
5.895380406601
 20
40.250000060295
 30
 0
 40
1.200000000000
100
AcDbArc
 50
90.018163077585
 51
140.083792555300
0
LWPOLYLINE
  5
000000bb
 39
 0.100 
 100
AcDbEntity
8
contour007
 6
CONTINUOUS
100
AcDbPolyline
 90
265
 70
8
 10
32.830000000000
 20
3.832000000000
 10
33.042000000000
 20
3.842000000000
 10
33.100000000000
 20
3.846000000000
 10
33.158000000000
 20
3.851000000000
 10
33.193000000000
 20
3.856000000000
 10
33.404000000000
 20
3.885000000000
 10
33.462000000000
 20
3.894000000000
 10
33.519000000000
 20
3.905000000000
 10
33.564000000000
 20
3.915000000000
 10
33.771000000000
 20
3.964000000000
 10
33.828000000000
 20
3.978000000000
 10
33.884000000000
 20
3.994000000000
 10
34.118000000000
 20
4.072000000000
 10
34.173000000000
 20
4.092000000000
 10
34.228000000000
 20
4.113000000000
 10
34.267000000000
 20
4.129000000000
 10
34.462000000000
 20
4.215000000000
 10
34.515000000000
 20
4.240000000000
 10
34.567000000000
 20
4.266000000000
 10
34.609000000000
 20
4.289000000000
 10
34.794000000000
 20
4.393000000000
 10
34.844000000000
 20
4.422000000000
 10
34.893000000000
 20
4.454000000000
 10
34.918000000000
 20
4.470000000000
 10
35.094000000000
 20
4.590000000000
 10
35.142000000000
 20
4.624000000000
 10
35.188000000000
 20
4.659000000000
 10
35.225000000000
 20
4.689000000000
 10
35.388000000000
 20
4.825000000000
 10
35.433000000000
 20
4.864000000000
 10
35.475000000000
 20
4.903000000000
 10
35.651000000000
 20
5.079000000000
 10
35.692000000000
 20
5.121000000000
 10
35.731000000000
 20
5.164000000000
 10
35.755000000000
 20
5.192000000000
 10
35.891000000000
 20
5.355000000000
 10
35.927000000000
 20
5.400000000000
 10
35.962000000000
 20
5.447000000000
 10
35.990000000000
 20
5.486000000000
 10
36.110000000000
 20
5.662000000000
 10
36.142000000000
 20
5.711000000000
 10
36.172000000000
 20
5.760000000000
 10
36.187000000000
 20
5.786000000000
 10
36.291000000000
 20
5.971000000000
 10
36.319000000000
 20
6.023000000000
 10
36.345000000000
 20
6.075000000000
 10
36.365000000000
 20
6.118000000000
 10
36.451000000000
 20
6.313000000000
 10
36.473000000000
 20
6.367000000000
 10
36.494000000000
 20
6.422000000000
 10
36.508000000000
 20
6.462000000000
 10
36.575000000000
 20
6.663000000000
 10
36.592000000000
 20
6.718000000000
 10
36.608000000000
 20
6.775000000000
 10
36.616000000000
 20
6.809000000000
 10
36.665000000000
 20
7.016000000000
 10
36.678000000000
 20
7.073000000000
 10
36.688000000000
 20
7.130000000000
 10
36.695000000000
 20
7.176000000000
 10
36.724000000000
 20
7.387000000000
 10
36.731000000000
 20
7.445000000000
 10
36.736000000000
 20
7.503000000000
 10
36.738000000000
 20
7.538000000000
 10
36.748000000000
 20
7.750000000000
 10
36.750000000000
 20
7.808000000000
 10
36.750000000000
 20
7.867000000000
 10
36.748000000000
 20
7.910000000000
 10
36.738000000000
 20
8.122000000000
 10
36.734000000000
 20
8.180000000000
 10
36.729000000000
 20
8.238000000000
 10
36.724000000000
 20
8.273000000000
 10
36.695000000000
 20
8.484000000000
 10
36.686000000000
 20
8.542000000000
 10
36.675000000000
 20
8.599000000000
 10
36.665000000000
 20
8.644000000000
 10
36.616000000000
 20
8.851000000000
 10
36.602000000000
 20
8.908000000000
 10
36.586000000000
 20
8.964000000000
 10
36.508000000000
 20
9.198000000000
 10
36.488000000000
 20
9.253000000000
 10
36.467000000000
 20
9.308000000000
 10
36.451000000000
 20
9.347000000000
 10
36.365000000000
 20
9.542000000000
 10
36.340000000000
 20
9.595000000000
 10
36.314000000000
 20
9.647000000000
 10
36.291000000000
 20
9.689000000000
 10
36.187000000000
 20
9.874000000000
 10
36.158000000000
 20
9.924000000000
 10
36.126000000000
 20
9.973000000000
 10
36.110000000000
 20
9.998000000000
 10
35.990000000000
 20
10.174000000000
 10
35.956000000000
 20
10.222000000000
 10
35.921000000000
 20
10.268000000000
 10
35.891000000000
 20
10.305000000000
 10
35.755000000000
 20
10.468000000000
 10
35.716000000000
 20
10.513000000000
 10
35.677000000000
 20
10.555000000000
 10
35.501000000000
 20
10.731000000000
 10
35.459000000000
 20
10.772000000000
 10
35.416000000000
 20
10.811000000000
 10
35.388000000000
 20
10.835000000000
 10
35.225000000000
 20
10.971000000000
 10
35.180000000000
 20
11.007000000000
 10
35.133000000000
 20
11.042000000000
 10
35.094000000000
 20
11.070000000000
 10
34.918000000000
 20
11.190000000000
 10
34.869000000000
 20
11.222000000000
 10
34.820000000000
 20
11.252000000000
 10
34.794000000000
 20
11.267000000000
 10
34.609000000000
 20
11.371000000000
 10
34.557000000000
 20
11.399000000000
 10
34.505000000000
 20
11.425000000000
 10
34.462000000000
 20
11.445000000000
 10
34.267000000000
 20
11.531000000000
 10
34.213000000000
 20
11.553000000000
 10
34.158000000000
 20
11.574000000000
 10
34.118000000000
 20
11.588000000000
 10
33.917000000000
 20
11.655000000000
 10
33.862000000000
 20
11.672000000000
 10
33.805000000000
 20
11.688000000000
 10
33.771000000000
 20
11.696000000000
 10
33.564000000000
 20
11.745000000000
 10
33.507000000000
 20
11.758000000000
 10
33.450000000000
 20
11.768000000000
 10
33.404000000000
 20
11.775000000000
 10
33.193000000000
 20
11.804000000000
 10
33.135000000000
 20
11.811000000000
 10
33.077000000000
 20
11.816000000000
 10
33.042000000000
 20
11.818000000000
 10
32.830000000000
 20
11.828000000000
 10
32.772000000000
 20
11.830000000000
 10
32.713000000000
 20
11.830000000000
 10
32.670000000000
 20
11.828000000000
 10
32.458000000000
 20
11.818000000000
 10
32.400000000000
 20
11.814000000000
 10
32.342000000000
 20
11.809000000000
 10
32.307000000000
 20
11.804000000000
 10
32.096000000000
 20
11.775000000000
 10
32.038000000000
 20
11.766000000000
 10
31.981000000000
 20
11.755000000000
 10
31.936000000000
 20
11.745000000000
 10
31.729000000000
 20
11.696000000000
 10
31.672000000000
 20
11.682000000000
 10
31.616000000000
 20
11.666000000000
 10
31.382000000000
 20
11.588000000000
 10
31.327000000000
 20
11.568000000000
 10
31.272000000000
 20
11.547000000000
 10
31.233000000000
 20
11.531000000000
 10
31.038000000000
 20
11.445000000000
 10
30.985000000000
 20
11.420000000000
 10
30.933000000000
 20
11.394000000000
 10
30.891000000000
 20
11.371000000000
 10
30.706000000000
 20
11.267000000000
 10
30.656000000000
 20
11.238000000000
 10
30.607000000000
 20
11.206000000000
 10
30.582000000000
 20
11.190000000000
 10
30.406000000000
 20
11.070000000000
 10
30.358000000000
 20
11.036000000000
 10
30.312000000000
 20
11.001000000000
 10
30.275000000000
 20
10.971000000000
 10
30.112000000000
 20
10.835000000000
 10
30.067000000000
 20
10.796000000000
 10
30.025000000000
 20
10.757000000000
 10
29.849000000000
 20
10.581000000000
 10
29.808000000000
 20
10.539000000000
 10
29.769000000000
 20
10.496000000000
 10
29.745000000000
 20
10.468000000000
 10
29.609000000000
 20
10.305000000000
 10
29.573000000000
 20
10.260000000000
 10
29.538000000000
 20
10.213000000000
 10
29.510000000000
 20
10.174000000000
 10
29.390000000000
 20
9.998000000000
 10
29.358000000000
 20
9.949000000000
 10
29.328000000000
 20
9.900000000000
 10
29.313000000000
 20
9.874000000000
 10
29.209000000000
 20
9.689000000000
 10
29.181000000000
 20
9.637000000000
 10
29.155000000000
 20
9.585000000000
 10
29.135000000000
 20
9.542000000000
 10
29.049000000000
 20
9.347000000000
 10
29.027000000000
 20
9.293000000000
 10
29.006000000000
 20
9.238000000000
 10
28.992000000000
 20
9.198000000000
 10
28.925000000000
 20
8.997000000000
 10
28.908000000000
 20
8.942000000000
 10
28.892000000000
 20
8.885000000000
 10
28.884000000000
 20
8.851000000000
 10
28.835000000000
 20
8.644000000000
 10
28.822000000000
 20
8.587000000000
 10
28.812000000000
 20
8.530000000000
 10
28.805000000000
 20
8.484000000000
 10
28.776000000000
 20
8.273000000000
 10
28.769000000000
 20
8.215000000000
 10
28.764000000000
 20
8.157000000000
 10
28.762000000000
 20
8.122000000000
 10
28.752000000000
 20
7.910000000000
 10
28.750000000000
 20
7.852000000000
 10
28.750000000000
 20
7.793000000000
 10
28.752000000000
 20
7.750000000000
 10
28.762000000000
 20
7.538000000000
 10
28.766000000000
 20
7.480000000000
 10
28.771000000000
 20
7.422000000000
 10
28.776000000000
 20
7.387000000000
 10
28.805000000000
 20
7.176000000000
 10
28.814000000000
 20
7.118000000000
 10
28.825000000000
 20
7.061000000000
 10
28.835000000000
 20
7.016000000000
 10
28.884000000000
 20
6.809000000000
 10
28.898000000000
 20
6.752000000000
 10
28.914000000000
 20
6.696000000000
 10
28.992000000000
 20
6.462000000000
 10
29.012000000000
 20
6.407000000000
 10
29.033000000000
 20
6.352000000000
 10
29.049000000000
 20
6.313000000000
 10
29.135000000000
 20
6.118000000000
 10
29.160000000000
 20
6.065000000000
 10
29.186000000000
 20
6.013000000000
 10
29.209000000000
 20
5.971000000000
 10
29.313000000000
 20
5.786000000000
 10
29.342000000000
 20
5.736000000000
 10
29.374000000000
 20
5.687000000000
 10
29.390000000000
 20
5.662000000000
 10
29.510000000000
 20
5.486000000000
 10
29.544000000000
 20
5.438000000000
 10
29.579000000000
 20
5.392000000000
 10
29.609000000000
 20
5.355000000000
 10
29.745000000000
 20
5.192000000000
 10
29.784000000000
 20
5.147000000000
 10
29.823000000000
 20
5.105000000000
 10
29.999000000000
 20
4.929000000000
 10
30.041000000000
 20
4.888000000000
 10
30.084000000000
 20
4.849000000000
 10
30.112000000000
 20
4.825000000000
 10
30.275000000000
 20
4.689000000000
 10
30.320000000000
 20
4.653000000000
 10
30.367000000000
 20
4.618000000000
 10
30.406000000000
 20
4.590000000000
 10
30.582000000000
 20
4.470000000000
 10
30.631000000000
 20
4.438000000000
 10
30.680000000000
 20
4.408000000000
 10
30.706000000000
 20
4.393000000000
 10
30.891000000000
 20
4.289000000000
 10
30.943000000000
 20
4.261000000000
 10
30.995000000000
 20
4.235000000000
 10
31.038000000000
 20
4.215000000000
 10
31.233000000000
 20
4.129000000000
 10
31.287000000000
 20
4.107000000000
 10
31.342000000000
 20
4.086000000000
 10
31.382000000000
 20
4.072000000000
 10
31.583000000000
 20
4.005000000000
 10
31.638000000000
 20
3.988000000000
 10
31.695000000000
 20
3.972000000000
 10
31.729000000000
 20
3.964000000000
 10
31.936000000000
 20
3.915000000000
 10
31.993000000000
 20
3.902000000000
 10
32.050000000000
 20
3.892000000000
 10
32.096000000000
 20
3.885000000000
 10
32.307000000000
 20
3.856000000000
 10
32.365000000000
 20
3.849000000000
 10
32.423000000000
 20
3.844000000000
 10
32.458000000000
 20
3.842000000000
 10
32.670000000000
 20
3.832000000000
 10
32.728000000000
 20
3.830000000000
 10
32.787000000000
 20
3.830000000000
 10
32.830000000000
 20
3.832000000000
0
CIRCLE
  5
000000bc
 39
 0.100 
 100
AcDbEntity
8
contour007
 6
CONTINUOUS
100
AcDbCircle
 10
32.750000000000
 20
7.830000000000
 30
 0
 40
2.301000000000
0
LWPOLYLINE
  5
000000bd
 39
 0.100 
 100
AcDbEntity
8
contour007
 6
CONTINUOUS
100
AcDbPolyline
 90
265
 70
8
 10
32.830000000000
 20
31.772000000000
 10
33.042000000000
 20
31.782000000000
 10
33.100000000000
 20
31.786000000000
 10
33.158000000000
 20
31.791000000000
 10
33.193000000000
 20
31.796000000000
 10
33.404000000000
 20
31.825000000000
 10
33.462000000000
 20
31.834000000000
 10
33.519000000000
 20
31.845000000000
 10
33.564000000000
 20
31.855000000000
 10
33.771000000000
 20
31.904000000000
 10
33.828000000000
 20
31.918000000000
 10
33.884000000000
 20
31.934000000000
 10
34.118000000000
 20
32.012000000000
 10
34.173000000000
 20
32.032000000000
 10
34.228000000000
 20
32.053000000000
 10
34.267000000000
 20
32.069000000000
 10
34.462000000000
 20
32.155000000000
 10
34.515000000000
 20
32.180000000000
 10
34.567000000000
 20
32.206000000000
 10
34.609000000000
 20
32.229000000000
 10
34.794000000000
 20
32.333000000000
 10
34.844000000000
 20
32.362000000000
 10
34.893000000000
 20
32.394000000000
 10
34.918000000000
 20
32.410000000000
 10
35.094000000000
 20
32.530000000000
 10
35.142000000000
 20
32.564000000000
 10
35.188000000000
 20
32.599000000000
 10
35.225000000000
 20
32.629000000000
 10
35.388000000000
 20
32.765000000000
 10
35.433000000000
 20
32.804000000000
 10
35.475000000000
 20
32.843000000000
 10
35.651000000000
 20
33.019000000000
 10
35.692000000000
 20
33.061000000000
 10
35.731000000000
 20
33.104000000000
 10
35.755000000000
 20
33.132000000000
 10
35.891000000000
 20
33.295000000000
 10
35.927000000000
 20
33.340000000000
 10
35.962000000000
 20
33.387000000000
 10
35.990000000000
 20
33.426000000000
 10
36.110000000000
 20
33.602000000000
 10
36.142000000000
 20
33.651000000000
 10
36.172000000000
 20
33.700000000000
 10
36.187000000000
 20
33.726000000000
 10
36.291000000000
 20
33.911000000000
 10
36.319000000000
 20
33.963000000000
 10
36.345000000000
 20
34.015000000000
 10
36.365000000000
 20
34.058000000000
 10
36.451000000000
 20
34.253000000000
 10
36.473000000000
 20
34.307000000000
 10
36.494000000000
 20
34.362000000000
 10
36.508000000000
 20
34.402000000000
 10
36.575000000000
 20
34.603000000000
 10
36.592000000000
 20
34.658000000000
 10
36.608000000000
 20
34.715000000000
 10
36.616000000000
 20
34.749000000000
 10
36.665000000000
 20
34.956000000000
 10
36.678000000000
 20
35.013000000000
 10
36.688000000000
 20
35.070000000000
 10
36.695000000000
 20
35.116000000000
 10
36.724000000000
 20
35.327000000000
 10
36.731000000000
 20
35.385000000000
 10
36.736000000000
 20
35.443000000000
 10
36.738000000000
 20
35.478000000000
 10
36.748000000000
 20
35.690000000000
 10
36.750000000000
 20
35.748000000000
 10
36.750000000000
 20
35.807000000000
 10
36.748000000000
 20
35.850000000000
 10
36.738000000000
 20
36.062000000000
 10
36.734000000000
 20
36.120000000000
 10
36.729000000000
 20
36.178000000000
 10
36.724000000000
 20
36.213000000000
 10
36.695000000000
 20
36.424000000000
 10
36.686000000000
 20
36.482000000000
 10
36.675000000000
 20
36.539000000000
 10
36.665000000000
 20
36.584000000000
 10
36.616000000000
 20
36.791000000000
 10
36.602000000000
 20
36.848000000000
 10
36.586000000000
 20
36.904000000000
 10
36.508000000000
 20
37.138000000000
 10
36.488000000000
 20
37.193000000000
 10
36.467000000000
 20
37.248000000000
 10
36.451000000000
 20
37.287000000000
 10
36.365000000000
 20
37.482000000000
 10
36.340000000000
 20
37.535000000000
 10
36.314000000000
 20
37.587000000000
 10
36.291000000000
 20
37.629000000000
 10
36.187000000000
 20
37.814000000000
 10
36.158000000000
 20
37.864000000000
 10
36.126000000000
 20
37.913000000000
 10
36.110000000000
 20
37.938000000000
 10
35.990000000000
 20
38.114000000000
 10
35.956000000000
 20
38.162000000000
 10
35.921000000000
 20
38.208000000000
 10
35.891000000000
 20
38.245000000000
 10
35.755000000000
 20
38.408000000000
 10
35.716000000000
 20
38.453000000000
 10
35.677000000000
 20
38.495000000000
 10
35.501000000000
 20
38.671000000000
 10
35.459000000000
 20
38.712000000000
 10
35.416000000000
 20
38.751000000000
 10
35.388000000000
 20
38.775000000000
 10
35.225000000000
 20
38.911000000000
 10
35.180000000000
 20
38.947000000000
 10
35.133000000000
 20
38.982000000000
 10
35.094000000000
 20
39.010000000000
 10
34.918000000000
 20
39.130000000000
 10
34.869000000000
 20
39.162000000000
 10
34.820000000000
 20
39.192000000000
 10
34.794000000000
 20
39.207000000000
 10
34.609000000000
 20
39.311000000000
 10
34.557000000000
 20
39.339000000000
 10
34.505000000000
 20
39.365000000000
 10
34.462000000000
 20
39.385000000000
 10
34.267000000000
 20
39.471000000000
 10
34.213000000000
 20
39.493000000000
 10
34.158000000000
 20
39.514000000000
 10
34.118000000000
 20
39.528000000000
 10
33.917000000000
 20
39.595000000000
 10
33.862000000000
 20
39.612000000000
 10
33.805000000000
 20
39.628000000000
 10
33.771000000000
 20
39.636000000000
 10
33.564000000000
 20
39.685000000000
 10
33.507000000000
 20
39.698000000000
 10
33.450000000000
 20
39.708000000000
 10
33.404000000000
 20
39.715000000000
 10
33.193000000000
 20
39.744000000000
 10
33.135000000000
 20
39.751000000000
 10
33.077000000000
 20
39.756000000000
 10
33.042000000000
 20
39.758000000000
 10
32.830000000000
 20
39.768000000000
 10
32.772000000000
 20
39.770000000000
 10
32.713000000000
 20
39.770000000000
 10
32.670000000000
 20
39.768000000000
 10
32.458000000000
 20
39.758000000000
 10
32.400000000000
 20
39.754000000000
 10
32.342000000000
 20
39.749000000000
 10
32.307000000000
 20
39.744000000000
 10
32.096000000000
 20
39.715000000000
 10
32.038000000000
 20
39.706000000000
 10
31.981000000000
 20
39.695000000000
 10
31.936000000000
 20
39.685000000000
 10
31.729000000000
 20
39.636000000000
 10
31.672000000000
 20
39.622000000000
 10
31.616000000000
 20
39.606000000000
 10
31.382000000000
 20
39.528000000000
 10
31.327000000000
 20
39.508000000000
 10
31.272000000000
 20
39.487000000000
 10
31.233000000000
 20
39.471000000000
 10
31.038000000000
 20
39.385000000000
 10
30.985000000000
 20
39.360000000000
 10
30.933000000000
 20
39.334000000000
 10
30.891000000000
 20
39.311000000000
 10
30.706000000000
 20
39.207000000000
 10
30.656000000000
 20
39.178000000000
 10
30.607000000000
 20
39.146000000000
 10
30.582000000000
 20
39.130000000000
 10
30.406000000000
 20
39.010000000000
 10
30.358000000000
 20
38.976000000000
 10
30.312000000000
 20
38.941000000000
 10
30.275000000000
 20
38.911000000000
 10
30.112000000000
 20
38.775000000000
 10
30.067000000000
 20
38.736000000000
 10
30.025000000000
 20
38.697000000000
 10
29.849000000000
 20
38.521000000000
 10
29.808000000000
 20
38.479000000000
 10
29.769000000000
 20
38.436000000000
 10
29.745000000000
 20
38.408000000000
 10
29.609000000000
 20
38.245000000000
 10
29.573000000000
 20
38.200000000000
 10
29.538000000000
 20
38.153000000000
 10
29.510000000000
 20
38.114000000000
 10
29.390000000000
 20
37.938000000000
 10
29.358000000000
 20
37.889000000000
 10
29.328000000000
 20
37.840000000000
 10
29.313000000000
 20
37.814000000000
 10
29.209000000000
 20
37.629000000000
 10
29.181000000000
 20
37.577000000000
 10
29.155000000000
 20
37.525000000000
 10
29.135000000000
 20
37.482000000000
 10
29.049000000000
 20
37.287000000000
 10
29.027000000000
 20
37.233000000000
 10
29.006000000000
 20
37.178000000000
 10
28.992000000000
 20
37.138000000000
 10
28.925000000000
 20
36.937000000000
 10
28.908000000000
 20
36.882000000000
 10
28.892000000000
 20
36.825000000000
 10
28.884000000000
 20
36.791000000000
 10
28.835000000000
 20
36.584000000000
 10
28.822000000000
 20
36.527000000000
 10
28.812000000000
 20
36.470000000000
 10
28.805000000000
 20
36.424000000000
 10
28.776000000000
 20
36.213000000000
 10
28.769000000000
 20
36.155000000000
 10
28.764000000000
 20
36.097000000000
 10
28.762000000000
 20
36.062000000000
 10
28.752000000000
 20
35.850000000000
 10
28.750000000000
 20
35.792000000000
 10
28.750000000000
 20
35.733000000000
 10
28.752000000000
 20
35.690000000000
 10
28.762000000000
 20
35.478000000000
 10
28.766000000000
 20
35.420000000000
 10
28.771000000000
 20
35.362000000000
 10
28.776000000000
 20
35.327000000000
 10
28.805000000000
 20
35.116000000000
 10
28.814000000000
 20
35.058000000000
 10
28.825000000000
 20
35.001000000000
 10
28.835000000000
 20
34.956000000000
 10
28.884000000000
 20
34.749000000000
 10
28.898000000000
 20
34.692000000000
 10
28.914000000000
 20
34.636000000000
 10
28.992000000000
 20
34.402000000000
 10
29.012000000000
 20
34.347000000000
 10
29.033000000000
 20
34.292000000000
 10
29.049000000000
 20
34.253000000000
 10
29.135000000000
 20
34.058000000000
 10
29.160000000000
 20
34.005000000000
 10
29.186000000000
 20
33.953000000000
 10
29.209000000000
 20
33.911000000000
 10
29.313000000000
 20
33.726000000000
 10
29.342000000000
 20
33.676000000000
 10
29.374000000000
 20
33.627000000000
 10
29.390000000000
 20
33.602000000000
 10
29.510000000000
 20
33.426000000000
 10
29.544000000000
 20
33.378000000000
 10
29.579000000000
 20
33.332000000000
 10
29.609000000000
 20
33.295000000000
 10
29.745000000000
 20
33.132000000000
 10
29.784000000000
 20
33.087000000000
 10
29.823000000000
 20
33.045000000000
 10
29.999000000000
 20
32.869000000000
 10
30.041000000000
 20
32.828000000000
 10
30.084000000000
 20
32.789000000000
 10
30.112000000000
 20
32.765000000000
 10
30.275000000000
 20
32.629000000000
 10
30.320000000000
 20
32.593000000000
 10
30.367000000000
 20
32.558000000000
 10
30.406000000000
 20
32.530000000000
 10
30.582000000000
 20
32.410000000000
 10
30.631000000000
 20
32.378000000000
 10
30.680000000000
 20
32.348000000000
 10
30.706000000000
 20
32.333000000000
 10
30.891000000000
 20
32.229000000000
 10
30.943000000000
 20
32.201000000000
 10
30.995000000000
 20
32.175000000000
 10
31.038000000000
 20
32.155000000000
 10
31.233000000000
 20
32.069000000000
 10
31.287000000000
 20
32.047000000000
 10
31.342000000000
 20
32.026000000000
 10
31.382000000000
 20
32.012000000000
 10
31.583000000000
 20
31.945000000000
 10
31.638000000000
 20
31.928000000000
 10
31.695000000000
 20
31.912000000000
 10
31.729000000000
 20
31.904000000000
 10
31.936000000000
 20
31.855000000000
 10
31.993000000000
 20
31.842000000000
 10
32.050000000000
 20
31.832000000000
 10
32.096000000000
 20
31.825000000000
 10
32.307000000000
 20
31.796000000000
 10
32.365000000000
 20
31.789000000000
 10
32.423000000000
 20
31.784000000000
 10
32.458000000000
 20
31.782000000000
 10
32.670000000000
 20
31.772000000000
 10
32.728000000000
 20
31.770000000000
 10
32.787000000000
 20
31.770000000000
 10
32.830000000000
 20
31.772000000000
0
CIRCLE
  5
000000be
 39
 0.100 
 100
AcDbEntity
8
contour007
 6
CONTINUOUS
100
AcDbCircle
 10
32.750000000000
 20
35.770000000000
 30
 0
 40
2.301000000000
0
ARC
  5
000000bf
 39
 0.100 
 100
AcDbEntity
8
contour007
 6
CONTINUOUS
100
AcDbCircle
 10
474.000000000000
 20
5.950000000000
 30
 0
 40
5.249526169094
100
AcDbArc
 50
140.061670631814
 51
219.938329368186
0
ARC
  5
000000c0
 39
 0.100 
 100
AcDbEntity
8
contour007
 6
CONTINUOUS
100
AcDbCircle
 10
470.895380406601
 20
3.349999939704
 30
 0
 40
1.200000000000
100
AcDbArc
 50
219.916207444699
 51
269.981836922414
0
LINE
  5
000000c1
 39
 0.100 
 100
AcDbEntity
8
contour007
 6
CONTINUOUS
 100
AcDbLine
 10
477.105000000000
 20
2.150000000000
 30
 0.0
 11
470.895000000000
 21
2.150000000000
 31
0.0
0
ARC
  5
000000c2
 39
 0.100 
 100
AcDbEntity
8
contour007
 6
CONTINUOUS
100
AcDbCircle
 10
477.104619593399
 20
3.349999939704
 30
 0
 40
1.200000000000
100
AcDbArc
 50
270.018163077586
 51
320.083792555301
0
ARC
  5
000000c3
 39
 0.100 
 100
AcDbEntity
8
contour007
 6
CONTINUOUS
100
AcDbCircle
 10
474.000000000000
 20
5.950000000000
 30
 0
 40
5.249526169094
100
AcDbArc
 50
320.061670631814
 51
399.938329368186
0
ARC
  5
000000c4
 39
 0.100 
 100
AcDbEntity
8
contour007
 6
CONTINUOUS
100
AcDbCircle
 10
477.104619593399
 20
8.550000060296
 30
 0
 40
1.200000000000
100
AcDbArc
 50
39.916207444699
 51
89.981836922414
0
LINE
  5
000000c5
 39
 0.100 
 100
AcDbEntity
8
contour007
 6
CONTINUOUS
 100
AcDbLine
 10
470.895000000000
 20
9.750000000000
 30
 0.0
 11
477.105000000000
 21
9.750000000000
 31
0.0
0
ARC
  5
000000c6
 39
 0.100 
 100
AcDbEntity
8
contour007
 6
CONTINUOUS
100
AcDbCircle
 10
470.895380406601
 20
8.550000060296
 30
 0
 40
1.200000000000
100
AcDbArc
 50
90.018163077586
 51
140.083792555301
0
ARC
  5
000000c7
 39
 0.100 
 100
AcDbEntity
8
contour007
 6
CONTINUOUS
100
AcDbCircle
 10
474.000000000000
 20
37.650000000000
 30
 0
 40
5.249526169094
100
AcDbArc
 50
140.061670631814
 51
219.938329368186
0
ARC
  5
000000c8
 39
 0.100 
 100
AcDbEntity
8
contour007
 6
CONTINUOUS
100
AcDbCircle
 10
470.895380406601
 20
35.049999939704
 30
 0
 40
1.200000000000
100
AcDbArc
 50
219.916207444698
 51
269.981836922413
0
LINE
  5
000000c9
 39
 0.100 
 100
AcDbEntity
8
contour007
 6
CONTINUOUS
 100
AcDbLine
 10
477.105000000000
 20
33.850000000000
 30
 0.0
 11
470.895000000000
 21
33.850000000000
 31
0.0
0
ARC
  5
000000ca
 39
 0.100 
 100
AcDbEntity
8
contour007
 6
CONTINUOUS
100
AcDbCircle
 10
477.104619593399
 20
35.049999939704
 30
 0
 40
1.200000000000
100
AcDbArc
 50
270.018163077586
 51
320.083792555301
0
ARC
  5
000000cb
 39
 0.100 
 100
AcDbEntity
8
contour007
 6
CONTINUOUS
100
AcDbCircle
 10
474.000000000000
 20
37.650000000000
 30
 0
 40
5.249526169094
100
AcDbArc
 50
320.061670631814
 51
399.938329368186
0
ARC
  5
000000cc
 39
 0.100 
 100
AcDbEntity
8
contour007
 6
CONTINUOUS
100
AcDbCircle
 10
477.104619593399
 20
40.250000060296
 30
 0
 40
1.200000000000
100
AcDbArc
 50
39.916207444698
 51
89.981836922414
0
LINE
  5
000000cd
 39
 0.100 
 100
AcDbEntity
8
contour007
 6
CONTINUOUS
 100
AcDbLine
 10
470.895000000000
 20
41.450000000000
 30
 0.0
 11
477.105000000000
 21
41.450000000000
 31
0.0
0
ARC
  5
000000ce
 39
 0.100 
 100
AcDbEntity
8
contour007
 6
CONTINUOUS
100
AcDbCircle
 10
470.895380406601
 20
40.250000060296
 30
 0
 40
1.200000000000
100
AcDbArc
 50
90.018163077586
 51
140.083792555301
0
LWPOLYLINE
  5
000000cf
 39
 0.100 
 100
AcDbEntity
8
contour007
 6
CONTINUOUS
100
AcDbPolyline
 90
265
 70
8
 10
450.330000000000
 20
3.832000000000
 10
450.542000000000
 20
3.842000000000
 10
450.600000000000
 20
3.846000000000
 10
450.658000000000
 20
3.851000000000
 10
450.693000000000
 20
3.856000000000
 10
450.904000000000
 20
3.885000000000
 10
450.962000000000
 20
3.894000000000
 10
451.019000000000
 20
3.905000000000
 10
451.064000000000
 20
3.915000000000
 10
451.271000000000
 20
3.964000000000
 10
451.328000000000
 20
3.978000000000
 10
451.384000000000
 20
3.994000000000
 10
451.618000000000
 20
4.072000000000
 10
451.673000000000
 20
4.092000000000
 10
451.728000000000
 20
4.113000000000
 10
451.767000000000
 20
4.129000000000
 10
451.962000000000
 20
4.215000000000
 10
452.015000000000
 20
4.240000000000
 10
452.067000000000
 20
4.266000000000
 10
452.109000000000
 20
4.289000000000
 10
452.294000000000
 20
4.393000000000
 10
452.344000000000
 20
4.422000000000
 10
452.393000000000
 20
4.454000000000
 10
452.418000000000
 20
4.470000000000
 10
452.594000000000
 20
4.590000000000
 10
452.642000000000
 20
4.624000000000
 10
452.688000000000
 20
4.659000000000
 10
452.725000000000
 20
4.689000000000
 10
452.888000000000
 20
4.825000000000
 10
452.933000000000
 20
4.864000000000
 10
452.975000000000
 20
4.903000000000
 10
453.151000000000
 20
5.079000000000
 10
453.192000000000
 20
5.121000000000
 10
453.231000000000
 20
5.164000000000
 10
453.255000000000
 20
5.192000000000
 10
453.391000000000
 20
5.355000000000
 10
453.427000000000
 20
5.400000000000
 10
453.462000000000
 20
5.447000000000
 10
453.490000000000
 20
5.486000000000
 10
453.610000000000
 20
5.662000000000
 10
453.642000000000
 20
5.711000000000
 10
453.672000000000
 20
5.760000000000
 10
453.687000000000
 20
5.786000000000
 10
453.791000000000
 20
5.971000000000
 10
453.819000000000
 20
6.023000000000
 10
453.845000000000
 20
6.075000000000
 10
453.865000000000
 20
6.118000000000
 10
453.951000000000
 20
6.313000000000
 10
453.973000000000
 20
6.367000000000
 10
453.994000000000
 20
6.422000000000
 10
454.008000000000
 20
6.462000000000
 10
454.075000000000
 20
6.663000000000
 10
454.092000000000
 20
6.718000000000
 10
454.108000000000
 20
6.775000000000
 10
454.116000000000
 20
6.809000000000
 10
454.165000000000
 20
7.016000000000
 10
454.178000000000
 20
7.073000000000
 10
454.188000000000
 20
7.130000000000
 10
454.195000000000
 20
7.176000000000
 10
454.224000000000
 20
7.387000000000
 10
454.231000000000
 20
7.445000000000
 10
454.236000000000
 20
7.503000000000
 10
454.238000000000
 20
7.538000000000
 10
454.248000000000
 20
7.750000000000
 10
454.250000000000
 20
7.808000000000
 10
454.250000000000
 20
7.867000000000
 10
454.248000000000
 20
7.910000000000
 10
454.238000000000
 20
8.122000000000
 10
454.234000000000
 20
8.180000000000
 10
454.229000000000
 20
8.238000000000
 10
454.224000000000
 20
8.273000000000
 10
454.195000000000
 20
8.484000000000
 10
454.186000000000
 20
8.542000000000
 10
454.175000000000
 20
8.599000000000
 10
454.165000000000
 20
8.644000000000
 10
454.116000000000
 20
8.851000000000
 10
454.102000000000
 20
8.908000000000
 10
454.086000000000
 20
8.964000000000
 10
454.008000000000
 20
9.198000000000
 10
453.988000000000
 20
9.253000000000
 10
453.967000000000
 20
9.308000000000
 10
453.951000000000
 20
9.347000000000
 10
453.865000000000
 20
9.542000000000
 10
453.840000000000
 20
9.595000000000
 10
453.814000000000
 20
9.647000000000
 10
453.791000000000
 20
9.689000000000
 10
453.687000000000
 20
9.874000000000
 10
453.658000000000
 20
9.924000000000
 10
453.626000000000
 20
9.973000000000
 10
453.610000000000
 20
9.998000000000
 10
453.490000000000
 20
10.174000000000
 10
453.456000000000
 20
10.222000000000
 10
453.421000000000
 20
10.268000000000
 10
453.391000000000
 20
10.305000000000
 10
453.255000000000
 20
10.468000000000
 10
453.216000000000
 20
10.513000000000
 10
453.177000000000
 20
10.555000000000
 10
453.001000000000
 20
10.731000000000
 10
452.959000000000
 20
10.772000000000
 10
452.916000000000
 20
10.811000000000
 10
452.888000000000
 20
10.835000000000
 10
452.725000000000
 20
10.971000000000
 10
452.680000000000
 20
11.007000000000
 10
452.633000000000
 20
11.042000000000
 10
452.594000000000
 20
11.070000000000
 10
452.418000000000
 20
11.190000000000
 10
452.369000000000
 20
11.222000000000
 10
452.320000000000
 20
11.252000000000
 10
452.294000000000
 20
11.267000000000
 10
452.109000000000
 20
11.371000000000
 10
452.057000000000
 20
11.399000000000
 10
452.005000000000
 20
11.425000000000
 10
451.962000000000
 20
11.445000000000
 10
451.767000000000
 20
11.531000000000
 10
451.713000000000
 20
11.553000000000
 10
451.658000000000
 20
11.574000000000
 10
451.618000000000
 20
11.588000000000
 10
451.417000000000
 20
11.655000000000
 10
451.362000000000
 20
11.672000000000
 10
451.305000000000
 20
11.688000000000
 10
451.271000000000
 20
11.696000000000
 10
451.064000000000
 20
11.745000000000
 10
451.007000000000
 20
11.758000000000
 10
450.950000000000
 20
11.768000000000
 10
450.904000000000
 20
11.775000000000
 10
450.693000000000
 20
11.804000000000
 10
450.635000000000
 20
11.811000000000
 10
450.577000000000
 20
11.816000000000
 10
450.542000000000
 20
11.818000000000
 10
450.330000000000
 20
11.828000000000
 10
450.272000000000
 20
11.830000000000
 10
450.213000000000
 20
11.830000000000
 10
450.170000000000
 20
11.828000000000
 10
449.958000000000
 20
11.818000000000
 10
449.900000000000
 20
11.814000000000
 10
449.842000000000
 20
11.809000000000
 10
449.807000000000
 20
11.804000000000
 10
449.596000000000
 20
11.775000000000
 10
449.538000000000
 20
11.766000000000
 10
449.481000000000
 20
11.755000000000
 10
449.436000000000
 20
11.745000000000
 10
449.229000000000
 20
11.696000000000
 10
449.172000000000
 20
11.682000000000
 10
449.116000000000
 20
11.666000000000
 10
448.882000000000
 20
11.588000000000
 10
448.827000000000
 20
11.568000000000
 10
448.772000000000
 20
11.547000000000
 10
448.733000000000
 20
11.531000000000
 10
448.538000000000
 20
11.445000000000
 10
448.485000000000
 20
11.420000000000
 10
448.433000000000
 20
11.394000000000
 10
448.391000000000
 20
11.371000000000
 10
448.206000000000
 20
11.267000000000
 10
448.156000000000
 20
11.238000000000
 10
448.107000000000
 20
11.206000000000
 10
448.082000000000
 20
11.190000000000
 10
447.906000000000
 20
11.070000000000
 10
447.858000000000
 20
11.036000000000
 10
447.812000000000
 20
11.001000000000
 10
447.775000000000
 20
10.971000000000
 10
447.612000000000
 20
10.835000000000
 10
447.567000000000
 20
10.796000000000
 10
447.525000000000
 20
10.757000000000
 10
447.349000000000
 20
10.581000000000
 10
447.308000000000
 20
10.539000000000
 10
447.269000000000
 20
10.496000000000
 10
447.245000000000
 20
10.468000000000
 10
447.109000000000
 20
10.305000000000
 10
447.073000000000
 20
10.260000000000
 10
447.038000000000
 20
10.213000000000
 10
447.010000000000
 20
10.174000000000
 10
446.890000000000
 20
9.998000000000
 10
446.858000000000
 20
9.949000000000
 10
446.828000000000
 20
9.900000000000
 10
446.813000000000
 20
9.874000000000
 10
446.709000000000
 20
9.689000000000
 10
446.681000000000
 20
9.637000000000
 10
446.655000000000
 20
9.585000000000
 10
446.635000000000
 20
9.542000000000
 10
446.549000000000
 20
9.347000000000
 10
446.527000000000
 20
9.293000000000
 10
446.506000000000
 20
9.238000000000
 10
446.492000000000
 20
9.198000000000
 10
446.425000000000
 20
8.997000000000
 10
446.408000000000
 20
8.942000000000
 10
446.392000000000
 20
8.885000000000
 10
446.384000000000
 20
8.851000000000
 10
446.335000000000
 20
8.644000000000
 10
446.322000000000
 20
8.587000000000
 10
446.312000000000
 20
8.530000000000
 10
446.305000000000
 20
8.484000000000
 10
446.276000000000
 20
8.273000000000
 10
446.269000000000
 20
8.215000000000
 10
446.264000000000
 20
8.157000000000
 10
446.262000000000
 20
8.122000000000
 10
446.252000000000
 20
7.910000000000
 10
446.250000000000
 20
7.852000000000
 10
446.250000000000
 20
7.793000000000
 10
446.252000000000
 20
7.750000000000
 10
446.262000000000
 20
7.538000000000
 10
446.266000000000
 20
7.480000000000
 10
446.271000000000
 20
7.422000000000
 10
446.276000000000
 20
7.387000000000
 10
446.305000000000
 20
7.176000000000
 10
446.314000000000
 20
7.118000000000
 10
446.325000000000
 20
7.061000000000
 10
446.335000000000
 20
7.016000000000
 10
446.384000000000
 20
6.809000000000
 10
446.398000000000
 20
6.752000000000
 10
446.414000000000
 20
6.696000000000
 10
446.492000000000
 20
6.462000000000
 10
446.512000000000
 20
6.407000000000
 10
446.533000000000
 20
6.352000000000
 10
446.549000000000
 20
6.313000000000
 10
446.635000000000
 20
6.118000000000
 10
446.660000000000
 20
6.065000000000
 10
446.686000000000
 20
6.013000000000
 10
446.709000000000
 20
5.971000000000
 10
446.813000000000
 20
5.786000000000
 10
446.842000000000
 20
5.736000000000
 10
446.874000000000
 20
5.687000000000
 10
446.890000000000
 20
5.662000000000
 10
447.010000000000
 20
5.486000000000
 10
447.044000000000
 20
5.438000000000
 10
447.079000000000
 20
5.392000000000
 10
447.109000000000
 20
5.355000000000
 10
447.245000000000
 20
5.192000000000
 10
447.284000000000
 20
5.147000000000
 10
447.323000000000
 20
5.105000000000
 10
447.499000000000
 20
4.929000000000
 10
447.541000000000
 20
4.888000000000
 10
447.584000000000
 20
4.849000000000
 10
447.612000000000
 20
4.825000000000
 10
447.775000000000
 20
4.689000000000
 10
447.820000000000
 20
4.653000000000
 10
447.867000000000
 20
4.618000000000
 10
447.906000000000
 20
4.590000000000
 10
448.082000000000
 20
4.470000000000
 10
448.131000000000
 20
4.438000000000
 10
448.180000000000
 20
4.408000000000
 10
448.206000000000
 20
4.393000000000
 10
448.391000000000
 20
4.289000000000
 10
448.443000000000
 20
4.261000000000
 10
448.495000000000
 20
4.235000000000
 10
448.538000000000
 20
4.215000000000
 10
448.733000000000
 20
4.129000000000
 10
448.787000000000
 20
4.107000000000
 10
448.842000000000
 20
4.086000000000
 10
448.882000000000
 20
4.072000000000
 10
449.083000000000
 20
4.005000000000
 10
449.138000000000
 20
3.988000000000
 10
449.195000000000
 20
3.972000000000
 10
449.229000000000
 20
3.964000000000
 10
449.436000000000
 20
3.915000000000
 10
449.493000000000
 20
3.902000000000
 10
449.550000000000
 20
3.892000000000
 10
449.596000000000
 20
3.885000000000
 10
449.807000000000
 20
3.856000000000
 10
449.865000000000
 20
3.849000000000
 10
449.923000000000
 20
3.844000000000
 10
449.958000000000
 20
3.842000000000
 10
450.170000000000
 20
3.832000000000
 10
450.228000000000
 20
3.830000000000
 10
450.287000000000
 20
3.830000000000
 10
450.330000000000
 20
3.832000000000
0
CIRCLE
  5
000000d0
 39
 0.100 
 100
AcDbEntity
8
contour007
 6
CONTINUOUS
100
AcDbCircle
 10
450.250000000000
 20
7.830000000000
 30
 0
 40
2.301000000000
0
LWPOLYLINE
  5
000000d1
 39
 0.100 
 100
AcDbEntity
8
contour007
 6
CONTINUOUS
100
AcDbPolyline
 90
265
 70
8
 10
450.330000000000
 20
31.772000000000
 10
450.542000000000
 20
31.782000000000
 10
450.600000000000
 20
31.786000000000
 10
450.658000000000
 20
31.791000000000
 10
450.693000000000
 20
31.796000000000
 10
450.904000000000
 20
31.825000000000
 10
450.962000000000
 20
31.834000000000
 10
451.019000000000
 20
31.845000000000
 10
451.064000000000
 20
31.855000000000
 10
451.271000000000
 20
31.904000000000
 10
451.328000000000
 20
31.918000000000
 10
451.384000000000
 20
31.934000000000
 10
451.618000000000
 20
32.012000000000
 10
451.673000000000
 20
32.032000000000
 10
451.728000000000
 20
32.053000000000
 10
451.767000000000
 20
32.069000000000
 10
451.962000000000
 20
32.155000000000
 10
452.015000000000
 20
32.180000000000
 10
452.067000000000
 20
32.206000000000
 10
452.109000000000
 20
32.229000000000
 10
452.294000000000
 20
32.333000000000
 10
452.344000000000
 20
32.362000000000
 10
452.393000000000
 20
32.394000000000
 10
452.418000000000
 20
32.410000000000
 10
452.594000000000
 20
32.530000000000
 10
452.642000000000
 20
32.564000000000
 10
452.688000000000
 20
32.599000000000
 10
452.725000000000
 20
32.629000000000
 10
452.888000000000
 20
32.765000000000
 10
452.933000000000
 20
32.804000000000
 10
452.975000000000
 20
32.843000000000
 10
453.151000000000
 20
33.019000000000
 10
453.192000000000
 20
33.061000000000
 10
453.231000000000
 20
33.104000000000
 10
453.255000000000
 20
33.132000000000
 10
453.391000000000
 20
33.295000000000
 10
453.427000000000
 20
33.340000000000
 10
453.462000000000
 20
33.387000000000
 10
453.490000000000
 20
33.426000000000
 10
453.610000000000
 20
33.602000000000
 10
453.642000000000
 20
33.651000000000
 10
453.672000000000
 20
33.700000000000
 10
453.687000000000
 20
33.726000000000
 10
453.791000000000
 20
33.911000000000
 10
453.819000000000
 20
33.963000000000
 10
453.845000000000
 20
34.015000000000
 10
453.865000000000
 20
34.058000000000
 10
453.951000000000
 20
34.253000000000
 10
453.973000000000
 20
34.307000000000
 10
453.994000000000
 20
34.362000000000
 10
454.008000000000
 20
34.402000000000
 10
454.075000000000
 20
34.603000000000
 10
454.092000000000
 20
34.658000000000
 10
454.108000000000
 20
34.715000000000
 10
454.116000000000
 20
34.749000000000
 10
454.165000000000
 20
34.956000000000
 10
454.178000000000
 20
35.013000000000
 10
454.188000000000
 20
35.070000000000
 10
454.195000000000
 20
35.116000000000
 10
454.224000000000
 20
35.327000000000
 10
454.231000000000
 20
35.385000000000
 10
454.236000000000
 20
35.443000000000
 10
454.238000000000
 20
35.478000000000
 10
454.248000000000
 20
35.690000000000
 10
454.250000000000
 20
35.748000000000
 10
454.250000000000
 20
35.807000000000
 10
454.248000000000
 20
35.850000000000
 10
454.238000000000
 20
36.062000000000
 10
454.234000000000
 20
36.120000000000
 10
454.229000000000
 20
36.178000000000
 10
454.224000000000
 20
36.213000000000
 10
454.195000000000
 20
36.424000000000
 10
454.186000000000
 20
36.482000000000
 10
454.175000000000
 20
36.539000000000
 10
454.165000000000
 20
36.584000000000
 10
454.116000000000
 20
36.791000000000
 10
454.102000000000
 20
36.848000000000
 10
454.086000000000
 20
36.904000000000
 10
454.008000000000
 20
37.138000000000
 10
453.988000000000
 20
37.193000000000
 10
453.967000000000
 20
37.248000000000
 10
453.951000000000
 20
37.287000000000
 10
453.865000000000
 20
37.482000000000
 10
453.840000000000
 20
37.535000000000
 10
453.814000000000
 20
37.587000000000
 10
453.791000000000
 20
37.629000000000
 10
453.687000000000
 20
37.814000000000
 10
453.658000000000
 20
37.864000000000
 10
453.626000000000
 20
37.913000000000
 10
453.610000000000
 20
37.938000000000
 10
453.490000000000
 20
38.114000000000
 10
453.456000000000
 20
38.162000000000
 10
453.421000000000
 20
38.208000000000
 10
453.391000000000
 20
38.245000000000
 10
453.255000000000
 20
38.408000000000
 10
453.216000000000
 20
38.453000000000
 10
453.177000000000
 20
38.495000000000
 10
453.001000000000
 20
38.671000000000
 10
452.959000000000
 20
38.712000000000
 10
452.916000000000
 20
38.751000000000
 10
452.888000000000
 20
38.775000000000
 10
452.725000000000
 20
38.911000000000
 10
452.680000000000
 20
38.947000000000
 10
452.633000000000
 20
38.982000000000
 10
452.594000000000
 20
39.010000000000
 10
452.418000000000
 20
39.130000000000
 10
452.369000000000
 20
39.162000000000
 10
452.320000000000
 20
39.192000000000
 10
452.294000000000
 20
39.207000000000
 10
452.109000000000
 20
39.311000000000
 10
452.057000000000
 20
39.339000000000
 10
452.005000000000
 20
39.365000000000
 10
451.962000000000
 20
39.385000000000
 10
451.767000000000
 20
39.471000000000
 10
451.713000000000
 20
39.493000000000
 10
451.658000000000
 20
39.514000000000
 10
451.618000000000
 20
39.528000000000
 10
451.417000000000
 20
39.595000000000
 10
451.362000000000
 20
39.612000000000
 10
451.305000000000
 20
39.628000000000
 10
451.271000000000
 20
39.636000000000
 10
451.064000000000
 20
39.685000000000
 10
451.007000000000
 20
39.698000000000
 10
450.950000000000
 20
39.708000000000
 10
450.904000000000
 20
39.715000000000
 10
450.693000000000
 20
39.744000000000
 10
450.635000000000
 20
39.751000000000
 10
450.577000000000
 20
39.756000000000
 10
450.542000000000
 20
39.758000000000
 10
450.330000000000
 20
39.768000000000
 10
450.272000000000
 20
39.770000000000
 10
450.213000000000
 20
39.770000000000
 10
450.170000000000
 20
39.768000000000
 10
449.958000000000
 20
39.758000000000
 10
449.900000000000
 20
39.754000000000
 10
449.842000000000
 20
39.749000000000
 10
449.807000000000
 20
39.744000000000
 10
449.596000000000
 20
39.715000000000
 10
449.538000000000
 20
39.706000000000
 10
449.481000000000
 20
39.695000000000
 10
449.436000000000
 20
39.685000000000
 10
449.229000000000
 20
39.636000000000
 10
449.172000000000
 20
39.622000000000
 10
449.116000000000
 20
39.606000000000
 10
448.882000000000
 20
39.528000000000
 10
448.827000000000
 20
39.508000000000
 10
448.772000000000
 20
39.487000000000
 10
448.733000000000
 20
39.471000000000
 10
448.538000000000
 20
39.385000000000
 10
448.485000000000
 20
39.360000000000
 10
448.433000000000
 20
39.334000000000
 10
448.391000000000
 20
39.311000000000
 10
448.206000000000
 20
39.207000000000
 10
448.156000000000
 20
39.178000000000
 10
448.107000000000
 20
39.146000000000
 10
448.082000000000
 20
39.130000000000
 10
447.906000000000
 20
39.010000000000
 10
447.858000000000
 20
38.976000000000
 10
447.812000000000
 20
38.941000000000
 10
447.775000000000
 20
38.911000000000
 10
447.612000000000
 20
38.775000000000
 10
447.567000000000
 20
38.736000000000
 10
447.525000000000
 20
38.697000000000
 10
447.349000000000
 20
38.521000000000
 10
447.308000000000
 20
38.479000000000
 10
447.269000000000
 20
38.436000000000
 10
447.245000000000
 20
38.408000000000
 10
447.109000000000
 20
38.245000000000
 10
447.073000000000
 20
38.200000000000
 10
447.038000000000
 20
38.153000000000
 10
447.010000000000
 20
38.114000000000
 10
446.890000000000
 20
37.938000000000
 10
446.858000000000
 20
37.889000000000
 10
446.828000000000
 20
37.840000000000
 10
446.813000000000
 20
37.814000000000
 10
446.709000000000
 20
37.629000000000
 10
446.681000000000
 20
37.577000000000
 10
446.655000000000
 20
37.525000000000
 10
446.635000000000
 20
37.482000000000
 10
446.549000000000
 20
37.287000000000
 10
446.527000000000
 20
37.233000000000
 10
446.506000000000
 20
37.178000000000
 10
446.492000000000
 20
37.138000000000
 10
446.425000000000
 20
36.937000000000
 10
446.408000000000
 20
36.882000000000
 10
446.392000000000
 20
36.825000000000
 10
446.384000000000
 20
36.791000000000
 10
446.335000000000
 20
36.584000000000
 10
446.322000000000
 20
36.527000000000
 10
446.312000000000
 20
36.470000000000
 10
446.305000000000
 20
36.424000000000
 10
446.276000000000
 20
36.213000000000
 10
446.269000000000
 20
36.155000000000
 10
446.264000000000
 20
36.097000000000
 10
446.262000000000
 20
36.062000000000
 10
446.252000000000
 20
35.850000000000
 10
446.250000000000
 20
35.792000000000
 10
446.250000000000
 20
35.733000000000
 10
446.252000000000
 20
35.690000000000
 10
446.262000000000
 20
35.478000000000
 10
446.266000000000
 20
35.420000000000
 10
446.271000000000
 20
35.362000000000
 10
446.276000000000
 20
35.327000000000
 10
446.305000000000
 20
35.116000000000
 10
446.314000000000
 20
35.058000000000
 10
446.325000000000
 20
35.001000000000
 10
446.335000000000
 20
34.956000000000
 10
446.384000000000
 20
34.749000000000
 10
446.398000000000
 20
34.692000000000
 10
446.414000000000
 20
34.636000000000
 10
446.492000000000
 20
34.402000000000
 10
446.512000000000
 20
34.347000000000
 10
446.533000000000
 20
34.292000000000
 10
446.549000000000
 20
34.253000000000
 10
446.635000000000
 20
34.058000000000
 10
446.660000000000
 20
34.005000000000
 10
446.686000000000
 20
33.953000000000
 10
446.709000000000
 20
33.911000000000
 10
446.813000000000
 20
33.726000000000
 10
446.842000000000
 20
33.676000000000
 10
446.874000000000
 20
33.627000000000
 10
446.890000000000
 20
33.602000000000
 10
447.010000000000
 20
33.426000000000
 10
447.044000000000
 20
33.378000000000
 10
447.079000000000
 20
33.332000000000
 10
447.109000000000
 20
33.295000000000
 10
447.245000000000
 20
33.132000000000
 10
447.284000000000
 20
33.087000000000
 10
447.323000000000
 20
33.045000000000
 10
447.499000000000
 20
32.869000000000
 10
447.541000000000
 20
32.828000000000
 10
447.584000000000
 20
32.789000000000
 10
447.612000000000
 20
32.765000000000
 10
447.775000000000
 20
32.629000000000
 10
447.820000000000
 20
32.593000000000
 10
447.867000000000
 20
32.558000000000
 10
447.906000000000
 20
32.530000000000
 10
448.082000000000
 20
32.410000000000
 10
448.131000000000
 20
32.378000000000
 10
448.180000000000
 20
32.348000000000
 10
448.206000000000
 20
32.333000000000
 10
448.391000000000
 20
32.229000000000
 10
448.443000000000
 20
32.201000000000
 10
448.495000000000
 20
32.175000000000
 10
448.538000000000
 20
32.155000000000
 10
448.733000000000
 20
32.069000000000
 10
448.787000000000
 20
32.047000000000
 10
448.842000000000
 20
32.026000000000
 10
448.882000000000
 20
32.012000000000
 10
449.083000000000
 20
31.945000000000
 10
449.138000000000
 20
31.928000000000
 10
449.195000000000
 20
31.912000000000
 10
449.229000000000
 20
31.904000000000
 10
449.436000000000
 20
31.855000000000
 10
449.493000000000
 20
31.842000000000
 10
449.550000000000
 20
31.832000000000
 10
449.596000000000
 20
31.825000000000
 10
449.807000000000
 20
31.796000000000
 10
449.865000000000
 20
31.789000000000
 10
449.923000000000
 20
31.784000000000
 10
449.958000000000
 20
31.782000000000
 10
450.170000000000
 20
31.772000000000
 10
450.228000000000
 20
31.770000000000
 10
450.287000000000
 20
31.770000000000
 10
450.330000000000
 20
31.772000000000
0
CIRCLE
  5
000000d2
 39
 0.100 
 100
AcDbEntity
8
contour007
 6
CONTINUOUS
100
AcDbCircle
 10
450.250000000000
 20
35.770000000000
 30
 0
 40
2.301000000000
0
LWPOLYLINE
  5
000000d3
 39
 0.100 
 100
AcDbEntity
8
contour007
 6
CONTINUOUS
100
AcDbPolyline
 90
229
 70
8
 10
329.767000000000
 20
9.155000000000
 10
329.823000000000
 20
9.158000000000
 10
329.878000000000
 20
9.162000000000
 10
329.951000000000
 20
9.171000000000
 10
330.126000000000
 20
9.196000000000
 10
330.181000000000
 20
9.204000000000
 10
330.236000000000
 20
9.215000000000
 10
330.285000000000
 20
9.227000000000
 10
330.456000000000
 20
9.270000000000
 10
330.510000000000
 20
9.284000000000
 10
330.563000000000
 20
9.301000000000
 10
330.623000000000
 20
9.322000000000
 10
330.788000000000
 20
9.384000000000
 10
330.840000000000
 20
9.405000000000
 10
330.891000000000
 20
9.427000000000
 10
330.940000000000
 20
9.450000000000
 10
331.097000000000
 20
9.529000000000
 10
331.146000000000
 20
9.555000000000
 10
331.194000000000
 20
9.583000000000
 10
331.250000000000
 20
9.618000000000
 10
331.398000000000
 20
9.715000000000
 10
331.444000000000
 20
9.746000000000
 10
331.489000000000
 20
9.779000000000
 10
331.533000000000
 20
9.815000000000
 10
331.669000000000
 20
9.927000000000
 10
331.712000000000
 20
9.963000000000
 10
331.753000000000
 20
10.000000000000
 10
331.793000000000
 20
10.040000000000
 10
331.916000000000
 20
10.166000000000
 10
331.954000000000
 20
10.207000000000
 10
331.991000000000
 20
10.249000000000
 10
332.031000000000
 20
10.298000000000
 10
332.139000000000
 20
10.437000000000
 10
332.172000000000
 20
10.482000000000
 10
332.204000000000
 20
10.527000000000
 10
332.236000000000
 20
10.578000000000
 10
332.328000000000
 20
10.728000000000
 10
332.357000000000
 20
10.776000000000
 10
332.383000000000
 20
10.825000000000
 10
332.410000000000
 20
10.880000000000
 10
332.485000000000
 20
11.040000000000
 10
332.508000000000
 20
11.091000000000
 10
332.529000000000
 20
11.143000000000
 10
332.546000000000
 20
11.189000000000
 10
332.604000000000
 20
11.356000000000
 10
332.622000000000
 20
11.409000000000
 10
332.637000000000
 20
11.463000000000
 10
332.654000000000
 20
11.531000000000
 10
332.692000000000
 20
11.703000000000
 10
332.703000000000
 20
11.757000000000
 10
332.712000000000
 20
11.812000000000
 10
332.718000000000
 20
11.861000000000
 10
332.738000000000
 20
12.036000000000
 10
332.743000000000
 20
12.091000000000
 10
332.747000000000
 20
12.147000000000
 10
332.748000000000
 20
12.212000000000
 10
332.748000000000
 20
12.388000000000
 10
332.747000000000
 20
12.444000000000
 10
332.744000000000
 20
12.499000000000
 10
332.738000000000
 20
12.564000000000
 10
332.718000000000
 20
12.739000000000
 10
332.711000000000
 20
12.794000000000
 10
332.701000000000
 20
12.849000000000
 10
332.692000000000
 20
12.897000000000
 10
332.654000000000
 20
13.069000000000
 10
332.641000000000
 20
13.124000000000
 10
332.626000000000
 20
13.177000000000
 10
332.604000000000
 20
13.244000000000
 10
332.546000000000
 20
13.411000000000
 10
332.527000000000
 20
13.463000000000
 10
332.506000000000
 20
13.514000000000
 10
332.485000000000
 20
13.560000000000
 10
332.410000000000
 20
13.720000000000
 10
332.386000000000
 20
13.770000000000
 10
332.360000000000
 20
13.819000000000
 10
332.328000000000
 20
13.872000000000
 10
332.236000000000
 20
14.022000000000
 10
332.206000000000
 20
14.069000000000
 10
332.175000000000
 20
14.115000000000
 10
332.139000000000
 20
14.163000000000
 10
332.031000000000
 20
14.302000000000
 10
331.996000000000
 20
14.345000000000
 10
331.960000000000
 20
14.387000000000
 10
331.916000000000
 20
14.434000000000
 10
331.793000000000
 20
14.560000000000
 10
331.754000000000
 20
14.599000000000
 10
331.713000000000
 20
14.637000000000
 10
331.669000000000
 20
14.673000000000
 10
331.533000000000
 20
14.785000000000
 10
331.490000000000
 20
14.820000000000
 10
331.445000000000
 20
14.853000000000
 10
331.398000000000
 20
14.885000000000
 10
331.250000000000
 20
14.982000000000
 10
331.203000000000
 20
15.012000000000
 10
331.154000000000
 20
15.040000000000
 10
331.097000000000
 20
15.071000000000
 10
330.940000000000
 20
15.150000000000
 10
330.890000000000
 20
15.174000000000
 10
330.839000000000
 20
15.196000000000
 10
330.788000000000
 20
15.216000000000
 10
330.623000000000
 20
15.278000000000
 10
330.571000000000
 20
15.297000000000
 10
330.518000000000
 20
15.313000000000
 10
330.456000000000
 20
15.330000000000
 10
330.285000000000
 20
15.373000000000
 10
330.231000000000
 20
15.386000000000
 10
330.176000000000
 20
15.396000000000
 10
330.126000000000
 20
15.404000000000
 10
329.951000000000
 20
15.429000000000
 10
329.896000000000
 20
15.436000000000
 10
329.840000000000
 20
15.441000000000
 10
329.767000000000
 20
15.445000000000
 10
329.591000000000
 20
15.449000000000
 10
329.536000000000
 20
15.449000000000
 10
329.480000000000
 20
15.447000000000
 10
329.433000000000
 20
15.444000000000
 10
329.257000000000
 20
15.430000000000
 10
329.202000000000
 20
15.425000000000
 10
329.146000000000
 20
15.417000000000
 10
329.081000000000
 20
15.406000000000
 10
328.908000000000
 20
15.372000000000
 10
328.854000000000
 20
15.360000000000
 10
328.800000000000
 20
15.347000000000
 10
328.741000000000
 20
15.329000000000
 10
328.573000000000
 20
15.276000000000
 10
328.520000000000
 20
15.258000000000
 10
328.468000000000
 20
15.239000000000
 10
328.421000000000
 20
15.219000000000
 10
328.260000000000
 20
15.149000000000
 10
328.209000000000
 20
15.126000000000
 10
328.160000000000
 20
15.101000000000
 10
328.099000000000
 20
15.068000000000
 10
327.946000000000
 20
14.979000000000
 10
327.898000000000
 20
14.950000000000
 10
327.851000000000
 20
14.919000000000
 10
327.809000000000
 20
14.889000000000
 10
327.667000000000
 20
14.785000000000
 10
327.623000000000
 20
14.752000000000
 10
327.580000000000
 20
14.717000000000
 10
327.536000000000
 20
14.678000000000
 10
327.406000000000
 20
14.559000000000
 10
327.366000000000
 20
14.521000000000
 10
327.327000000000
 20
14.481000000000
 10
327.285000000000
 20
14.435000000000
 10
327.169000000000
 20
14.302000000000
 10
327.133000000000
 20
14.259000000000
 10
327.099000000000
 20
14.215000000000
 10
327.061000000000
 20
14.163000000000
 10
326.961000000000
 20
14.018000000000
 10
326.930000000000
 20
13.972000000000
 10
326.901000000000
 20
13.924000000000
 10
326.874000000000
 20
13.877000000000
 10
326.790000000000
 20
13.722000000000
 10
326.765000000000
 20
13.672000000000
 10
326.741000000000
 20
13.622000000000
 10
326.716000000000
 20
13.565000000000
 10
326.650000000000
 20
13.402000000000
 10
326.630000000000
 20
13.350000000000
 10
326.612000000000
 20
13.297000000000
 10
326.595000000000
 20
13.241000000000
 10
326.547000000000
 20
13.071000000000
 10
326.533000000000
 20
13.017000000000
 10
326.521000000000
 20
12.963000000000
 10
326.510000000000
 20
12.905000000000
 10
326.481000000000
 20
12.731000000000
 10
326.473000000000
 20
12.676000000000
 10
326.467000000000
 20
12.620000000000
 10
326.462000000000
 20
12.564000000000
 10
326.452000000000
 20
12.388000000000
 10
326.450000000000
 20
12.332000000000
 10
326.450000000000
 20
12.277000000000
 10
326.452000000000
 20
12.212000000000
 10
326.462000000000
 20
12.036000000000
 10
326.467000000000
 20
11.981000000000
 10
326.473000000000
 20
11.925000000000
 10
326.481000000000
 20
11.869000000000
 10
326.510000000000
 20
11.695000000000
 10
326.520000000000
 20
11.640000000000
 10
326.532000000000
 20
11.586000000000
 10
326.547000000000
 20
11.529000000000
 10
326.595000000000
 20
11.359000000000
 10
326.611000000000
 20
11.306000000000
 10
326.629000000000
 20
11.253000000000
 10
326.650000000000
 20
11.198000000000
 10
326.716000000000
 20
11.035000000000
 10
326.738000000000
 20
10.984000000000
 10
326.762000000000
 20
10.934000000000
 10
326.790000000000
 20
10.878000000000
 10
326.874000000000
 20
10.723000000000
 10
326.902000000000
 20
10.675000000000
 10
326.931000000000
 20
10.628000000000
 10
326.961000000000
 20
10.582000000000
 10
327.061000000000
 20
10.437000000000
 10
327.093000000000
 20
10.392000000000
 10
327.127000000000
 20
10.348000000000
 10
327.169000000000
 20
10.298000000000
 10
327.285000000000
 20
10.165000000000
 10
327.322000000000
 20
10.124000000000
 10
327.361000000000
 20
10.084000000000
 10
327.406000000000
 20
10.041000000000
 10
327.536000000000
 20
9.922000000000
 10
327.578000000000
 20
9.885000000000
 10
327.621000000000
 20
9.850000000000
 10
327.667000000000
 20
9.815000000000
 10
327.809000000000
 20
9.711000000000
 10
327.855000000000
 20
9.678000000000
 10
327.901000000000
 20
9.648000000000
 10
327.946000000000
 20
9.621000000000
 10
328.099000000000
 20
9.532000000000
 10
328.147000000000
 20
9.505000000000
 10
328.197000000000
 20
9.480000000000
 10
328.260000000000
 20
9.451000000000
 10
328.421000000000
 20
9.381000000000
 10
328.472000000000
 20
9.359000000000
 10
328.525000000000
 20
9.340000000000
 10
328.573000000000
 20
9.324000000000
 10
328.741000000000
 20
9.271000000000
 10
328.794000000000
 20
9.255000000000
 10
328.848000000000
 20
9.241000000000
 10
328.908000000000
 20
9.228000000000
 10
329.081000000000
 20
9.194000000000
 10
329.136000000000
 20
9.184000000000
 10
329.191000000000
 20
9.177000000000
 10
329.257000000000
 20
9.170000000000
 10
329.433000000000
 20
9.156000000000
 10
329.489000000000
 20
9.152000000000
 10
329.544000000000
 20
9.151000000000
 10
329.591000000000
 20
9.151000000000
 10
329.767000000000
 20
9.155000000000
0
CIRCLE
  5
000000d4
 39
 0.100 
 100
AcDbEntity
8
contour007
 6
CONTINUOUS
100
AcDbCircle
 10
329.600000000000
 20
12.300000000000
 30
 0
 40
1.600000000000
0
LWPOLYLINE
  5
000000d5
 39
 0.100 
 100
AcDbEntity
8
contour007
 6
CONTINUOUS
100
AcDbPolyline
 90
229
 70
8
 10
329.767000000000
 20
28.155000000000
 10
329.823000000000
 20
28.158000000000
 10
329.878000000000
 20
28.162000000000
 10
329.951000000000
 20
28.171000000000
 10
330.126000000000
 20
28.196000000000
 10
330.181000000000
 20
28.204000000000
 10
330.236000000000
 20
28.215000000000
 10
330.285000000000
 20
28.227000000000
 10
330.456000000000
 20
28.270000000000
 10
330.510000000000
 20
28.284000000000
 10
330.563000000000
 20
28.301000000000
 10
330.623000000000
 20
28.322000000000
 10
330.788000000000
 20
28.384000000000
 10
330.840000000000
 20
28.405000000000
 10
330.891000000000
 20
28.427000000000
 10
330.940000000000
 20
28.450000000000
 10
331.097000000000
 20
28.529000000000
 10
331.146000000000
 20
28.555000000000
 10
331.194000000000
 20
28.583000000000
 10
331.250000000000
 20
28.618000000000
 10
331.398000000000
 20
28.715000000000
 10
331.444000000000
 20
28.746000000000
 10
331.489000000000
 20
28.779000000000
 10
331.533000000000
 20
28.815000000000
 10
331.669000000000
 20
28.927000000000
 10
331.712000000000
 20
28.963000000000
 10
331.753000000000
 20
29.000000000000
 10
331.793000000000
 20
29.040000000000
 10
331.916000000000
 20
29.166000000000
 10
331.954000000000
 20
29.207000000000
 10
331.991000000000
 20
29.249000000000
 10
332.031000000000
 20
29.298000000000
 10
332.139000000000
 20
29.437000000000
 10
332.172000000000
 20
29.482000000000
 10
332.204000000000
 20
29.527000000000
 10
332.236000000000
 20
29.578000000000
 10
332.328000000000
 20
29.728000000000
 10
332.357000000000
 20
29.776000000000
 10
332.383000000000
 20
29.825000000000
 10
332.410000000000
 20
29.880000000000
 10
332.485000000000
 20
30.040000000000
 10
332.508000000000
 20
30.091000000000
 10
332.529000000000
 20
30.143000000000
 10
332.546000000000
 20
30.189000000000
 10
332.604000000000
 20
30.356000000000
 10
332.622000000000
 20
30.409000000000
 10
332.637000000000
 20
30.463000000000
 10
332.654000000000
 20
30.531000000000
 10
332.692000000000
 20
30.703000000000
 10
332.703000000000
 20
30.757000000000
 10
332.712000000000
 20
30.812000000000
 10
332.718000000000
 20
30.861000000000
 10
332.738000000000
 20
31.036000000000
 10
332.743000000000
 20
31.091000000000
 10
332.747000000000
 20
31.147000000000
 10
332.748000000000
 20
31.212000000000
 10
332.748000000000
 20
31.388000000000
 10
332.747000000000
 20
31.444000000000
 10
332.744000000000
 20
31.499000000000
 10
332.738000000000
 20
31.564000000000
 10
332.718000000000
 20
31.739000000000
 10
332.711000000000
 20
31.794000000000
 10
332.701000000000
 20
31.849000000000
 10
332.692000000000
 20
31.897000000000
 10
332.654000000000
 20
32.069000000000
 10
332.641000000000
 20
32.124000000000
 10
332.626000000000
 20
32.177000000000
 10
332.604000000000
 20
32.244000000000
 10
332.546000000000
 20
32.411000000000
 10
332.527000000000
 20
32.463000000000
 10
332.506000000000
 20
32.514000000000
 10
332.485000000000
 20
32.560000000000
 10
332.410000000000
 20
32.720000000000
 10
332.386000000000
 20
32.770000000000
 10
332.360000000000
 20
32.819000000000
 10
332.328000000000
 20
32.872000000000
 10
332.236000000000
 20
33.022000000000
 10
332.206000000000
 20
33.069000000000
 10
332.175000000000
 20
33.115000000000
 10
332.139000000000
 20
33.163000000000
 10
332.031000000000
 20
33.302000000000
 10
331.996000000000
 20
33.345000000000
 10
331.960000000000
 20
33.387000000000
 10
331.916000000000
 20
33.434000000000
 10
331.793000000000
 20
33.560000000000
 10
331.754000000000
 20
33.599000000000
 10
331.713000000000
 20
33.637000000000
 10
331.669000000000
 20
33.673000000000
 10
331.533000000000
 20
33.785000000000
 10
331.490000000000
 20
33.820000000000
 10
331.445000000000
 20
33.853000000000
 10
331.398000000000
 20
33.885000000000
 10
331.250000000000
 20
33.982000000000
 10
331.203000000000
 20
34.012000000000
 10
331.154000000000
 20
34.040000000000
 10
331.097000000000
 20
34.071000000000
 10
330.940000000000
 20
34.150000000000
 10
330.890000000000
 20
34.174000000000
 10
330.839000000000
 20
34.196000000000
 10
330.788000000000
 20
34.216000000000
 10
330.623000000000
 20
34.278000000000
 10
330.571000000000
 20
34.297000000000
 10
330.518000000000
 20
34.313000000000
 10
330.456000000000
 20
34.330000000000
 10
330.285000000000
 20
34.373000000000
 10
330.231000000000
 20
34.386000000000
 10
330.176000000000
 20
34.396000000000
 10
330.126000000000
 20
34.404000000000
 10
329.951000000000
 20
34.429000000000
 10
329.896000000000
 20
34.436000000000
 10
329.840000000000
 20
34.441000000000
 10
329.767000000000
 20
34.445000000000
 10
329.591000000000
 20
34.449000000000
 10
329.536000000000
 20
34.449000000000
 10
329.480000000000
 20
34.447000000000
 10
329.433000000000
 20
34.444000000000
 10
329.257000000000
 20
34.430000000000
 10
329.202000000000
 20
34.425000000000
 10
329.146000000000
 20
34.417000000000
 10
329.081000000000
 20
34.406000000000
 10
328.908000000000
 20
34.372000000000
 10
328.854000000000
 20
34.360000000000
 10
328.800000000000
 20
34.347000000000
 10
328.741000000000
 20
34.329000000000
 10
328.573000000000
 20
34.276000000000
 10
328.520000000000
 20
34.258000000000
 10
328.468000000000
 20
34.239000000000
 10
328.421000000000
 20
34.219000000000
 10
328.260000000000
 20
34.149000000000
 10
328.209000000000
 20
34.126000000000
 10
328.160000000000
 20
34.101000000000
 10
328.099000000000
 20
34.068000000000
 10
327.946000000000
 20
33.979000000000
 10
327.898000000000
 20
33.950000000000
 10
327.851000000000
 20
33.919000000000
 10
327.809000000000
 20
33.889000000000
 10
327.667000000000
 20
33.785000000000
 10
327.623000000000
 20
33.752000000000
 10
327.580000000000
 20
33.717000000000
 10
327.536000000000
 20
33.678000000000
 10
327.406000000000
 20
33.559000000000
 10
327.366000000000
 20
33.521000000000
 10
327.327000000000
 20
33.481000000000
 10
327.285000000000
 20
33.435000000000
 10
327.169000000000
 20
33.302000000000
 10
327.133000000000
 20
33.259000000000
 10
327.099000000000
 20
33.215000000000
 10
327.061000000000
 20
33.163000000000
 10
326.961000000000
 20
33.018000000000
 10
326.930000000000
 20
32.972000000000
 10
326.901000000000
 20
32.924000000000
 10
326.874000000000
 20
32.877000000000
 10
326.790000000000
 20
32.722000000000
 10
326.765000000000
 20
32.672000000000
 10
326.741000000000
 20
32.622000000000
 10
326.716000000000
 20
32.565000000000
 10
326.650000000000
 20
32.402000000000
 10
326.630000000000
 20
32.350000000000
 10
326.612000000000
 20
32.297000000000
 10
326.595000000000
 20
32.241000000000
 10
326.547000000000
 20
32.071000000000
 10
326.533000000000
 20
32.017000000000
 10
326.521000000000
 20
31.963000000000
 10
326.510000000000
 20
31.905000000000
 10
326.481000000000
 20
31.731000000000
 10
326.473000000000
 20
31.676000000000
 10
326.467000000000
 20
31.620000000000
 10
326.462000000000
 20
31.564000000000
 10
326.452000000000
 20
31.388000000000
 10
326.450000000000
 20
31.332000000000
 10
326.450000000000
 20
31.277000000000
 10
326.452000000000
 20
31.212000000000
 10
326.462000000000
 20
31.036000000000
 10
326.467000000000
 20
30.981000000000
 10
326.473000000000
 20
30.925000000000
 10
326.481000000000
 20
30.869000000000
 10
326.510000000000
 20
30.695000000000
 10
326.520000000000
 20
30.640000000000
 10
326.532000000000
 20
30.586000000000
 10
326.547000000000
 20
30.529000000000
 10
326.595000000000
 20
30.359000000000
 10
326.611000000000
 20
30.306000000000
 10
326.629000000000
 20
30.253000000000
 10
326.650000000000
 20
30.198000000000
 10
326.716000000000
 20
30.035000000000
 10
326.738000000000
 20
29.984000000000
 10
326.762000000000
 20
29.934000000000
 10
326.790000000000
 20
29.878000000000
 10
326.874000000000
 20
29.723000000000
 10
326.902000000000
 20
29.675000000000
 10
326.931000000000
 20
29.628000000000
 10
326.961000000000
 20
29.582000000000
 10
327.061000000000
 20
29.437000000000
 10
327.093000000000
 20
29.392000000000
 10
327.127000000000
 20
29.348000000000
 10
327.169000000000
 20
29.298000000000
 10
327.285000000000
 20
29.165000000000
 10
327.322000000000
 20
29.124000000000
 10
327.361000000000
 20
29.084000000000
 10
327.406000000000
 20
29.041000000000
 10
327.536000000000
 20
28.922000000000
 10
327.578000000000
 20
28.885000000000
 10
327.621000000000
 20
28.850000000000
 10
327.667000000000
 20
28.815000000000
 10
327.809000000000
 20
28.711000000000
 10
327.855000000000
 20
28.678000000000
 10
327.901000000000
 20
28.648000000000
 10
327.946000000000
 20
28.621000000000
 10
328.099000000000
 20
28.532000000000
 10
328.147000000000
 20
28.505000000000
 10
328.197000000000
 20
28.480000000000
 10
328.260000000000
 20
28.451000000000
 10
328.421000000000
 20
28.381000000000
 10
328.472000000000
 20
28.359000000000
 10
328.525000000000
 20
28.340000000000
 10
328.573000000000
 20
28.324000000000
 10
328.741000000000
 20
28.271000000000
 10
328.794000000000
 20
28.255000000000
 10
328.848000000000
 20
28.241000000000
 10
328.908000000000
 20
28.228000000000
 10
329.081000000000
 20
28.194000000000
 10
329.136000000000
 20
28.184000000000
 10
329.191000000000
 20
28.177000000000
 10
329.257000000000
 20
28.170000000000
 10
329.433000000000
 20
28.156000000000
 10
329.489000000000
 20
28.152000000000
 10
329.544000000000
 20
28.151000000000
 10
329.591000000000
 20
28.151000000000
 10
329.767000000000
 20
28.155000000000
0
CIRCLE
  5
000000d6
 39
 0.100 
 100
AcDbEntity
8
contour007
 6
CONTINUOUS
100
AcDbCircle
 10
329.600000000000
 20
31.300000000000
 30
 0
 40
1.600000000000
0
LWPOLYLINE
  5
000000d7
 39
 0.100 
 100
AcDbEntity
8
contour007
 6
CONTINUOUS
100
AcDbPolyline
 90
229
 70
8
 10
435.767000000000
 20
9.155000000000
 10
435.823000000000
 20
9.158000000000
 10
435.878000000000
 20
9.162000000000
 10
435.951000000000
 20
9.171000000000
 10
436.126000000000
 20
9.196000000000
 10
436.181000000000
 20
9.204000000000
 10
436.236000000000
 20
9.215000000000
 10
436.285000000000
 20
9.227000000000
 10
436.456000000000
 20
9.270000000000
 10
436.510000000000
 20
9.284000000000
 10
436.563000000000
 20
9.301000000000
 10
436.623000000000
 20
9.322000000000
 10
436.788000000000
 20
9.384000000000
 10
436.840000000000
 20
9.405000000000
 10
436.891000000000
 20
9.427000000000
 10
436.940000000000
 20
9.450000000000
 10
437.097000000000
 20
9.529000000000
 10
437.146000000000
 20
9.555000000000
 10
437.194000000000
 20
9.583000000000
 10
437.250000000000
 20
9.618000000000
 10
437.398000000000
 20
9.715000000000
 10
437.444000000000
 20
9.746000000000
 10
437.489000000000
 20
9.779000000000
 10
437.533000000000
 20
9.815000000000
 10
437.669000000000
 20
9.927000000000
 10
437.712000000000
 20
9.963000000000
 10
437.753000000000
 20
10.000000000000
 10
437.793000000000
 20
10.040000000000
 10
437.916000000000
 20
10.166000000000
 10
437.954000000000
 20
10.207000000000
 10
437.991000000000
 20
10.249000000000
 10
438.031000000000
 20
10.298000000000
 10
438.139000000000
 20
10.437000000000
 10
438.172000000000
 20
10.482000000000
 10
438.204000000000
 20
10.527000000000
 10
438.236000000000
 20
10.578000000000
 10
438.328000000000
 20
10.728000000000
 10
438.357000000000
 20
10.776000000000
 10
438.383000000000
 20
10.825000000000
 10
438.410000000000
 20
10.880000000000
 10
438.485000000000
 20
11.040000000000
 10
438.508000000000
 20
11.091000000000
 10
438.529000000000
 20
11.143000000000
 10
438.546000000000
 20
11.189000000000
 10
438.604000000000
 20
11.356000000000
 10
438.622000000000
 20
11.409000000000
 10
438.637000000000
 20
11.463000000000
 10
438.654000000000
 20
11.531000000000
 10
438.692000000000
 20
11.703000000000
 10
438.703000000000
 20
11.757000000000
 10
438.712000000000
 20
11.812000000000
 10
438.718000000000
 20
11.861000000000
 10
438.738000000000
 20
12.036000000000
 10
438.743000000000
 20
12.091000000000
 10
438.747000000000
 20
12.147000000000
 10
438.748000000000
 20
12.212000000000
 10
438.748000000000
 20
12.388000000000
 10
438.747000000000
 20
12.444000000000
 10
438.744000000000
 20
12.499000000000
 10
438.738000000000
 20
12.564000000000
 10
438.718000000000
 20
12.739000000000
 10
438.711000000000
 20
12.794000000000
 10
438.701000000000
 20
12.849000000000
 10
438.692000000000
 20
12.897000000000
 10
438.654000000000
 20
13.069000000000
 10
438.641000000000
 20
13.124000000000
 10
438.626000000000
 20
13.177000000000
 10
438.604000000000
 20
13.244000000000
 10
438.546000000000
 20
13.411000000000
 10
438.527000000000
 20
13.463000000000
 10
438.506000000000
 20
13.514000000000
 10
438.485000000000
 20
13.560000000000
 10
438.410000000000
 20
13.720000000000
 10
438.386000000000
 20
13.770000000000
 10
438.360000000000
 20
13.819000000000
 10
438.328000000000
 20
13.872000000000
 10
438.236000000000
 20
14.022000000000
 10
438.206000000000
 20
14.069000000000
 10
438.175000000000
 20
14.115000000000
 10
438.139000000000
 20
14.163000000000
 10
438.031000000000
 20
14.302000000000
 10
437.996000000000
 20
14.345000000000
 10
437.960000000000
 20
14.387000000000
 10
437.916000000000
 20
14.434000000000
 10
437.793000000000
 20
14.560000000000
 10
437.754000000000
 20
14.599000000000
 10
437.713000000000
 20
14.637000000000
 10
437.669000000000
 20
14.673000000000
 10
437.533000000000
 20
14.785000000000
 10
437.490000000000
 20
14.820000000000
 10
437.445000000000
 20
14.853000000000
 10
437.398000000000
 20
14.885000000000
 10
437.250000000000
 20
14.982000000000
 10
437.203000000000
 20
15.012000000000
 10
437.154000000000
 20
15.040000000000
 10
437.097000000000
 20
15.071000000000
 10
436.940000000000
 20
15.150000000000
 10
436.890000000000
 20
15.174000000000
 10
436.839000000000
 20
15.196000000000
 10
436.788000000000
 20
15.216000000000
 10
436.623000000000
 20
15.278000000000
 10
436.571000000000
 20
15.297000000000
 10
436.518000000000
 20
15.313000000000
 10
436.456000000000
 20
15.330000000000
 10
436.285000000000
 20
15.373000000000
 10
436.231000000000
 20
15.386000000000
 10
436.176000000000
 20
15.396000000000
 10
436.126000000000
 20
15.404000000000
 10
435.951000000000
 20
15.429000000000
 10
435.896000000000
 20
15.436000000000
 10
435.840000000000
 20
15.441000000000
 10
435.767000000000
 20
15.445000000000
 10
435.591000000000
 20
15.449000000000
 10
435.536000000000
 20
15.449000000000
 10
435.480000000000
 20
15.447000000000
 10
435.433000000000
 20
15.444000000000
 10
435.257000000000
 20
15.430000000000
 10
435.202000000000
 20
15.425000000000
 10
435.146000000000
 20
15.417000000000
 10
435.081000000000
 20
15.406000000000
 10
434.908000000000
 20
15.372000000000
 10
434.854000000000
 20
15.360000000000
 10
434.800000000000
 20
15.347000000000
 10
434.741000000000
 20
15.329000000000
 10
434.573000000000
 20
15.276000000000
 10
434.520000000000
 20
15.258000000000
 10
434.468000000000
 20
15.239000000000
 10
434.421000000000
 20
15.219000000000
 10
434.260000000000
 20
15.149000000000
 10
434.209000000000
 20
15.126000000000
 10
434.160000000000
 20
15.101000000000
 10
434.099000000000
 20
15.068000000000
 10
433.946000000000
 20
14.979000000000
 10
433.898000000000
 20
14.950000000000
 10
433.851000000000
 20
14.919000000000
 10
433.809000000000
 20
14.889000000000
 10
433.667000000000
 20
14.785000000000
 10
433.623000000000
 20
14.752000000000
 10
433.580000000000
 20
14.717000000000
 10
433.536000000000
 20
14.678000000000
 10
433.406000000000
 20
14.559000000000
 10
433.366000000000
 20
14.521000000000
 10
433.327000000000
 20
14.481000000000
 10
433.285000000000
 20
14.435000000000
 10
433.169000000000
 20
14.302000000000
 10
433.133000000000
 20
14.259000000000
 10
433.099000000000
 20
14.215000000000
 10
433.061000000000
 20
14.163000000000
 10
432.961000000000
 20
14.018000000000
 10
432.930000000000
 20
13.972000000000
 10
432.901000000000
 20
13.924000000000
 10
432.874000000000
 20
13.877000000000
 10
432.790000000000
 20
13.722000000000
 10
432.765000000000
 20
13.672000000000
 10
432.741000000000
 20
13.622000000000
 10
432.716000000000
 20
13.565000000000
 10
432.650000000000
 20
13.402000000000
 10
432.630000000000
 20
13.350000000000
 10
432.612000000000
 20
13.297000000000
 10
432.595000000000
 20
13.241000000000
 10
432.547000000000
 20
13.071000000000
 10
432.533000000000
 20
13.017000000000
 10
432.521000000000
 20
12.963000000000
 10
432.510000000000
 20
12.905000000000
 10
432.481000000000
 20
12.731000000000
 10
432.473000000000
 20
12.676000000000
 10
432.467000000000
 20
12.620000000000
 10
432.462000000000
 20
12.564000000000
 10
432.452000000000
 20
12.388000000000
 10
432.450000000000
 20
12.332000000000
 10
432.450000000000
 20
12.277000000000
 10
432.452000000000
 20
12.212000000000
 10
432.462000000000
 20
12.036000000000
 10
432.467000000000
 20
11.981000000000
 10
432.473000000000
 20
11.925000000000
 10
432.481000000000
 20
11.869000000000
 10
432.510000000000
 20
11.695000000000
 10
432.520000000000
 20
11.640000000000
 10
432.532000000000
 20
11.586000000000
 10
432.547000000000
 20
11.529000000000
 10
432.595000000000
 20
11.359000000000
 10
432.611000000000
 20
11.306000000000
 10
432.629000000000
 20
11.253000000000
 10
432.650000000000
 20
11.198000000000
 10
432.716000000000
 20
11.035000000000
 10
432.738000000000
 20
10.984000000000
 10
432.762000000000
 20
10.934000000000
 10
432.790000000000
 20
10.878000000000
 10
432.874000000000
 20
10.723000000000
 10
432.902000000000
 20
10.675000000000
 10
432.931000000000
 20
10.628000000000
 10
432.961000000000
 20
10.582000000000
 10
433.061000000000
 20
10.437000000000
 10
433.093000000000
 20
10.392000000000
 10
433.127000000000
 20
10.348000000000
 10
433.169000000000
 20
10.298000000000
 10
433.285000000000
 20
10.165000000000
 10
433.322000000000
 20
10.124000000000
 10
433.361000000000
 20
10.084000000000
 10
433.406000000000
 20
10.041000000000
 10
433.536000000000
 20
9.922000000000
 10
433.578000000000
 20
9.885000000000
 10
433.621000000000
 20
9.850000000000
 10
433.667000000000
 20
9.815000000000
 10
433.809000000000
 20
9.711000000000
 10
433.855000000000
 20
9.678000000000
 10
433.901000000000
 20
9.648000000000
 10
433.946000000000
 20
9.621000000000
 10
434.099000000000
 20
9.532000000000
 10
434.147000000000
 20
9.505000000000
 10
434.197000000000
 20
9.480000000000
 10
434.260000000000
 20
9.451000000000
 10
434.421000000000
 20
9.381000000000
 10
434.472000000000
 20
9.359000000000
 10
434.525000000000
 20
9.340000000000
 10
434.573000000000
 20
9.324000000000
 10
434.741000000000
 20
9.271000000000
 10
434.794000000000
 20
9.255000000000
 10
434.848000000000
 20
9.241000000000
 10
434.908000000000
 20
9.228000000000
 10
435.081000000000
 20
9.194000000000
 10
435.136000000000
 20
9.184000000000
 10
435.191000000000
 20
9.177000000000
 10
435.257000000000
 20
9.170000000000
 10
435.433000000000
 20
9.156000000000
 10
435.489000000000
 20
9.152000000000
 10
435.544000000000
 20
9.151000000000
 10
435.591000000000
 20
9.151000000000
 10
435.767000000000
 20
9.155000000000
0
CIRCLE
  5
000000d8
 39
 0.100 
 100
AcDbEntity
8
contour007
 6
CONTINUOUS
100
AcDbCircle
 10
435.600000000000
 20
12.300000000000
 30
 0
 40
1.600000000000
0
LWPOLYLINE
  5
000000d9
 39
 0.100 
 100
AcDbEntity
8
contour007
 6
CONTINUOUS
100
AcDbPolyline
 90
229
 70
8
 10
435.767000000000
 20
28.155000000000
 10
435.823000000000
 20
28.158000000000
 10
435.878000000000
 20
28.162000000000
 10
435.951000000000
 20
28.171000000000
 10
436.126000000000
 20
28.196000000000
 10
436.181000000000
 20
28.204000000000
 10
436.236000000000
 20
28.215000000000
 10
436.285000000000
 20
28.227000000000
 10
436.456000000000
 20
28.270000000000
 10
436.510000000000
 20
28.284000000000
 10
436.563000000000
 20
28.301000000000
 10
436.623000000000
 20
28.322000000000
 10
436.788000000000
 20
28.384000000000
 10
436.840000000000
 20
28.405000000000
 10
436.891000000000
 20
28.427000000000
 10
436.940000000000
 20
28.450000000000
 10
437.097000000000
 20
28.529000000000
 10
437.146000000000
 20
28.555000000000
 10
437.194000000000
 20
28.583000000000
 10
437.250000000000
 20
28.618000000000
 10
437.398000000000
 20
28.715000000000
 10
437.444000000000
 20
28.746000000000
 10
437.489000000000
 20
28.779000000000
 10
437.533000000000
 20
28.815000000000
 10
437.669000000000
 20
28.927000000000
 10
437.712000000000
 20
28.963000000000
 10
437.753000000000
 20
29.000000000000
 10
437.793000000000
 20
29.040000000000
 10
437.916000000000
 20
29.166000000000
 10
437.954000000000
 20
29.207000000000
 10
437.991000000000
 20
29.249000000000
 10
438.031000000000
 20
29.298000000000
 10
438.139000000000
 20
29.437000000000
 10
438.172000000000
 20
29.482000000000
 10
438.204000000000
 20
29.527000000000
 10
438.236000000000
 20
29.578000000000
 10
438.328000000000
 20
29.728000000000
 10
438.357000000000
 20
29.776000000000
 10
438.383000000000
 20
29.825000000000
 10
438.410000000000
 20
29.880000000000
 10
438.485000000000
 20
30.040000000000
 10
438.508000000000
 20
30.091000000000
 10
438.529000000000
 20
30.143000000000
 10
438.546000000000
 20
30.189000000000
 10
438.604000000000
 20
30.356000000000
 10
438.622000000000
 20
30.409000000000
 10
438.637000000000
 20
30.463000000000
 10
438.654000000000
 20
30.531000000000
 10
438.692000000000
 20
30.703000000000
 10
438.703000000000
 20
30.757000000000
 10
438.712000000000
 20
30.812000000000
 10
438.718000000000
 20
30.861000000000
 10
438.738000000000
 20
31.036000000000
 10
438.743000000000
 20
31.091000000000
 10
438.747000000000
 20
31.147000000000
 10
438.748000000000
 20
31.212000000000
 10
438.748000000000
 20
31.388000000000
 10
438.747000000000
 20
31.444000000000
 10
438.744000000000
 20
31.499000000000
 10
438.738000000000
 20
31.564000000000
 10
438.718000000000
 20
31.739000000000
 10
438.711000000000
 20
31.794000000000
 10
438.701000000000
 20
31.849000000000
 10
438.692000000000
 20
31.897000000000
 10
438.654000000000
 20
32.069000000000
 10
438.641000000000
 20
32.124000000000
 10
438.626000000000
 20
32.177000000000
 10
438.604000000000
 20
32.244000000000
 10
438.546000000000
 20
32.411000000000
 10
438.527000000000
 20
32.463000000000
 10
438.506000000000
 20
32.514000000000
 10
438.485000000000
 20
32.560000000000
 10
438.410000000000
 20
32.720000000000
 10
438.386000000000
 20
32.770000000000
 10
438.360000000000
 20
32.819000000000
 10
438.328000000000
 20
32.872000000000
 10
438.236000000000
 20
33.022000000000
 10
438.206000000000
 20
33.069000000000
 10
438.175000000000
 20
33.115000000000
 10
438.139000000000
 20
33.163000000000
 10
438.031000000000
 20
33.302000000000
 10
437.996000000000
 20
33.345000000000
 10
437.960000000000
 20
33.387000000000
 10
437.916000000000
 20
33.434000000000
 10
437.793000000000
 20
33.560000000000
 10
437.754000000000
 20
33.599000000000
 10
437.713000000000
 20
33.637000000000
 10
437.669000000000
 20
33.673000000000
 10
437.533000000000
 20
33.785000000000
 10
437.490000000000
 20
33.820000000000
 10
437.445000000000
 20
33.853000000000
 10
437.398000000000
 20
33.885000000000
 10
437.250000000000
 20
33.982000000000
 10
437.203000000000
 20
34.012000000000
 10
437.154000000000
 20
34.040000000000
 10
437.097000000000
 20
34.071000000000
 10
436.940000000000
 20
34.150000000000
 10
436.890000000000
 20
34.174000000000
 10
436.839000000000
 20
34.196000000000
 10
436.788000000000
 20
34.216000000000
 10
436.623000000000
 20
34.278000000000
 10
436.571000000000
 20
34.297000000000
 10
436.518000000000
 20
34.313000000000
 10
436.456000000000
 20
34.330000000000
 10
436.285000000000
 20
34.373000000000
 10
436.231000000000
 20
34.386000000000
 10
436.176000000000
 20
34.396000000000
 10
436.126000000000
 20
34.404000000000
 10
435.951000000000
 20
34.429000000000
 10
435.896000000000
 20
34.436000000000
 10
435.840000000000
 20
34.441000000000
 10
435.767000000000
 20
34.445000000000
 10
435.591000000000
 20
34.449000000000
 10
435.536000000000
 20
34.449000000000
 10
435.480000000000
 20
34.447000000000
 10
435.433000000000
 20
34.444000000000
 10
435.257000000000
 20
34.430000000000
 10
435.202000000000
 20
34.425000000000
 10
435.146000000000
 20
34.417000000000
 10
435.081000000000
 20
34.406000000000
 10
434.908000000000
 20
34.372000000000
 10
434.854000000000
 20
34.360000000000
 10
434.800000000000
 20
34.347000000000
 10
434.741000000000
 20
34.329000000000
 10
434.573000000000
 20
34.276000000000
 10
434.520000000000
 20
34.258000000000
 10
434.468000000000
 20
34.239000000000
 10
434.421000000000
 20
34.219000000000
 10
434.260000000000
 20
34.149000000000
 10
434.209000000000
 20
34.126000000000
 10
434.160000000000
 20
34.101000000000
 10
434.099000000000
 20
34.068000000000
 10
433.946000000000
 20
33.979000000000
 10
433.898000000000
 20
33.950000000000
 10
433.851000000000
 20
33.919000000000
 10
433.809000000000
 20
33.889000000000
 10
433.667000000000
 20
33.785000000000
 10
433.623000000000
 20
33.752000000000
 10
433.580000000000
 20
33.717000000000
 10
433.536000000000
 20
33.678000000000
 10
433.406000000000
 20
33.559000000000
 10
433.366000000000
 20
33.521000000000
 10
433.327000000000
 20
33.481000000000
 10
433.285000000000
 20
33.435000000000
 10
433.169000000000
 20
33.302000000000
 10
433.133000000000
 20
33.259000000000
 10
433.099000000000
 20
33.215000000000
 10
433.061000000000
 20
33.163000000000
 10
432.961000000000
 20
33.018000000000
 10
432.930000000000
 20
32.972000000000
 10
432.901000000000
 20
32.924000000000
 10
432.874000000000
 20
32.877000000000
 10
432.790000000000
 20
32.722000000000
 10
432.765000000000
 20
32.672000000000
 10
432.741000000000
 20
32.622000000000
 10
432.716000000000
 20
32.565000000000
 10
432.650000000000
 20
32.402000000000
 10
432.630000000000
 20
32.350000000000
 10
432.612000000000
 20
32.297000000000
 10
432.595000000000
 20
32.241000000000
 10
432.547000000000
 20
32.071000000000
 10
432.533000000000
 20
32.017000000000
 10
432.521000000000
 20
31.963000000000
 10
432.510000000000
 20
31.905000000000
 10
432.481000000000
 20
31.731000000000
 10
432.473000000000
 20
31.676000000000
 10
432.467000000000
 20
31.620000000000
 10
432.462000000000
 20
31.564000000000
 10
432.452000000000
 20
31.388000000000
 10
432.450000000000
 20
31.332000000000
 10
432.450000000000
 20
31.277000000000
 10
432.452000000000
 20
31.212000000000
 10
432.462000000000
 20
31.036000000000
 10
432.467000000000
 20
30.981000000000
 10
432.473000000000
 20
30.925000000000
 10
432.481000000000
 20
30.869000000000
 10
432.510000000000
 20
30.695000000000
 10
432.520000000000
 20
30.640000000000
 10
432.532000000000
 20
30.586000000000
 10
432.547000000000
 20
30.529000000000
 10
432.595000000000
 20
30.359000000000
 10
432.611000000000
 20
30.306000000000
 10
432.629000000000
 20
30.253000000000
 10
432.650000000000
 20
30.198000000000
 10
432.716000000000
 20
30.035000000000
 10
432.738000000000
 20
29.984000000000
 10
432.762000000000
 20
29.934000000000
 10
432.790000000000
 20
29.878000000000
 10
432.874000000000
 20
29.723000000000
 10
432.902000000000
 20
29.675000000000
 10
432.931000000000
 20
29.628000000000
 10
432.961000000000
 20
29.582000000000
 10
433.061000000000
 20
29.437000000000
 10
433.093000000000
 20
29.392000000000
 10
433.127000000000
 20
29.348000000000
 10
433.169000000000
 20
29.298000000000
 10
433.285000000000
 20
29.165000000000
 10
433.322000000000
 20
29.124000000000
 10
433.361000000000
 20
29.084000000000
 10
433.406000000000
 20
29.041000000000
 10
433.536000000000
 20
28.922000000000
 10
433.578000000000
 20
28.885000000000
 10
433.621000000000
 20
28.850000000000
 10
433.667000000000
 20
28.815000000000
 10
433.809000000000
 20
28.711000000000
 10
433.855000000000
 20
28.678000000000
 10
433.901000000000
 20
28.648000000000
 10
433.946000000000
 20
28.621000000000
 10
434.099000000000
 20
28.532000000000
 10
434.147000000000
 20
28.505000000000
 10
434.197000000000
 20
28.480000000000
 10
434.260000000000
 20
28.451000000000
 10
434.421000000000
 20
28.381000000000
 10
434.472000000000
 20
28.359000000000
 10
434.525000000000
 20
28.340000000000
 10
434.573000000000
 20
28.324000000000
 10
434.741000000000
 20
28.271000000000
 10
434.794000000000
 20
28.255000000000
 10
434.848000000000
 20
28.241000000000
 10
434.908000000000
 20
28.228000000000
 10
435.081000000000
 20
28.194000000000
 10
435.136000000000
 20
28.184000000000
 10
435.191000000000
 20
28.177000000000
 10
435.257000000000
 20
28.170000000000
 10
435.433000000000
 20
28.156000000000
 10
435.489000000000
 20
28.152000000000
 10
435.544000000000
 20
28.151000000000
 10
435.591000000000
 20
28.151000000000
 10
435.767000000000
 20
28.155000000000
0
CIRCLE
  5
000000da
 39
 0.100 
 100
AcDbEntity
8
contour007
 6
CONTINUOUS
100
AcDbCircle
 10
435.600000000000
 20
31.300000000000
 30
 0
 40
1.600000000000
0
ARC
  5
000000db
 39
 0.100 
 100
AcDbEntity
8
contour007
 6
CONTINUOUS
100
AcDbCircle
 10
335.100000000000
 20
11.300000000000
 30
 0
 40
1.500000000000
100
AcDbArc
 50
180.000000000000
 51
270.000000000000
0
LINE
  5
000000dc
 39
 0.100 
 100
AcDbEntity
8
contour007
 6
CONTINUOUS
 100
AcDbLine
 10
430.100000000000
 20
9.800000000000
 30
 0.0
 11
335.100000000000
 21
9.800000000000
 31
0.0
0
ARC
  5
000000dd
 39
 0.100 
 100
AcDbEntity
8
contour007
 6
CONTINUOUS
100
AcDbCircle
 10
430.100000000000
 20
11.300000000000
 30
 0
 40
1.500000000000
100
AcDbArc
 50
270.000000000000
 51
360.000000000000
0
LINE
  5
000000de
 39
 0.100 
 100
AcDbEntity
8
contour007
 6
CONTINUOUS
 100
AcDbLine
 10
431.600000000000
 20
32.300000000000
 30
 0.0
 11
431.600000000000
 21
11.300000000000
 31
0.0
0
ARC
  5
000000df
 39
 0.100 
 100
AcDbEntity
8
contour007
 6
CONTINUOUS
100
AcDbCircle
 10
430.100000000000
 20
32.300000000000
 30
 0
 40
1.500000000000
100
AcDbArc
 50
0.000000000000
 51
90.000000000000
0
LINE
  5
000000e0
 39
 0.100 
 100
AcDbEntity
8
contour007
 6
CONTINUOUS
 100
AcDbLine
 10
335.100000000000
 20
33.800000000000
 30
 0.0
 11
430.100000000000
 21
33.800000000000
 31
0.0
0
ARC
  5
000000e1
 39
 0.100 
 100
AcDbEntity
8
contour007
 6
CONTINUOUS
100
AcDbCircle
 10
335.100000000000
 20
32.300000000000
 30
 0
 40
1.500000000000
100
AcDbArc
 50
90.000000000000
 51
180.000000000000
0
LINE
  5
000000e2
 39
 0.100 
 100
AcDbEntity
8
contour007
 6
CONTINUOUS
 100
AcDbLine
 10
333.600000000000
 20
11.300000000000
 30
 0.0
 11
333.600000000000
 21
32.300000000000
 31
0.0
0
LWPOLYLINE
  5
000000e3
 39
 0.100 
 100
AcDbEntity
8
contour007
 6
CONTINUOUS
100
AcDbPolyline
 90
229
 70
8
 10
204.767000000000
 20
9.155000000000
 10
204.823000000000
 20
9.158000000000
 10
204.878000000000
 20
9.162000000000
 10
204.951000000000
 20
9.171000000000
 10
205.126000000000
 20
9.196000000000
 10
205.181000000000
 20
9.204000000000
 10
205.236000000000
 20
9.215000000000
 10
205.285000000000
 20
9.227000000000
 10
205.456000000000
 20
9.270000000000
 10
205.510000000000
 20
9.284000000000
 10
205.563000000000
 20
9.301000000000
 10
205.623000000000
 20
9.322000000000
 10
205.788000000000
 20
9.384000000000
 10
205.840000000000
 20
9.405000000000
 10
205.891000000000
 20
9.427000000000
 10
205.940000000000
 20
9.450000000000
 10
206.097000000000
 20
9.529000000000
 10
206.146000000000
 20
9.555000000000
 10
206.194000000000
 20
9.583000000000
 10
206.250000000000
 20
9.618000000000
 10
206.398000000000
 20
9.715000000000
 10
206.444000000000
 20
9.746000000000
 10
206.489000000000
 20
9.779000000000
 10
206.533000000000
 20
9.815000000000
 10
206.669000000000
 20
9.927000000000
 10
206.712000000000
 20
9.963000000000
 10
206.753000000000
 20
10.000000000000
 10
206.793000000000
 20
10.040000000000
 10
206.916000000000
 20
10.166000000000
 10
206.954000000000
 20
10.207000000000
 10
206.991000000000
 20
10.249000000000
 10
207.031000000000
 20
10.298000000000
 10
207.139000000000
 20
10.437000000000
 10
207.172000000000
 20
10.482000000000
 10
207.204000000000
 20
10.527000000000
 10
207.236000000000
 20
10.578000000000
 10
207.328000000000
 20
10.728000000000
 10
207.357000000000
 20
10.776000000000
 10
207.383000000000
 20
10.825000000000
 10
207.410000000000
 20
10.880000000000
 10
207.485000000000
 20
11.040000000000
 10
207.508000000000
 20
11.091000000000
 10
207.529000000000
 20
11.143000000000
 10
207.546000000000
 20
11.189000000000
 10
207.604000000000
 20
11.356000000000
 10
207.622000000000
 20
11.409000000000
 10
207.637000000000
 20
11.463000000000
 10
207.654000000000
 20
11.531000000000
 10
207.692000000000
 20
11.703000000000
 10
207.703000000000
 20
11.757000000000
 10
207.712000000000
 20
11.812000000000
 10
207.718000000000
 20
11.861000000000
 10
207.738000000000
 20
12.036000000000
 10
207.743000000000
 20
12.091000000000
 10
207.747000000000
 20
12.147000000000
 10
207.748000000000
 20
12.212000000000
 10
207.748000000000
 20
12.388000000000
 10
207.747000000000
 20
12.444000000000
 10
207.744000000000
 20
12.499000000000
 10
207.738000000000
 20
12.564000000000
 10
207.718000000000
 20
12.739000000000
 10
207.711000000000
 20
12.794000000000
 10
207.701000000000
 20
12.849000000000
 10
207.692000000000
 20
12.897000000000
 10
207.654000000000
 20
13.069000000000
 10
207.641000000000
 20
13.124000000000
 10
207.626000000000
 20
13.177000000000
 10
207.604000000000
 20
13.244000000000
 10
207.546000000000
 20
13.411000000000
 10
207.527000000000
 20
13.463000000000
 10
207.506000000000
 20
13.514000000000
 10
207.485000000000
 20
13.560000000000
 10
207.410000000000
 20
13.720000000000
 10
207.386000000000
 20
13.770000000000
 10
207.360000000000
 20
13.819000000000
 10
207.328000000000
 20
13.872000000000
 10
207.236000000000
 20
14.022000000000
 10
207.206000000000
 20
14.069000000000
 10
207.175000000000
 20
14.115000000000
 10
207.139000000000
 20
14.163000000000
 10
207.031000000000
 20
14.302000000000
 10
206.996000000000
 20
14.345000000000
 10
206.960000000000
 20
14.387000000000
 10
206.916000000000
 20
14.434000000000
 10
206.793000000000
 20
14.560000000000
 10
206.754000000000
 20
14.599000000000
 10
206.713000000000
 20
14.637000000000
 10
206.669000000000
 20
14.673000000000
 10
206.533000000000
 20
14.785000000000
 10
206.490000000000
 20
14.820000000000
 10
206.445000000000
 20
14.853000000000
 10
206.398000000000
 20
14.885000000000
 10
206.250000000000
 20
14.982000000000
 10
206.203000000000
 20
15.012000000000
 10
206.154000000000
 20
15.040000000000
 10
206.097000000000
 20
15.071000000000
 10
205.940000000000
 20
15.150000000000
 10
205.890000000000
 20
15.174000000000
 10
205.839000000000
 20
15.196000000000
 10
205.788000000000
 20
15.216000000000
 10
205.623000000000
 20
15.278000000000
 10
205.571000000000
 20
15.297000000000
 10
205.518000000000
 20
15.313000000000
 10
205.456000000000
 20
15.330000000000
 10
205.285000000000
 20
15.373000000000
 10
205.231000000000
 20
15.386000000000
 10
205.176000000000
 20
15.396000000000
 10
205.126000000000
 20
15.404000000000
 10
204.951000000000
 20
15.429000000000
 10
204.896000000000
 20
15.436000000000
 10
204.840000000000
 20
15.441000000000
 10
204.767000000000
 20
15.445000000000
 10
204.591000000000
 20
15.449000000000
 10
204.536000000000
 20
15.449000000000
 10
204.480000000000
 20
15.447000000000
 10
204.433000000000
 20
15.444000000000
 10
204.257000000000
 20
15.430000000000
 10
204.202000000000
 20
15.425000000000
 10
204.146000000000
 20
15.417000000000
 10
204.081000000000
 20
15.406000000000
 10
203.908000000000
 20
15.372000000000
 10
203.854000000000
 20
15.360000000000
 10
203.800000000000
 20
15.347000000000
 10
203.741000000000
 20
15.329000000000
 10
203.573000000000
 20
15.276000000000
 10
203.520000000000
 20
15.258000000000
 10
203.468000000000
 20
15.239000000000
 10
203.421000000000
 20
15.219000000000
 10
203.260000000000
 20
15.149000000000
 10
203.209000000000
 20
15.126000000000
 10
203.160000000000
 20
15.101000000000
 10
203.099000000000
 20
15.068000000000
 10
202.946000000000
 20
14.979000000000
 10
202.898000000000
 20
14.950000000000
 10
202.851000000000
 20
14.919000000000
 10
202.809000000000
 20
14.889000000000
 10
202.667000000000
 20
14.785000000000
 10
202.623000000000
 20
14.752000000000
 10
202.580000000000
 20
14.717000000000
 10
202.536000000000
 20
14.678000000000
 10
202.406000000000
 20
14.559000000000
 10
202.366000000000
 20
14.521000000000
 10
202.327000000000
 20
14.481000000000
 10
202.285000000000
 20
14.435000000000
 10
202.169000000000
 20
14.302000000000
 10
202.133000000000
 20
14.259000000000
 10
202.099000000000
 20
14.215000000000
 10
202.061000000000
 20
14.163000000000
 10
201.961000000000
 20
14.018000000000
 10
201.930000000000
 20
13.972000000000
 10
201.901000000000
 20
13.924000000000
 10
201.874000000000
 20
13.877000000000
 10
201.790000000000
 20
13.722000000000
 10
201.765000000000
 20
13.672000000000
 10
201.741000000000
 20
13.622000000000
 10
201.716000000000
 20
13.565000000000
 10
201.650000000000
 20
13.402000000000
 10
201.630000000000
 20
13.350000000000
 10
201.612000000000
 20
13.297000000000
 10
201.595000000000
 20
13.241000000000
 10
201.547000000000
 20
13.071000000000
 10
201.533000000000
 20
13.017000000000
 10
201.521000000000
 20
12.963000000000
 10
201.510000000000
 20
12.905000000000
 10
201.481000000000
 20
12.731000000000
 10
201.473000000000
 20
12.676000000000
 10
201.467000000000
 20
12.620000000000
 10
201.462000000000
 20
12.564000000000
 10
201.452000000000
 20
12.388000000000
 10
201.450000000000
 20
12.332000000000
 10
201.450000000000
 20
12.277000000000
 10
201.452000000000
 20
12.212000000000
 10
201.462000000000
 20
12.036000000000
 10
201.467000000000
 20
11.981000000000
 10
201.473000000000
 20
11.925000000000
 10
201.481000000000
 20
11.869000000000
 10
201.510000000000
 20
11.695000000000
 10
201.520000000000
 20
11.640000000000
 10
201.532000000000
 20
11.586000000000
 10
201.547000000000
 20
11.529000000000
 10
201.595000000000
 20
11.359000000000
 10
201.611000000000
 20
11.306000000000
 10
201.629000000000
 20
11.253000000000
 10
201.650000000000
 20
11.198000000000
 10
201.716000000000
 20
11.035000000000
 10
201.738000000000
 20
10.984000000000
 10
201.762000000000
 20
10.934000000000
 10
201.790000000000
 20
10.878000000000
 10
201.874000000000
 20
10.723000000000
 10
201.902000000000
 20
10.675000000000
 10
201.931000000000
 20
10.628000000000
 10
201.961000000000
 20
10.582000000000
 10
202.061000000000
 20
10.437000000000
 10
202.093000000000
 20
10.392000000000
 10
202.127000000000
 20
10.348000000000
 10
202.169000000000
 20
10.298000000000
 10
202.285000000000
 20
10.165000000000
 10
202.322000000000
 20
10.124000000000
 10
202.361000000000
 20
10.084000000000
 10
202.406000000000
 20
10.041000000000
 10
202.536000000000
 20
9.922000000000
 10
202.578000000000
 20
9.885000000000
 10
202.621000000000
 20
9.850000000000
 10
202.667000000000
 20
9.815000000000
 10
202.809000000000
 20
9.711000000000
 10
202.855000000000
 20
9.678000000000
 10
202.901000000000
 20
9.648000000000
 10
202.946000000000
 20
9.621000000000
 10
203.099000000000
 20
9.532000000000
 10
203.147000000000
 20
9.505000000000
 10
203.197000000000
 20
9.480000000000
 10
203.260000000000
 20
9.451000000000
 10
203.421000000000
 20
9.381000000000
 10
203.472000000000
 20
9.359000000000
 10
203.525000000000
 20
9.340000000000
 10
203.573000000000
 20
9.324000000000
 10
203.741000000000
 20
9.271000000000
 10
203.794000000000
 20
9.255000000000
 10
203.848000000000
 20
9.241000000000
 10
203.908000000000
 20
9.228000000000
 10
204.081000000000
 20
9.194000000000
 10
204.136000000000
 20
9.184000000000
 10
204.191000000000
 20
9.177000000000
 10
204.257000000000
 20
9.170000000000
 10
204.433000000000
 20
9.156000000000
 10
204.489000000000
 20
9.152000000000
 10
204.544000000000
 20
9.151000000000
 10
204.591000000000
 20
9.151000000000
 10
204.767000000000
 20
9.155000000000
0
CIRCLE
  5
000000e4
 39
 0.100 
 100
AcDbEntity
8
contour007
 6
CONTINUOUS
100
AcDbCircle
 10
204.600000000000
 20
12.300000000000
 30
 0
 40
1.600000000000
0
LWPOLYLINE
  5
000000e5
 39
 0.100 
 100
AcDbEntity
8
contour007
 6
CONTINUOUS
100
AcDbPolyline
 90
229
 70
8
 10
204.767000000000
 20
28.155000000000
 10
204.823000000000
 20
28.158000000000
 10
204.878000000000
 20
28.162000000000
 10
204.951000000000
 20
28.171000000000
 10
205.126000000000
 20
28.196000000000
 10
205.181000000000
 20
28.204000000000
 10
205.236000000000
 20
28.215000000000
 10
205.285000000000
 20
28.227000000000
 10
205.456000000000
 20
28.270000000000
 10
205.510000000000
 20
28.284000000000
 10
205.563000000000
 20
28.301000000000
 10
205.623000000000
 20
28.322000000000
 10
205.788000000000
 20
28.384000000000
 10
205.840000000000
 20
28.405000000000
 10
205.891000000000
 20
28.427000000000
 10
205.940000000000
 20
28.450000000000
 10
206.097000000000
 20
28.529000000000
 10
206.146000000000
 20
28.555000000000
 10
206.194000000000
 20
28.583000000000
 10
206.250000000000
 20
28.618000000000
 10
206.398000000000
 20
28.715000000000
 10
206.444000000000
 20
28.746000000000
 10
206.489000000000
 20
28.779000000000
 10
206.533000000000
 20
28.815000000000
 10
206.669000000000
 20
28.927000000000
 10
206.712000000000
 20
28.963000000000
 10
206.753000000000
 20
29.000000000000
 10
206.793000000000
 20
29.040000000000
 10
206.916000000000
 20
29.166000000000
 10
206.954000000000
 20
29.207000000000
 10
206.991000000000
 20
29.249000000000
 10
207.031000000000
 20
29.298000000000
 10
207.139000000000
 20
29.437000000000
 10
207.172000000000
 20
29.482000000000
 10
207.204000000000
 20
29.527000000000
 10
207.236000000000
 20
29.578000000000
 10
207.328000000000
 20
29.728000000000
 10
207.357000000000
 20
29.776000000000
 10
207.383000000000
 20
29.825000000000
 10
207.410000000000
 20
29.880000000000
 10
207.485000000000
 20
30.040000000000
 10
207.508000000000
 20
30.091000000000
 10
207.529000000000
 20
30.143000000000
 10
207.546000000000
 20
30.189000000000
 10
207.604000000000
 20
30.356000000000
 10
207.622000000000
 20
30.409000000000
 10
207.637000000000
 20
30.463000000000
 10
207.654000000000
 20
30.531000000000
 10
207.692000000000
 20
30.703000000000
 10
207.703000000000
 20
30.757000000000
 10
207.712000000000
 20
30.812000000000
 10
207.718000000000
 20
30.861000000000
 10
207.738000000000
 20
31.036000000000
 10
207.743000000000
 20
31.091000000000
 10
207.747000000000
 20
31.147000000000
 10
207.748000000000
 20
31.212000000000
 10
207.748000000000
 20
31.388000000000
 10
207.747000000000
 20
31.444000000000
 10
207.744000000000
 20
31.499000000000
 10
207.738000000000
 20
31.564000000000
 10
207.718000000000
 20
31.739000000000
 10
207.711000000000
 20
31.794000000000
 10
207.701000000000
 20
31.849000000000
 10
207.692000000000
 20
31.897000000000
 10
207.654000000000
 20
32.069000000000
 10
207.641000000000
 20
32.124000000000
 10
207.626000000000
 20
32.177000000000
 10
207.604000000000
 20
32.244000000000
 10
207.546000000000
 20
32.411000000000
 10
207.527000000000
 20
32.463000000000
 10
207.506000000000
 20
32.514000000000
 10
207.485000000000
 20
32.560000000000
 10
207.410000000000
 20
32.720000000000
 10
207.386000000000
 20
32.770000000000
 10
207.360000000000
 20
32.819000000000
 10
207.328000000000
 20
32.872000000000
 10
207.236000000000
 20
33.022000000000
 10
207.206000000000
 20
33.069000000000
 10
207.175000000000
 20
33.115000000000
 10
207.139000000000
 20
33.163000000000
 10
207.031000000000
 20
33.302000000000
 10
206.996000000000
 20
33.345000000000
 10
206.960000000000
 20
33.387000000000
 10
206.916000000000
 20
33.434000000000
 10
206.793000000000
 20
33.560000000000
 10
206.754000000000
 20
33.599000000000
 10
206.713000000000
 20
33.637000000000
 10
206.669000000000
 20
33.673000000000
 10
206.533000000000
 20
33.785000000000
 10
206.490000000000
 20
33.820000000000
 10
206.445000000000
 20
33.853000000000
 10
206.398000000000
 20
33.885000000000
 10
206.250000000000
 20
33.982000000000
 10
206.203000000000
 20
34.012000000000
 10
206.154000000000
 20
34.040000000000
 10
206.097000000000
 20
34.071000000000
 10
205.940000000000
 20
34.150000000000
 10
205.890000000000
 20
34.174000000000
 10
205.839000000000
 20
34.196000000000
 10
205.788000000000
 20
34.216000000000
 10
205.623000000000
 20
34.278000000000
 10
205.571000000000
 20
34.297000000000
 10
205.518000000000
 20
34.313000000000
 10
205.456000000000
 20
34.330000000000
 10
205.285000000000
 20
34.373000000000
 10
205.231000000000
 20
34.386000000000
 10
205.176000000000
 20
34.396000000000
 10
205.126000000000
 20
34.404000000000
 10
204.951000000000
 20
34.429000000000
 10
204.896000000000
 20
34.436000000000
 10
204.840000000000
 20
34.441000000000
 10
204.767000000000
 20
34.445000000000
 10
204.591000000000
 20
34.449000000000
 10
204.536000000000
 20
34.449000000000
 10
204.480000000000
 20
34.447000000000
 10
204.433000000000
 20
34.444000000000
 10
204.257000000000
 20
34.430000000000
 10
204.202000000000
 20
34.425000000000
 10
204.146000000000
 20
34.417000000000
 10
204.081000000000
 20
34.406000000000
 10
203.908000000000
 20
34.372000000000
 10
203.854000000000
 20
34.360000000000
 10
203.800000000000
 20
34.347000000000
 10
203.741000000000
 20
34.329000000000
 10
203.573000000000
 20
34.276000000000
 10
203.520000000000
 20
34.258000000000
 10
203.468000000000
 20
34.239000000000
 10
203.421000000000
 20
34.219000000000
 10
203.260000000000
 20
34.149000000000
 10
203.209000000000
 20
34.126000000000
 10
203.160000000000
 20
34.101000000000
 10
203.099000000000
 20
34.068000000000
 10
202.946000000000
 20
33.979000000000
 10
202.898000000000
 20
33.950000000000
 10
202.851000000000
 20
33.919000000000
 10
202.809000000000
 20
33.889000000000
 10
202.667000000000
 20
33.785000000000
 10
202.623000000000
 20
33.752000000000
 10
202.580000000000
 20
33.717000000000
 10
202.536000000000
 20
33.678000000000
 10
202.406000000000
 20
33.559000000000
 10
202.366000000000
 20
33.521000000000
 10
202.327000000000
 20
33.481000000000
 10
202.285000000000
 20
33.435000000000
 10
202.169000000000
 20
33.302000000000
 10
202.133000000000
 20
33.259000000000
 10
202.099000000000
 20
33.215000000000
 10
202.061000000000
 20
33.163000000000
 10
201.961000000000
 20
33.018000000000
 10
201.930000000000
 20
32.972000000000
 10
201.901000000000
 20
32.924000000000
 10
201.874000000000
 20
32.877000000000
 10
201.790000000000
 20
32.722000000000
 10
201.765000000000
 20
32.672000000000
 10
201.741000000000
 20
32.622000000000
 10
201.716000000000
 20
32.565000000000
 10
201.650000000000
 20
32.402000000000
 10
201.630000000000
 20
32.350000000000
 10
201.612000000000
 20
32.297000000000
 10
201.595000000000
 20
32.241000000000
 10
201.547000000000
 20
32.071000000000
 10
201.533000000000
 20
32.017000000000
 10
201.521000000000
 20
31.963000000000
 10
201.510000000000
 20
31.905000000000
 10
201.481000000000
 20
31.731000000000
 10
201.473000000000
 20
31.676000000000
 10
201.467000000000
 20
31.620000000000
 10
201.462000000000
 20
31.564000000000
 10
201.452000000000
 20
31.388000000000
 10
201.450000000000
 20
31.332000000000
 10
201.450000000000
 20
31.277000000000
 10
201.452000000000
 20
31.212000000000
 10
201.462000000000
 20
31.036000000000
 10
201.467000000000
 20
30.981000000000
 10
201.473000000000
 20
30.925000000000
 10
201.481000000000
 20
30.869000000000
 10
201.510000000000
 20
30.695000000000
 10
201.520000000000
 20
30.640000000000
 10
201.532000000000
 20
30.586000000000
 10
201.547000000000
 20
30.529000000000
 10
201.595000000000
 20
30.359000000000
 10
201.611000000000
 20
30.306000000000
 10
201.629000000000
 20
30.253000000000
 10
201.650000000000
 20
30.198000000000
 10
201.716000000000
 20
30.035000000000
 10
201.738000000000
 20
29.984000000000
 10
201.762000000000
 20
29.934000000000
 10
201.790000000000
 20
29.878000000000
 10
201.874000000000
 20
29.723000000000
 10
201.902000000000
 20
29.675000000000
 10
201.931000000000
 20
29.628000000000
 10
201.961000000000
 20
29.582000000000
 10
202.061000000000
 20
29.437000000000
 10
202.093000000000
 20
29.392000000000
 10
202.127000000000
 20
29.348000000000
 10
202.169000000000
 20
29.298000000000
 10
202.285000000000
 20
29.165000000000
 10
202.322000000000
 20
29.124000000000
 10
202.361000000000
 20
29.084000000000
 10
202.406000000000
 20
29.041000000000
 10
202.536000000000
 20
28.922000000000
 10
202.578000000000
 20
28.885000000000
 10
202.621000000000
 20
28.850000000000
 10
202.667000000000
 20
28.815000000000
 10
202.809000000000
 20
28.711000000000
 10
202.855000000000
 20
28.678000000000
 10
202.901000000000
 20
28.648000000000
 10
202.946000000000
 20
28.621000000000
 10
203.099000000000
 20
28.532000000000
 10
203.147000000000
 20
28.505000000000
 10
203.197000000000
 20
28.480000000000
 10
203.260000000000
 20
28.451000000000
 10
203.421000000000
 20
28.381000000000
 10
203.472000000000
 20
28.359000000000
 10
203.525000000000
 20
28.340000000000
 10
203.573000000000
 20
28.324000000000
 10
203.741000000000
 20
28.271000000000
 10
203.794000000000
 20
28.255000000000
 10
203.848000000000
 20
28.241000000000
 10
203.908000000000
 20
28.228000000000
 10
204.081000000000
 20
28.194000000000
 10
204.136000000000
 20
28.184000000000
 10
204.191000000000
 20
28.177000000000
 10
204.257000000000
 20
28.170000000000
 10
204.433000000000
 20
28.156000000000
 10
204.489000000000
 20
28.152000000000
 10
204.544000000000
 20
28.151000000000
 10
204.591000000000
 20
28.151000000000
 10
204.767000000000
 20
28.155000000000
0
CIRCLE
  5
000000e6
 39
 0.100 
 100
AcDbEntity
8
contour007
 6
CONTINUOUS
100
AcDbCircle
 10
204.600000000000
 20
31.300000000000
 30
 0
 40
1.600000000000
0
LWPOLYLINE
  5
000000e7
 39
 0.100 
 100
AcDbEntity
8
contour007
 6
CONTINUOUS
100
AcDbPolyline
 90
229
 70
8
 10
310.767000000000
 20
9.155000000000
 10
310.823000000000
 20
9.158000000000
 10
310.878000000000
 20
9.162000000000
 10
310.951000000000
 20
9.171000000000
 10
311.126000000000
 20
9.196000000000
 10
311.181000000000
 20
9.204000000000
 10
311.236000000000
 20
9.215000000000
 10
311.285000000000
 20
9.227000000000
 10
311.456000000000
 20
9.270000000000
 10
311.510000000000
 20
9.284000000000
 10
311.563000000000
 20
9.301000000000
 10
311.623000000000
 20
9.322000000000
 10
311.788000000000
 20
9.384000000000
 10
311.840000000000
 20
9.405000000000
 10
311.891000000000
 20
9.427000000000
 10
311.940000000000
 20
9.450000000000
 10
312.097000000000
 20
9.529000000000
 10
312.146000000000
 20
9.555000000000
 10
312.194000000000
 20
9.583000000000
 10
312.250000000000
 20
9.618000000000
 10
312.398000000000
 20
9.715000000000
 10
312.444000000000
 20
9.746000000000
 10
312.489000000000
 20
9.779000000000
 10
312.533000000000
 20
9.815000000000
 10
312.669000000000
 20
9.927000000000
 10
312.712000000000
 20
9.963000000000
 10
312.753000000000
 20
10.000000000000
 10
312.793000000000
 20
10.040000000000
 10
312.916000000000
 20
10.166000000000
 10
312.954000000000
 20
10.207000000000
 10
312.991000000000
 20
10.249000000000
 10
313.031000000000
 20
10.298000000000
 10
313.139000000000
 20
10.437000000000
 10
313.172000000000
 20
10.482000000000
 10
313.204000000000
 20
10.527000000000
 10
313.236000000000
 20
10.578000000000
 10
313.328000000000
 20
10.728000000000
 10
313.357000000000
 20
10.776000000000
 10
313.383000000000
 20
10.825000000000
 10
313.410000000000
 20
10.880000000000
 10
313.485000000000
 20
11.040000000000
 10
313.508000000000
 20
11.091000000000
 10
313.529000000000
 20
11.143000000000
 10
313.546000000000
 20
11.189000000000
 10
313.604000000000
 20
11.356000000000
 10
313.622000000000
 20
11.409000000000
 10
313.637000000000
 20
11.463000000000
 10
313.654000000000
 20
11.531000000000
 10
313.692000000000
 20
11.703000000000
 10
313.703000000000
 20
11.757000000000
 10
313.712000000000
 20
11.812000000000
 10
313.718000000000
 20
11.861000000000
 10
313.738000000000
 20
12.036000000000
 10
313.743000000000
 20
12.091000000000
 10
313.747000000000
 20
12.147000000000
 10
313.748000000000
 20
12.212000000000
 10
313.748000000000
 20
12.388000000000
 10
313.747000000000
 20
12.444000000000
 10
313.744000000000
 20
12.499000000000
 10
313.738000000000
 20
12.564000000000
 10
313.718000000000
 20
12.739000000000
 10
313.711000000000
 20
12.794000000000
 10
313.701000000000
 20
12.849000000000
 10
313.692000000000
 20
12.897000000000
 10
313.654000000000
 20
13.069000000000
 10
313.641000000000
 20
13.124000000000
 10
313.626000000000
 20
13.177000000000
 10
313.604000000000
 20
13.244000000000
 10
313.546000000000
 20
13.411000000000
 10
313.527000000000
 20
13.463000000000
 10
313.506000000000
 20
13.514000000000
 10
313.485000000000
 20
13.560000000000
 10
313.410000000000
 20
13.720000000000
 10
313.386000000000
 20
13.770000000000
 10
313.360000000000
 20
13.819000000000
 10
313.328000000000
 20
13.872000000000
 10
313.236000000000
 20
14.022000000000
 10
313.206000000000
 20
14.069000000000
 10
313.175000000000
 20
14.115000000000
 10
313.139000000000
 20
14.163000000000
 10
313.031000000000
 20
14.302000000000
 10
312.996000000000
 20
14.345000000000
 10
312.960000000000
 20
14.387000000000
 10
312.916000000000
 20
14.434000000000
 10
312.793000000000
 20
14.560000000000
 10
312.754000000000
 20
14.599000000000
 10
312.713000000000
 20
14.637000000000
 10
312.669000000000
 20
14.673000000000
 10
312.533000000000
 20
14.785000000000
 10
312.490000000000
 20
14.820000000000
 10
312.445000000000
 20
14.853000000000
 10
312.398000000000
 20
14.885000000000
 10
312.250000000000
 20
14.982000000000
 10
312.203000000000
 20
15.012000000000
 10
312.154000000000
 20
15.040000000000
 10
312.097000000000
 20
15.071000000000
 10
311.940000000000
 20
15.150000000000
 10
311.890000000000
 20
15.174000000000
 10
311.839000000000
 20
15.196000000000
 10
311.788000000000
 20
15.216000000000
 10
311.623000000000
 20
15.278000000000
 10
311.571000000000
 20
15.297000000000
 10
311.518000000000
 20
15.313000000000
 10
311.456000000000
 20
15.330000000000
 10
311.285000000000
 20
15.373000000000
 10
311.231000000000
 20
15.386000000000
 10
311.176000000000
 20
15.396000000000
 10
311.126000000000
 20
15.404000000000
 10
310.951000000000
 20
15.429000000000
 10
310.896000000000
 20
15.436000000000
 10
310.840000000000
 20
15.441000000000
 10
310.767000000000
 20
15.445000000000
 10
310.591000000000
 20
15.449000000000
 10
310.536000000000
 20
15.449000000000
 10
310.480000000000
 20
15.447000000000
 10
310.433000000000
 20
15.444000000000
 10
310.257000000000
 20
15.430000000000
 10
310.202000000000
 20
15.425000000000
 10
310.146000000000
 20
15.417000000000
 10
310.081000000000
 20
15.406000000000
 10
309.908000000000
 20
15.372000000000
 10
309.854000000000
 20
15.360000000000
 10
309.800000000000
 20
15.347000000000
 10
309.741000000000
 20
15.329000000000
 10
309.573000000000
 20
15.276000000000
 10
309.520000000000
 20
15.258000000000
 10
309.468000000000
 20
15.239000000000
 10
309.421000000000
 20
15.219000000000
 10
309.260000000000
 20
15.149000000000
 10
309.209000000000
 20
15.126000000000
 10
309.160000000000
 20
15.101000000000
 10
309.099000000000
 20
15.068000000000
 10
308.946000000000
 20
14.979000000000
 10
308.898000000000
 20
14.950000000000
 10
308.851000000000
 20
14.919000000000
 10
308.809000000000
 20
14.889000000000
 10
308.667000000000
 20
14.785000000000
 10
308.623000000000
 20
14.752000000000
 10
308.580000000000
 20
14.717000000000
 10
308.536000000000
 20
14.678000000000
 10
308.406000000000
 20
14.559000000000
 10
308.366000000000
 20
14.521000000000
 10
308.327000000000
 20
14.481000000000
 10
308.285000000000
 20
14.435000000000
 10
308.169000000000
 20
14.302000000000
 10
308.133000000000
 20
14.259000000000
 10
308.099000000000
 20
14.215000000000
 10
308.061000000000
 20
14.163000000000
 10
307.961000000000
 20
14.018000000000
 10
307.930000000000
 20
13.972000000000
 10
307.901000000000
 20
13.924000000000
 10
307.874000000000
 20
13.877000000000
 10
307.790000000000
 20
13.722000000000
 10
307.765000000000
 20
13.672000000000
 10
307.741000000000
 20
13.622000000000
 10
307.716000000000
 20
13.565000000000
 10
307.650000000000
 20
13.402000000000
 10
307.630000000000
 20
13.350000000000
 10
307.612000000000
 20
13.297000000000
 10
307.595000000000
 20
13.241000000000
 10
307.547000000000
 20
13.071000000000
 10
307.533000000000
 20
13.017000000000
 10
307.521000000000
 20
12.963000000000
 10
307.510000000000
 20
12.905000000000
 10
307.481000000000
 20
12.731000000000
 10
307.473000000000
 20
12.676000000000
 10
307.467000000000
 20
12.620000000000
 10
307.462000000000
 20
12.564000000000
 10
307.452000000000
 20
12.388000000000
 10
307.450000000000
 20
12.332000000000
 10
307.450000000000
 20
12.277000000000
 10
307.452000000000
 20
12.212000000000
 10
307.462000000000
 20
12.036000000000
 10
307.467000000000
 20
11.981000000000
 10
307.473000000000
 20
11.925000000000
 10
307.481000000000
 20
11.869000000000
 10
307.510000000000
 20
11.695000000000
 10
307.520000000000
 20
11.640000000000
 10
307.532000000000
 20
11.586000000000
 10
307.547000000000
 20
11.529000000000
 10
307.595000000000
 20
11.359000000000
 10
307.611000000000
 20
11.306000000000
 10
307.629000000000
 20
11.253000000000
 10
307.650000000000
 20
11.198000000000
 10
307.716000000000
 20
11.035000000000
 10
307.738000000000
 20
10.984000000000
 10
307.762000000000
 20
10.934000000000
 10
307.790000000000
 20
10.878000000000
 10
307.874000000000
 20
10.723000000000
 10
307.902000000000
 20
10.675000000000
 10
307.931000000000
 20
10.628000000000
 10
307.961000000000
 20
10.582000000000
 10
308.061000000000
 20
10.437000000000
 10
308.093000000000
 20
10.392000000000
 10
308.127000000000
 20
10.348000000000
 10
308.169000000000
 20
10.298000000000
 10
308.285000000000
 20
10.165000000000
 10
308.322000000000
 20
10.124000000000
 10
308.361000000000
 20
10.084000000000
 10
308.406000000000
 20
10.041000000000
 10
308.536000000000
 20
9.922000000000
 10
308.578000000000
 20
9.885000000000
 10
308.621000000000
 20
9.850000000000
 10
308.667000000000
 20
9.815000000000
 10
308.809000000000
 20
9.711000000000
 10
308.855000000000
 20
9.678000000000
 10
308.901000000000
 20
9.648000000000
 10
308.946000000000
 20
9.621000000000
 10
309.099000000000
 20
9.532000000000
 10
309.147000000000
 20
9.505000000000
 10
309.197000000000
 20
9.480000000000
 10
309.260000000000
 20
9.451000000000
 10
309.421000000000
 20
9.381000000000
 10
309.472000000000
 20
9.359000000000
 10
309.525000000000
 20
9.340000000000
 10
309.573000000000
 20
9.324000000000
 10
309.741000000000
 20
9.271000000000
 10
309.794000000000
 20
9.255000000000
 10
309.848000000000
 20
9.241000000000
 10
309.908000000000
 20
9.228000000000
 10
310.081000000000
 20
9.194000000000
 10
310.136000000000
 20
9.184000000000
 10
310.191000000000
 20
9.177000000000
 10
310.257000000000
 20
9.170000000000
 10
310.433000000000
 20
9.156000000000
 10
310.489000000000
 20
9.152000000000
 10
310.544000000000
 20
9.151000000000
 10
310.591000000000
 20
9.151000000000
 10
310.767000000000
 20
9.155000000000
0
CIRCLE
  5
000000e8
 39
 0.100 
 100
AcDbEntity
8
contour007
 6
CONTINUOUS
100
AcDbCircle
 10
310.600000000000
 20
12.300000000000
 30
 0
 40
1.600000000000
0
LWPOLYLINE
  5
000000e9
 39
 0.100 
 100
AcDbEntity
8
contour007
 6
CONTINUOUS
100
AcDbPolyline
 90
229
 70
8
 10
310.767000000000
 20
28.155000000000
 10
310.823000000000
 20
28.158000000000
 10
310.878000000000
 20
28.162000000000
 10
310.951000000000
 20
28.171000000000
 10
311.126000000000
 20
28.196000000000
 10
311.181000000000
 20
28.204000000000
 10
311.236000000000
 20
28.215000000000
 10
311.285000000000
 20
28.227000000000
 10
311.456000000000
 20
28.270000000000
 10
311.510000000000
 20
28.284000000000
 10
311.563000000000
 20
28.301000000000
 10
311.623000000000
 20
28.322000000000
 10
311.788000000000
 20
28.384000000000
 10
311.840000000000
 20
28.405000000000
 10
311.891000000000
 20
28.427000000000
 10
311.940000000000
 20
28.450000000000
 10
312.097000000000
 20
28.529000000000
 10
312.146000000000
 20
28.555000000000
 10
312.194000000000
 20
28.583000000000
 10
312.250000000000
 20
28.618000000000
 10
312.398000000000
 20
28.715000000000
 10
312.444000000000
 20
28.746000000000
 10
312.489000000000
 20
28.779000000000
 10
312.533000000000
 20
28.815000000000
 10
312.669000000000
 20
28.927000000000
 10
312.712000000000
 20
28.963000000000
 10
312.753000000000
 20
29.000000000000
 10
312.793000000000
 20
29.040000000000
 10
312.916000000000
 20
29.166000000000
 10
312.954000000000
 20
29.207000000000
 10
312.991000000000
 20
29.249000000000
 10
313.031000000000
 20
29.298000000000
 10
313.139000000000
 20
29.437000000000
 10
313.172000000000
 20
29.482000000000
 10
313.204000000000
 20
29.527000000000
 10
313.236000000000
 20
29.578000000000
 10
313.328000000000
 20
29.728000000000
 10
313.357000000000
 20
29.776000000000
 10
313.383000000000
 20
29.825000000000
 10
313.410000000000
 20
29.880000000000
 10
313.485000000000
 20
30.040000000000
 10
313.508000000000
 20
30.091000000000
 10
313.529000000000
 20
30.143000000000
 10
313.546000000000
 20
30.189000000000
 10
313.604000000000
 20
30.356000000000
 10
313.622000000000
 20
30.409000000000
 10
313.637000000000
 20
30.463000000000
 10
313.654000000000
 20
30.531000000000
 10
313.692000000000
 20
30.703000000000
 10
313.703000000000
 20
30.757000000000
 10
313.712000000000
 20
30.812000000000
 10
313.718000000000
 20
30.861000000000
 10
313.738000000000
 20
31.036000000000
 10
313.743000000000
 20
31.091000000000
 10
313.747000000000
 20
31.147000000000
 10
313.748000000000
 20
31.212000000000
 10
313.748000000000
 20
31.388000000000
 10
313.747000000000
 20
31.444000000000
 10
313.744000000000
 20
31.499000000000
 10
313.738000000000
 20
31.564000000000
 10
313.718000000000
 20
31.739000000000
 10
313.711000000000
 20
31.794000000000
 10
313.701000000000
 20
31.849000000000
 10
313.692000000000
 20
31.897000000000
 10
313.654000000000
 20
32.069000000000
 10
313.641000000000
 20
32.124000000000
 10
313.626000000000
 20
32.177000000000
 10
313.604000000000
 20
32.244000000000
 10
313.546000000000
 20
32.411000000000
 10
313.527000000000
 20
32.463000000000
 10
313.506000000000
 20
32.514000000000
 10
313.485000000000
 20
32.560000000000
 10
313.410000000000
 20
32.720000000000
 10
313.386000000000
 20
32.770000000000
 10
313.360000000000
 20
32.819000000000
 10
313.328000000000
 20
32.872000000000
 10
313.236000000000
 20
33.022000000000
 10
313.206000000000
 20
33.069000000000
 10
313.175000000000
 20
33.115000000000
 10
313.139000000000
 20
33.163000000000
 10
313.031000000000
 20
33.302000000000
 10
312.996000000000
 20
33.345000000000
 10
312.960000000000
 20
33.387000000000
 10
312.916000000000
 20
33.434000000000
 10
312.793000000000
 20
33.560000000000
 10
312.754000000000
 20
33.599000000000
 10
312.713000000000
 20
33.637000000000
 10
312.669000000000
 20
33.673000000000
 10
312.533000000000
 20
33.785000000000
 10
312.490000000000
 20
33.820000000000
 10
312.445000000000
 20
33.853000000000
 10
312.398000000000
 20
33.885000000000
 10
312.250000000000
 20
33.982000000000
 10
312.203000000000
 20
34.012000000000
 10
312.154000000000
 20
34.040000000000
 10
312.097000000000
 20
34.071000000000
 10
311.940000000000
 20
34.150000000000
 10
311.890000000000
 20
34.174000000000
 10
311.839000000000
 20
34.196000000000
 10
311.788000000000
 20
34.216000000000
 10
311.623000000000
 20
34.278000000000
 10
311.571000000000
 20
34.297000000000
 10
311.518000000000
 20
34.313000000000
 10
311.456000000000
 20
34.330000000000
 10
311.285000000000
 20
34.373000000000
 10
311.231000000000
 20
34.386000000000
 10
311.176000000000
 20
34.396000000000
 10
311.126000000000
 20
34.404000000000
 10
310.951000000000
 20
34.429000000000
 10
310.896000000000
 20
34.436000000000
 10
310.840000000000
 20
34.441000000000
 10
310.767000000000
 20
34.445000000000
 10
310.591000000000
 20
34.449000000000
 10
310.536000000000
 20
34.449000000000
 10
310.480000000000
 20
34.447000000000
 10
310.433000000000
 20
34.444000000000
 10
310.257000000000
 20
34.430000000000
 10
310.202000000000
 20
34.425000000000
 10
310.146000000000
 20
34.417000000000
 10
310.081000000000
 20
34.406000000000
 10
309.908000000000
 20
34.372000000000
 10
309.854000000000
 20
34.360000000000
 10
309.800000000000
 20
34.347000000000
 10
309.741000000000
 20
34.329000000000
 10
309.573000000000
 20
34.276000000000
 10
309.520000000000
 20
34.258000000000
 10
309.468000000000
 20
34.239000000000
 10
309.421000000000
 20
34.219000000000
 10
309.260000000000
 20
34.149000000000
 10
309.209000000000
 20
34.126000000000
 10
309.160000000000
 20
34.101000000000
 10
309.099000000000
 20
34.068000000000
 10
308.946000000000
 20
33.979000000000
 10
308.898000000000
 20
33.950000000000
 10
308.851000000000
 20
33.919000000000
 10
308.809000000000
 20
33.889000000000
 10
308.667000000000
 20
33.785000000000
 10
308.623000000000
 20
33.752000000000
 10
308.580000000000
 20
33.717000000000
 10
308.536000000000
 20
33.678000000000
 10
308.406000000000
 20
33.559000000000
 10
308.366000000000
 20
33.521000000000
 10
308.327000000000
 20
33.481000000000
 10
308.285000000000
 20
33.435000000000
 10
308.169000000000
 20
33.302000000000
 10
308.133000000000
 20
33.259000000000
 10
308.099000000000
 20
33.215000000000
 10
308.061000000000
 20
33.163000000000
 10
307.961000000000
 20
33.018000000000
 10
307.930000000000
 20
32.972000000000
 10
307.901000000000
 20
32.924000000000
 10
307.874000000000
 20
32.877000000000
 10
307.790000000000
 20
32.722000000000
 10
307.765000000000
 20
32.672000000000
 10
307.741000000000
 20
32.622000000000
 10
307.716000000000
 20
32.565000000000
 10
307.650000000000
 20
32.402000000000
 10
307.630000000000
 20
32.350000000000
 10
307.612000000000
 20
32.297000000000
 10
307.595000000000
 20
32.241000000000
 10
307.547000000000
 20
32.071000000000
 10
307.533000000000
 20
32.017000000000
 10
307.521000000000
 20
31.963000000000
 10
307.510000000000
 20
31.905000000000
 10
307.481000000000
 20
31.731000000000
 10
307.473000000000
 20
31.676000000000
 10
307.467000000000
 20
31.620000000000
 10
307.462000000000
 20
31.564000000000
 10
307.452000000000
 20
31.388000000000
 10
307.450000000000
 20
31.332000000000
 10
307.450000000000
 20
31.277000000000
 10
307.452000000000
 20
31.212000000000
 10
307.462000000000
 20
31.036000000000
 10
307.467000000000
 20
30.981000000000
 10
307.473000000000
 20
30.925000000000
 10
307.481000000000
 20
30.869000000000
 10
307.510000000000
 20
30.695000000000
 10
307.520000000000
 20
30.640000000000
 10
307.532000000000
 20
30.586000000000
 10
307.547000000000
 20
30.529000000000
 10
307.595000000000
 20
30.359000000000
 10
307.611000000000
 20
30.306000000000
 10
307.629000000000
 20
30.253000000000
 10
307.650000000000
 20
30.198000000000
 10
307.716000000000
 20
30.035000000000
 10
307.738000000000
 20
29.984000000000
 10
307.762000000000
 20
29.934000000000
 10
307.790000000000
 20
29.878000000000
 10
307.874000000000
 20
29.723000000000
 10
307.902000000000
 20
29.675000000000
 10
307.931000000000
 20
29.628000000000
 10
307.961000000000
 20
29.582000000000
 10
308.061000000000
 20
29.437000000000
 10
308.093000000000
 20
29.392000000000
 10
308.127000000000
 20
29.348000000000
 10
308.169000000000
 20
29.298000000000
 10
308.285000000000
 20
29.165000000000
 10
308.322000000000
 20
29.124000000000
 10
308.361000000000
 20
29.084000000000
 10
308.406000000000
 20
29.041000000000
 10
308.536000000000
 20
28.922000000000
 10
308.578000000000
 20
28.885000000000
 10
308.621000000000
 20
28.850000000000
 10
308.667000000000
 20
28.815000000000
 10
308.809000000000
 20
28.711000000000
 10
308.855000000000
 20
28.678000000000
 10
308.901000000000
 20
28.648000000000
 10
308.946000000000
 20
28.621000000000
 10
309.099000000000
 20
28.532000000000
 10
309.147000000000
 20
28.505000000000
 10
309.197000000000
 20
28.480000000000
 10
309.260000000000
 20
28.451000000000
 10
309.421000000000
 20
28.381000000000
 10
309.472000000000
 20
28.359000000000
 10
309.525000000000
 20
28.340000000000
 10
309.573000000000
 20
28.324000000000
 10
309.741000000000
 20
28.271000000000
 10
309.794000000000
 20
28.255000000000
 10
309.848000000000
 20
28.241000000000
 10
309.908000000000
 20
28.228000000000
 10
310.081000000000
 20
28.194000000000
 10
310.136000000000
 20
28.184000000000
 10
310.191000000000
 20
28.177000000000
 10
310.257000000000
 20
28.170000000000
 10
310.433000000000
 20
28.156000000000
 10
310.489000000000
 20
28.152000000000
 10
310.544000000000
 20
28.151000000000
 10
310.591000000000
 20
28.151000000000
 10
310.767000000000
 20
28.155000000000
0
CIRCLE
  5
000000ea
 39
 0.100 
 100
AcDbEntity
8
contour007
 6
CONTINUOUS
100
AcDbCircle
 10
310.600000000000
 20
31.300000000000
 30
 0
 40
1.600000000000
0
ARC
  5
000000eb
 39
 0.100 
 100
AcDbEntity
8
contour007
 6
CONTINUOUS
100
AcDbCircle
 10
210.100000000000
 20
11.300000000000
 30
 0
 40
1.500000000000
100
AcDbArc
 50
180.000000000000
 51
270.000000000000
0
LINE
  5
000000ec
 39
 0.100 
 100
AcDbEntity
8
contour007
 6
CONTINUOUS
 100
AcDbLine
 10
305.100000000000
 20
9.800000000000
 30
 0.0
 11
210.100000000000
 21
9.800000000000
 31
0.0
0
ARC
  5
000000ed
 39
 0.100 
 100
AcDbEntity
8
contour007
 6
CONTINUOUS
100
AcDbCircle
 10
305.100000000000
 20
11.300000000000
 30
 0
 40
1.500000000000
100
AcDbArc
 50
270.000000000000
 51
360.000000000000
0
LINE
  5
000000ee
 39
 0.100 
 100
AcDbEntity
8
contour007
 6
CONTINUOUS
 100
AcDbLine
 10
306.600000000000
 20
32.300000000000
 30
 0.0
 11
306.600000000000
 21
11.300000000000
 31
0.0
0
ARC
  5
000000ef
 39
 0.100 
 100
AcDbEntity
8
contour007
 6
CONTINUOUS
100
AcDbCircle
 10
305.100000000000
 20
32.300000000000
 30
 0
 40
1.500000000000
100
AcDbArc
 50
0.000000000000
 51
90.000000000000
0
LINE
  5
000000f0
 39
 0.100 
 100
AcDbEntity
8
contour007
 6
CONTINUOUS
 100
AcDbLine
 10
210.100000000000
 20
33.800000000000
 30
 0.0
 11
305.100000000000
 21
33.800000000000
 31
0.0
0
ARC
  5
000000f1
 39
 0.100 
 100
AcDbEntity
8
contour007
 6
CONTINUOUS
100
AcDbCircle
 10
210.100000000000
 20
32.300000000000
 30
 0
 40
1.500000000000
100
AcDbArc
 50
90.000000000000
 51
180.000000000000
0
LINE
  5
000000f2
 39
 0.100 
 100
AcDbEntity
8
contour007
 6
CONTINUOUS
 100
AcDbLine
 10
208.600000000000
 20
11.300000000000
 30
 0.0
 11
208.600000000000
 21
32.300000000000
 31
0.0
0
ARC
  5
000000f3
 39
 0.100 
 100
AcDbEntity
8
contour007
 6
CONTINUOUS
100
AcDbCircle
 10
50.500000000000
 20
11.000000000000
 30
 0
 40
1.000000000000
100
AcDbArc
 50
180.000000000000
 51
270.000000000000
0
LINE
  5
000000f4
 39
 0.100 
 100
AcDbEntity
8
contour007
 6
CONTINUOUS
 100
AcDbLine
 10
72.500000000000
 20
10.000000000000
 30
 0.0
 11
50.500000000000
 21
10.000000000000
 31
0.0
0
ARC
  5
000000f5
 39
 0.100 
 100
AcDbEntity
8
contour007
 6
CONTINUOUS
100
AcDbCircle
 10
72.500000000000
 20
11.000000000000
 30
 0
 40
1.000000000000
100
AcDbArc
 50
270.000000000000
 51
360.000000000000
0
LINE
  5
000000f6
 39
 0.100 
 100
AcDbEntity
8
contour007
 6
CONTINUOUS
 100
AcDbLine
 10
73.500000000000
 20
31.000000000000
 30
 0.0
 11
73.500000000000
 21
11.000000000000
 31
0.0
0
ARC
  5
000000f7
 39
 0.100 
 100
AcDbEntity
8
contour007
 6
CONTINUOUS
100
AcDbCircle
 10
72.500000000000
 20
31.000000000000
 30
 0
 40
1.000000000000
100
AcDbArc
 50
0.000000000000
 51
90.000000000000
0
LINE
  5
000000f8
 39
 0.100 
 100
AcDbEntity
8
contour007
 6
CONTINUOUS
 100
AcDbLine
 10
50.500000000000
 20
32.000000000000
 30
 0.0
 11
72.500000000000
 21
32.000000000000
 31
0.0
0
ARC
  5
000000f9
 39
 0.100 
 100
AcDbEntity
8
contour007
 6
CONTINUOUS
100
AcDbCircle
 10
50.500000000000
 20
31.000000000000
 30
 0
 40
1.000000000000
100
AcDbArc
 50
90.000000000000
 51
180.000000000000
0
LINE
  5
000000fa
 39
 0.100 
 100
AcDbEntity
8
contour007
 6
CONTINUOUS
 100
AcDbLine
 10
49.500000000000
 20
11.000000000000
 30
 0.0
 11
49.500000000000
 21
31.000000000000
 31
0.0
0
CIRCLE
  5
000000fb
 39
 0.100 
 100
AcDbEntity
8
contour007
 6
CONTINUOUS
100
AcDbCircle
 10
46.272000000000
 20
33.900000000000
 30
 0
 40
1.229000000000
0
ARC
  5
000000fc
 39
 0.100 
 100
AcDbEntity
8
contour007
 6
CONTINUOUS
100
AcDbCircle
 10
46.272000000000
 20
33.900000000000
 30
 0
 40
1.500000000000
100
AcDbArc
 50
0.000000000000
 51
270.000000000000
0
CIRCLE
  5
000000fd
 39
 0.100 
 100
AcDbEntity
8
contour007
 6
CONTINUOUS
100
AcDbCircle
 10
76.729000000000
 20
33.900000000000
 30
 0
 40
1.229000000000
0
ARC
  5
000000fe
 39
 0.100 
 100
AcDbEntity
8
contour007
 6
CONTINUOUS
100
AcDbCircle
 10
76.729000000000
 20
33.900000000000
 30
 0
 40
1.500000000000
100
AcDbArc
 50
0.000000000000
 51
270.000000000000
0
ARC
  5
000000ff
 39
 0.100 
 100
AcDbEntity
8
contour007
 6
CONTINUOUS
100
AcDbCircle
 10
88.352553390593
 20
10.153553390593
 30
 0
 40
0.500000000000
100
AcDbArc
 50
135.000000000000
 51
315.000000000000
0
LINE
  5
00000100
 39
 0.100 
 100
AcDbEntity
8
contour007
 6
CONTINUOUS
 100
AcDbLine
 10
105.291893218813
 20
9.800000000000
 30
 0.0
 11
88.706106781187
 21
9.800000000000
 31
0.0
0
ARC
  5
00000101
 39
 0.100 
 100
AcDbEntity
8
contour007
 6
CONTINUOUS
100
AcDbCircle
 10
105.645446609407
 20
10.153553390593
 30
 0
 40
0.500000000000
100
AcDbArc
 50
225.000000000000
 51
405.000000000000
0
LINE
  5
00000102
 39
 0.100 
 100
AcDbEntity
8
contour007
 6
CONTINUOUS
 100
AcDbLine
 10
105.999000000000
 20
33.092893218813
 30
 0.0
 11
105.999000000000
 21
10.507106781187
 31
0.0
0
ARC
  5
00000103
 39
 0.100 
 100
AcDbEntity
8
contour007
 6
CONTINUOUS
100
AcDbCircle
 10
105.645446609407
 20
33.446446609407
 30
 0
 40
0.500000000000
100
AcDbArc
 50
315.000000000001
 51
495.000000000001
0
LINE
  5
00000104
 39
 0.100 
 100
AcDbEntity
8
contour007
 6
CONTINUOUS
 100
AcDbLine
 10
88.706106781187
 20
33.800000000000
 30
 0.0
 11
105.291893218813
 21
33.800000000000
 31
0.0
0
ARC
  5
00000105
 39
 0.100 
 100
AcDbEntity
8
contour007
 6
CONTINUOUS
100
AcDbCircle
 10
88.352553390593
 20
33.446446609407
 30
 0
 40
0.500000000000
100
AcDbArc
 50
45.000000000000
 51
225.000000000000
0
LINE
  5
00000106
 39
 0.100 
 100
AcDbEntity
8
contour007
 6
CONTINUOUS
 100
AcDbLine
 10
87.999000000000
 20
10.507106781187
 30
 0.0
 11
87.999000000000
 21
33.092893218813
 31
0.0
0
CIRCLE
  5
00000107
 39
 0.100 
 100
AcDbEntity
8
contour007
 6
CONTINUOUS
100
AcDbCircle
 10
96.999000000000
 20
36.250000000000
 30
 0
 40
1.229000000000
0
ARC
  5
00000108
 39
 0.100 
 100
AcDbEntity
8
contour007
 6
CONTINUOUS
100
AcDbCircle
 10
96.999000000000
 20
36.250000000000
 30
 0
 40
1.500000000000
100
AcDbArc
 50
0.000000000000
 51
270.000000000000
0
CIRCLE
  5
00000109
 39
 0.100 
 100
AcDbEntity
8
contour007
 6
CONTINUOUS
100
AcDbCircle
 10
96.999000000000
 20
7.350000000000
 30
 0
 40
1.229000000000
0
ARC
  5
0000010a
 39
 0.100 
 100
AcDbEntity
8
contour007
 6
CONTINUOUS
100
AcDbCircle
 10
96.999000000000
 20
7.350000000000
 30
 0
 40
1.500000000000
100
AcDbArc
 50
0.000000000000
 51
270.000000000000
0
ARC
  5
0000010b
 39
 0.100 
 100
AcDbEntity
8
contour007
 6
CONTINUOUS
100
AcDbCircle
 10
109.352553390593
 20
10.153553390593
 30
 0
 40
0.500000000000
100
AcDbArc
 50
135.000000000000
 51
315.000000000000
0
LINE
  5
0000010c
 39
 0.100 
 100
AcDbEntity
8
contour007
 6
CONTINUOUS
 100
AcDbLine
 10
126.291893218813
 20
9.800000000000
 30
 0.0
 11
109.706106781187
 21
9.800000000000
 31
0.0
0
ARC
  5
0000010d
 39
 0.100 
 100
AcDbEntity
8
contour007
 6
CONTINUOUS
100
AcDbCircle
 10
126.645446609407
 20
10.153553390593
 30
 0
 40
0.500000000000
100
AcDbArc
 50
225.000000000000
 51
405.000000000000
0
LINE
  5
0000010e
 39
 0.100 
 100
AcDbEntity
8
contour007
 6
CONTINUOUS
 100
AcDbLine
 10
126.999000000000
 20
33.092893218813
 30
 0.0
 11
126.999000000000
 21
10.507106781187
 31
0.0
0
ARC
  5
0000010f
 39
 0.100 
 100
AcDbEntity
8
contour007
 6
CONTINUOUS
100
AcDbCircle
 10
126.645446609407
 20
33.446446609407
 30
 0
 40
0.500000000000
100
AcDbArc
 50
315.000000000001
 51
495.000000000001
0
LINE
  5
00000110
 39
 0.100 
 100
AcDbEntity
8
contour007
 6
CONTINUOUS
 100
AcDbLine
 10
109.706106781187
 20
33.800000000000
 30
 0.0
 11
126.291893218813
 21
33.800000000000
 31
0.0
0
ARC
  5
00000111
 39
 0.100 
 100
AcDbEntity
8
contour007
 6
CONTINUOUS
100
AcDbCircle
 10
109.352553390593
 20
33.446446609407
 30
 0
 40
0.500000000000
100
AcDbArc
 50
45.000000000000
 51
225.000000000000
0
LINE
  5
00000112
 39
 0.100 
 100
AcDbEntity
8
contour007
 6
CONTINUOUS
 100
AcDbLine
 10
108.999000000000
 20
10.507106781187
 30
 0.0
 11
108.999000000000
 21
33.092893218813
 31
0.0
0
CIRCLE
  5
00000113
 39
 0.100 
 100
AcDbEntity
8
contour007
 6
CONTINUOUS
100
AcDbCircle
 10
117.999000000000
 20
36.250000000000
 30
 0
 40
1.229000000000
0
ARC
  5
00000114
 39
 0.100 
 100
AcDbEntity
8
contour007
 6
CONTINUOUS
100
AcDbCircle
 10
117.999000000000
 20
36.250000000000
 30
 0
 40
1.500000000000
100
AcDbArc
 50
0.000000000000
 51
270.000000000000
0
CIRCLE
  5
00000115
 39
 0.100 
 100
AcDbEntity
8
contour007
 6
CONTINUOUS
100
AcDbCircle
 10
117.999000000000
 20
7.350000000000
 30
 0
 40
1.229000000000
0
ARC
  5
00000116
 39
 0.100 
 100
AcDbEntity
8
contour007
 6
CONTINUOUS
100
AcDbCircle
 10
117.999000000000
 20
7.350000000000
 30
 0
 40
1.500000000000
100
AcDbArc
 50
0.000000000000
 51
270.000000000000
0
ARC
  5
00000117
 39
 0.100 
 100
AcDbEntity
8
contour007
 6
CONTINUOUS
100
AcDbCircle
 10
130.352553390593
 20
10.153553390593
 30
 0
 40
0.500000000000
100
AcDbArc
 50
135.000000000000
 51
315.000000000000
0
LINE
  5
00000118
 39
 0.100 
 100
AcDbEntity
8
contour007
 6
CONTINUOUS
 100
AcDbLine
 10
147.291893218813
 20
9.800000000000
 30
 0.0
 11
130.706106781187
 21
9.800000000000
 31
0.0
0
ARC
  5
00000119
 39
 0.100 
 100
AcDbEntity
8
contour007
 6
CONTINUOUS
100
AcDbCircle
 10
147.645446609407
 20
10.153553390593
 30
 0
 40
0.500000000000
100
AcDbArc
 50
225.000000000000
 51
405.000000000000
0
LINE
  5
0000011a
 39
 0.100 
 100
AcDbEntity
8
contour007
 6
CONTINUOUS
 100
AcDbLine
 10
147.999000000000
 20
33.092893218813
 30
 0.0
 11
147.999000000000
 21
10.507106781187
 31
0.0
0
ARC
  5
0000011b
 39
 0.100 
 100
AcDbEntity
8
contour007
 6
CONTINUOUS
100
AcDbCircle
 10
147.645446609407
 20
33.446446609407
 30
 0
 40
0.500000000000
100
AcDbArc
 50
315.000000000001
 51
495.000000000001
0
LINE
  5
0000011c
 39
 0.100 
 100
AcDbEntity
8
contour007
 6
CONTINUOUS
 100
AcDbLine
 10
130.706106781187
 20
33.800000000000
 30
 0.0
 11
147.291893218813
 21
33.800000000000
 31
0.0
0
ARC
  5
0000011d
 39
 0.100 
 100
AcDbEntity
8
contour007
 6
CONTINUOUS
100
AcDbCircle
 10
130.352553390593
 20
33.446446609407
 30
 0
 40
0.500000000000
100
AcDbArc
 50
45.000000000000
 51
225.000000000000
0
LINE
  5
0000011e
 39
 0.100 
 100
AcDbEntity
8
contour007
 6
CONTINUOUS
 100
AcDbLine
 10
129.999000000000
 20
10.507106781187
 30
 0.0
 11
129.999000000000
 21
33.092893218813
 31
0.0
0
CIRCLE
  5
0000011f
 39
 0.100 
 100
AcDbEntity
8
contour007
 6
CONTINUOUS
100
AcDbCircle
 10
138.999000000000
 20
36.250000000000
 30
 0
 40
1.229000000000
0
ARC
  5
00000120
 39
 0.100 
 100
AcDbEntity
8
contour007
 6
CONTINUOUS
100
AcDbCircle
 10
138.999000000000
 20
36.250000000000
 30
 0
 40
1.500000000000
100
AcDbArc
 50
0.000000000000
 51
270.000000000000
0
CIRCLE
  5
00000121
 39
 0.100 
 100
AcDbEntity
8
contour007
 6
CONTINUOUS
100
AcDbCircle
 10
138.999000000000
 20
7.350000000000
 30
 0
 40
1.229000000000
0
ARC
  5
00000122
 39
 0.100 
 100
AcDbEntity
8
contour007
 6
CONTINUOUS
100
AcDbCircle
 10
138.999000000000
 20
7.350000000000
 30
 0
 40
1.500000000000
100
AcDbArc
 50
0.000000000000
 51
270.000000000000
0
ARC
  5
00000123
 39
 0.100 
 100
AcDbEntity
8
contour007
 6
CONTINUOUS
100
AcDbCircle
 10
151.352553390593
 20
10.153553390593
 30
 0
 40
0.500000000000
100
AcDbArc
 50
135.000000000000
 51
315.000000000000
0
LINE
  5
00000124
 39
 0.100 
 100
AcDbEntity
8
contour007
 6
CONTINUOUS
 100
AcDbLine
 10
168.291893218813
 20
9.800000000000
 30
 0.0
 11
151.706106781187
 21
9.800000000000
 31
0.0
0
ARC
  5
00000125
 39
 0.100 
 100
AcDbEntity
8
contour007
 6
CONTINUOUS
100
AcDbCircle
 10
168.645446609407
 20
10.153553390593
 30
 0
 40
0.500000000000
100
AcDbArc
 50
225.000000000000
 51
405.000000000000
0
LINE
  5
00000126
 39
 0.100 
 100
AcDbEntity
8
contour007
 6
CONTINUOUS
 100
AcDbLine
 10
168.999000000000
 20
33.092893218813
 30
 0.0
 11
168.999000000000
 21
10.507106781187
 31
0.0
0
ARC
  5
00000127
 39
 0.100 
 100
AcDbEntity
8
contour007
 6
CONTINUOUS
100
AcDbCircle
 10
168.645446609407
 20
33.446446609407
 30
 0
 40
0.500000000000
100
AcDbArc
 50
315.000000000001
 51
495.000000000001
0
LINE
  5
00000128
 39
 0.100 
 100
AcDbEntity
8
contour007
 6
CONTINUOUS
 100
AcDbLine
 10
151.706106781187
 20
33.800000000000
 30
 0.0
 11
168.291893218813
 21
33.800000000000
 31
0.0
0
ARC
  5
00000129
 39
 0.100 
 100
AcDbEntity
8
contour007
 6
CONTINUOUS
100
AcDbCircle
 10
151.352553390593
 20
33.446446609407
 30
 0
 40
0.500000000000
100
AcDbArc
 50
45.000000000000
 51
225.000000000000
0
LINE
  5
0000012a
 39
 0.100 
 100
AcDbEntity
8
contour007
 6
CONTINUOUS
 100
AcDbLine
 10
150.999000000000
 20
10.507106781187
 30
 0.0
 11
150.999000000000
 21
33.092893218813
 31
0.0
0
CIRCLE
  5
0000012b
 39
 0.100 
 100
AcDbEntity
8
contour007
 6
CONTINUOUS
100
AcDbCircle
 10
159.999000000000
 20
36.250000000000
 30
 0
 40
1.229000000000
0
ARC
  5
0000012c
 39
 0.100 
 100
AcDbEntity
8
contour007
 6
CONTINUOUS
100
AcDbCircle
 10
159.999000000000
 20
36.250000000000
 30
 0
 40
1.500000000000
100
AcDbArc
 50
0.000000000000
 51
270.000000000000
0
CIRCLE
  5
0000012d
 39
 0.100 
 100
AcDbEntity
8
contour007
 6
CONTINUOUS
100
AcDbCircle
 10
159.999000000000
 20
7.350000000000
 30
 0
 40
1.229000000000
0
ARC
  5
0000012e
 39
 0.100 
 100
AcDbEntity
8
contour007
 6
CONTINUOUS
100
AcDbCircle
 10
159.999000000000
 20
7.350000000000
 30
 0
 40
1.500000000000
100
AcDbArc
 50
0.000000000000
 51
270.000000000000
0
LWPOLYLINE
  5
0000012f
 39
 0.100 
 100
AcDbEntity
8
contour005
 6
CONTINUOUS
100
AcDbPolyline
 90
272
 70
8
 10
196.234000000000
 20
17.571000000000
 10
196.264000000000
 20
17.572000000000
 10
196.485000000000
 20
17.586000000000
 10
196.544000000000
 20
17.591000000000
 10
196.603000000000
 20
17.598000000000
 10
196.642000000000
 20
17.604000000000
 10
196.861000000000
 20
17.638000000000
 10
196.919000000000
 20
17.648000000000
 10
196.976000000000
 20
17.659000000000
 10
197.019000000000
 20
17.670000000000
 10
197.233000000000
 20
17.724000000000
 10
197.290000000000
 20
17.739000000000
 10
197.373000000000
 20
17.765000000000
 10
197.582000000000
 20
17.837000000000
 10
197.637000000000
 20
17.858000000000
 10
197.692000000000
 20
17.880000000000
 10
197.723000000000
 20
17.893000000000
 10
197.925000000000
 20
17.983000000000
 10
197.978000000000
 20
18.008000000000
 10
198.031000000000
 20
18.034000000000
 10
198.066000000000
 20
18.054000000000
 10
198.259000000000
 20
18.162000000000
 10
198.310000000000
 20
18.191000000000
 10
198.359000000000
 20
18.222000000000
 10
198.385000000000
 20
18.239000000000
 10
198.568000000000
 20
18.363000000000
 10
198.616000000000
 20
18.397000000000
 10
198.663000000000
 20
18.432000000000
 10
198.693000000000
 20
18.457000000000
 10
198.864000000000
 20
18.597000000000
 10
198.909000000000
 20
18.635000000000
 10
198.953000000000
 20
18.674000000000
 10
198.980000000000
 20
18.701000000000
 10
199.138000000000
 20
18.856000000000
 10
199.179000000000
 20
18.898000000000
 10
199.219000000000
 20
18.941000000000
 10
199.240000000000
 20
18.965000000000
 10
199.384000000000
 20
19.133000000000
 10
199.422000000000
 20
19.178000000000
 10
199.458000000000
 20
19.225000000000
 10
199.477000000000
 20
19.251000000000
 10
199.606000000000
 20
19.431000000000
 10
199.639000000000
 20
19.479000000000
 10
199.671000000000
 20
19.529000000000
 10
199.692000000000
 20
19.564000000000
 10
199.804000000000
 20
19.755000000000
 10
199.833000000000
 20
19.806000000000
 10
199.860000000000
 20
19.858000000000
 10
199.878000000000
 20
19.894000000000
 10
199.972000000000
 20
20.094000000000
 10
199.996000000000
 20
20.148000000000
 10
200.027000000000
 20
20.227000000000
 10
200.104000000000
 20
20.434000000000
 10
200.124000000000
 20
20.490000000000
 10
200.142000000000
 20
20.546000000000
 10
200.152000000000
 20
20.583000000000
 10
200.210000000000
 20
20.796000000000
 10
200.225000000000
 20
20.853000000000
 10
200.237000000000
 20
20.910000000000
 10
200.244000000000
 20
20.946000000000
 10
200.283000000000
 20
21.164000000000
 10
200.292000000000
 20
21.222000000000
 10
200.300000000000
 20
21.280000000000
 10
200.303000000000
 20
21.312000000000
 10
200.323000000000
 20
21.532000000000
 10
200.327000000000
 20
21.591000000000
 10
200.330000000000
 20
21.650000000000
 10
200.330000000000
 20
21.911000000000
 10
200.329000000000
 20
21.970000000000
 10
200.326000000000
 20
22.029000000000
 10
200.323000000000
 20
22.068000000000
 10
200.303000000000
 20
22.288000000000
 10
200.297000000000
 20
22.346000000000
 10
200.288000000000
 20
22.405000000000
 10
200.283000000000
 20
22.436000000000
 10
200.244000000000
 20
22.654000000000
 10
200.233000000000
 20
22.712000000000
 10
200.219000000000
 20
22.769000000000
 10
200.210000000000
 20
22.804000000000
 10
200.152000000000
 20
23.017000000000
 10
200.136000000000
 20
23.074000000000
 10
200.117000000000
 20
23.129000000000
 10
200.104000000000
 20
23.166000000000
 10
200.027000000000
 20
23.373000000000
 10
200.006000000000
 20
23.428000000000
 10
199.972000000000
 20
23.506000000000
 10
199.878000000000
 20
23.706000000000
 10
199.852000000000
 20
23.759000000000
 10
199.824000000000
 20
23.810000000000
 10
199.804000000000
 20
23.845000000000
 10
199.692000000000
 20
24.036000000000
 10
199.661000000000
 20
24.086000000000
 10
199.629000000000
 20
24.136000000000
 10
199.606000000000
 20
24.169000000000
 10
199.477000000000
 20
24.349000000000
 10
199.442000000000
 20
24.396000000000
 10
199.405000000000
 20
24.442000000000
 10
199.384000000000
 20
24.467000000000
 10
199.240000000000
 20
24.635000000000
 10
199.201000000000
 20
24.679000000000
 10
199.160000000000
 20
24.722000000000
 10
199.138000000000
 20
24.744000000000
 10
198.980000000000
 20
24.899000000000
 10
198.937000000000
 20
24.940000000000
 10
198.893000000000
 20
24.979000000000
 10
198.864000000000
 20
25.003000000000
 10
198.693000000000
 20
25.143000000000
 10
198.647000000000
 20
25.180000000000
 10
198.600000000000
 20
25.215000000000
 10
198.568000000000
 20
25.237000000000
 10
198.385000000000
 20
25.361000000000
 10
198.335000000000
 20
25.393000000000
 10
198.285000000000
 20
25.424000000000
 10
198.259000000000
 20
25.438000000000
 10
198.066000000000
 20
25.546000000000
 10
198.014000000000
 20
25.574000000000
 10
197.961000000000
 20
25.600000000000
 10
197.925000000000
 20
25.617000000000
 10
197.723000000000
 20
25.707000000000
 10
197.669000000000
 20
25.730000000000
 10
197.614000000000
 20
25.751000000000
 10
197.582000000000
 20
25.763000000000
 10
197.373000000000
 20
25.835000000000
 10
197.317000000000
 20
25.853000000000
 10
197.233000000000
 20
25.876000000000
 10
197.019000000000
 20
25.930000000000
 10
196.961000000000
 20
25.944000000000
 10
196.904000000000
 20
25.955000000000
 10
196.861000000000
 20
25.962000000000
 10
196.642000000000
 20
25.996000000000
 10
196.583000000000
 20
26.005000000000
 10
196.525000000000
 20
26.011000000000
 10
196.485000000000
 20
26.014000000000
 10
196.264000000000
 20
26.028000000000
 10
196.206000000000
 20
26.030000000000
 10
196.147000000000
 20
26.031000000000
 10
196.116000000000
 20
26.031000000000
 10
195.895000000000
 20
26.026000000000
 10
195.836000000000
 20
26.023000000000
 10
195.777000000000
 20
26.019000000000
 10
195.746000000000
 20
26.016000000000
 10
195.526000000000
 20
25.992000000000
 10
195.468000000000
 20
25.984000000000
 10
195.410000000000
 20
25.975000000000
 10
195.368000000000
 20
25.967000000000
 10
195.152000000000
 20
25.923000000000
 10
195.095000000000
 20
25.910000000000
 10
195.014000000000
 20
25.889000000000
 10
194.801000000000
 20
25.827000000000
 10
194.745000000000
 20
25.810000000000
 10
194.689000000000
 20
25.790000000000
 10
194.642000000000
 20
25.772000000000
 10
194.437000000000
 20
25.690000000000
 10
194.382000000000
 20
25.667000000000
 10
194.305000000000
 20
25.631000000000
 10
194.107000000000
 20
25.532000000000
 10
194.055000000000
 20
25.505000000000
 10
194.004000000000
 20
25.476000000000
 10
193.973000000000
 20
25.457000000000
 10
193.785000000000
 20
25.341000000000
 10
193.735000000000
 20
25.309000000000
 10
193.687000000000
 20
25.276000000000
 10
193.659000000000
 20
25.255000000000
 10
193.482000000000
 20
25.123000000000
 10
193.435000000000
 20
25.087000000000
 10
193.390000000000
 20
25.050000000000
 10
193.361000000000
 20
25.024000000000
 10
193.196000000000
 20
24.876000000000
 10
193.152000000000
 20
24.836000000000
 10
193.111000000000
 20
24.795000000000
 10
193.089000000000
 20
24.772000000000
 10
192.938000000000
 20
24.611000000000
 10
192.898000000000
 20
24.567000000000
 10
192.860000000000
 20
24.522000000000
 10
192.836000000000
 20
24.493000000000
 10
192.700000000000
 20
24.319000000000
 10
192.665000000000
 20
24.272000000000
 10
192.631000000000
 20
24.223000000000
 10
192.613000000000
 20
24.196000000000
 10
192.492000000000
 20
24.010000000000
 10
192.461000000000
 20
23.961000000000
 10
192.431000000000
 20
23.910000000000
 10
192.411000000000
 20
23.872000000000
 10
192.308000000000
 20
23.676000000000
 10
192.281000000000
 20
23.623000000000
 10
192.246000000000
 20
23.546000000000
 10
192.160000000000
 20
23.343000000000
 10
192.138000000000
 20
23.288000000000
 10
192.118000000000
 20
23.233000000000
 10
192.104000000000
 20
23.191000000000
 10
192.037000000000
 20
22.980000000000
 10
192.020000000000
 20
22.924000000000
 10
191.999000000000
 20
22.839000000000
 10
191.950000000000
 20
22.623000000000
 10
191.938000000000
 20
22.566000000000
 10
191.928000000000
 20
22.508000000000
 10
191.922000000000
 20
22.467000000000
 10
191.893000000000
 20
22.248000000000
 10
191.886000000000
 20
22.190000000000
 10
191.882000000000
 20
22.131000000000
 10
191.880000000000
 20
22.099000000000
 10
191.870000000000
 20
21.878000000000
 10
191.868000000000
 20
21.819000000000
 10
191.868000000000
 20
21.761000000000
 10
191.870000000000
 20
21.722000000000
 10
191.880000000000
 20
21.501000000000
 10
191.883000000000
 20
21.442000000000
 10
191.889000000000
 20
21.383000000000
 10
191.893000000000
 20
21.352000000000
 10
191.922000000000
 20
21.133000000000
 10
191.931000000000
 20
21.074000000000
 10
191.941000000000
 20
21.017000000000
 10
191.950000000000
 20
20.977000000000
 10
191.999000000000
 20
20.761000000000
 10
192.013000000000
 20
20.704000000000
 10
192.037000000000
 20
20.620000000000
 10
192.104000000000
 20
20.409000000000
 10
192.123000000000
 20
20.353000000000
 10
192.144000000000
 20
20.298000000000
 10
192.160000000000
 20
20.257000000000
 10
192.246000000000
 20
20.054000000000
 10
192.270000000000
 20
20.001000000000
 10
192.308000000000
 20
19.924000000000
 10
192.411000000000
 20
19.728000000000
 10
192.439000000000
 20
19.677000000000
 10
192.469000000000
 20
19.626000000000
 10
192.492000000000
 20
19.590000000000
 10
192.613000000000
 20
19.404000000000
 10
192.646000000000
 20
19.355000000000
 10
192.681000000000
 20
19.307000000000
 10
192.700000000000
 20
19.281000000000
 10
192.836000000000
 20
19.107000000000
 10
192.873000000000
 20
19.062000000000
 10
192.912000000000
 20
19.017000000000
 10
192.938000000000
 20
18.989000000000
 10
193.089000000000
 20
18.828000000000
 10
193.130000000000
 20
18.786000000000
 10
193.172000000000
 20
18.745000000000
 10
193.196000000000
 20
18.724000000000
 10
193.361000000000
 20
18.576000000000
 10
193.405000000000
 20
18.537000000000
 10
193.451000000000
 20
18.500000000000
 10
193.482000000000
 20
18.477000000000
 10
193.659000000000
 20
18.345000000000
 10
193.706000000000
 20
18.310000000000
 10
193.755000000000
 20
18.277000000000
 10
193.785000000000
 20
18.259000000000
 10
193.973000000000
 20
18.143000000000
 10
194.023000000000
 20
18.113000000000
 10
194.075000000000
 20
18.085000000000
 10
194.107000000000
 20
18.068000000000
 10
194.305000000000
 20
17.969000000000
 10
194.359000000000
 20
17.943000000000
 10
194.437000000000
 20
17.910000000000
 10
194.642000000000
 20
17.828000000000
 10
194.697000000000
 20
17.807000000000
 10
194.752000000000
 20
17.788000000000
 10
194.801000000000
 20
17.773000000000
 10
195.014000000000
 20
17.711000000000
 10
195.071000000000
 20
17.696000000000
 10
195.152000000000
 20
17.677000000000
 10
195.368000000000
 20
17.633000000000
 10
195.426000000000
 20
17.622000000000
 10
195.484000000000
 20
17.613000000000
 10
195.526000000000
 20
17.608000000000
 10
195.746000000000
 20
17.584000000000
 10
195.805000000000
 20
17.579000000000
 10
195.864000000000
 20
17.575000000000
 10
195.895000000000
 20
17.574000000000
 10
196.116000000000
 20
17.569000000000
 10
196.175000000000
 20
17.569000000000
 10
196.234000000000
 20
17.571000000000
0
CIRCLE
  5
00000130
 39
 0.100 
 100
AcDbEntity
8
contour007
 6
CONTINUOUS
100
AcDbCircle
 10
196.100000000000
 20
21.800000000000
 30
 0
 40
2.500000000000
0
LWPOLYLINE
  5
00000131
 39
 0.100 
 100
AcDbEntity
8
contour005
 6
CONTINUOUS
100
AcDbPolyline
 90
272
 70
8
 10
321.234000000000
 20
17.571000000000
 10
321.264000000000
 20
17.572000000000
 10
321.485000000000
 20
17.586000000000
 10
321.544000000000
 20
17.591000000000
 10
321.603000000000
 20
17.598000000000
 10
321.642000000000
 20
17.604000000000
 10
321.861000000000
 20
17.638000000000
 10
321.919000000000
 20
17.648000000000
 10
321.976000000000
 20
17.659000000000
 10
322.019000000000
 20
17.670000000000
 10
322.233000000000
 20
17.724000000000
 10
322.290000000000
 20
17.739000000000
 10
322.373000000000
 20
17.765000000000
 10
322.582000000000
 20
17.837000000000
 10
322.637000000000
 20
17.858000000000
 10
322.692000000000
 20
17.880000000000
 10
322.723000000000
 20
17.893000000000
 10
322.925000000000
 20
17.983000000000
 10
322.978000000000
 20
18.008000000000
 10
323.031000000000
 20
18.034000000000
 10
323.066000000000
 20
18.054000000000
 10
323.259000000000
 20
18.162000000000
 10
323.310000000000
 20
18.191000000000
 10
323.359000000000
 20
18.222000000000
 10
323.385000000000
 20
18.239000000000
 10
323.568000000000
 20
18.363000000000
 10
323.616000000000
 20
18.397000000000
 10
323.663000000000
 20
18.432000000000
 10
323.693000000000
 20
18.457000000000
 10
323.864000000000
 20
18.597000000000
 10
323.909000000000
 20
18.635000000000
 10
323.953000000000
 20
18.674000000000
 10
323.980000000000
 20
18.701000000000
 10
324.138000000000
 20
18.856000000000
 10
324.179000000000
 20
18.898000000000
 10
324.219000000000
 20
18.941000000000
 10
324.240000000000
 20
18.965000000000
 10
324.384000000000
 20
19.133000000000
 10
324.422000000000
 20
19.178000000000
 10
324.458000000000
 20
19.225000000000
 10
324.477000000000
 20
19.251000000000
 10
324.606000000000
 20
19.431000000000
 10
324.639000000000
 20
19.479000000000
 10
324.671000000000
 20
19.529000000000
 10
324.692000000000
 20
19.564000000000
 10
324.804000000000
 20
19.755000000000
 10
324.833000000000
 20
19.806000000000
 10
324.860000000000
 20
19.858000000000
 10
324.878000000000
 20
19.894000000000
 10
324.972000000000
 20
20.094000000000
 10
324.996000000000
 20
20.148000000000
 10
325.027000000000
 20
20.227000000000
 10
325.104000000000
 20
20.434000000000
 10
325.124000000000
 20
20.490000000000
 10
325.142000000000
 20
20.546000000000
 10
325.152000000000
 20
20.583000000000
 10
325.210000000000
 20
20.796000000000
 10
325.225000000000
 20
20.853000000000
 10
325.237000000000
 20
20.910000000000
 10
325.244000000000
 20
20.946000000000
 10
325.283000000000
 20
21.164000000000
 10
325.292000000000
 20
21.222000000000
 10
325.300000000000
 20
21.280000000000
 10
325.303000000000
 20
21.312000000000
 10
325.323000000000
 20
21.532000000000
 10
325.327000000000
 20
21.591000000000
 10
325.330000000000
 20
21.650000000000
 10
325.330000000000
 20
21.911000000000
 10
325.329000000000
 20
21.970000000000
 10
325.326000000000
 20
22.029000000000
 10
325.323000000000
 20
22.068000000000
 10
325.303000000000
 20
22.288000000000
 10
325.297000000000
 20
22.346000000000
 10
325.288000000000
 20
22.405000000000
 10
325.283000000000
 20
22.436000000000
 10
325.244000000000
 20
22.654000000000
 10
325.233000000000
 20
22.712000000000
 10
325.219000000000
 20
22.769000000000
 10
325.210000000000
 20
22.804000000000
 10
325.152000000000
 20
23.017000000000
 10
325.136000000000
 20
23.074000000000
 10
325.117000000000
 20
23.129000000000
 10
325.104000000000
 20
23.166000000000
 10
325.027000000000
 20
23.373000000000
 10
325.006000000000
 20
23.428000000000
 10
324.972000000000
 20
23.506000000000
 10
324.878000000000
 20
23.706000000000
 10
324.852000000000
 20
23.759000000000
 10
324.824000000000
 20
23.810000000000
 10
324.804000000000
 20
23.845000000000
 10
324.692000000000
 20
24.036000000000
 10
324.661000000000
 20
24.086000000000
 10
324.629000000000
 20
24.136000000000
 10
324.606000000000
 20
24.169000000000
 10
324.477000000000
 20
24.349000000000
 10
324.442000000000
 20
24.396000000000
 10
324.405000000000
 20
24.442000000000
 10
324.384000000000
 20
24.467000000000
 10
324.240000000000
 20
24.635000000000
 10
324.201000000000
 20
24.679000000000
 10
324.160000000000
 20
24.722000000000
 10
324.138000000000
 20
24.744000000000
 10
323.980000000000
 20
24.899000000000
 10
323.937000000000
 20
24.940000000000
 10
323.893000000000
 20
24.979000000000
 10
323.864000000000
 20
25.003000000000
 10
323.693000000000
 20
25.143000000000
 10
323.647000000000
 20
25.180000000000
 10
323.600000000000
 20
25.215000000000
 10
323.568000000000
 20
25.237000000000
 10
323.385000000000
 20
25.361000000000
 10
323.335000000000
 20
25.393000000000
 10
323.285000000000
 20
25.424000000000
 10
323.259000000000
 20
25.438000000000
 10
323.066000000000
 20
25.546000000000
 10
323.014000000000
 20
25.574000000000
 10
322.961000000000
 20
25.600000000000
 10
322.925000000000
 20
25.617000000000
 10
322.723000000000
 20
25.707000000000
 10
322.669000000000
 20
25.730000000000
 10
322.614000000000
 20
25.751000000000
 10
322.582000000000
 20
25.763000000000
 10
322.373000000000
 20
25.835000000000
 10
322.317000000000
 20
25.853000000000
 10
322.233000000000
 20
25.876000000000
 10
322.019000000000
 20
25.930000000000
 10
321.961000000000
 20
25.944000000000
 10
321.904000000000
 20
25.955000000000
 10
321.861000000000
 20
25.962000000000
 10
321.642000000000
 20
25.996000000000
 10
321.583000000000
 20
26.005000000000
 10
321.525000000000
 20
26.011000000000
 10
321.485000000000
 20
26.014000000000
 10
321.264000000000
 20
26.028000000000
 10
321.206000000000
 20
26.030000000000
 10
321.147000000000
 20
26.031000000000
 10
321.116000000000
 20
26.031000000000
 10
320.895000000000
 20
26.026000000000
 10
320.836000000000
 20
26.023000000000
 10
320.777000000000
 20
26.019000000000
 10
320.746000000000
 20
26.016000000000
 10
320.526000000000
 20
25.992000000000
 10
320.468000000000
 20
25.984000000000
 10
320.410000000000
 20
25.975000000000
 10
320.368000000000
 20
25.967000000000
 10
320.152000000000
 20
25.923000000000
 10
320.095000000000
 20
25.910000000000
 10
320.014000000000
 20
25.889000000000
 10
319.801000000000
 20
25.827000000000
 10
319.745000000000
 20
25.810000000000
 10
319.689000000000
 20
25.790000000000
 10
319.642000000000
 20
25.772000000000
 10
319.437000000000
 20
25.690000000000
 10
319.382000000000
 20
25.667000000000
 10
319.305000000000
 20
25.631000000000
 10
319.107000000000
 20
25.532000000000
 10
319.055000000000
 20
25.505000000000
 10
319.004000000000
 20
25.476000000000
 10
318.973000000000
 20
25.457000000000
 10
318.785000000000
 20
25.341000000000
 10
318.735000000000
 20
25.309000000000
 10
318.687000000000
 20
25.276000000000
 10
318.659000000000
 20
25.255000000000
 10
318.482000000000
 20
25.123000000000
 10
318.435000000000
 20
25.087000000000
 10
318.390000000000
 20
25.050000000000
 10
318.361000000000
 20
25.024000000000
 10
318.196000000000
 20
24.876000000000
 10
318.152000000000
 20
24.836000000000
 10
318.111000000000
 20
24.795000000000
 10
318.089000000000
 20
24.772000000000
 10
317.938000000000
 20
24.611000000000
 10
317.898000000000
 20
24.567000000000
 10
317.860000000000
 20
24.522000000000
 10
317.836000000000
 20
24.493000000000
 10
317.700000000000
 20
24.319000000000
 10
317.665000000000
 20
24.272000000000
 10
317.631000000000
 20
24.223000000000
 10
317.613000000000
 20
24.196000000000
 10
317.492000000000
 20
24.010000000000
 10
317.461000000000
 20
23.961000000000
 10
317.431000000000
 20
23.910000000000
 10
317.411000000000
 20
23.872000000000
 10
317.308000000000
 20
23.676000000000
 10
317.281000000000
 20
23.623000000000
 10
317.246000000000
 20
23.546000000000
 10
317.160000000000
 20
23.343000000000
 10
317.138000000000
 20
23.288000000000
 10
317.118000000000
 20
23.233000000000
 10
317.104000000000
 20
23.191000000000
 10
317.037000000000
 20
22.980000000000
 10
317.020000000000
 20
22.924000000000
 10
316.999000000000
 20
22.839000000000
 10
316.950000000000
 20
22.623000000000
 10
316.938000000000
 20
22.566000000000
 10
316.928000000000
 20
22.508000000000
 10
316.922000000000
 20
22.467000000000
 10
316.893000000000
 20
22.248000000000
 10
316.886000000000
 20
22.190000000000
 10
316.882000000000
 20
22.131000000000
 10
316.880000000000
 20
22.099000000000
 10
316.870000000000
 20
21.878000000000
 10
316.868000000000
 20
21.819000000000
 10
316.868000000000
 20
21.761000000000
 10
316.870000000000
 20
21.722000000000
 10
316.880000000000
 20
21.501000000000
 10
316.883000000000
 20
21.442000000000
 10
316.889000000000
 20
21.383000000000
 10
316.893000000000
 20
21.352000000000
 10
316.922000000000
 20
21.133000000000
 10
316.931000000000
 20
21.074000000000
 10
316.941000000000
 20
21.017000000000
 10
316.950000000000
 20
20.977000000000
 10
316.999000000000
 20
20.761000000000
 10
317.013000000000
 20
20.704000000000
 10
317.037000000000
 20
20.620000000000
 10
317.104000000000
 20
20.409000000000
 10
317.123000000000
 20
20.353000000000
 10
317.144000000000
 20
20.298000000000
 10
317.160000000000
 20
20.257000000000
 10
317.246000000000
 20
20.054000000000
 10
317.270000000000
 20
20.001000000000
 10
317.308000000000
 20
19.924000000000
 10
317.411000000000
 20
19.728000000000
 10
317.439000000000
 20
19.677000000000
 10
317.469000000000
 20
19.626000000000
 10
317.492000000000
 20
19.590000000000
 10
317.613000000000
 20
19.404000000000
 10
317.646000000000
 20
19.355000000000
 10
317.681000000000
 20
19.307000000000
 10
317.700000000000
 20
19.281000000000
 10
317.836000000000
 20
19.107000000000
 10
317.873000000000
 20
19.062000000000
 10
317.912000000000
 20
19.017000000000
 10
317.938000000000
 20
18.989000000000
 10
318.089000000000
 20
18.828000000000
 10
318.130000000000
 20
18.786000000000
 10
318.172000000000
 20
18.745000000000
 10
318.196000000000
 20
18.724000000000
 10
318.361000000000
 20
18.576000000000
 10
318.405000000000
 20
18.537000000000
 10
318.451000000000
 20
18.500000000000
 10
318.482000000000
 20
18.477000000000
 10
318.659000000000
 20
18.345000000000
 10
318.706000000000
 20
18.310000000000
 10
318.755000000000
 20
18.277000000000
 10
318.785000000000
 20
18.259000000000
 10
318.973000000000
 20
18.143000000000
 10
319.023000000000
 20
18.113000000000
 10
319.075000000000
 20
18.085000000000
 10
319.107000000000
 20
18.068000000000
 10
319.305000000000
 20
17.969000000000
 10
319.359000000000
 20
17.943000000000
 10
319.437000000000
 20
17.910000000000
 10
319.642000000000
 20
17.828000000000
 10
319.697000000000
 20
17.807000000000
 10
319.752000000000
 20
17.788000000000
 10
319.801000000000
 20
17.773000000000
 10
320.014000000000
 20
17.711000000000
 10
320.071000000000
 20
17.696000000000
 10
320.152000000000
 20
17.677000000000
 10
320.368000000000
 20
17.633000000000
 10
320.426000000000
 20
17.622000000000
 10
320.484000000000
 20
17.613000000000
 10
320.526000000000
 20
17.608000000000
 10
320.746000000000
 20
17.584000000000
 10
320.805000000000
 20
17.579000000000
 10
320.864000000000
 20
17.575000000000
 10
320.895000000000
 20
17.574000000000
 10
321.116000000000
 20
17.569000000000
 10
321.175000000000
 20
17.569000000000
 10
321.234000000000
 20
17.571000000000
0
CIRCLE
  5
00000132
 39
 0.100 
 100
AcDbEntity
8
contour007
 6
CONTINUOUS
100
AcDbCircle
 10
321.100000000000
 20
21.800000000000
 30
 0
 40
2.500000000000
0
LINE
  5
00000133
 39
 0.100 
 100
AcDbEntity
8
reference_cross001
 6
CONTINUOUS
 100
AcDbLine
 10
9.750000000000
 20
5.950000000000
 30
 0.0
 11
8.250000000000
 21
5.950000000000
 31
0.0
0
LINE
  5
00000134
 39
 0.100 
 100
AcDbEntity
8
reference_cross001
 6
CONTINUOUS
 100
AcDbLine
 10
9.000000000000
 20
5.200000000000
 30
 0.0
 11
9.000000000000
 21
6.700000000000
 31
0.0
0
LINE
  5
00000135
 39
 0.100 
 100
AcDbEntity
8
reference_cross001
 6
CONTINUOUS
 100
AcDbLine
 10
9.750000000000
 20
37.650000000000
 30
 0.0
 11
8.250000000000
 21
37.650000000000
 31
0.0
0
LINE
  5
00000136
 39
 0.100 
 100
AcDbEntity
8
reference_cross001
 6
CONTINUOUS
 100
AcDbLine
 10
9.000000000000
 20
36.900000000000
 30
 0.0
 11
9.000000000000
 21
38.400000000000
 31
0.0
0
LINE
  5
00000137
 39
 0.100 
 100
AcDbEntity
8
reference_cross001
 6
CONTINUOUS
 100
AcDbLine
 10
33.500000000000
 20
7.830000000000
 30
 0.0
 11
32.000000000000
 21
7.830000000000
 31
0.0
0
LINE
  5
00000138
 39
 0.100 
 100
AcDbEntity
8
reference_cross001
 6
CONTINUOUS
 100
AcDbLine
 10
32.750000000000
 20
7.080000000000
 30
 0.0
 11
32.750000000000
 21
8.580000000000
 31
0.0
0
LINE
  5
00000139
 39
 0.100 
 100
AcDbEntity
8
reference_cross001
 6
CONTINUOUS
 100
AcDbLine
 10
33.500000000000
 20
35.770000000000
 30
 0.0
 11
32.000000000000
 21
35.770000000000
 31
0.0
0
LINE
  5
0000013a
 39
 0.100 
 100
AcDbEntity
8
reference_cross001
 6
CONTINUOUS
 100
AcDbLine
 10
32.750000000000
 20
35.020000000000
 30
 0.0
 11
32.750000000000
 21
36.520000000000
 31
0.0
0
LINE
  5
0000013b
 39
 0.100 
 100
AcDbEntity
8
reference_cross001
 6
CONTINUOUS
 100
AcDbLine
 10
474.750000000000
 20
5.950000000000
 30
 0.0
 11
473.250000000000
 21
5.950000000000
 31
0.0
0
LINE
  5
0000013c
 39
 0.100 
 100
AcDbEntity
8
reference_cross001
 6
CONTINUOUS
 100
AcDbLine
 10
474.000000000000
 20
5.200000000000
 30
 0.0
 11
474.000000000000
 21
6.700000000000
 31
0.0
0
LINE
  5
0000013d
 39
 0.100 
 100
AcDbEntity
8
reference_cross001
 6
CONTINUOUS
 100
AcDbLine
 10
474.750000000000
 20
37.650000000000
 30
 0.0
 11
473.250000000000
 21
37.650000000000
 31
0.0
0
LINE
  5
0000013e
 39
 0.100 
 100
AcDbEntity
8
reference_cross001
 6
CONTINUOUS
 100
AcDbLine
 10
474.000000000000
 20
36.900000000000
 30
 0.0
 11
474.000000000000
 21
38.400000000000
 31
0.0
0
LINE
  5
0000013f
 39
 0.100 
 100
AcDbEntity
8
reference_cross001
 6
CONTINUOUS
 100
AcDbLine
 10
451.000000000000
 20
7.830000000000
 30
 0.0
 11
449.500000000000
 21
7.830000000000
 31
0.0
0
LINE
  5
00000140
 39
 0.100 
 100
AcDbEntity
8
reference_cross001
 6
CONTINUOUS
 100
AcDbLine
 10
450.250000000000
 20
7.080000000000
 30
 0.0
 11
450.250000000000
 21
8.580000000000
 31
0.0
0
LINE
  5
00000141
 39
 0.100 
 100
AcDbEntity
8
reference_cross001
 6
CONTINUOUS
 100
AcDbLine
 10
451.000000000000
 20
35.770000000000
 30
 0.0
 11
449.500000000000
 21
35.770000000000
 31
0.0
0
LINE
  5
00000142
 39
 0.100 
 100
AcDbEntity
8
reference_cross001
 6
CONTINUOUS
 100
AcDbLine
 10
450.250000000000
 20
35.020000000000
 30
 0.0
 11
450.250000000000
 21
36.520000000000
 31
0.0
0
LINE
  5
00000143
 39
 0.100 
 100
AcDbEntity
8
reference_cross001
 6
CONTINUOUS
 100
AcDbLine
 10
330.350000000000
 20
12.300000000000
 30
 0.0
 11
328.850000000000
 21
12.300000000000
 31
0.0
0
LINE
  5
00000144
 39
 0.100 
 100
AcDbEntity
8
reference_cross001
 6
CONTINUOUS
 100
AcDbLine
 10
329.600000000000
 20
11.550000000000
 30
 0.0
 11
329.600000000000
 21
13.050000000000
 31
0.0
0
LINE
  5
00000145
 39
 0.100 
 100
AcDbEntity
8
reference_cross001
 6
CONTINUOUS
 100
AcDbLine
 10
330.350000000000
 20
31.300000000000
 30
 0.0
 11
328.850000000000
 21
31.300000000000
 31
0.0
0
LINE
  5
00000146
 39
 0.100 
 100
AcDbEntity
8
reference_cross001
 6
CONTINUOUS
 100
AcDbLine
 10
329.600000000000
 20
30.550000000000
 30
 0.0
 11
329.600000000000
 21
32.050000000000
 31
0.0
0
LINE
  5
00000147
 39
 0.100 
 100
AcDbEntity
8
reference_cross001
 6
CONTINUOUS
 100
AcDbLine
 10
436.350000000000
 20
12.300000000000
 30
 0.0
 11
434.850000000000
 21
12.300000000000
 31
0.0
0
LINE
  5
00000148
 39
 0.100 
 100
AcDbEntity
8
reference_cross001
 6
CONTINUOUS
 100
AcDbLine
 10
435.600000000000
 20
11.550000000000
 30
 0.0
 11
435.600000000000
 21
13.050000000000
 31
0.0
0
LINE
  5
00000149
 39
 0.100 
 100
AcDbEntity
8
reference_cross001
 6
CONTINUOUS
 100
AcDbLine
 10
436.350000000000
 20
31.300000000000
 30
 0.0
 11
434.850000000000
 21
31.300000000000
 31
0.0
0
LINE
  5
0000014a
 39
 0.100 
 100
AcDbEntity
8
reference_cross001
 6
CONTINUOUS
 100
AcDbLine
 10
435.600000000000
 20
30.550000000000
 30
 0.0
 11
435.600000000000
 21
32.050000000000
 31
0.0
0
LINE
  5
0000014b
 39
 0.100 
 100
AcDbEntity
8
reference_cross001
 6
CONTINUOUS
 100
AcDbLine
 10
383.350000000000
 20
21.800000000000
 30
 0.0
 11
381.850000000000
 21
21.800000000000
 31
0.0
0
LINE
  5
0000014c
 39
 0.100 
 100
AcDbEntity
8
reference_cross001
 6
CONTINUOUS
 100
AcDbLine
 10
382.600000000000
 20
21.050000000000
 30
 0.0
 11
382.600000000000
 21
22.550000000000
 31
0.0
0
LINE
  5
0000014d
 39
 0.100 
 100
AcDbEntity
8
reference_cross001
 6
CONTINUOUS
 100
AcDbLine
 10
205.350000000000
 20
12.300000000000
 30
 0.0
 11
203.850000000000
 21
12.300000000000
 31
0.0
0
LINE
  5
0000014e
 39
 0.100 
 100
AcDbEntity
8
reference_cross001
 6
CONTINUOUS
 100
AcDbLine
 10
204.600000000000
 20
11.550000000000
 30
 0.0
 11
204.600000000000
 21
13.050000000000
 31
0.0
0
LINE
  5
0000014f
 39
 0.100 
 100
AcDbEntity
8
reference_cross001
 6
CONTINUOUS
 100
AcDbLine
 10
205.350000000000
 20
31.300000000000
 30
 0.0
 11
203.850000000000
 21
31.300000000000
 31
0.0
0
LINE
  5
00000150
 39
 0.100 
 100
AcDbEntity
8
reference_cross001
 6
CONTINUOUS
 100
AcDbLine
 10
204.600000000000
 20
30.550000000000
 30
 0.0
 11
204.600000000000
 21
32.050000000000
 31
0.0
0
LINE
  5
00000151
 39
 0.100 
 100
AcDbEntity
8
reference_cross001
 6
CONTINUOUS
 100
AcDbLine
 10
311.350000000000
 20
12.300000000000
 30
 0.0
 11
309.850000000000
 21
12.300000000000
 31
0.0
0
LINE
  5
00000152
 39
 0.100 
 100
AcDbEntity
8
reference_cross001
 6
CONTINUOUS
 100
AcDbLine
 10
310.600000000000
 20
11.550000000000
 30
 0.0
 11
310.600000000000
 21
13.050000000000
 31
0.0
0
LINE
  5
00000153
 39
 0.100 
 100
AcDbEntity
8
reference_cross001
 6
CONTINUOUS
 100
AcDbLine
 10
311.350000000000
 20
31.300000000000
 30
 0.0
 11
309.850000000000
 21
31.300000000000
 31
0.0
0
LINE
  5
00000154
 39
 0.100 
 100
AcDbEntity
8
reference_cross001
 6
CONTINUOUS
 100
AcDbLine
 10
310.600000000000
 20
30.550000000000
 30
 0.0
 11
310.600000000000
 21
32.050000000000
 31
0.0
0
LINE
  5
00000155
 39
 0.100 
 100
AcDbEntity
8
reference_cross001
 6
CONTINUOUS
 100
AcDbLine
 10
258.350000000000
 20
21.800000000000
 30
 0.0
 11
256.850000000000
 21
21.800000000000
 31
0.0
0
LINE
  5
00000156
 39
 0.100 
 100
AcDbEntity
8
reference_cross001
 6
CONTINUOUS
 100
AcDbLine
 10
257.600000000000
 20
21.050000000000
 30
 0.0
 11
257.600000000000
 21
22.550000000000
 31
0.0
0
LINE
  5
00000157
 39
 0.100 
 100
AcDbEntity
8
reference_cross001
 6
CONTINUOUS
 100
AcDbLine
 10
62.250000000000
 20
21.000000000000
 30
 0.0
 11
60.750000000000
 21
21.000000000000
 31
0.0
0
LINE
  5
00000158
 39
 0.100 
 100
AcDbEntity
8
reference_cross001
 6
CONTINUOUS
 100
AcDbLine
 10
61.500000000000
 20
20.250000000000
 30
 0.0
 11
61.500000000000
 21
21.750000000000
 31
0.0
0
LINE
  5
00000159
 39
 0.100 
 100
AcDbEntity
8
reference_cross001
 6
CONTINUOUS
 100
AcDbLine
 10
47.022000000000
 20
33.900000000000
 30
 0.0
 11
45.522000000000
 21
33.900000000000
 31
0.0
0
LINE
  5
0000015a
 39
 0.100 
 100
AcDbEntity
8
reference_cross001
 6
CONTINUOUS
 100
AcDbLine
 10
46.272000000000
 20
33.150000000000
 30
 0.0
 11
46.272000000000
 21
34.650000000000
 31
0.0
0
LINE
  5
0000015b
 39
 0.100 
 100
AcDbEntity
8
reference_cross001
 6
CONTINUOUS
 100
AcDbLine
 10
77.479000000000
 20
33.900000000000
 30
 0.0
 11
75.979000000000
 21
33.900000000000
 31
0.0
0
LINE
  5
0000015c
 39
 0.100 
 100
AcDbEntity
8
reference_cross001
 6
CONTINUOUS
 100
AcDbLine
 10
76.729000000000
 20
33.150000000000
 30
 0.0
 11
76.729000000000
 21
34.650000000000
 31
0.0
0
LINE
  5
0000015d
 39
 0.100 
 100
AcDbEntity
8
reference_cross001
 6
CONTINUOUS
 100
AcDbLine
 10
97.749000000000
 20
21.800000000000
 30
 0.0
 11
96.249000000000
 21
21.800000000000
 31
0.0
0
LINE
  5
0000015e
 39
 0.100 
 100
AcDbEntity
8
reference_cross001
 6
CONTINUOUS
 100
AcDbLine
 10
96.999000000000
 20
21.050000000000
 30
 0.0
 11
96.999000000000
 21
22.550000000000
 31
0.0
0
LINE
  5
0000015f
 39
 0.100 
 100
AcDbEntity
8
reference_cross001
 6
CONTINUOUS
 100
AcDbLine
 10
97.749000000000
 20
36.250000000000
 30
 0.0
 11
96.249000000000
 21
36.250000000000
 31
0.0
0
LINE
  5
00000160
 39
 0.100 
 100
AcDbEntity
8
reference_cross001
 6
CONTINUOUS
 100
AcDbLine
 10
96.999000000000
 20
35.500000000000
 30
 0.0
 11
96.999000000000
 21
37.000000000000
 31
0.0
0
LINE
  5
00000161
 39
 0.100 
 100
AcDbEntity
8
reference_cross001
 6
CONTINUOUS
 100
AcDbLine
 10
97.749000000000
 20
7.350000000000
 30
 0.0
 11
96.249000000000
 21
7.350000000000
 31
0.0
0
LINE
  5
00000162
 39
 0.100 
 100
AcDbEntity
8
reference_cross001
 6
CONTINUOUS
 100
AcDbLine
 10
96.999000000000
 20
6.600000000000
 30
 0.0
 11
96.999000000000
 21
8.100000000000
 31
0.0
0
LINE
  5
00000163
 39
 0.100 
 100
AcDbEntity
8
reference_cross001
 6
CONTINUOUS
 100
AcDbLine
 10
118.749000000000
 20
21.800000000000
 30
 0.0
 11
117.249000000000
 21
21.800000000000
 31
0.0
0
LINE
  5
00000164
 39
 0.100 
 100
AcDbEntity
8
reference_cross001
 6
CONTINUOUS
 100
AcDbLine
 10
117.999000000000
 20
21.050000000000
 30
 0.0
 11
117.999000000000
 21
22.550000000000
 31
0.0
0
LINE
  5
00000165
 39
 0.100 
 100
AcDbEntity
8
reference_cross001
 6
CONTINUOUS
 100
AcDbLine
 10
118.749000000000
 20
36.250000000000
 30
 0.0
 11
117.249000000000
 21
36.250000000000
 31
0.0
0
LINE
  5
00000166
 39
 0.100 
 100
AcDbEntity
8
reference_cross001
 6
CONTINUOUS
 100
AcDbLine
 10
117.999000000000
 20
35.500000000000
 30
 0.0
 11
117.999000000000
 21
37.000000000000
 31
0.0
0
LINE
  5
00000167
 39
 0.100 
 100
AcDbEntity
8
reference_cross001
 6
CONTINUOUS
 100
AcDbLine
 10
118.749000000000
 20
7.350000000000
 30
 0.0
 11
117.249000000000
 21
7.350000000000
 31
0.0
0
LINE
  5
00000168
 39
 0.100 
 100
AcDbEntity
8
reference_cross001
 6
CONTINUOUS
 100
AcDbLine
 10
117.999000000000
 20
6.600000000000
 30
 0.0
 11
117.999000000000
 21
8.100000000000
 31
0.0
0
LINE
  5
00000169
 39
 0.100 
 100
AcDbEntity
8
reference_cross001
 6
CONTINUOUS
 100
AcDbLine
 10
139.749000000000
 20
21.800000000000
 30
 0.0
 11
138.249000000000
 21
21.800000000000
 31
0.0
0
LINE
  5
0000016a
 39
 0.100 
 100
AcDbEntity
8
reference_cross001
 6
CONTINUOUS
 100
AcDbLine
 10
138.999000000000
 20
21.050000000000
 30
 0.0
 11
138.999000000000
 21
22.550000000000
 31
0.0
0
LINE
  5
0000016b
 39
 0.100 
 100
AcDbEntity
8
reference_cross001
 6
CONTINUOUS
 100
AcDbLine
 10
139.749000000000
 20
36.250000000000
 30
 0.0
 11
138.249000000000
 21
36.250000000000
 31
0.0
0
LINE
  5
0000016c
 39
 0.100 
 100
AcDbEntity
8
reference_cross001
 6
CONTINUOUS
 100
AcDbLine
 10
138.999000000000
 20
35.500000000000
 30
 0.0
 11
138.999000000000
 21
37.000000000000
 31
0.0
0
LINE
  5
0000016d
 39
 0.100 
 100
AcDbEntity
8
reference_cross001
 6
CONTINUOUS
 100
AcDbLine
 10
139.749000000000
 20
7.350000000000
 30
 0.0
 11
138.249000000000
 21
7.350000000000
 31
0.0
0
LINE
  5
0000016e
 39
 0.100 
 100
AcDbEntity
8
reference_cross001
 6
CONTINUOUS
 100
AcDbLine
 10
138.999000000000
 20
6.600000000000
 30
 0.0
 11
138.999000000000
 21
8.100000000000
 31
0.0
0
LINE
  5
0000016f
 39
 0.100 
 100
AcDbEntity
8
reference_cross001
 6
CONTINUOUS
 100
AcDbLine
 10
160.749000000000
 20
21.800000000000
 30
 0.0
 11
159.249000000000
 21
21.800000000000
 31
0.0
0
LINE
  5
00000170
 39
 0.100 
 100
AcDbEntity
8
reference_cross001
 6
CONTINUOUS
 100
AcDbLine
 10
159.999000000000
 20
21.050000000000
 30
 0.0
 11
159.999000000000
 21
22.550000000000
 31
0.0
0
LINE
  5
00000171
 39
 0.100 
 100
AcDbEntity
8
reference_cross001
 6
CONTINUOUS
 100
AcDbLine
 10
160.749000000000
 20
36.250000000000
 30
 0.0
 11
159.249000000000
 21
36.250000000000
 31
0.0
0
LINE
  5
00000172
 39
 0.100 
 100
AcDbEntity
8
reference_cross001
 6
CONTINUOUS
 100
AcDbLine
 10
159.999000000000
 20
35.500000000000
 30
 0.0
 11
159.999000000000
 21
37.000000000000
 31
0.0
0
LINE
  5
00000173
 39
 0.100 
 100
AcDbEntity
8
reference_cross001
 6
CONTINUOUS
 100
AcDbLine
 10
160.749000000000
 20
7.350000000000
 30
 0.0
 11
159.249000000000
 21
7.350000000000
 31
0.0
0
LINE
  5
00000174
 39
 0.100 
 100
AcDbEntity
8
reference_cross001
 6
CONTINUOUS
 100
AcDbLine
 10
159.999000000000
 20
6.600000000000
 30
 0.0
 11
159.999000000000
 21
8.100000000000
 31
0.0
0
LINE
  5
00000175
 39
 0.100 
 100
AcDbEntity
8
reference_cross001
 6
CONTINUOUS
 100
AcDbLine
 10
196.850000000000
 20
21.800000000000
 30
 0.0
 11
195.350000000000
 21
21.800000000000
 31
0.0
0
LINE
  5
00000176
 39
 0.100 
 100
AcDbEntity
8
reference_cross001
 6
CONTINUOUS
 100
AcDbLine
 10
196.100000000000
 20
21.050000000000
 30
 0.0
 11
196.100000000000
 21
22.550000000000
 31
0.0
0
LINE
  5
00000177
 39
 0.100 
 100
AcDbEntity
8
reference_cross001
 6
CONTINUOUS
 100
AcDbLine
 10
321.850000000000
 20
21.800000000000
 30
 0.0
 11
320.350000000000
 21
21.800000000000
 31
0.0
0
LINE
  5
00000178
 39
 0.100 
 100
AcDbEntity
8
reference_cross001
 6
CONTINUOUS
 100
AcDbLine
 10
321.100000000000
 20
21.050000000000
 30
 0.0
 11
321.100000000000
 21
22.550000000000
 31
0.0
0
ENDSEC
0
SECTION
2
OBJECTS
0
DICTIONARY
5
C
330
0
100
AcDbDictionary
281
1
3
ACAD_GROUP
350
D
0
DICTIONARY
5
D
330
C
100
AcDbDictionary
281
1
0
ENDSEC
0
EOF
